<svg version="1.1" xmlns="http://www.w3.org/2000/svg" xmlns:xlink="http://www.w3.org/1999/xlink" width="85.79543" height="177.30392" viewBox="0,0,85.79543,177.30392"><defs><linearGradient x1="240.30844" y1="91.34805" x2="240.30844" y2="128.56728" gradientUnits="userSpaceOnUse" id="color-1"><stop offset="0" stop-color="#6e1f00"/><stop offset="1" stop-color="#320e00"/></linearGradient></defs><g transform="translate(-197.10229,-91.34804)"><g stroke-miterlimit="10"><path d="M197.10229,268.65196v-177.30391h85.79543v177.30391z" fill-opacity="0.01176" fill="#696969" stroke="none" stroke-width="0" stroke-linecap="butt"/><g stroke="#6b7680" stroke-width="0" stroke-linecap="butt"><path d="M254.09531,165.10563c0,-10.69642 1.62094,-20.00729 13.73582,-19.36757c11.34251,0.19015 13.73582,8.67115 13.73582,19.36757c0,10.69642 0.66538,18.74257 -14.11215,18.26039c-13.54374,-0.44192 -13.35949,-7.56397 -13.35949,-18.26039z" fill="#000000"/><path d="M253.78673,192.86553c0,-10.69642 1.62094,-20.00728 13.73582,-19.36757c11.34251,0.19015 13.73583,8.67115 13.73583,19.36757c0,10.69642 0.66539,18.74258 -14.11214,18.2604c-13.54372,-0.44192 -13.3595,-7.56398 -13.3595,-18.2604z" fill="#ffe1ad"/></g><path d="M262.98624,219.40691c0,9.03276 0.15558,15.04709 -11.28164,15.42028c-12.47912,0.40719 -11.91723,-6.38752 -11.91723,-15.42028c0,-9.03276 2.02107,-16.19468 11.59944,-16.35525c10.2306,-0.54021 11.59943,7.3225 11.59943,16.35526z" fill="#00300f" stroke="#6b7680" stroke-width="0" stroke-linecap="butt"/><path d="M240.10517,218.43799c0,9.03276 0.15558,15.04709 -11.28164,15.42028c-12.47912,0.40719 -11.91723,-6.38752 -11.91723,-15.42028c0,-9.03276 2.02107,-16.19468 11.59944,-16.35525c10.2306,-0.54021 11.59944,7.3225 11.59944,16.35526z" fill="#00300f" stroke="#6b7680" stroke-width="0" stroke-linecap="butt"/><path d="M262.19525,175.62388c0,20.71042 2.72748,34.49306 -22.40438,34.00382c-24.79159,-0.48262 -21.7688,-13.2934 -21.7688,-34.00382c0,-20.71042 -10.65897,-37.81733 22.08659,-37.49954c34.65069,0.33628 22.08659,16.78912 22.08659,37.49954z" fill="#000000" stroke="#6b7680" stroke-width="0" stroke-linecap="butt"/><path d="M262.03287,248.69476c0,9.03276 0.15558,15.98206 -11.28164,16.35525c-12.47912,0.40719 -11.91723,-7.3225 -11.91723,-16.35525c0,-9.03276 2.02107,-16.19468 11.59944,-16.35525c10.2306,-0.54022 11.59943,7.3225 11.59943,16.35526z" fill="#00300f" stroke="#6b7680" stroke-width="0" stroke-linecap="butt"/><path d="M239.15179,247.72584c0,9.03276 0.15559,15.98206 -11.28164,16.35525c-12.47912,0.40719 -11.91722,-7.32249 -11.91722,-16.35525c0,-9.03276 2.02107,-16.19468 11.59943,-16.35525c10.2306,-0.54022 11.59944,7.3225 11.59944,16.35526z" fill="#00300f" stroke="#6b7680" stroke-width="0" stroke-linecap="butt"/><path d="M227.55676,249.76979c12.2899,0 18.58766,5.97777 18.58766,13.35171c0,7.37394 -31.93936,7.37394 -31.93936,0c0,-7.37394 1.0618,-13.35171 13.3517,-13.35171z" fill="#bdbdbd" stroke="none" stroke-width="0" stroke-linecap="butt"/><path d="M251.49715,249.6794c12.2899,0 18.58767,5.97777 18.58767,13.35171c0,7.37394 -31.93937,7.37394 -31.93937,0c0,-7.37394 1.06179,-13.35171 13.3517,-13.35171z" fill="#bdbdbd" stroke="none" stroke-width="0" stroke-linecap="butt"/><path d="M234.92864,209.24634l-0.25424,-65.84665c0,0 2.38147,2.02403 8.45329,1.90676c6.58141,-0.12712 7.94482,-2.41523 7.94482,-2.41523v65.46529c0,0 -2.74821,1.04578 -8.51684,1.33473c-5.07556,0.25423 -7.62703,-0.44491 -7.62703,-0.44491z" fill="#009dff" stroke="none" stroke-width="0" stroke-linecap="butt"/><g stroke="#6b7680" stroke-width="0" stroke-linecap="butt"><path d="M227.23804,163.19887c0,10.69642 0.18422,17.81847 -13.3595,18.2604c-14.77752,0.48218 -14.11214,-7.56398 -14.11214,-18.2604c0,-10.69642 2.39331,-19.17742 13.73582,-19.36757c12.11488,-0.63971 13.73582,8.67115 13.73582,19.36757z" fill="#000000"/><path d="M225.9047,192.86553c0,10.69642 0.18422,17.81847 -13.3595,18.2604c-14.77752,0.48218 -14.11214,-7.56398 -14.11214,-18.2604c0,-10.69642 2.39331,-19.17742 13.73582,-19.36757c12.11488,-0.63971 13.73582,8.67115 13.73582,19.36757z" fill="#ffe1ad"/></g><g><path d="M238.09597,129.43879c-1.4626,0 -2.64828,-0.00018 -2.64828,-0.00039c0,-0.00021 1.18567,-0.00039 2.64828,-0.00039c1.4626,0 2.64827,0.00018 2.64827,0.00039c0,0.00021 -1.18567,0.00039 -2.64827,0.00039z" fill="#000000" stroke="none" stroke-width="0" stroke-linecap="butt"/><path d="M264.91553,118.73899c0,14.04097 -11.38245,25.42342 -25.42342,25.42342c-14.04096,0 -25.42341,-11.38245 -25.42341,-25.42342c0,-14.04096 11.38245,-25.42341 25.42341,-25.42341c14.04096,0 25.42342,11.38245 25.42342,25.42341z" fill="#ffe1ad" stroke="#6b7680" stroke-width="0" stroke-linecap="butt"/><path d="M236.6985,114.2518c-0.96834,0.72037 -1.95858,1.41502 -2.92355,2.13556c-0.60322,0.45042 -1.03582,1.11611 -1.64832,1.54795c0.70109,2.91238 0.27263,7.64884 -1.18107,8.94127c-2.67967,2.38237 -5.30744,1.86822 -7.76524,0.76071c-1.3983,-0.00253 -3.03026,-0.01449 -3.36047,-0.06166c-2.81621,-0.40217 -5.89,-1.75296 -8.50306,-2.77164c-4.33728,-1.69086 -6.86325,-3.92873 -6.24366,-9.05313c0.15482,-1.28042 0.65553,-2.52412 1.28596,-3.64929c0.7945,-1.41799 4.00134,-4.49003 5.36237,-5.36237c0.56405,-0.36152 1.31442,-0.32256 1.90676,-0.63559c0.7378,-0.38989 1.08331,-1.27241 1.67774,-1.85809c1.41512,-1.39427 2.40838,-3.01491 3.81351,-4.44909c1.74938,-1.71395 2.00405,-2.16616 4.4543,-3.45381c0.45729,-0.24031 1.0529,-0.14112 1.49499,-0.40837c0.59485,-0.35959 0.88791,-1.148 1.52798,-1.41906c3.6696,-1.55403 8.33414,-1.75063 12.17895,-2.38975c3.2762,-0.5446 6.41836,-0.93258 9.77349,-0.71664c1.24694,0.08025 2.58599,-0.13749 3.73096,0.36286c1.2417,0.54263 2.03639,1.79071 3.10471,2.62435c1.90119,1.48356 4.33387,2.43464 6.06881,4.12926c1.59089,1.55391 2.60517,3.89133 4.50123,5.22386c0.90102,0.63322 2.06478,0.85846 2.90983,1.56464c0.66021,0.5517 0.99142,1.40646 1.48713,2.1097c3.32153,2.03663 7.10861,5.7834 4.30992,10.60705c-1.02107,1.75984 -3.80365,1.47183 -5.77386,1.97964c-1.23094,0.31727 -2.54246,0.01709 -3.81351,0c-2.72006,-0.03658 -5.76171,-0.57634 -8.28431,-1.67867c-2.62342,-1.14638 -4.68489,-3.21943 -7.42936,-4.16912c-1.27137,-0.43994 -4.49578,0.12752 -5.89623,0.12752c-2.25952,0 -4.51939,-0.09094 -6.766,-0.03809z" fill="url(#color-1)" stroke="none" stroke-width="0.5" stroke-linecap="butt"/><path d="M256.50726,123.29402c0,2.45717 -1.3072,4.4491 -2.91972,4.4491c-1.61252,0 -2.91972,-1.99193 -2.91972,-4.44909c0,-2.45717 1.3072,-4.4491 2.91972,-4.4491c1.61252,0 2.91972,1.99193 2.91972,4.4491z" fill="#000000" stroke="none" stroke-width="0" stroke-linecap="butt"/><path d="M252.55123,136.29995l-12.04178,0.34135" fill="none" stroke="#000000" stroke-width="2.5" stroke-linecap="round"/><path d="M241.67692,123.08215c0,2.45717 -1.3072,4.4491 -2.91972,4.4491c-1.61252,0 -2.91972,-1.99193 -2.91972,-4.44909c0,-2.45717 1.3072,-4.4491 2.91972,-4.4491c1.61252,0 2.91972,1.99193 2.91972,4.4491z" fill="#000000" stroke="none" stroke-width="0" stroke-linecap="butt"/></g></g></g></svg>