<svg version="1.1" xmlns="http://www.w3.org/2000/svg" xmlns:xlink="http://www.w3.org/1999/xlink" width="634.44561" height="589" viewBox="0,0,634.44561,589"><defs><linearGradient x1="239.71692" y1="103.82887" x2="239.71692" y2="113.53533" gradientUnits="userSpaceOnUse" id="color-1"><stop offset="0" stop-color="#000000"/><stop offset="1" stop-color="#333333"/></linearGradient><linearGradient x1="239.77461" y1="114.18243" x2="239.77461" y2="123.88888" gradientUnits="userSpaceOnUse" id="color-2"><stop offset="0" stop-color="#000000"/><stop offset="1" stop-color="#333333"/></linearGradient><linearGradient x1="239.71692" y1="124.21243" x2="239.71692" y2="133.91888" gradientUnits="userSpaceOnUse" id="color-3"><stop offset="0" stop-color="#000000"/><stop offset="1" stop-color="#333333"/></linearGradient><linearGradient x1="239.71692" y1="134.56598" x2="239.71692" y2="144.27243" gradientUnits="userSpaceOnUse" id="color-4"><stop offset="0" stop-color="#000000"/><stop offset="1" stop-color="#333333"/></linearGradient><linearGradient x1="240.22541" y1="144.91951" x2="240.22541" y2="154.62598" gradientUnits="userSpaceOnUse" id="color-5"><stop offset="0" stop-color="#000000"/><stop offset="1" stop-color="#333333"/></linearGradient><linearGradient x1="240.2831" y1="155.27308" x2="240.2831" y2="164.97953" gradientUnits="userSpaceOnUse" id="color-6"><stop offset="0" stop-color="#000000"/><stop offset="1" stop-color="#333333"/></linearGradient><radialGradient cx="105.99999" cy="104.99999" r="132.47747" gradientUnits="userSpaceOnUse" id="color-7"><stop offset="0" stop-color="#ff0000"/><stop offset="1" stop-color="#ff0000" stop-opacity="0"/></radialGradient></defs><g transform="translate(94.94561,82.5)"><g stroke="none" stroke-miterlimit="10"><path d="M-28.5,412.5v-495h537v495z" fill="#e2e2e2" stroke-width="0"/><path d="M-40.5,506.5v-237h561v237z" fill="#0022bd" stroke-width="0"/><g stroke-width="0"><path d="M182.09286,266.91463v-173.82927h115.81429v173.82927z" fill="#333333"/><path d="M191.27326,164.47953v-61.46106h96.50792v61.46106z" fill="#000000"/></g><g stroke-width="0"><path d="M190.76083,113.53533v-9.70645h97.91217v9.70645z" fill="url(#color-1)"/><path d="M190.81852,123.88888v-9.70645h97.91217v9.70645z" fill="url(#color-2)"/><path d="M190.76083,133.91888v-9.70645h97.91217v9.70645z" fill="url(#color-3)"/><path d="M190.76083,144.27243v-9.70645h97.91217v9.70645z" fill="url(#color-4)"/><path d="M191.26933,154.62598v-9.70645h97.91217v9.70645z" fill="url(#color-5)"/><path d="M191.32702,164.97953v-9.70645h97.91217v9.70645z" fill="url(#color-6)"/></g><path d="M-59.5,427v-494h599v494z" fill-opacity="0.50196" fill="#000000" stroke-width="0"/><path d="M-94.44561,75.15618c-0.27614,0 -0.5,-0.11193 -0.5,-0.25c0,-0.13807 0.22386,-0.25 0.5,-0.25c0.27614,0 0.5,0.11193 0.5,0.25c0,0.13807 -0.22386,0.25 -0.5,0.25z" fill="#5c0000" stroke-width="0"/><g><g stroke-width="0.5"><path d="M-59.50048,134.93734c-1.32656,1.64253 -6.01137,6.64366 -11.34613,2.95314c-6.31568,-4.36911 -0.91093,-12.18183 -0.91093,-12.18183l2.60215,-3.06879c8.52079,-7.18131 17.16135,-16.0498 27.21093,-20.01036c4.39682,-1.7328 9.17001,-3.33058 13.3849,-2.67737c7.20931,1.11726 12.39901,5.42755 16.17901,11.07924c2.25013,-0.70789 4.08358,1.44138 6.07671,2.22807c6.0582,2.3912 11.25688,5.94147 16.59937,9.37638c1.30849,-0.04604 2.72151,0.31261 4.18333,1.32388c1.27087,0.87918 2.06717,1.89779 2.52842,2.96412c1.07493,0.67875 2.20552,1.22852 3.51634,1.26119c1.12476,0.02803 1.8786,-1.80864 2.82283,-2.70661c2.11004,-2.00668 4.22663,-4.00486 6.33994,-6.00729c4.6617,-2.52054 9.19526,-5.41895 13.778,-8.16844c2.00465,-1.20273 3.93004,-3.26211 6.0558,-3.49314c6.21503,-0.67545 12.53779,-0.73672 18.19474,0.85757c4.47165,1.26024 7.04528,4.36032 8.57706,8.26268c1.55408,-2.19187 3.07527,-4.39694 4.52737,-6.62239c0.47311,-1.04157 0.95861,-2.05763 1.44461,-3.03697c-1.04871,-3.68592 -2.06876,-7.38534 -2.90202,-11.17268c-0.73362,-3.33447 -1.39102,-6.70269 -2.04051,-10.07351c-0.1702,-0.88335 -0.15216,-1.84955 -0.41815,-2.68692c-0.04037,-0.12708 -0.19584,-0.20295 -0.34636,-0.27138c-5.15857,1.36759 -6.80341,0.79504 -12.78723,1.30142c-5.43565,0.45999 -10.93745,1.36165 -16.30398,1.35362c-3.15655,-0.00473 -6.2151,-0.48899 -9.37266,-0.48823c-2.35742,0.00057 -4.82581,0.65969 -7.14761,0.49224c-1.68213,-0.12131 -3.1826,-0.82734 -4.72796,-1.3487c-6.74979,-2.27721 -12.25125,-6.90249 -17.97584,-10.93342c-0.25318,0.08755 -0.53633,0.1282 -0.75889,0.28972c-2.17335,1.57724 -4.24607,3.38958 -6.52605,4.71996c-2.86591,1.67228 -5.18473,2.71414 -8.17804,3.33327c-0.21505,0.07619 -0.43669,0.148 -0.66511,0.21511c-1.88159,0.55284 -3.36919,0.53615 -4.54472,0.18005c-0.43388,0.03847 -0.8689,0.09593 -1.30586,0.18562c-1.30296,0.26743 -2.5992,0.94571 -3.89884,1.12242c-3.9456,0.53648 -7.73187,-0.14568 -11.63031,-0.02857c-1.73305,0.05206 -3.54713,0.69922 -5.25464,0.6168c-1.24115,-0.05991 -2.23019,-0.89187 -3.44999,-1.03697c-0.90337,-0.10746 -1.91183,0.36087 -2.82494,0.29054c-2.88559,-0.22224 -6.56292,-1.00349 -9.31063,-2.58306c-0.22777,0.23844 -0.43505,0.4767 -0.59961,0.71456c-1.48168,0.60923 -3.2673,0.96127 -4.3232,2.32141l-10.352,0.73732c0,0 -6.31568,-4.36911 -0.91093,-12.18183c2.17911,-3.14997 4.50629,-4.31969 6.50792,-4.59392c0.51336,-0.23418 1.02983,-0.36604 1.54497,-0.33564c3.7542,-5.4268 3.42196,-6.6211 11.65511,-6.70061c3.82206,-0.03691 5.99698,4.69993 9.94909,4.74604c1.1318,0.01321 2.3352,-0.36944 3.43959,-0.23959c1.07598,0.12651 1.91365,0.93696 3.00631,0.9975c1.1241,0.06227 2.3334,-0.59606 3.47735,-0.63831c2.07091,-0.07648 4.06779,0.23797 6.11708,0.284c0.02305,0.00052 0.0461,0.00096 0.06917,0.00133c-0.60551,-3.47293 -0.58075,-7.13735 -0.95119,-10.73501c-0.22319,-2.16761 -1.56898,-4.22687 -0.79144,-6.46208c1.40202,-4.03039 3.93692,-7.9061 6.88837,-11.06477c2.15703,-2.30848 5.1074,-3.52245 7.83093,-4.68799c2.73707,-1.17134 5.56327,-1.67245 8.35546,-2.46072c-1.71784,-1.37388 -3.36604,-2.86191 -5.11727,-4.17768c-1.14386,0.63007 -2.00332,0.88259 -2.00332,0.88259c-0.91535,0.16247 -1.87789,-0.00433 -2.74605,0.48741c-0.82814,0.46906 -1.22012,1.63709 -2.00686,2.20468c-1.57277,1.13466 -3.4032,1.66398 -4.963,2.82366c-4.37316,3.25138 -8.23561,8.02748 -12.9695,10.74258c-5.76776,3.30807 -12.06804,4.04991 -17.81111,3.36729c-3.74173,-0.44474 -5.25012,-1.73874 -7.79655,-3.50033l-3.19803,-1.1645c0,0 -7.25299,-2.75206 -3.1918,-11.26992c4.06119,-8.51786 11.31417,-5.7658 11.31417,-5.7658l4.58789,1.78977c1.06392,0.73601 2.57891,1.98793 3.97822,2.21338c7.04413,1.13488 11.8535,-6.2011 17.80144,-10.64796c1.43392,-1.07204 3.11946,-1.55104 4.58701,-2.55176c-3.37087,-1.90248 -6.96196,-3.29985 -10.86032,-3.62656c-1.59531,0.62897 -3.2187,1.05937 -4.8328,1.53361l-7.37849,-1.72094c0,0 -6.31568,-4.36911 -0.91093,-12.18183c3.7206,-5.37824 7.87287,-4.98366 10.09936,-4.21554c1.46806,-0.41279 2.93694,-0.81284 4.4063,-1.20064c14.08392,0.60923 24.48739,8.23995 34.8403,16.26844c2.7713,2.14909 6.55928,4.20727 9.808,6.84983c0.67754,0.97312 1.63574,1.77556 2.67935,2.4922c3.07175,3.34019 4.94433,7.62285 3.5606,13.74083c-1.61862,7.15653 -13.18575,11.24163 -17.48032,12.85942c-3.11992,1.17529 -6.30392,1.75549 -9.44793,2.73212c-0.2417,0.07508 -0.4863,0.22857 -0.72884,0.38072c0.20368,2.4038 0.51471,7.5146 0.57326,7.99516c0.18482,1.51719 0.72743,2.85764 1.36678,4.1526c1.28713,-0.97895 2.51792,-2.04207 3.91883,-2.92439c3.68877,-2.32327 8.76983,-4.41581 12.61288,-4.16746c1.88338,0.12171 3.21516,1.638 4.82274,2.45699c3.54549,2.45272 7.10698,4.88345 10.63693,7.3585c1.8046,1.26531 4.36005,3.19453 6.76329,3.23433c1.76214,0.02918 3.61204,-0.55834 5.38146,-0.56802c5.7217,-0.03131 11.34392,0.58151 17.13312,0.08154c5.22146,-0.45094 10.45279,-0.98324 15.66133,-1.32533c8.1505,-0.53532 9.42696,-2.52309 14.64663,2.18986c2.45996,2.22115 3.80754,5.24111 4.70334,8.55567l1.02189,-1.08316l-0.46709,-0.19851l1.60048,-3.14089c-2.91124,-3.60425 -7.76224,-6.07622 -11.00972,-8.3073c-6.74794,-4.63597 -14.14257,-7.81488 -20.84011,-12.49427c1.95572,-5.37658 2.67187,-11.26885 5.86716,-16.12973c0.50033,-0.76114 1.11185,-1.39427 1.79283,-1.948c3.06086,-0.01829 4.63852,-1.377 5.50838,-3.27569c0.52171,-0.30434 1.02967,-0.62539 1.51116,-0.978c0.02912,-0.02133 0.05821,-0.04368 0.08726,-0.06699c-0.33478,-0.26541 -0.65441,-0.55994 -0.9666,-0.86891c0.22978,-0.98546 0.36251,-2.03135 0.472,-3.06146c0.45582,0.02196 0.90775,-0.01121 1.35317,-0.15761c2.71842,-0.8935 5.30556,-2.39952 7.61241,-4.18983c0.96849,-0.75163 2.28232,-2.44258 3.61873,-4.45398c0.30039,-0.07057 0.59641,-0.15527 0.88718,-0.25643c2.7475,3.31615 5.14892,6.94814 6.02549,11.41314c1.03503,5.27216 -7.07339,12.30899 -10.97325,15.26037c1.54788,0.85747 3.07632,1.74814 4.59771,2.64768c4.69091,2.77358 9.63185,5.70363 13.80936,9.44424c3.21318,-5.46044 7.1358,-10.78542 11.75284,-14.11183c2.35532,-1.69692 5.07856,-2.40456 7.65035,-3.44573c0.90689,-0.36715 1.81413,-0.74652 2.72278,-1.11878c-1.0742,-0.71124 -2.15067,-1.42012 -2.84362,-2.52526c-1.10815,-1.76731 -1.21372,-4.20007 -1.83708,-6.2915c-1.55546,-5.21872 -3.0271,-11.2548 -0.46468,-17.50378c1.38414,-3.3755 4.28254,-6.08068 6.86261,-8.68036c1.53,-1.54163 3.0543,-3.14556 4.59513,-4.74911c-8.21185,-1.49045 -17.24681,-5.41095 -21.21025,-12.59773c-1.39198,-2.52402 -2.29136,-5.40822 -3.12196,-8.28789c-1.97743,-6.85566 -2.10682,-14.73856 0.20885,-22.42511c0.28676,-0.95186 2.01091,-4.0276 2.07172,-5.54795c0.02225,-0.55634 -0.18839,-1.06512 -0.28408,-1.59179c-1.47482,-1.43505 -4.47147,-5.44913 -0.2217,-11.5923c5.40475,-7.81273 11.72042,-3.44362 11.72042,-3.44362l3.99992,3.64641c0.57261,3.03978 1.68257,7.52155 1.35295,10.93375c-0.21237,2.19848 -0.78819,4.42818 -1.43129,6.62028c-0.85415,2.91153 -1.91935,3.33431 -2.11158,5.95197c-0.50203,6.83623 0.55136,14.32548 6.11554,17.27031c0.48902,0.25882 6.23976,2.90578 7.55315,3.24308c4.33533,1.1134 9.26286,0.35614 13.81694,0.57132c0,0 1.117,0.05732 2.41609,0.5901c0.36927,-0.21936 0.73902,-0.43713 1.10915,-0.65346c0.77792,-0.45467 1.68086,-0.29586 2.46746,-0.72497c1.6068,-0.87657 3.01928,-2.25191 4.62158,-3.14235c4.23479,-2.35339 7.35724,-2.5452 6.30901,-8.93579c-0.13246,-0.80754 -0.75233,-1.3374 -1.12849,-2.0061c-1.14717,-3.65348 -2.28412,-7.36512 -4.104,-10.57932l-1.30279,-2.00519c0,0 -4.28244,-6.6155 2.84214,-12.64567c7.12459,-6.03017 11.40703,0.58533 11.40703,0.58533l1.54822,2.39903c2.1814,3.99134 3.78064,8.41667 5.21611,12.89173c0.6381,1.65424 1.8298,3.0707 1.91429,4.96271c0.20668,4.62851 0.21554,9.46202 -1.05807,14.21161c-0.75613,2.81979 -3.09935,5.14978 -4.79856,7.62916c-1.08679,1.58578 -2.06496,3.3844 -3.54397,4.54371c-2.40591,1.88586 -5.22872,2.82063 -7.80153,4.34939c-2.09524,1.24499 -4.06729,2.81476 -6.19432,3.96692c-0.78742,0.42653 -1.68662,0.27857 -2.46746,0.72497c-2.42384,1.38569 -4.78499,2.97466 -7.04987,4.716c-3.39065,2.60688 -6.49657,5.68974 -9.57833,8.74994c-1.80704,1.79439 -3.20137,4.79662 -5.26981,5.79608c-0.08218,0.43885 -0.42698,0.90567 -0.34373,1.3073c0.25387,1.22473 1.055,2.15744 1.35655,3.36048c0.17988,0.7176 -0.21223,1.66052 0.06786,2.3221c0.12274,0.28991 0.62626,0.03805 0.93939,0.05707c0,0 5.98682,4.14161 1.31457,11.57067c0.01157,-0.0013 0.02314,-0.0026 0.03471,-0.00392c5.10416,-0.58075 6.49365,-1.28274 12.47252,-1.56568c0.60585,-0.02867 1.20663,-0.02783 1.804,-0.00822c0.01181,-0.01141 0.02364,-0.02281 0.03547,-0.03419c0.23672,-1.3799 0.62851,-2.79117 0.82655,-4.16097c0.22655,-1.56698 1.79573,-11.66847 2.05702,-12.51441c0.30171,-0.97677 1.60618,-1.61105 1.76446,-2.59688c0.22539,-1.40377 -0.48013,-2.60481 -0.72019,-3.90721c2.20924,-3.38342 3.71672,-7.41365 6.62771,-10.15027c5.24629,-4.93201 11.13497,-1.87422 15.91965,-1.36494c1.98212,0.21098 6.90376,-0.07748 9.22459,-0.79576c4.89132,-1.51382 8.83449,-4.17667 13.82805,-3.58638c6.02016,0.71164 12.02437,3.49317 9.63635,13.29441c-1.0229,4.19835 -6.57934,5.86466 -10.03401,8.52395c-2.13806,1.64581 -4.06073,5.82167 -5.65049,7.67343c-5.0929,5.93223 -11.96704,10.48704 -18.93482,11.12368c-1.30184,0.11895 -2.49294,-0.29392 -3.71276,-0.56889c-1.08566,1.4747 -2.34194,2.76191 -3.65414,3.98188c0.16202,1.46115 0.10875,2.89987 -0.6288,4.2864c-3.06626,5.76428 -6.69505,7.7749 -10.54303,8.43707c-1.0855,1.84079 -2.06637,3.5565 -4.74168,6.76604c-2.90651,3.48691 -5.74117,5.39964 -9.40407,7.60877c-0.76405,0.4608 -1.65808,0.56047 -2.37201,1.12636c-0.12684,0.10054 -0.25345,0.20187 -0.37985,0.30392c1.22025,0.97382 2.67876,2.63165 4.16348,4.52299c0.89571,0.29133 1.74573,0.66044 2.50644,1.11985c1.50743,-2.94483 3.2474,-5.83251 5.43941,-8.82975c2.16705,-2.96311 3.74929,-6.62996 6.5846,-8.82553c8.27209,-6.40565 16.47153,-6.90132 24.9071,-6.48065c3.95737,0.19735 7.6231,1.59615 11.63275,1.52657c2.79076,-0.04842 7.79289,-4.21332 9.69479,-5.33334c4.0534,-2.38702 4.58408,-2.25659 8.84315,-3.54838c1.70724,-0.45739 3.33215,-1.19077 4.98559,-1.8818c2.14675,-1.88529 5.70124,-3.8363 9.6035,-1.13677c6.31568,4.36911 0.91093,12.18183 0.91093,12.18183l-6.24047,5.06714c-2.71667,0.72783 -5.22487,2.15451 -7.97129,2.99731c-7.65823,2.13648 -13.56238,8.81486 -21.69568,9.49182c-2.72562,0.22686 -5.27722,-0.48688 -7.90555,-0.76897c-3.9762,-0.42676 -8.00747,-0.67982 -12.08708,-0.64116c-2.11833,0.02007 -3.74945,-0.24441 -6.11283,1.75739c-1.25449,1.06257 -1.62781,2.9171 -2.51814,4.33275c-1.21315,1.92894 -2.8318,3.60494 -3.93832,5.59182c-2.00307,3.59675 -3.03818,7.55893 -4.43314,11.37577c3.12246,5.24351 5.7543,10.80327 6.54283,17.18758c1.42081,-3.76052 2.54898,-7.60653 4.06683,-11.34362c1.71494,-4.22236 3.69233,-8.36458 5.59984,-12.52562c1.58414,-3.45563 5.39924,-12.32338 9.63424,-12.70113c8.45717,-0.75435 16.28035,2.44532 23.3849,5.89461c3.4574,1.67858 6.38006,4.3166 10.00245,5.67306c0.60823,0.22776 1.42031,0.45529 2.34343,0.67395c3.74538,-1.6206 6.60715,0.45308 7.59927,1.34424c1.05192,0.14025 1.93441,0.23813 2.49649,0.27957c3.17646,0.23418 6.43549,0.09064 9.65636,0.11964c1.59737,0.01438 3.19888,0.69167 4.79823,0.01051c2.34301,-0.99787 1.29882,-3.81863 2.53055,-5.26108c2.49324,-2.91977 4.82667,-6.8179 8.16251,-8.0198c2.91945,-1.05188 5.46697,1.21304 8.0433,2.18085c1.01952,0.38299 1.77282,1.22642 2.65923,1.83962c0.88641,0.61321 1.77282,1.22642 2.65923,1.83962l2.97873,6.66002c0,0 0.64412,8.61386 -7.64347,11.04886c-3.72963,1.09582 -5.91128,-0.04602 -7.18288,-1.63343c-1.93802,2.61899 -3.99914,5.10942 -6.60047,6.68306c-2.36201,1.42886 -4.92157,1.90384 -7.4941,2.14189c1.1273,1.66694 2.22002,3.36514 3.31723,5.05683c1.61569,2.4911 2.89183,5.90863 5.2137,7.90865c1.69381,1.45902 3.62815,2.60113 5.51272,3.79677c3.91194,2.48189 8.82253,-1.27683 13.40274,-1.20193c6.93418,0.11339 9.52037,3.80388 13.18581,8.89596l0.66443,4.77557c0,0 0.64412,8.61386 -7.64347,11.04886c-8.28759,2.43501 -8.93171,-6.17885 -8.93171,-6.17885l0.28088,-0.35362c-0.09428,-0.02009 -0.25775,-0.04615 -0.39569,-0.08152c-0.22717,0.14454 -0.4787,0.24229 -0.72008,0.29678c-2.06393,0.46589 -4.1298,0.81588 -6.18931,1.10665c-2.15467,0.3042 -4.40304,0.98468 -6.44561,0.67718c-6.76306,-1.01815 -14.53778,-6.77734 -18.40744,-12.24638c-3.47214,-4.90723 -6.14037,-10.52809 -9.83709,-15.22643c-2.44959,-3.1133 -5.13354,-5.99173 -7.79468,-8.89308c-3.21937,-0.63958 -6.31602,-1.51063 -9.17185,-2.60254c-3.52461,-1.34762 -6.38121,-3.91025 -9.75002,-5.55952c-3.18805,-1.56078 -7.07161,-2.29271 -9.84376,-4.41144c-1.70492,3.75569 -3.50871,7.48137 -5.05423,11.28708c-2.13666,5.26135 -3.58872,10.71662 -5.97097,15.89957c-2.34397,5.09966 -5.43584,9.88727 -8.15376,14.8309c0,0 -1.36038,2.46382 -3.7214,4.16079c0.00009,0.00035 0.00019,0.0007 0.00028,0.00105c0.69251,-0.31973 1.39241,-0.60298 2.09147,-0.8512c3.14533,-1.11684 6.22225,-1.25088 9.24088,-1.04033c0.68136,-0.48876 1.19136,-0.84321 1.44848,-1.01305c7.12155,-4.70432 14.85276,-7.74992 22.19515,-11.88455c2.13633,-1.20301 4.01959,-3.29075 6.25959,-4.00522c3.41351,-1.08876 7.65017,-3.06611 10.2571,-1.2629c5.75197,3.97864 4.25374,14.49405 10.31765,17.99476l2.65923,1.83962c0,0 6.31568,4.36911 0.91093,12.18183c-5.40475,7.81273 -11.72042,3.44362 -11.72042,3.44362l-2.65923,-1.83962c-0.77958,-0.57837 -1.47178,-1.06914 -2.09617,-1.52198c0.30675,1.02336 0.59342,2.05689 0.84937,3.10604c0.12599,0.51643 -0.23428,1.20768 -0.03712,1.6849c0.66236,1.6032 5.08599,5.41572 5.46939,5.72864c2.96734,2.42186 6.44089,4.4334 9.59012,6.61201c1.82434,1.26205 4.71445,1.61235 5.50162,3.79854c4.17869,-1.62029 8.31601,-3.00535 12.41753,-4.72205c1.70821,-2.04051 3.46708,-2.98473 5.05794,-3.33345c2.17425,-1.63029 5.35983,-2.89113 8.81861,-0.49839c2.77683,1.92098 3.28796,4.50766 2.98893,6.8033c1.24093,1.96144 1.19353,3.53195 2.58504,6.7676c0.73275,1.70384 1.94786,3.08865 2.52675,4.88462c0.37562,1.16535 -0.05032,2.66161 0.28766,3.84689c0.61866,2.16962 1.84648,3.20837 3.47303,3.8904c2.38369,-0.26794 7.08006,0.0338 7.55855,6.43262c0.64412,8.61386 -7.64347,11.04886 -7.64347,11.04886l-5.58945,0.38775c-6.7589,-2.25069 -11.30701,-6.22395 -13.77632,-13.52517c-0.3912,-1.15669 0.07706,-2.67563 -0.28766,-3.84689c-0.36423,-1.1697 -1.35789,-1.90844 -1.84565,-3.00401c-0.42759,-0.96043 -0.49042,-2.22365 -0.76404,-3.29396c-6.18807,2.77849 -12.7999,5.19196 -18.58383,6.26351c-0.51208,0.09487 -1.02152,0.13277 -1.52725,0.1217c-1.50685,3.79163 -3.2822,8.25612 -3.35286,8.42072c-0.80794,1.88201 -4.04392,7.0386 -3.21405,9.36654c1.0404,2.91853 2.65525,6.42501 4.70969,8.48508c0.85468,0.85702 2.12811,1.17097 3.00279,2.005c2.81264,2.68192 5.57845,5.43927 8.02551,8.51075c0.7434,0.9331 0.75688,2.44708 1.47052,3.40843c1.90792,2.57019 4.7503,4.24909 6.39324,7.04678c2.62598,4.47166 3.29675,8.93134 3.52339,14.49429l-1.55513,4.99219c0,0 -3.1302,8.79344 -10.83091,7.11914c-7.70071,-1.6743 -4.57051,-10.46773 -4.57051,-10.46773l0.26728,-0.4357c-0.05434,-0.08443 -0.01904,-0.75411 -0.41761,-1.84185c-0.78454,-2.1411 -0.84413,-2.34497 -2.2851,-3.88364c-1.5044,-1.6064 -3.27829,-2.93314 -4.60874,-4.71423c-0.7521,-1.00686 -0.80634,-2.56653 -1.57226,-3.56039c-1.66678,-2.16279 -3.65595,-4.00931 -5.6542,-5.81656c-1.10929,-1.00326 -2.62211,-1.49249 -3.64529,-2.59406c-1.75207,-1.8863 -3.23086,-4.06401 -4.61398,-6.29797c-2.62474,-4.23938 -4.65331,-9.82793 -4.28753,-15.4893c0.35296,-5.46301 2.85283,-10.04998 5.04028,-15.13745c1.58943,-3.69663 2.9884,-7.44906 4.44467,-11.18475c-7.16383,-4.85567 -14.53976,-9.50682 -18.36253,-18.08994c-0.44388,-0.99663 -0.14802,-2.3504 -0.42067,-3.44429c-0.37544,-1.50632 -1.29727,-2.74287 -1.51346,-4.31569c-0.01267,-0.0922 -0.01764,-0.18563 -0.0162,-0.28009c-0.89108,0.09428 -1.77846,0.14526 -2.65686,0.15373c-2.0908,0.02015 -4.13525,-0.19395 -6.20069,-0.3007c-3.22041,-0.16643 -6.39016,-0.5442 -9.56946,-0.87945c-1.63303,1.47233 -3.24594,3.00865 -4.88572,4.45583c0.19003,0.83747 0.36892,1.68151 0.77404,2.37641c0.9336,1.6014 2.16483,2.98348 3.547,4.13259c2.48225,2.06369 5.32835,3.63023 7.98563,5.45538c2.26667,1.55686 4.15378,3.71781 6.68583,4.83361c2.86406,1.2621 5.56592,-3.17306 8.65532,0.94441c5.93373,7.90834 -0.64238,19.68779 -1.51168,29.05574c-0.15302,1.64895 0.40419,3.14553 0.39745,4.77154c-0.00803,1.93736 -0.98411,4.03377 -0.77743,5.91334c0.11855,1.07816 0.79676,1.92863 0.85658,3.0245c0.09956,1.82369 0.45478,4.20998 -0.91312,5.65218l0.42132,-0.27125c0,0 4.28244,6.6155 -2.84214,12.64567c-7.12459,6.03017 -11.40703,-0.58533 -11.40703,-0.58533l-2.42968,-4.67547c0.10604,-2.6184 0.8729,-5.37273 0.59547,-7.89578c-0.11855,-1.07816 -0.79676,-1.92863 -0.85658,-3.0245c-0.13505,-2.47385 0.74688,-5.13149 0.73116,-7.63462c-0.01167,-1.85708 -0.55317,-3.59851 -0.36965,-5.48684c0.35923,-3.69625 1.24645,-7.42544 1.98533,-11.13732c0.24286,-1.22005 0.26472,-2.54258 0.39961,-3.82274c-3.95586,-1.4767 -7.45859,-4.61251 -10.43026,-6.68168c-7.57494,-5.27444 -10.48812,-6.10463 -15.44324,-13.93746c-0.93501,-1.47803 -1.01189,-3.54576 -1.80656,-5.13239c-0.1782,-0.3558 -0.35003,-0.68943 -0.51681,-1.00339c-1.18854,0.74725 -2.60068,1.59174 -4.37245,2.65203c-1.27737,0.76443 -2.55935,1.47532 -3.8466,2.13435c-0.22794,0.95171 -0.30353,1.94663 -0.53201,2.90673c2.0575,0.859 4.4571,1.30697 5.82896,3.05627c2.67943,3.41662 5.04476,7.45207 5.72812,12.14007c0.48767,3.34547 -1.45753,7.11626 -2.40496,10.65727c-0.51156,1.91197 -4.06311,12.72712 -5.12713,15.12698c-0.96583,2.17838 -2.40703,4.16947 -3.37618,6.34674c-1.49249,3.35301 -2.47642,6.85919 -3.99115,10.2046c-0.46952,1.03697 -1.36934,1.85468 -1.92282,2.85689c-1.44599,2.61831 -2.70571,5.34773 -4.38839,7.83015c-0.08225,0.11444 -1.37768,2.16563 -2.77525,3.93329c1.12761,0.72179 2.20062,1.57135 3.40551,2.13684c1.80041,0.84499 4.06799,0.70092 5.8409,1.59561c1.55246,0.78344 2.82357,2.01115 4.23536,3.01672l3.83827,7.00126c0,0 3.67599,7.09343 -3.77963,12.55338c-7.45561,5.45995 -11.1316,-1.63347 -11.1316,-1.63347l-2.0095,-4.2739c-0.04443,0.17815 -1.07993,0.01672 -1.46297,-0.08691c-1.38487,-0.37467 -2.80249,-0.70067 -4.07862,-1.30718c-3.17556,-1.50925 -6.69297,-2.60753 -9.24408,-5.0247c-2.67294,-2.5326 -6.25167,-5.28934 -6.09624,-9.51021c0.39669,-10.77223 6.67883,-10.91447 10.6265,-17.13893c3.92537,-5.46022 5.61064,-11.29194 8.27384,-17.32808c1.62233,-3.677 3.72047,-7.22301 4.97416,-10.99475c0.83947,-2.52557 1.54002,-5.07752 2.4395,-7.59088c0.43946,-1.22795 1.59345,-2.39453 1.57109,-3.61565c-0.0639,-3.48974 -5.806,-4.06357 -7.07887,-5.12794c-1.74002,-1.45499 -3.22582,-3.33648 -4.12965,-5.55121c-0.77691,-1.90374 -0.87955,-4.09088 -0.64515,-6.33991c-0.71233,0.12361 -1.42696,0.23479 -2.144,0.33376c-1.19628,0.16513 -2.28379,-0.38698 -3.47968,-0.22758c-0.83132,0.11081 -1.66833,0.27636 -2.50932,0.4838c-2.59946,1.57682 -5.2277,2.99014 -7.97437,3.75348c-0.98488,0.27371 -1.8155,0.26212 -2.54288,0.06277c-1.34207,0.53161 -2.67607,1.03489 -3.99506,1.45828c-1.35211,2.41486 -2.69369,4.83465 -3.98359,7.27864c-1.10487,2.09341 -2.46116,4.16496 -3.03289,6.39648c-1.49818,5.84755 -1.10351,10.34018 -1.39035,15.83974c-0.23473,4.50041 -0.71972,9.0402 -0.8341,13.52038c-0.05359,2.09897 0.66617,4.05616 0.33101,6.18532c-0.55959,3.55485 -1.45472,7.19017 -2.97448,10.6076c-2.60966,5.86825 -4.94535,6.62843 -9.67463,9.23076c-10.43382,5.74129 -11.03655,5.91667 -21.43066,10.92118c-2.07518,0.99915 -3.26392,2.14718 -5.11881,3.67061c-0.61664,0.50645 -1.47041,0.79599 -1.85582,1.50972c-0.35547,0.65827 0.07496,1.39136 -0.09196,2.09729c-0.03484,0.14736 -0.93814,2.69458 -1.60263,4.56217c-0.09855,2.27734 -1.00679,8.19117 -7.6445,10.14142c-8.28759,2.43501 -8.93171,-6.17885 -8.93171,-6.17885l0.491,-5.3916c1.01061,-2.83903 2.50311,-9.54632 3.68156,-11.54806c3.68893,-6.26613 10.68811,-11.88559 16.74108,-14.89238c0.5268,-0.26169 1.0546,-0.51963 1.58306,-0.77514c-1.85095,-1.09167 -3.69394,-2.19582 -5.51397,-3.33594c-2.11615,-1.32562 -4.20279,-2.70591 -6.16059,-4.25737c-0.2133,-0.16903 0.02218,-0.82179 -0.26402,-0.83384c-2.40292,-0.10109 -5.85358,3.49845 -7.41763,4.79228c-2.76226,2.28502 -5.68935,4.31168 -8.36842,6.72152c-1.61904,1.45633 -2.84937,3.3921 -4.47837,4.83424c-1.8898,1.67303 -4.11909,2.77838 -6.02914,4.42154l-2.20728,1.86822c-3.0022,2.64341 -7.01044,3.30168 -9.85148,1.33628c-3.48805,-2.41299 -3.89589,-7.86698 -0.91093,-12.18183l1.70676,-2.46718c1.6673,-4.95509 6.06849,-8.77218 9.10273,-13.15828l1.13784,-1.64478c0,0 5.29141,-7.64889 11.52102,-3.57774c6.74931,-5.29269 14.0985,-9.44258 21.81397,-8.5813c1.99808,0.22305 3.42215,1.81342 5.05444,2.84541c6.03543,3.81582 12.01893,7.71418 18.16008,11.36474c0,0 1.09288,0.65003 2.05001,1.96254c0.05017,-0.02516 0.10035,-0.05026 0.15055,-0.07531c0.01127,-0.00562 0.02309,-0.0114 0.0354,-0.01729c0.27717,-0.81222 0.71865,-1.63667 0.77781,-2.44637c0.10337,-1.41454 -0.46763,-2.66986 -0.43609,-4.07307c0.10795,-4.80248 0.60726,-9.66929 0.85346,-14.49534c0.38739,-7.59372 -0.14431,-11.82274 2.18934,-20.59474c0.56416,-2.12062 2.12974,-5.51919 3.98732,-9.15684c-1.64964,0.70908 -3.30661,1.37264 -4.97864,1.94445c-8.9245,3.05201 -19.3698,7.16491 -23.87364,-3.83696c-0.81553,0.13171 -1.63052,0.2573 -2.44301,0.39608c-4.26563,0.72863 -8.52952,1.34888 -12.77894,1.81934c-0.00425,0.00047 -0.00799,0.00058 -0.01123,0.00034c-1.02473,1.06161 -2.13252,2.0517 -2.97803,3.26751c-4.64153,6.67431 -4.38879,9.09553 -7.47462,17.2405c-0.71954,1.89921 -1.18238,3.97929 -2.42699,5.62189c-5.8259,7.68886 -13.61921,7.99498 -21.48051,11.40508c-2.17778,0.94469 -4.30578,2.13672 -6.38031,3.42644c-1.0824,0.67292 -1.90649,1.94576 -3.044,2.4326c-4.90334,2.09856 -9.88004,4.26881 -14.88446,5.24051c-9.96781,1.93543 -19.45499,-3.88443 -27.59755,-7.1741c-1.72757,-0.74576 -3.51402,-1.38294 -5.18271,-2.23729c-1.26605,-0.64821 -2.12894,-1.94225 -3.44674,-2.49421c-1.58371,-0.66334 -3.5484,-0.44064 -5.12669,-1.11465c-5.15409,-2.20106 -9.78887,-6.62266 -14.37761,-9.79709l-1.99442,-1.37972c0,0 -6.31568,-4.36911 -0.91093,-12.18183c5.40475,-7.81273 11.72042,-3.44362 11.72042,-3.44362c2.43763,1.68632 6.86968,4.75236 9.30731,6.43868c1.65743,1.14659 3.02896,2.75573 4.90182,3.54018c1.58371,0.66334 3.5484,0.44064 5.12669,1.11465c3.03464,1.29595 5.35357,3.36702 8.46378,4.66146c0.20362,0.08226 0.40728,0.16443 0.61098,0.24653c-0.61416,-2.88446 -0.64306,-6.05442 -1.66845,-8.72261c-1.22526,-3.18825 -3.31492,-5.77885 -5.04262,-8.61186c-0.33592,-0.55083 -0.83075,-0.96611 -1.14639,-1.53218c-5.23441,0.5857 -10.55056,0.71493 -15.43398,-0.2661l-3.60416,-1.90052c0,0 -6.31568,-4.36911 -0.91093,-12.18183c5.40475,-7.81273 11.72042,-3.44362 11.72042,-3.44362l-0.94493,-0.0609c5.36953,1.34567 11.76075,-1.12288 17.10094,0.60276c3.01386,0.9739 5.67315,3.85886 7.3322,6.51616c2.33333,3.73728 4.88803,7.35245 6.55318,11.56962c1.30348,3.30119 1.42875,7.21476 2.26635,10.76679c0.96453,4.09033 1.95376,8.20344 2.3069,12.52654c0,0 0.02712,0.36272 -0.00137,0.96034c0.30657,-0.0269 0.6152,-0.06871 0.92589,-0.12694c2.84219,-0.53276 5.68395,-1.69621 8.4605,-2.92903c0.66931,-0.29718 1.05724,-1.19257 1.69914,-1.58194c3.0702,-1.86235 6.16901,-3.71218 9.37051,-5.13278c4.13628,-1.83539 8.33498,-3.41914 12.55051,-4.75536c4.18781,-12.69517 8.97688,-23.71825 20.19405,-32.13976c1.60234,-1.20299 3.54897,-1.53149 5.348,-1.90023c2.80556,-0.57505 5.60214,-0.89598 8.40011,-1.24144c-0.34942,-1.24939 -0.63637,-2.69449 -0.86723,-4.39609c-1.18366,-8.72435 2.7174,-9.81504 3.29401,-16.38212c0.10557,-1.2024 -0.39861,-2.33844 -0.06683,-3.54105c0.59144,-2.14381 1.32453,-4.32682 2.37847,-6.34958c-0.39888,-2.66277 -1.28788,-4.95277 -3.14697,-5.51123c-2.59688,-0.78009 -5.52153,-0.72843 -8.38477,-0.5063c-0.49423,0.03834 -0.69591,0.94437 -1.1548,1.24638c-4.16635,2.74201 -8.37527,5.51885 -12.78872,7.50005c-4.63391,4.53933 -10.84139,11.45407 -17.0204,12.08378c-3.86576,0.39396 -7.02338,-0.25387 -9.84472,-1.44781c-1.7516,3.06288 -3.21523,6.26616 -3.87251,9.42213c-0.50548,2.42708 -1.26946,4.8452 -1.69234,7.27313c-0.16966,0.9741 0.30741,1.85346 0.1578,2.82711c-0.15254,0.99272 -0.69464,1.95139 -1.04195,2.92708l0.26549,0.5204c0,0 0.64412,8.61386 -7.64347,11.04886c-8.28759,2.43501 -8.93171,-6.17885 -8.93171,-6.17885l-0.11806,-4.60879c0.34732,-0.97569 0.88699,-1.93428 1.04195,-2.92708c0.12528,-0.80265 -0.36563,-1.49912 -0.22575,-2.30208c0.55581,-3.1905 1.34307,-6.37904 2.09193,-9.56439c1.35543,-5.7654 3.95844,-11.32437 7.04428,-16.60272c-1.46583,-0.89045 -2.96699,-1.72486 -4.48374,-2.53307c-1.06062,2.03721 -2.95343,4.04662 -6.32074,5.03598c-6.65259,1.95462 -8.38007,-3.21014 -8.80276,-5.32405c-1.37351,-1.42436 -1.83706,-3.07528 -1.83174,-4.66285c-0.01226,-0.026 -0.02422,-0.05211 -0.03587,-0.07833c-2.21079,-4.97776 -2.96697,-9.73835 -9.23231,-10.94953c-1.6273,-0.31458 -3.53263,0.64753 -5.21691,1.47762c-7.60231,3.74678 -14.05955,10.02806 -20.65186,15.71713zM209.95728,132.7699c-0.00951,0.00425 -0.01902,0.00849 -0.02852,0.01274c0.0104,0.00403 0.0208,0.00807 0.03121,0.01211c-0.00091,-0.00828 -0.0018,-0.01657 -0.00269,-0.02485z" fill="#ff0000"/><g fill="url(#color-7)"><g><g><path d="M-2.94846,29.63079c41.62526,-60.17057 124.14708,-75.20451 184.31765,-33.57926c60.17057,41.62526 75.20451,124.14708 33.57926,184.31765c-41.62526,60.17057 -124.14708,75.20451 -184.31765,33.57926c-60.17057,-41.62526 -75.20451,-124.14708 -33.57926,-184.31765z"/><path d="M-2.94846,29.63079c41.62526,-60.17057 124.14708,-75.20451 184.31765,-33.57926c60.17057,41.62526 75.20451,124.14708 33.57926,184.31765c-41.62526,60.17057 -124.14708,75.20451 -184.31765,33.57926c-60.17057,-41.62526 -75.20451,-124.14708 -33.57926,-184.31765z"/></g><g><path d="M-2.94846,29.63079c41.62526,-60.17057 124.14708,-75.20451 184.31765,-33.57926c60.17057,41.62526 75.20451,124.14708 33.57926,184.31765c-41.62526,60.17057 -124.14708,75.20451 -184.31765,33.57926c-60.17057,-41.62526 -75.20451,-124.14708 -33.57926,-184.31765z"/><path d="M-2.94846,29.63079c41.62526,-60.17057 124.14708,-75.20451 184.31765,-33.57926c60.17057,41.62526 75.20451,124.14708 33.57926,184.31765c-41.62526,60.17057 -124.14708,75.20451 -184.31765,33.57926c-60.17057,-41.62526 -75.20451,-124.14708 -33.57926,-184.31765z"/></g></g><g><g><path d="M-2.94846,29.63079c41.62526,-60.17057 124.14708,-75.20451 184.31765,-33.57926c60.17057,41.62526 75.20451,124.14708 33.57926,184.31765c-41.62526,60.17057 -124.14708,75.20451 -184.31765,33.57926c-60.17057,-41.62526 -75.20451,-124.14708 -33.57926,-184.31765z"/><path d="M-2.94846,29.63079c41.62526,-60.17057 124.14708,-75.20451 184.31765,-33.57926c60.17057,41.62526 75.20451,124.14708 33.57926,184.31765c-41.62526,60.17057 -124.14708,75.20451 -184.31765,33.57926c-60.17057,-41.62526 -75.20451,-124.14708 -33.57926,-184.31765z"/></g><g><path d="M-2.94846,29.63079c41.62526,-60.17057 124.14708,-75.20451 184.31765,-33.57926c60.17057,41.62526 75.20451,124.14708 33.57926,184.31765c-41.62526,60.17057 -124.14708,75.20451 -184.31765,33.57926c-60.17057,-41.62526 -75.20451,-124.14708 -33.57926,-184.31765z"/><path d="M-2.94846,29.63079c41.62526,-60.17057 124.14708,-75.20451 184.31765,-33.57926c60.17057,41.62526 75.20451,124.14708 33.57926,184.31765c-41.62526,60.17057 -124.14708,75.20451 -184.31765,33.57926c-60.17057,-41.62526 -75.20451,-124.14708 -33.57926,-184.31765z"/></g></g></g></g><g><g><path d="M113.10055,94.43299c0.69029,0.00958 1.24833,0.12926 1.24642,0.26732c-0.00191,0.13805 -0.56306,0.24222 -1.25335,0.23264c-0.69029,-0.00958 -1.24833,-0.12926 -1.24642,-0.26732c0.00191,-0.13805 0.56306,-0.24221 1.25335,-0.23264z" fill="#5c0000" stroke-width="0"/><path d="M134.73058,205.74378c-2.49975,-0.03468 -2.46508,-2.53444 -2.46508,-2.53444l0.01388,-0.9999c0.0297,-1.54079 -0.11599,-3.09163 -0.40387,-4.60559c-0.03343,-0.30344 -0.06572,-0.6041 -0.09647,-0.90226c-0.82595,0.08331 -1.53753,-0.2849 -1.53753,-0.2849l-1.63615,-0.9911c-2.55796,-2.7355 -4.06365,-6.94494 -4.36499,-11.22002c-0.1733,0.41938 -0.37654,0.82519 -0.61391,1.21515c-0.47112,0.77396 -1.657,0.90043 -2.15394,1.65806c-1.49064,2.27262 -2.5867,6.20788 -3.15698,8.92665l-2.222,2.7469c0,0 -1.79212,1.74306 -3.5352,-0.04905c-1.74306,-1.79212 0.04904,-3.53519 0.04904,-3.53519l0.81933,-0.21118c0.66231,-3.03238 1.78388,-6.67682 3.30174,-9.56073l-1.34678,1.15746c0,0 -2.09915,1.35776 -3.45691,-0.74141c-1.35776,-2.09917 0.7414,-3.45692 0.7414,-3.45692l0.5634,0.15947c1.26455,-2.87248 -0.03875,-5.73094 1.12971,-8.51337c1.47869,-3.52122 3.23155,-1.99874 5.06888,-4.93015c0.27528,-0.43919 -0.15839,-1.02756 -0.16888,-1.54579c-0.007,-0.34569 0.00188,-1.22767 0.02038,-2.28752c-0.58468,0.21528 -1.17783,0.33551 -1.78978,0.245c-4.86415,-0.71958 -3.77923,-3.46104 -4.13651,-6.52246c-0.36149,-3.0976 -0.87414,-6.08364 -1.29472,-9.04918c-2.4033,0.46308 -4.80544,0.92035 -7.19609,1.26222c-0.34024,1.55647 -0.53917,2.60473 -0.33565,3.75824c0.11733,0.21272 0.21679,0.4338 0.28914,0.66772c0.08542,0.27612 0.14699,0.56598 0.1908,0.86646c0.14937,0.3453 0.33237,0.71426 0.55334,1.11723c0.69628,1.26971 2.79895,3.22603 3.1452,4.50479c0.10003,0.36943 0.11256,3.77774 0.0197,6.11075c0.14723,0.27093 0.27264,0.55268 0.368,0.84942c1.83269,5.70339 0.40989,11.511 -1.76716,16.74202l0.18474,-0.42596c0,0 -0.03468,2.49975 -2.53444,2.46507c-2.49975,-0.03468 -2.46507,-2.53444 -2.46507,-2.53444l0.19861,-1.42586c1.23465,-2.96658 2.28328,-6.10918 2.25093,-9.3401c-0.6188,0.89611 -1.22055,1.80498 -1.87756,2.67154c-0.12913,0.70395 -0.62063,2.09319 -2.48855,2.06727c-2.49975,-0.03468 -2.46508,-2.53445 -2.46508,-2.53445l0.57637,-2.05395c1.28946,-1.56084 2.25927,-3.36853 3.55036,-4.92801c0.28159,-0.34012 0.73164,-0.53582 1.10781,-0.78581c-0.90677,-1.23352 -2.10885,-2.58099 -2.36524,-3.17421c-0.84474,-1.95448 -0.97129,-4.16489 -1.11791,-6.28904c-0.04633,-0.67123 0.23283,-1.3698 0.21195,-2.03145c-0.10454,-0.31166 -0.19387,-0.61613 -0.2689,-0.91628c-0.4571,-0.8391 -1.31931,-1.476 -1.69135,-2.36667c-0.30551,-0.73139 -0.47843,-1.56778 -0.57123,-2.44186c-0.76227,0.00201 -1.5209,-0.01212 -2.27652,-0.03942c0.5663,3.38004 1.17902,7.09372 0.51517,10.39344c-1.15253,5.72873 -6.36933,10.88972 -6.20524,17.05541c0.1212,4.55426 2.10245,6.75387 4.73157,10.24142l2.21431,1.90609c0,0 1.88712,1.63974 0.24737,3.52687c-1.63975,1.88713 -3.52687,0.24739 -3.52687,0.24739l-2.58884,-2.26741c-3.22122,-4.25341 -5.45804,-7.12982 -5.97427,-12.24751c-0.85415,2.81764 -1.79908,5.54397 -1.27578,8.55717l0.00715,1.82059c0.00066,0.03012 0.00077,0.06035 0.00036,0.09071c-0.00439,0.31593 -0.06719,0.61739 -0.178,0.89418c-0.25359,0.71371 -0.86807,1.59153 -2.35645,1.57089c-1.48838,-0.02065 -2.07827,-0.91519 -2.31196,-1.63565c-0.10308,-0.27977 -0.1575,-0.58284 -0.15313,-0.89878c0.00074,-0.05331 0.00313,-0.10621 0.00716,-0.15866l0.04195,-0.92977c-0.72234,-5.25805 1.60591,-9.12512 2.26725,-14.20725c0.34331,-2.63824 -0.25888,-5.45028 0.63478,-7.95619c0.0211,-0.05918 0.044,-0.11735 0.06855,-0.17459l-0.70774,0.95638c0,0 -1.5276,1.97899 -3.50659,0.45139c-1.979,-1.5276 -0.4514,-3.5066 -0.4514,-3.5066l1.23871,-1.50338c0.81382,-3.96616 -2.15175,-3.2075 -4.22734,-6.68539c-1.38316,-2.31767 -1.92626,-4.82503 -2.12793,-7.38731c-0.53116,-0.00108 -1.06243,0.00037 -1.59374,0.00329c-0.64736,3.55236 -0.93677,7.04214 -0.73523,10.72341c0.15299,2.79469 2.12147,4.94555 2.8143,7.61176c1.57587,6.06436 1.75758,12.89558 0.80328,19.04017l-1.23355,1.89728c0,0 -1.79213,1.74307 -3.5352,-0.04905c-1.48519,-1.52697 -0.40386,-3.01835 -0.05138,-3.42621c0.72971,-5.26293 0.49657,-11.03991 -0.81645,-16.18182c-0.77294,-3.02695 -2.71147,-5.2275 -2.96316,-8.46994c-0.2926,-3.76954 0.01405,-7.443 0.63627,-11.10851c-1.95154,0.00413 -3.90171,-0.01911 -5.84827,-0.12404c0.1652,3.94067 0.61179,7.88243 1.16151,11.51976c0.14519,0.96071 0.48775,4.12587 1.08982,5.11228c1.4419,2.36233 4.74501,2.51163 3.07661,6.84247c-0.54164,1.40597 -2.60095,1.52166 -3.90143,2.28248l-0.67379,0.93732c0,0 -1.79212,1.74306 -3.5352,-0.04905c-0.00686,-0.00705 -0.01368,-0.01413 -0.02046,-0.02119c-0.72851,3.1913 -1.84764,6.30737 -3.01739,9.14063l0.18474,-0.42594c0,0 -0.03468,2.49975 -2.53444,2.46507c-2.49975,-0.03468 -2.46507,-2.53444 -2.46507,-2.53444l0.1986,-1.42587c0.5964,-1.41987 1.19175,-2.94658 1.71693,-4.53183c-0.61378,0.10472 -1.35617,-0.02327 -2.08988,-0.77762c-0.9272,-0.95329 -0.8541,-1.89268 -0.58254,-2.56325c-1.66399,-2.94983 -5.00551,-4.22807 -5.92217,-8.17139c-0.88274,-3.79737 0.17856,-7.50906 -0.39119,-11.23045c-0.30872,-2.01641 -1.40986,-3.83895 -1.87793,-5.82443c-1.23658,-5.24508 -2.73866,-11.12374 -3.4107,-16.7634c-0.2724,-0.48889 -0.51822,-0.9858 -0.73405,-1.49098c-0.21588,0.05729 -0.44306,0.08636 -0.67736,0.0831c-0.04609,-0.00065 -0.09188,-0.00253 -0.13731,-0.00562c0.45743,1.61212 0.57845,3.34343 0.56791,5.01207c-0.04944,7.82409 -3.40838,17.39381 -0.08096,24.94323c0.775,1.75839 2.38338,3.015 3.59329,4.50786l0.34257,0.33748c0,0 1.74307,1.79213 -0.04905,3.53519c-1.79212,1.74306 -3.5352,-0.04905 -3.5352,-0.04905l-0.64346,-0.67629c-0.48333,-0.59689 -3.79916,-4.54887 -4.2672,-5.60215c-4.40704,-9.91762 1.24859,-19.68834 -0.27933,-29.592c-0.56204,-3.64307 -3.51032,-4.46948 -2.29502,-8.79602c0.25583,-0.91073 1.2631,-1.44191 1.66463,-2.29844c0.50718,-1.0819 0.48711,-2.36764 1.02331,-3.43547c0.06729,-0.13399 0.13833,-0.26834 0.21284,-0.40291c-0.0811,-0.33313 -0.15843,-0.66696 -0.23275,-1.00149c-0.36926,-0.06066 -0.76921,-0.22691 -1.18949,-0.55133c-1.979,-1.5276 -0.4514,-3.50661 -0.4514,-3.50661c0.2417,-0.30856 0.46518,-0.62116 0.67354,-0.93737c-0.03445,-0.18791 -0.0691,-0.37608 -0.10409,-0.56458l-0.02093,-1.99078c0,0 0.03461,-2.4951 2.52747,-2.46518c0.00246,-0.00626 0.00493,-0.01252 0.0074,-0.0188c0.03857,-1.71624 -0.22534,-3.47455 0.16195,-5.14671c0.2126,-0.91797 0.87912,-1.92858 1.6932,-2.8997l0.94527,-2.27127c0.0469,-0.12047 0.10285,-0.23636 0.16701,-0.34685c-0.2906,-3.64238 0.28783,-7.72495 0.33705,-11.27287c0,0 0.00835,-0.60251 0.31267,-1.21183c2.10586,-5.181 0.00531,-11.38912 1.51084,-16.86267c0.21971,-0.7988 0.47653,-1.52097 0.76762,-2.1851c-0.05713,-0.10699 -0.1067,-0.21859 -0.14801,-0.33408l-0.94436,-2.45927l0.09895,-0.03799l-0.17111,-0.17914c-0.16315,-1.25751 -0.7201,-2.52564 -0.48942,-3.77253c0.02394,-0.12947 0.06697,-0.2503 0.12413,-0.36481c-0.02273,-0.14042 -0.05033,-0.2788 -0.08453,-0.41438c-1.05489,-4.1813 -1.49079,-7.57862 -1.41732,-11.89434l0.10928,-0.18977l-0.08095,-0.01465l0.53427,-2.95233c0.18929,-1.16308 1.17942,-2.05259 2.37957,-2.09379c0.04516,-4.62723 0.78204,-9.29638 1.17833,-14.02248c0.50759,-6.05354 2.12709,-13.88196 8.00679,-17.29974c2.97221,-1.72772 6.81561,-2.72181 10.83167,-3.17534c2.76453,-0.65475 5.61042,-0.98618 8.30641,-1.11589c2.47114,-0.1189 5.27934,-2.37633 7.88413,-1.9687c8.81849,1.38005 23.04461,11.13128 25.96808,19.69004c0.18483,0.5411 0.34672,1.05501 0.48834,1.54727c0.12321,-0.05765 0.2573,-0.1101 0.40316,-0.15648c2.38246,-0.7576 3.14003,1.62486 3.14003,1.62486l0.97418,3.06551c1.27618,4.72037 3.25499,10.81741 2.34836,15.74572c-0.45484,2.47244 -2.41443,4.15995 -3.53636,6.17296c0.16061,1.54075 -0.12541,2.95434 -0.74305,4.21503c0.15006,1.24029 0.50687,2.52979 0.84367,3.78659c0.18106,0.17501 0.27959,0.31026 0.27959,0.31026c1.27676,1.77607 2.06358,3.85744 3.08426,5.79206c0.31683,0.60053 0.67344,1.1875 1.03309,1.77383c0.04765,-3.62442 -0.76682,-7.35755 0.58283,-10.86479c0.20187,-0.5246 0.41532,-0.98034 0.64274,-1.38875c-1.26837,-0.65853 -1.2462,-2.25619 -1.2462,-2.25619l0.01345,-0.96889c-0.16835,-0.49567 -0.31231,-1.01101 -0.43003,-1.54685l-0.03481,-0.99087c0,0 0.01707,-1.23015 0.89019,-1.95256c0.94418,-5.53823 3.3432,-10.80898 6.16322,-15.65431c0.68004,-1.16842 0.95267,-2.72658 1.71785,-3.8024c0.24962,-1.26301 0.63359,-2.61731 1.22539,-4.20451c3.15978,-8.47435 17.65095,-17.82716 26.50434,-18.96203c2.61509,-0.33521 5.35958,1.99926 7.82647,2.18667c2.69134,0.20445 5.52695,0.6147 8.27225,1.3459c4.00194,0.56476 7.81627,1.66512 10.73941,3.47462c5.78262,3.5796 7.1843,11.4499 7.52376,17.51521c0.20783,3.71343 0.626,7.39765 0.75668,11.04612c0.00409,0.00004 0.00818,0.0001 0.01227,0.00015c1.38058,0.01915 2.48423,1.15387 2.46508,2.53445l-0.05549,3.99961l-0.06885,-0.00095l0.0601,0.17807c-0.47495,3.05815 -0.86138,5.86108 -1.04559,8.82307c2.26218,3.7012 4.09494,6.80348 3.24674,11.83769c-0.86489,5.13336 -3.85403,7.66405 -1.0096,12.39548l0.31064,3.29087c0,0 -0.03468,2.49975 -2.53444,2.46507c-2.49975,-0.03468 -2.46507,-2.53444 -2.46507,-2.53444l0.36614,-0.70875c-1.41443,-2.49591 -2.28132,-3.28171 -2.26883,-6.31831c0.01907,-4.63563 3.98211,-8.93834 2.78235,-13.7954c-0.09439,-0.38217 -0.27125,-0.79433 -0.5023,-1.22309c-0.17468,0.02908 -0.36495,0.04362 -0.57212,0.04074c-0.62781,-0.00871 -1.09575,-0.17291 -1.44453,-0.41395c-0.71711,2.2694 -2.06341,4.25594 -3.83172,5.75814c0.48713,2.81563 1.04596,5.61711 1.03562,8.55108c-0.00851,2.41592 -0.32198,4.68531 -0.84594,6.90016c2.83817,1.76161 4.94697,4.59408 5.6143,8.24415c0.30374,1.66135 -0.02128,3.13848 -0.40733,4.60285c0.75998,3.89346 1.16225,7.89655 2.1601,11.72766c0.2884,1.10726 0.88399,2.14288 1.01263,3.27982c0.61187,5.40741 -2.35731,9.92051 -3.19711,15.16302c-0.55342,3.45476 0.10371,7.33689 -0.13446,10.81825c-0.40511,5.92195 -2.04465,11.99758 -3.29299,17.82179l0.03455,1.01029c0,0 -0.02468,1.779 -1.53318,2.31463c1.23868,2.97654 0.96143,5.91485 1.30121,9.27552l-1.96899,2.8807c0,0 -1.52761,1.97899 -3.50661,0.4514c-1.979,-1.5276 -0.4514,-3.50661 -0.4514,-3.50661l1.08623,-1.07729c-0.54296,-2.25441 -0.01316,-4.9074 -1.44142,-6.88362c-1.81054,-2.50513 -4.64108,-4.13542 -6.79194,-6.40769c-0.2308,2.38312 0.27841,4.85939 0.24493,7.27216c-0.02312,1.66651 -0.00882,3.33395 -0.06936,4.99952c-0.02004,0.55154 -0.4057,1.14664 -0.17218,1.64669c0.20641,0.44201 3.45895,3.72563 3.86006,4.13726l0.98603,1.01377c0,0 1.74306,1.79212 -0.04904,3.53519c-1.79212,1.74306 -3.5352,-0.04905 -3.5352,-0.04905l-0.98603,-1.01377c-1.49356,-1.5383 -4.24873,-4.20751 -5.00035,-5.98665c-0.43513,-1.02999 -0.09834,-2.23469 -0.10282,-3.35281c-0.01745,-4.35502 -0.80608,-11.05088 0.31846,-15.2215c0.27403,-1.01626 1.00841,-1.82424 1.67403,-2.66617c-0.10835,-1.02509 -0.0515,-2.11256 0.1345,-3.22431c-2.03687,0.78207 -4.12596,1.40148 -6.25108,1.89753c0.08913,2.21146 0.33051,4.35392 0.31175,5.66026c-0.10848,7.55263 0.67332,15.13196 2.13714,22.5319c0.91781,4.63975 2.76018,7.99351 3.07232,12.73453l-3.79891,2.07793c0,0 -2.33384,0.89617 -3.23004,-1.43767c-0.89619,-2.33385 1.43767,-3.23004 1.43767,-3.23004l1.22834,0.14749c-1.72284,-1.14282 -2.6335,-3.65982 -3.1661,-6.28565c-0.95397,0.98693 -2.32429,1.65712 -3.30577,2.64171c-1.94335,1.94953 -2.73788,3.32601 -4.27759,5.5725l-2.98745,1.80804c0,0 -2.02999,0.98003 -3.16536,-0.84871c-0.6566,3.29816 -0.50459,6.67815 -0.11455,10.16759c0.3232,1.77977 0.47439,3.59851 0.45731,5.40732l-0.01388,0.9999c0,0 -0.03467,2.49976 -2.53444,2.46507zM132.64405,183.97388c0.54627,-1.65794 0.96385,-3.37887 1.76085,-4.93191c0.70976,-1.38303 2.81599,-2.21446 2.74859,-3.76752c-0.06874,-1.58417 -1.48603,-2.83833 -1.8546,-4.38055c-0.10553,-0.44154 -0.15692,-0.89296 -0.19556,-1.34673c-0.77577,1.83661 -1.53748,3.58303 -1.80222,3.99238c-0.79371,1.22725 -2.23782,1.97348 -2.93333,3.25894c-2.0144,3.72299 -1.48081,10.80061 1.10569,14.31437c0.03907,-2.34919 0.35596,-4.66656 1.17059,-7.13901zM140.14675,169.66983c0.3681,1.59165 2.062,4.13928 2.00627,5.67398c-0.08492,2.33869 -2.30595,4.07403 -3.38955,6.14828c-0.26773,0.5125 -0.50725,1.0267 -0.72086,1.54272l0.92499,-0.12122c1.54395,-2.24314 2.87384,-4.41009 4.888,-6.30149c0.91253,-0.85691 2.26203,-1.2312 3.028,-2.22129c0.29977,-0.38749 0.01647,-1.01024 -0.18118,-1.45853c-1.21977,-2.76635 -2.81148,-4.15086 -3.37221,-7.1003c-1.18678,-6.24241 0.16792,-12.75203 1.09958,-19.12538c-1.88495,0.21156 -3.78128,0.3688 -5.67871,0.49676c1.29426,2.98363 2.22144,6.09867 1.63483,9.01456c-0.42878,2.13135 -1.22953,3.99719 -2.0854,5.87412c0.66096,2.5317 1.24616,4.98298 1.84625,7.57781zM148.35258,163.32912c-0.04678,-0.30982 -0.08956,-0.62108 -0.12856,-0.9336c-0.07372,0.8595 -0.12188,1.71671 0.02862,2.55916c0.15656,0.87634 0.50337,1.69558 0.92676,2.48914c-0.29904,-1.36753 -0.61805,-2.7323 -0.8268,-4.11469zM173.20289,136.14625c0.05906,-0.91933 0.06351,-1.85905 0.04623,-2.80838c-1.10612,1.47239 -2.45396,2.87856 -4.09916,4.23138c0.21723,1.00526 -0.35334,1.92697 -0.35334,1.92697c-1.63177,2.63219 -2.9585,5.41977 -4.57422,8.05738c1.18885,2.37542 3.70351,3.93064 5.79303,5.66325c1.19584,-5.56788 2.82387,-11.41117 3.18746,-17.07059zM51.83323,166.13974c-0.77126,-3.59958 -3.02967,-5.88088 -4.26568,-9.20835c-1.08881,-2.93121 -0.35016,-3.58661 -0.56365,-6.66361c-0.14219,-2.0494 -0.33586,-3.89628 -0.33652,-5.7078c-1.40231,-1.0875 -2.82434,-2.22715 -4.17937,-3.42486c0.62465,2.84286 1.32904,5.63716 1.94205,8.24788c0.29091,1.23892 1.79002,5.14259 1.95521,6.22989c0.58211,3.8314 -1.39184,9.04226 0.94552,12.53855c0.57277,0.85676 4.16166,3.67199 4.36636,3.94764c0.10823,0.14574 0.20373,0.29872 0.2896,0.45712c0.2848,-2.18616 0.28666,-4.36209 -0.15352,-6.4165zM51.98593,149.84417c0.0891,1.28429 -0.32493,3.87313 0.26979,5.34911c0.83283,2.06692 1.93034,3.77563 2.86767,5.61687c-0.07195,-0.61578 -0.14279,-1.21802 -0.22282,-1.79603c-0.33477,-2.41788 -0.58673,-5.05787 -0.72074,-7.7565c-0.23391,-0.147 -0.44162,-0.33161 -0.61476,-0.54524l-1.67731,-2.04213c0.03655,0.38542 0.07057,0.77632 0.09815,1.17392zM58.77867,170.86557c2.24081,0.70069 -0.5675,-0.11768 -1.60189,-1.76944c0.02038,1.08139 -0.03396,2.17229 -0.14974,3.26451zM37.21013,112.25702c-0.04233,-0.10515 -0.08479,-0.2105 -0.12718,-0.31602c0.00172,0.13236 0.00352,0.26468 0.00543,0.39701c0.03848,-0.02687 0.07911,-0.05399 0.12175,-0.08099zM119.43383,182.69642c1.07491,-1.52444 0.33361,-4.90765 0.21316,-6.45853c-0.03123,-0.40204 -0.05637,-0.82067 -0.0757,-1.25091c-0.25558,0.29665 -0.46881,0.6225 -0.61958,0.99175c-0.6953,1.70284 0.42547,3.71316 0.06865,5.51754c-0.13243,0.66966 -0.42121,1.29305 -0.71464,1.91507c0.41811,-0.19503 0.87383,-0.35428 1.12812,-0.71492zM127.87661,157.84652c0.06775,3.01808 -2.83081,6.76041 -3.13343,10.0014c-0.24422,2.61554 0.18213,5.68545 0.34796,8.70829c0.23268,-0.7165 0.51099,-1.4048 0.83597,-2.0556c0.72004,-1.44201 2.28036,-2.30866 3.1632,-3.65716c1.60571,-2.45262 2.26903,-5.40621 3.42975,-8.09812c0.26191,-0.60742 0.52545,-1.18283 0.78425,-1.74422c-1.16204,-4.55749 -2.54296,-9.26115 -4.29713,-13.2701c-0.40318,0.02184 -0.80558,0.04431 -1.20711,0.06769c-1.28715,1.4712 -2.08332,3.45906 -2.58225,5.6186c0.89188,1.49983 2.65491,4.25589 2.6588,4.42921zM84.94036,163.26741c0.79975,-2.16865 -0.60352,-4.58475 -1.00523,-6.86101c-0.34014,-1.92737 -0.58936,-3.87649 -0.735,-5.8323c-2.1767,-0.2458 -4.35546,-0.46775 -6.55162,-0.59102c0.16809,1.62883 0.55323,3.21475 1.38807,4.6158c1.03132,1.73078 3.4823,2.31941 4.45687,4.08275c1.5627,2.82751 0.67511,4.56202 0.06523,7.35496l-0.01553,0.02097c0.89116,-0.87756 1.97575,-1.6473 2.39721,-2.79018zM88.85884,155.53633c0.26069,1.47327 1.14671,5.61197 1.00874,8.13129c0.44944,-0.77457 0.84433,-1.56683 1.00857,-2.43696c0.5941,-3.14743 -0.20594,-6.73599 -0.72153,-9.88164c-0.63271,-0.06123 -1.26423,-0.12709 -1.89494,-0.19582c0.13901,1.46944 0.34258,2.93312 0.59915,4.38314zM86.10239,169.35623c-0.36819,1.1031 -0.3933,2.26796 -0.36371,3.44538c0.68035,-2.07649 1.56237,-4.13486 2.35627,-5.8643c-0.80646,0.72893 -1.66271,1.43071 -1.99255,2.41894zM119.45353,159.64144c0.13403,-1.53097 0.31911,-3.37933 0.61679,-5.28709c-0.83127,-1.96614 -1.31874,-3.80201 -1.5276,-5.62765c-0.54879,0.08811 -1.09799,0.18106 -1.64749,0.27758c0.20425,1.45265 0.43822,2.9275 0.66909,4.44925c0.25951,1.71061 0.64468,3.4071 0.77503,5.13236c0.04897,0.64821 -0.76867,2.22858 -0.18551,1.94133c0.44116,-0.21731 0.86541,-0.46631 1.28727,-0.71984c0.00417,-0.06345 0.00835,-0.11901 0.01244,-0.16593zM41.25237,131.43984c0,0 0.00398,-0.28753 0.10678,-0.66619c-0.16388,-0.05861 -0.33624,-0.13628 -0.50426,-0.23918c0.02511,0.43302 0.05747,0.86901 0.0964,1.30742c0.10882,0.12723 0.22173,0.25187 0.33714,0.37494c-0.01721,-0.24705 -0.02922,-0.50553 -0.03604,-0.77699zM101.4076,36.32934c0.2082,0.52782 0.40687,1.05487 0.59575,1.58033c-0.17549,-0.77387 -0.37389,-1.54413 -0.57936,-2.29752c-0.00565,0.23402 -0.0112,0.47287 -0.01637,0.71719zM123.95353,63.56823c-0.34184,-0.07208 -0.68375,-0.14867 -1.02513,-0.22998c0.20581,8.37427 0.51821,16.76114 -0.84015,25.0344c-0.34302,2.08917 -0.54996,4.15164 -0.6801,6.21259c2.83274,-0.48502 5.72664,-0.62961 8.58276,-0.95897c-0.09507,-0.95264 -0.18593,-1.90545 -0.26098,-2.85877c-0.57832,-7.34596 -1.05924,-15.20726 -2.96919,-22.36487c-0.44683,-1.67453 -1.2224,-3.23604 -1.9535,-4.81448c-0.2849,-0.00803 -0.56949,-0.01469 -0.85373,-0.01989zM109.2661,94.87985c-2.49975,-0.03468 -2.46507,-2.53444 -2.46507,-2.53444l0.04103,-1.14599c-0.53671,-4.22585 -0.33819,-8.63568 -0.61575,-12.93085c-0.124,0.36188 -0.23314,0.72372 -0.3001,1.08485c-0.61997,3.34344 -1.04269,6.56842 -1.08337,9.96454l-0.00694,0.49995c0,0 -0.00458,0.32986 -0.13022,0.74827c0.114,0.42174 0.10941,0.75158 0.10941,0.75158c-0.0329,2.37168 -0.12385,4.70267 -0.28415,7.02498c0.65994,0.01282 1.32197,0.01322 1.98652,-0.00068c3.1575,-0.06598 6.52318,-1.3658 9.78739,-2.43605c0.27304,-4.44925 1.15025,-8.60368 1.63641,-13.09292c0.74804,-6.90752 0.27624,-14.02853 0.01853,-21.06635c-1.61217,-0.67539 -3.13575,-1.5018 -4.49457,-2.51122c-1.18002,3.80391 0.3003,8.23018 -0.40432,12.09515c-0.25793,1.4148 -1.62051,4.53171 -2.22995,5.99766l0.18474,-0.42596c0,0 -0.00542,0.39041 -0.16627,0.86054c0.23635,1.14225 0.517,2.27905 0.59814,3.43967c0.2232,3.19282 -0.06493,6.15459 0.35359,9.35845l-0.00059,1.85373c0,0 -0.03468,2.49975 -2.53444,2.46507zM105.01468,71.7517c-0.01744,-0.032 -0.03509,-0.06392 -0.05297,-0.09576c-0.0073,0.02372 -0.01499,0.04752 -0.02307,0.07136c0.02546,0.00766 0.0508,0.0158 0.07604,0.0244zM99.81557,91.24839c0,0 0.00458,-0.32986 0.13022,-0.74827c-0.114,-0.42174 -0.10941,-0.75158 -0.10941,-0.75158l0.00694,-0.49995c0.05572,-3.5757 0.20435,-7.53878 1.20776,-11.00569c0.22541,-0.77879 0.99334,-1.36348 1.10566,-2.1664c0.03671,-0.26248 -0.53982,-0.00477 -0.78952,-0.0936c-0.74652,-0.26555 -1.5877,-0.40844 -2.3316,-0.69746c-0.24761,0.40617 -0.48725,0.81627 -0.65145,1.25301c-1.50867,4.01261 -1.4889,8.94425 -1.54752,13.16846l-0.0208,1.49986c0,0 -0.03468,2.49975 -2.53444,2.46507c-2.49975,-0.03468 -2.46508,-2.53445 -2.46508,-2.53445l0.02082,-1.49985c0.06599,-4.7566 0.11275,-10.27559 1.84062,-14.78723c0.34296,-0.8955 1.1693,-1.57587 1.42165,-2.50102c0.17033,-0.62452 -0.0157,-1.21989 -0.33023,-1.80964c-0.3416,0.29736 -0.76448,0.50326 -1.23012,0.58024l-2.46116,0.45682l-0.01613,-0.08689l-0.20757,0.109c-0.05285,1.14173 -0.14314,2.28823 -0.34833,3.42864c-0.67337,3.74233 -1.75984,7.39021 -2.60443,11.09822c0.13183,0.03565 0.26866,0.08236 0.41058,0.14143c2.30809,0.96059 1.34751,3.26867 1.34751,3.26867c-0.90763,2.15881 -1.64577,4.46727 -2.28301,6.82602c4.07898,0.56768 8.101,1.27217 12.16449,1.67266c0.15526,-2.24208 0.24272,-4.4927 0.27453,-6.78611zM44.59166,90.68611c1.69251,-0.95919 3.62948,-1.53447 5.69093,-1.60915c-0.3425,-3.27817 -0.6143,-6.60366 -0.6628,-9.88855c-0.28821,0.76501 -0.63279,1.49131 -1.04524,2.16251c-0.18193,0.2961 -3.96744,3.95215 -4.42023,4.39255l0.72894,0.24238c0,0 -0.03468,2.49975 -2.53444,2.46507c-1.03782,-0.01439 -1.6388,-0.45369 -1.98678,-0.96259c-0.03275,2.40014 -0.06233,4.80039 -0.09751,7.20051c1.08117,-2.02513 2.54412,-3.54727 4.32709,-4.00271zM168.99056,75.71269c0.00582,-2.06353 -0.26743,-4.07134 -0.59896,-6.06918c-0.08746,0.02567 -0.17533,0.05042 -0.26358,0.07424c-2.08172,0.92883 -4.39256,1.61995 -6.79942,2.10408c-0.75446,3.81669 -1.79418,7.55531 -2.54659,11.35182c0.92929,-1.07535 2.22354,-1.96572 4.24147,-2.34027c1.83865,-0.34127 3.67503,-0.33351 5.41307,-0.01084c0.34585,-1.6414 0.54897,-3.32729 0.55399,-5.10985zM138.06691,86.04679c1.0257,2.07881 3.16663,3.38959 4.65137,5.16978l0.31304,0.318c0.95295,-0.11913 1.91752,-0.24115 2.86955,-0.3705c0.93854,-6.15735 0.98253,-12.65202 0.0136,-18.77079c-1.72714,-0.20222 -3.33975,-0.49076 -4.77434,-0.85102c-3.11048,4.4911 -5.586,9.41171 -3.07323,14.50451zM151.00796,72.72214c0.78822,5.78088 0.78025,11.77488 0.04794,17.58821c0.64887,-0.13818 1.26069,-0.28641 1.82333,-0.44692c0.34524,-5.9307 1.94224,-11.55138 3.18531,-17.30916c-1.6995,0.13981 -3.39937,0.19246 -5.05658,0.16787zM134.71452,90.37507c0.06268,0.7961 0.13493,1.59123 0.21098,2.3858c0.5851,-0.13902 1.24981,-0.26769 1.97411,-0.38976c-0.77918,-0.74918 -1.55832,-1.49705 -2.21116,-2.32812c0.00867,0.11081 0.01736,0.22151 0.02608,0.3321zM131.82621,68.04103c0.64191,2.57758 1.12039,5.2318 1.49664,7.91369c0.77893,-2.06675 1.90595,-4.04776 3.23096,-5.91177c-1.56326,-0.57928 -3.36795,-1.30249 -4.72759,-2.00189zM44.3582,78.66352c1.93024,-3.08212 1.74707,-8.18746 1.78804,-11.61849c-0.70582,-0.38805 -1.36986,-0.84219 -1.98388,-1.35396c-0.33119,0.35133 -0.63898,0.72249 -0.91133,1.12374c-2.82677,4.16458 -1.91997,9.68877 -2.03297,14.84543c1.10898,-0.94972 2.37168,-1.76966 3.14014,-2.9967zM55.33112,83.89881c0.14768,2.05165 0.2935,4.10312 0.44232,6.15425c0.84331,0.23046 1.64139,0.5532 2.34431,1.06999c0.20139,0.14805 0.54408,0.61059 0.90722,1.08041c0.16561,0.14656 0.32729,0.29741 0.48491,0.45244l0.53193,-1.50391c2.67465,-3.79414 -0.68545,-9.30957 -1.02933,-13.76476c-0.19335,-2.50483 0.55271,-4.37306 1.68618,-6.14142c-1.83013,-0.1961 -3.65855,-0.49345 -5.43075,-0.90301c-0.64206,4.37135 -0.26743,8.96267 0.06323,13.55602zM63.94104,75.41654c-1.54817,4.60084 3.19284,10.11716 2.3413,14.83292c-0.20786,1.15112 -1.15159,2.03642 -1.72738,3.05463l-0.29195,0.85111c0.90674,0.13863 1.82107,0.26014 2.7408,0.36849c3.07775,-7.4202 2.51299,-15.4851 4.10004,-23.21221c-1.43556,0.14095 -2.95333,0.21986 -4.5158,0.22914c-1.0468,1.20652 -2.14671,2.38914 -2.647,3.87592zM80.35228,84.96808c-0.76385,3.47209 -0.54785,6.94541 -0.5972,10.50243l-0.00128,0.09284c0.8823,0.06773 1.76032,0.13998 2.63215,0.22025c0.28123,-1.07548 0.5797,-2.14421 0.90087,-3.19895c-0.98132,-0.72972 -0.96259,-2.07898 -0.96259,-2.07898l0.06745,-2.4103c0.8524,-4.70763 2.33853,-9.2593 3.19372,-13.95583c0.19607,-1.07673 0.31536,-2.1207 0.40003,-3.14043c-1.43146,-0.2562 -2.86397,-0.49726 -4.38366,-0.50538c0,0 -0.37111,-0.00516 -0.82537,-0.15447c0.93349,3.81487 0.96733,7.69985 -0.49036,11.99402c-0.07839,0.23091 -0.16617,0.45801 -0.26105,0.68222c0.55795,0.87719 0.32733,1.95259 0.32733,1.95259zM73.92727,89.52163c-0.4604,1.86631 -1.04313,3.71627 -1.73078,5.49689c0.85335,0.06683 1.70779,0.1288 2.56161,0.189c0.02218,-1.81105 0.00447,-3.5831 0.06202,-5.34463c-0.35981,-0.06229 -0.65336,-0.18389 -0.89285,-0.34125zM76.59894,72.80951c-0.03463,-0.52353 -0.16116,-1.09953 -0.34799,-1.70149c-0.74079,3.1474 -0.84468,6.25373 -1.05159,9.4823c0.91701,-2.39782 1.59459,-4.83262 1.39959,-7.78081zM94.36039,62.73289c-0.20869,0.05366 -0.41946,0.10206 -0.63217,0.14505c0.16421,0.0762 0.31868,0.16966 0.46113,0.27806c0.05596,-0.14075 0.11307,-0.28188 0.17104,-0.4231z" fill="#000000" stroke-width="0.5"/><path d="M125.2915,39.09679c0.17047,-12.28715 10.26937,-22.10966 22.55653,-21.93919c12.28716,0.17048 22.10967,10.26938 21.9392,22.55652c-0.17047,12.28715 -10.26938,22.10967 -22.55653,21.93919c-12.28715,-0.17047 -22.10966,-10.26937 -21.93919,-22.55653z" fill="#ffffff" stroke-width="0.5"/><path d="M47.77815,39.52153c0.17047,-12.28715 10.26938,-22.10967 22.55653,-21.93919c12.28715,0.17047 22.10968,10.26938 21.93921,22.55653c-0.17047,12.28715 -10.26937,22.10966 -22.55653,21.93919c-12.28715,-0.17047 -22.10966,-10.26937 -21.93919,-22.55653z" fill="#ffffff" stroke-width="0.5"/><path d="M46.85454,34.00818c0.18197,-13.1155 10.96168,-23.6002 24.07718,-23.41823c13.1155,0.18197 23.6002,10.96168 23.41824,24.07719c-0.18196,13.11551 -10.96169,23.6002 -24.07719,23.41825c-13.1155,-0.18197 -23.6002,-10.96169 -23.41823,-24.07718z" fill="#000000" stroke-width="0.5"/><path d="M123.36106,34.06954c0.18197,-13.1155 10.96169,-23.6002 24.07719,-23.41825c13.1155,0.18197 23.6002,10.96169 23.41825,24.07719c-0.18196,13.11551 -10.96169,23.6002 -24.07719,23.41824c-13.11551,-0.18196 -23.60022,-10.96169 -23.41824,-24.07719z" fill="#000000" stroke-width="0.5"/><path d="M32.48186,96.81484c0.07087,-5.10814 4.26929,-9.19166 9.37744,-9.12079c4.33422,0.06013 7.93077,3.09185 8.8778,7.12949c0.95209,-0.3145 1.97193,-0.47834 3.03088,-0.46366c3.52437,0.04889 6.56096,2.06264 8.0819,4.98436c1.42201,-0.85023 3.09004,-1.32902 4.86831,-1.30435c3.19118,0.04428 5.98247,1.69945 7.61078,4.18096c1.30173,-0.66824 2.78138,-1.0365 4.34644,-1.01478c3.05192,0.04234 5.73809,1.55807 7.39102,3.86088c1.64205,-1.38406 3.77097,-2.20587 6.08687,-2.17374c3.19919,0.04438 5.99647,1.70776 7.62301,4.19964c1.72202,-2.16236 4.39073,-3.53292 7.36861,-3.49161c2.97114,0.04122 5.59564,1.47885 7.25761,3.67968c1.34343,-3.52831 4.7814,-6.0129 8.77553,-5.95748c4.15012,0.05758 7.62389,2.83964 8.74292,6.62056c0.67344,-4.50787 4.59237,-7.9357 9.27615,-7.87071c2.97895,0.04133 5.60946,1.48643 7.27072,3.69708c0.63131,-4.55562 4.5728,-8.0332 9.29012,-7.96775c0.25333,0.00351 0.50416,0.01718 0.75207,0.0406c0.18623,-5.00498 4.33716,-8.97086 9.37183,-8.90102c5.10816,0.07087 9.19166,4.26929 9.12078,9.37743c-0.07087,5.10814 -4.26928,9.19166 -9.37743,9.12078c-0.25333,-0.00351 -0.50415,-0.01719 -0.75207,-0.04062c-0.18623,5.00498 -4.33716,8.97086 -9.37183,8.90102c-2.97895,-0.04133 -5.60944,-1.48643 -7.27071,-3.69709c-0.63131,4.55562 -4.57279,8.03319 -9.29013,7.96775c-4.15012,-0.05758 -7.62389,-2.83966 -8.74291,-6.62057c-0.67344,4.50787 -4.59237,7.93571 -9.27615,7.87072c-2.97113,-0.04122 -5.59564,-1.47885 -7.25761,-3.67969c-1.34343,3.52833 -4.78138,6.0129 -8.77553,5.95749c-3.19919,-0.04438 -5.99648,-1.70777 -7.62299,-4.19965c-1.72203,2.16236 -4.39074,3.53292 -7.36862,3.49161c-3.05192,-0.04234 -5.73809,-1.55807 -7.39102,-3.86088c-1.64205,1.38407 -3.77096,2.20587 -6.08686,2.17373c-3.19118,-0.04428 -5.98249,-1.69946 -7.61079,-4.18097c-1.30173,0.66824 -2.78138,1.03651 -4.34645,1.0148c-3.52437,-0.04889 -6.56097,-2.06264 -8.08191,-4.98437c-1.42201,0.85023 -3.09003,1.32904 -4.8683,1.30436c-4.33422,-0.06013 -7.93077,-3.09185 -8.87779,-7.1295c-0.95209,0.3145 -1.97195,0.47835 -3.03088,0.46366c-5.10814,-0.07087 -9.19166,-4.26929 -9.12079,-9.37744z" fill="#ffffff" stroke-width="0.5"/><path d="M161.87604,123.36242c5.10814,0.07087 9.19166,4.26929 9.12078,9.37743c-0.07087,5.10814 -4.26929,9.19166 -9.37742,9.1208c-2.44988,-0.03399 -4.66408,-1.0174 -6.29732,-2.59523c-0.66958,4.51229 -4.59061,7.9447 -9.27749,7.87968c-3.28223,-0.04555 -6.14144,-1.79522 -7.7473,-4.39539c0.03328,0.34108 0.048,0.6875 0.04314,1.03819c-0.07087,5.10814 -4.26929,9.19166 -9.37744,9.12079c-5.10814,-0.07087 -9.19166,-4.26929 -9.12078,-9.37743c0.07087,-5.10814 4.26929,-9.19166 9.37743,-9.12078c3.28223,0.04555 6.14143,1.79522 7.7473,4.39539c-0.03328,-0.34108 -0.048,-0.6875 -0.04313,-1.03819c0.07087,-5.10814 4.26929,-9.19166 9.37743,-9.12078c2.44988,0.03399 4.66408,1.0174 6.29732,2.59523c0.66958,-4.51229 4.59061,-7.9447 9.27749,-7.87968z" fill="#ffffff" stroke-width="0.5"/><path d="M37.98188,132.89461c0.07087,-5.10814 4.26929,-9.19166 9.37743,-9.12078c4.07128,0.05648 7.49168,2.73495 8.67662,6.40619c1.14926,-0.48895 2.41677,-0.75176 3.74588,-0.73332c4.63597,0.06432 8.42798,3.52839 9.03643,7.98677c1.66973,-2.59548 4.6002,-4.29723 7.91339,-4.25126c4.29783,0.05963 7.87031,3.04114 8.85338,7.02801c1.70844,-2.33918 4.48658,-3.84264 7.60341,-3.7994c4.05531,0.05626 7.46482,2.71396 8.66256,6.36303c1.29851,-3.61443 4.78045,-6.17651 8.83575,-6.12026c5.10814,0.07087 9.19166,4.26929 9.1208,9.37743c-0.07087,5.10814 -4.26929,9.19166 -9.37743,9.1208c-4.05531,-0.05626 -7.46482,-2.71396 -8.66256,-6.36304c-1.29851,3.61443 -4.78045,6.17651 -8.83575,6.12026c-4.29783,-0.05963 -7.87031,-3.04114 -8.85338,-7.028c-1.70844,2.33918 -4.48658,3.84264 -7.60341,3.7994c-4.63597,-0.06432 -8.42798,-3.52839 -9.03642,-7.98678c-1.66973,2.59548 -4.6002,4.29723 -7.91338,4.25128c-4.07128,-0.05648 -7.49167,-2.73494 -8.67661,-6.40619c-1.14926,0.48895 -2.41677,0.75174 -3.74589,0.73332c-5.10814,-0.07087 -9.19166,-4.26929 -9.1208,-9.37742z" fill="#ffffff" stroke-width="0.5"/></g><path d="M117.69886,144.49304c-1.71794,-4.8111 0.78956,-10.10396 5.60068,-11.82191c4.8111,-1.71794 10.10396,0.78956 11.82191,5.60068c1.71794,4.8111 -0.78956,10.10396 -5.60068,11.82191c-4.8111,1.71794 -10.10396,-0.78956 -11.82191,-5.60068z" fill="#ffffff" stroke-width="0.5"/></g></g><text transform="translate(302.0983,55.27136) scale(1.43672,1.43672)" font-size="40" xml:space="preserve" fill="#000000" stroke-width="1" font-family="Sans Serif" font-weight="normal" text-anchor="start"><tspan x="0" dy="0">rooms</tspan><tspan x="0" dy="46.150000000000006px">     &amp;</tspan><tspan x="0" dy="46.150000000000006px">doors</tspan></text><text transform="translate(5.25,287.86769) scale(0.5,0.5)" font-size="40" xml:space="preserve" fill="#ffffff" stroke-width="1" font-family="Sans Serif" font-weight="normal" text-anchor="start"><tspan x="0" dy="0">                                 este juego tiene sonidos fuertes</tspan><tspan x="0" dy="46.15px">y ataques de epilepcia,se recomienda</tspan><tspan x="0" dy="46.15px">discreccion.</tspan></text><text transform="translate(0.25,281.86769) scale(0.6223,0.93337)" font-size="40" xml:space="preserve" fill="#ffd100" stroke-width="1" font-family="Sans Serif" font-weight="normal" text-anchor="start"><tspan x="0" dy="0">ADVERTENCIA:</tspan></text></g></g></svg>