<svg version="1.1" xmlns="http://www.w3.org/2000/svg" xmlns:xlink="http://www.w3.org/1999/xlink" width="650.29547" height="489.73483" viewBox="0,0,650.29547,489.73483"><defs><linearGradient x1="214.70453" y1="-17.5" x2="214.70453" y2="383.5" gradientUnits="userSpaceOnUse" id="color-1"><stop offset="0" stop-color="#0f8000"/><stop offset="1" stop-color="#e2e2e2"/></linearGradient><linearGradient x1="253.5" y1="471" x2="253.5" y2="263" gradientUnits="userSpaceOnUse" id="color-2"><stop offset="0" stop-color="#0f8000"/><stop offset="1" stop-color="#bd0000"/></linearGradient><linearGradient x1="253.5" y1="-18.73484" x2="253.5" y2="220.5" gradientUnits="userSpaceOnUse" id="color-3"><stop offset="0" stop-color="#0f8500"/><stop offset="1" stop-color="#0f8500" stop-opacity="0"/></linearGradient><linearGradient x1="-34.53454" y1="179.99999" x2="34.53454" y2="179.99999" gradientUnits="userSpaceOnUse" id="color-4"><stop offset="0" stop-color="#692e00"/><stop offset="1" stop-color="#0f8500"/></linearGradient></defs><g transform="translate(97.29547,18.73483)"><g stroke="none" stroke-miterlimit="10"><path d="M-97.29547,383.5v-401h624v401z" fill="url(#color-1)" stroke-width="NaN"/><path d="M553,263v208h-599v-208z" fill="url(#color-2)" stroke-width="0"/><path d="M225.54533,205.63799c0.25499,0.10172 0.54385,0.18461 0.8799,0.24688zM225.25477,205.50702c1.19425,0.06474 7.29875,0.72661 7.29875,7.49298c0,7.5 -7.5,7.5 -7.5,7.5l-3.37171,-0.38488c-4.4247,-1.6796 -6.70221,-3.43165 -9.93159,-6.81182c-1.37449,-1.43867 -2.97238,-2.7051 -4.07658,-4.36032c-0.80608,-1.20832 -0.98095,-2.73612 -1.54922,-4.07286c-0.73897,-1.73829 -1.99103,-3.2966 -2.37027,-5.14698c-1.22298,-5.96718 0.8508,-11.66576 3.91949,-16.66613c6.89215,-11.23064 17.4048,-16.98029 28.25183,-23.96389c3.54403,-2.28174 7.08573,-4.56709 10.62805,-6.85149c0,-4.41388 0,-8.82776 0,-13.24164c0.0039,-1.10459 0.03767,-2.20294 0.09802,-3.29613c-0.51944,-1.44194 -1.70498,-2.63087 -2.03114,-4.12948c-0.09449,-0.43414 -0.13125,-9.76231 0.12342,-10.53109c0.35518,-1.07216 1.65286,-1.56679 2.28159,-2.50507c0.91777,-1.36961 1.13806,-3.22027 2.32304,-4.36655c0.36754,-0.35554 0.81271,-0.59238 1.2905,-0.78126c1.2753,-4.6835 3.51699,-10.23678 2.94684,-14.98996c-0.19353,-1.61346 -1.82489,-2.69146 -2.65891,-4.08613c-0.58254,-0.97415 -0.61297,-2.20003 -1.11916,-3.21595c-1.80904,-3.63068 -5.24463,-6.38868 -6.18733,-10.524c-0.41302,-1.81178 -0.05513,-3.71616 -0.06688,-5.57438c-0.03985,-6.30123 -0.37492,-12.49054 0.97488,-18.66139c0.3001,-1.35041 0.56143,-2.75348 0.81875,-4.1743c-0.48882,-0.30154 -0.97762,-0.60317 -1.4664,-0.90493c-0.95436,-0.5892 -12.82335,-7.34665 -17.39083,-11.29287c-0.12764,1.9068 -0.41822,3.80622 -1.05,5.74099c-0.47438,1.45275 -1.52862,2.6679 -2.02499,4.11329c-1.77226,5.1607 -2.74208,10.85481 -3.71139,16.43982c1.38311,3.08733 2.64443,6.2416 4.02519,9.32012c0.67234,1.49904 2.10845,2.65105 2.50297,4.24589c1.03223,4.17283 0.30077,11.1065 0.20146,15.51157c-2.18155,6.01254 -4.91128,11.81307 -7.50487,17.6597c-1.3165,2.96775 -2.11229,6.16099 -3.56898,9.06251c-0.40279,0.8023 -1.41448,1.14479 -1.92593,1.88259c-1.2644,1.82401 -1.68078,8.19746 -2.13113,9.98203c-0.77181,3.05839 -2.23381,5.94359 -3,9c-0.45622,1.81993 -0.5639,3.72821 -1.1547,5.50901c-0.4694,1.41488 -1.52635,2.58654 -2,4c-0.484,1.44435 -0.47681,3.01295 -0.8453,4.49099c-0.37844,1.51795 -1.84559,4.13985 -1.84559,5.87362l0.71197,1.82966c0,0 1.93528,5.80585 -2.93505,8.67665c-0.10175,0.58389 -0.20369,1.16774 -0.30581,1.75153c-0.55649,6.60655 -1.11712,13.21276 -1.67689,19.81903c-0.35787,4.22348 -0.51002,7.90028 -1.82566,11.91506l0.12829,0.20943c0,0 0,2.5 -2.5,2.5c-2.5,0 -2.5,-2.5 -2.5,-2.5l0.12829,-1.79057c1.22339,-3.59656 1.26376,-6.94209 1.58693,-10.75608c0.56179,-6.63008 1.12283,-13.26022 1.68771,-19.89003c-4.44079,-0.45981 -6.01806,-5.19162 -6.01806,-5.19162l-1.28803,-4.17034c0,-5.82474 1.45813,-12.05609 3.30911,-17.63539c0.4694,-1.41488 1.52635,-2.58654 2,-4c1.27359,-3.80067 2.18053,-7.75101 3.08264,-11.70313c-0.85656,1.54917 -1.86885,2.95972 -2.90847,4.5239c-0.24301,0.36452 -4.08597,6.14503 -4.23738,6.30271c-0.20547,0.21398 -7.68372,6.1849 -8.0897,6.50966c-1.50847,1.20668 -5.72075,4.62645 -6.73263,5.08314c-2.58116,1.16498 -5.54571,1.2016 -8.23432,2.09093l-2.99553,0.99852c0,0 -1.56767,0.52256 -2.57879,-0.55655c-1.76098,2.73628 -3.79309,5.31113 -6.05767,7.63325c-1.99873,2.04951 -4.68891,3.2875 -7.08605,4.85246c-3.552,2.3189 -15.39978,9.57317 -18.45899,11.27368c-7.50983,4.17445 -9.06194,3.96333 -16.43063,8.65367c-2.84324,1.80979 -9.53426,7.21125 -9.77528,10.97315c-0.16622,2.59443 0.09684,5.19889 0.09684,7.79863c0,0.0995 0,0.19899 0,0.29849c1.17232,1.97012 2.32065,5.48747 -1.1967,9.00481c-5.3033,5.3033 -10.6066,0 -10.6066,0l-3.1967,-6.3033c0,-1 0,-2 0,-3c0,-5.15388 -0.74663,-10.52462 1.76264,-15.29514c5.19796,-9.88217 13.9307,-15.84925 23.30772,-21.02576c-0.04523,-0.20292 -0.07036,-0.42845 -0.07036,-0.67911c0,-2.5 2.5,-2.5 2.5,-2.5l-0.38675,0.41987c2.21274,-1.47106 4.71254,-2.47647 6.92497,-3.94798c3.45309,-2.29669 6.5709,-5.6173 9.52842,-8.55687c1.45722,-2.19671 2.44409,-4.68271 3.90525,-6.8768c0.49192,-0.73868 1.45279,-1.09609 1.90568,-1.85933c1.29839,-2.18809 2.18316,-4.65388 2.66753,-7.15167c1.07693,-5.55341 0.13563,-13.45183 -3.47846,-17.94226c-1.26815,-1.57565 -3.23981,-2.44385 -4.67061,-3.87344c-1.83805,-1.83649 -5.84773,-5.9068 -7.42414,-8.24976c-4.5524,-6.76607 -7.42683,-15.35587 -7.47189,-23.46178c0,-5.20796 -0.33025,-10.6056 1.09692,-15.68936c0.06122,-0.21808 3.69652,-8.93103 3.77623,-9.13505c3.09552,-7.9235 6.31499,-15.49635 10.14781,-22.89979c-1.39151,-1.62097 -2.84297,-3.19414 -4.19971,-4.84401c-0.77376,-0.94094 -1.72356,-1.78178 -2.50693,-2.72048c-1.34828,0.31597 -2.70112,0.60184 -4.07529,0.75219c-0.26488,0.02898 -3.24418,0.03606 -5.66606,0.03725c-0.22048,0.62359 -0.5211,1.20932 -0.88947,1.74482l-1.94312,2.91468l-0.28524,-0.19016c-0.04757,0.26219 -0.09913,0.52382 -0.15507,0.78483c-0.24924,1.1628 -1.6454,1.71808 -2.49677,2.54838c-1.37279,1.33884 -2.56362,2.91796 -4.17462,3.95801c-1.71316,1.10601 -3.81698,1.45687 -5.63707,2.37636c-5.44848,2.75251 -10.76796,5.68945 -15.99162,8.80508c0,3.51909 0,7.03817 0,10.55726c0,3.44438 0.06495,6.10875 -1.03228,9.40046c0,1.33333 0.18856,2.68007 0,4c-0.22557,1.57899 -1.8235,3.19327 -1.15802,4.64284c0.62955,1.37128 2.16953,2.10164 3.32831,3.06807c3.80527,3.17364 8.18837,5.24338 12.30513,7.94122c4.07526,2.67065 7.90201,5.96426 11.67018,9.03764c1.36709,1.11502 2.17559,2.89701 3.70102,3.78315c0.91146,0.52948 2.12649,0.41 3,1c2.50374,1.69111 7.07678,6.44217 8.0784,9.40217c0.3981,1.17647 0.09002,2.48258 0.10727,3.72446c0.06181,4.45113 0.00384,8.21358 -1.06091,12.54847c-1.55723,7.75577 -4.62813,15.91278 -9.50574,22.0365c-1.89033,2.37326 -2.90929,5.33485 -5.33149,7.33441c-2.23204,1.84258 -5.42964,2.16354 -8.29641,2.56189c-3.89401,0.54109 -7.50009,2.52679 -11.19992,3.76101l-2.71878,1.83785c0,0 -2.08013,1.38675 -3.46688,-0.69338c-1.38675,-2.08013 0.69338,-3.46688 0.69338,-3.46688l3.28122,-2.16215c4.22659,-1.46398 8.33444,-3.58456 12.80008,-4.23899c1.93998,-0.2843 4.25022,-0.12203 5.70359,-1.43811c1.15468,-1.0456 3.61635,-5.35641 4.66851,-6.66559c4.39084,-5.46344 7.1029,-12.97831 8.49426,-19.9635c1.02532,-4.02174 0.86855,-7.32465 0.93909,-11.45153c0.01298,-0.75924 0.34175,-1.55329 0.10727,-2.27554c-0.57815,-1.78083 -4.54003,-5.69088 -5.9216,-6.59783c-0.88118,-0.57847 -2.10249,-0.44721 -3,-1c-1.08225,-0.66658 -3.19319,-3.32162 -4.29898,-4.21685c-4.97132,-4.02471 -9.88175,-7.89025 -15.38547,-11.19356c-3.90206,-2.342 -7.61634,-4.62017 -10.76899,-7.94844c-0.74563,-0.78716 -1.75578,-1.42296 -2.30867,-2.33479c-0.20836,0.61388 -0.45423,1.21518 -0.74806,1.79877c-1.29546,2.57303 -4.42283,5.07998 -6.24214,7.35323c-1.44779,1.80902 -2.86199,3.72002 -4.31223,5.62396c0.11165,0.34363 0.22832,0.68576 0.35065,1.02622c1.13244,3.15164 2.82516,6.07646 4.07062,9.18516c1.26801,3.8245 2.14616,7.76743 3.20636,11.65467c2.38375,8.74009 6.19789,17.59717 5.19506,26.84138c-0.76207,7.02481 -5.73938,13.87476 -10.52979,18.74953l-4.41401,3.3341c0,0 -6,4.5 -10.5,-1.5c-4.5,-6 1.5,-10.5 1.5,-10.5l3.58599,-2.6659c9.51952,-9.01827 3.62742,-19.54746 0.66527,-30.40909c-0.93981,-3.44611 -1.65732,-6.95893 -2.79364,-10.34533c-0.52146,-1.30619 -1.13212,-2.5757 -1.74433,-3.84425c-0.92255,0.41958 -1.9098,0.73335 -2.75151,1.29268c-1.73453,1.15263 -3.14399,2.75004 -4.8768,3.90525c-5.04112,5.04112 -7.93218,12.48931 -9.11725,19.4671c-0.8489,4.99836 1.21029,10.26428 1.8213,15.15067c0.30553,2.44336 0.26154,4.94178 0.22839,7.41626c0.52421,0.35001 0.9826,0.96212 0.9826,2.03262c0,2.5 -2.5,2.5 -2.5,2.5l-3.5,-2.5c0,-2.93489 0.19167,-5.96166 -0.17877,-8.88223c-0.68896,-5.43178 -2.70057,-10.96496 -1.78895,-16.51823c1.36206,-8.29715 4.93691,-16.58706 10.88275,-22.5329c1.819,-1.21267 3.30592,-2.87949 5.1232,-4.09475c1.12257,-0.75069 2.5044,-1.06323 3.65092,-1.76709c-0.05493,-0.14613 -0.10861,-0.29277 -0.16092,-0.43996c-0.27343,-0.76944 -0.52479,-1.54553 -0.75911,-2.32675c-1.75057,0.78509 -3.48244,1.55161 -5.11351,2.36574c-3.47706,1.47398 -6.76645,3.34867 -9.99701,5.3248c-0.89236,7.71103 -3.54716,14.4633 -8.11775,21.3153c-3.43767,4.57388 -6.87751,8.42996 -11.6541,11.63619l-2.26872,1.15594c0,0 -2.23607,1.11803 -3.3541,-1.11803c-1.11803,-2.23607 1.11803,-3.3541 1.11803,-3.3541l1.73128,-0.84406c4.26205,-2.81912 7.30244,-6.29637 10.3459,-10.36381c3.12443,-4.68942 5.38941,-9.7128 6.6815,-14.99207c-1.99728,1.18883 -4.22987,2.00117 -6.0882,3.3963c-1.74386,1.30919 -2.93278,3.24378 -4.58893,4.66229c-3.45887,2.96254 -9.03962,5.78565 -11.53,10.23225c-1.06131,1.89498 -1.65412,4.01671 -2.50443,6.01529c-0.50604,1.18941 -1.27094,2.28935 -1.56442,3.54818c-0.64957,2.7862 0.13533,5.72077 0.13533,8.58169v3c0,0 0,7.5 -7.5,7.5c-7.5,0 -7.5,-7.5 -7.5,-7.5v-3c0,-0.54212 -0.04994,-10.56293 0.13533,-11.41831c1.56966,-7.24727 5.712,-15.79676 11.09782,-20.92119c2.85321,-2.71474 6.31397,-4.71905 9.30334,-7.28309c1.92308,-1.64946 3.3836,-3.81838 5.41107,-5.33771c2.34732,-1.75903 5.12349,-2.86267 7.60947,-4.41958c2.65221,-1.66102 5.30931,-3.3371 8.0188,-4.91407c-1.10756,-2.73803 -3.78012,-5.19152 -5.21043,-7.40472c-2.18895,-3.38708 -2.84627,-7.54762 -4.99202,-10.98699c-2.10096,-3.36759 -5.05736,-5.61121 -7.03565,-9.05951c-2.00732,-3.49889 -3.07789,-7.05736 -4.30544,-10.85436c-0.04255,-5.79976 -0.39166,-11.76262 -0.02745,-17.5558c0.26445,-4.20645 1.16416,-8.21915 2.08681,-12.25744c-0.0137,-0.2608 -0.01227,-0.52366 0.0052,-0.78859c0.05222,-0.79219 0.28687,-1.50466 0.65934,-2.14785c0.16195,-0.73287 0.31983,-1.46829 0.47006,-2.20756c0.36149,-1.77894 0.3424,-3.6516 0.94893,-5.36257c0.05657,-0.15958 0.12496,-0.31312 0.20237,-0.46208c-0.38561,-0.42014 -0.70926,-0.86494 -0.9443,-1.34391c-3.63027,-0.28166 -7.20763,-0.75355 -10.93324,-0.77466c-2.3055,-0.01306 -4.75919,0.75745 -6.91637,-0.05619c-11.23908,-4.23915 -14.5785,-7.06376 -4.77887,-16.97031c2.4088,-2.43508 9.57118,-1.90254 12.58813,-1.97274c6.74611,-0.15696 13.49095,-0.36273 20.23582,-0.56759c0.91665,-1.47609 1.86432,-2.92578 2.79116,-4.31993c0,0 1.38675,-2.08013 3.46688,-0.69338c2.08013,1.38675 0.69338,3.46688 0.69338,3.46688c-0.30043,0.44928 -0.60224,0.9044 -0.90378,1.36433c1.19906,-0.03553 2.39813,-0.07056 3.59722,-0.10481c16.69227,-0.47681 33.39847,-0.61699 50.0952,-0.89512c0.50982,-0.00849 8.28878,-0.17165 15.0493,-0.25062c24.91291,-3.07547 50.01499,-4.99838 75.08194,-5.00053c7.55086,-0.00065 19.74946,-0.89557 27.81838,0.04478c4.88989,0.56987 9.59596,2.22941 14.44788,3.06288c2.64812,0.4549 5.37172,0.53311 7.96599,1.2324c0.30811,-0.48531 0.58467,-0.97239 0.80424,-1.46265c2.82399,-1.55342 5.90621,-2.65936 8.57819,-4.46173c1.00726,-0.67944 1.60297,-1.92693 2.70052,-2.44808c1.989,-0.94444 4.19425,-1.36242 6.34238,-1.84576c5.15439,-1.15976 10.31463,-2.35321 15.54772,-3.07962c7.49177,-1.03994 15.12503,-0.25694 22.68779,-0.36982c15.10772,-0.22549 30.67239,-1.43035 45.75753,-0.64413c7.57262,0.39468 14.904,2.80579 22.35238,4.22776c3.04503,0.58132 6.09006,1.16265 9.13508,1.74397c10.95398,0 21.90795,0 32.86193,0c6.76108,0 13.67014,-0.43109 20.41475,0.01148c3.01198,0.19764 5.99081,0.76364 9,1c3.48982,0.27411 7.01732,-0.2924 10.50162,0.04472c4.85245,0.46949 9.67842,1.54032 14.61529,1.96268c13.2001,1.12929 27.46167,-2.19344 40.38471,1.03732c5.65526,-0.05183 11.71648,0.18378 17.28499,1.04065c1.46884,0.22602 5.17301,1.71091 6.89554,2.20225c1.22939,0.35068 2.6011,0.31025 3.72211,0.92483c3.30546,1.81218 8.50286,2.61494 9.40884,6.27407c0.93329,3.76938 -2.70506,7.4795 -5.28488,10.38188c-2.79479,3.14423 -10.25658,2.12012 -13.94298,2.12012c-5.83211,0 -12.42084,0.78359 -18.20137,-0.09684c-1.04207,-0.15872 -1.95509,-0.86119 -3,-1c-2.15304,-0.28602 -4.44206,-0.26372 -6.74312,-0.17542c0.47225,0.56865 0.9516,1.13051 1.4474,1.67639c4.14839,4.56743 8.22756,10.22207 9.79645,16.37273c0.43339,1.69907 0.02988,3.51062 0.18614,5.25712c0.23949,2.67673 0.83165,5.31786 1,8c0.58121,9.25986 -1.04832,18.61417 -3.28461,27.56294c-0.60701,1.61536 -0.86771,3.40766 -1.82102,4.84608c-1.22328,1.84577 -3.09271,3.17126 -4.57982,4.81193c-0.30798,0.33979 -0.43694,0.86617 -0.77062,1.16086c0.54063,0.3015 1.07964,0.61295 1.35043,1.14124c0.03234,0.06309 0.06265,0.12406 0.09101,0.18298c0.51575,0.03341 1.04337,0.15233 1.52911,0.26c2.94307,0.65239 7.18802,-0.04139 8.6659,2.58599c2.26547,4.02755 1.25595,9.27959 0.5797,13.85083c-0.92077,6.22406 -5.58364,12.51678 -6.96676,18.87108c-0.60974,2.80124 -1.51792,5.54905 -1.87569,8.39348c-0.62717,4.98623 -0.2181,10.04021 -1,15c-0.38934,2.46971 -2.59413,7.31053 -3.44286,9.35109c-2.09573,1.42838 -4.19147,2.85676 -6.2872,4.28515c1.73154,0.23264 3.5575,-0.3376 5.3269,-0.3376c1.76048,0.02186 3.54578,-0.29547 5.20943,-0.87171l1.67254,-0.86436c0,0 2.23607,-1.11803 3.3541,1.11803c1.11803,2.23607 -1.11803,3.3541 -1.11803,3.3541l-2.32746,1.13564c-2.18329,0.70585 -4.49612,1.10651 -6.79057,1.12829c-0.55481,0 -7.38769,0.06405 -7.95671,-0.1903c-1.51479,-0.67713 -2.35128,-2.21785 -3.106,-3.81086c-0.72209,-0.02051 -7.43729,-0.40207 -7.43729,-7.49883c0,-1.81442 0.43895,-3.18989 1.10447,-4.23261c-0.21201,-0.50071 -0.44927,-0.9884 -0.73109,-1.45306c-0.50524,-0.83303 -1.62409,-1.20733 -2.04956,-2.08379c-1.35018,-2.78138 -0.79463,-6.21578 -2.028,-9.05089c-0.35738,-0.8215 -1.48569,-1.09371 -1.92728,-1.87319c-1.06404,-1.87818 -2.17651,-7.39147 -2.35671,-9.15698c-0.33688,-3.30067 -0.59848,-6.60966 -0.99966,-9.90313c-0.34328,-2.81824 0.26411,-5.85573 0.16509,-8.74746c-1.72141,1.63028 -3.4056,3.42144 -4.74391,5.08609c-2.03055,2.52568 -4.02363,5.08923 -5.83456,7.77674c-1.36272,2.02235 -1.76437,4.55451 -2.85301,6.73667c-0.16168,0.32408 -0.3454,0.64035 -0.53981,0.95274c3.48643,5.44561 8.10137,11.091 10.54122,16.81057c1.38441,3.24539 1.54933,6.90248 1.56915,10.26078c0.01405,2.38096 0.20347,4.384 -1.15159,6.74221c-2.1445,3.73208 -7.88455,7.39535 -11.36373,10.4257c-7.24378,6.30929 -14.96133,12.18551 -22.74995,18.12402c-2.03582,1.30926 -4.3749,2.3851 -6.12449,3.91261c-1.3098,1.14354 -2.35706,2.45773 -3.70168,3.57494l0.35865,-0.28698c0,0 0.01191,1.88975 -2.48807,1.89875c-2.49997,0.009 -2.51188,-1.88075 -2.51188,-1.88075l0.71904,-2.0948c1.47636,-1.11611 2.5019,-2.53159 3.88068,-3.71687c1.87315,-1.61027 4.30712,-2.79127 6.46934,-4.17923c7.65685,-5.84876 15.25308,-11.62643 22.37935,-17.83524c2.01727,-1.75756 3.97229,-3.55546 5.97655,-5.3215c1.63211,-1.43811 3.49267,-2.27206 4.57355,-4.13238c0.01787,-0.03075 0.03533,-0.06156 0.05239,-0.09241c-1.53327,0.87624 -2.90228,-0.49277 -2.90228,-0.49277l-2,-2c-2.03999,-2.14868 -3.04476,-4.73438 -3.90339,-7.4329c-2.10914,3.16514 -6.32884,3.16514 -6.32884,3.16514h-1c-1.94869,0 -3.91662,0.04298 -5.89273,0.09317c-0.52083,0.0775 -1.02557,0.08422 -1.50791,0.03908c-4.7783,0.12443 -9.58783,0.23793 -14.2729,-0.16255c-6.38159,-0.5455 -12.6085,-2.26165 -18.91005,-3.40739c-4.94203,-0.89857 -10.50095,-1.6939 -16.09821,-2.58696c-0.35536,1.54431 -0.65296,3.09985 -0.81142,4.67864c-0.80829,8.05295 -0.80679,17.2545 -4.21804,24.85183c-2.0474,4.55986 -5.92508,8.9195 -9.30062,12.51677c-2.21592,3.32132 -4.51647,6.94705 -7.02109,10.0204c-3.01028,3.69381 -4.18377,3.94191 -5.59531,8.24758l-3.37171,1.70943c0,0 -2.5,0 -2.5,-2.5c0,-1.57078 0.98694,-2.15462 1.72061,-2.37163c1.42881,-3.42766 3.10317,-4.85691 5.81237,-8.17136c2.51597,-3.07805 4.80686,-6.72098 7.04183,-10.04665c3.06972,-3.2708 6.76165,-7.25876 8.63645,-11.41617c3.20039,-7.09696 3.05748,-15.82103 3.8208,-23.34236c0.17122,-1.68708 0.48937,-3.34621 0.86653,-4.99246c-5.21923,-0.90675 -10.32314,-1.95107 -14.83571,-3.29833c-3.52972,-1.05382 -8.3105,-1.34933 -10.0497,-4.59657c-1.79718,-3.35549 0.04766,-7.80946 1.52653,-11.3169c1.57697,-3.74012 6.13183,-2.83827 7.87598,-5.83287c3.57159,-6.1322 7.93773,-11.74591 11.77435,-17.86969c0.72475,-1.1568 1.45089,-2.35573 2.18704,-3.57704c-0.1246,-0.73013 -0.25087,-1.46238 -0.37832,-2.19731c-0.18676,-3.29796 -0.05037,-6.62875 -0.54518,-9.89473c-1.41858,-9.36336 -5.20231,-18.37623 -6.43965,-27.81253c-0.92367,-7.04418 -0.04049,-14.80994 -0.01449,-21.94642c-1.11106,-0.80802 -2.19949,-1.6428 -3.25433,-2.51689c-0.1702,-0.14103 -0.33428,-0.28875 -0.49409,-0.44114c-1.58587,0.18616 -3.15411,0.24856 -4.66737,0.08488c-3.69035,-0.39916 -7.26501,-1.59699 -10.95552,-1.99466c-7.23352,-0.77944 -14.40659,-1.67738 -21.56628,-2.68141c6.98097,4.02438 13.7451,8.63754 18.20594,15.46449c5.29838,3.45002 6.90763,7.05358 8.63253,13.0688c1.436,5.00773 2.89117,9.7805 2.06742,15.09942c-0.57952,3.74193 -1.51474,3.7342 -3.30544,6.85436c-1.27502,2.22163 -1.61451,4.92839 -3.03565,7.05951c-2.24981,3.37381 -3.13411,2.6967 -5.19327,5.27064c-1.38056,1.7257 -2.7524,3.38891 -4.31525,4.88626c3.73465,6.84352 6.77521,18.83316 1.46621,25.9141c-3.30723,4.41106 -17.12183,11.15875 -19.49708,12.49451c-15.50198,8.69623 -30.56417,17.69537 -45.52343,27.20022c0.65081,1.89926 1.4826,4.12382 3.08015,4.69702c1.3299,0.47717 2.80247,0.36446 4.19901,0.57893c2.31721,0.35586 6.85957,1.32624 9.30296,1.14223c2.46685,-0.18577 4.88027,-0.98538 7.35407,-0.99824h2c0,0 2.5,0 2.5,2.5c0,2.5 -2.5,2.5 -2.5,2.5h-2c-2.33695,-0.01478 -4.6101,0.82675 -6.94199,0.98123c-2.9831,0.19763 -7.59572,-0.67065 -10.53704,-1.19325c-1.89176,-0.33612 -3.90495,-0.29419 -5.66493,-1.06506c-2.66861,-1.16885 -3.88655,-3.90327 -4.95278,-6.4846c-0.43349,0.2785 -0.86692,0.55745 -1.3003,0.83684c-8.77129,5.65469 -18.88337,11.13962 -27.16575,17.47142c-4.01685,3.07084 -6.37213,5.70969 -9.05734,9.89641c-0.24593,0.38345 -2.53512,4.1635 -2.08051,5.33387c1.0156,2.61466 2.03825,4.59632 4.00393,6.41985c1.32778,1.23176 1.76963,2.23892 2.89795,2.81032zM300.30199,119.79769c4.2193,-2.36066 8.43576,-4.72639 12.65789,-7.08197c0.56055,-0.31274 1.12398,-0.62028 1.68803,-0.92666c-0.61526,-2.40609 0.35223,-4.75518 -0.62853,-7.18697c-0.26517,-0.6575 -0.54697,-1.2982 -0.84449,-1.92311c-1.04312,0.46123 -2.07754,0.9365 -3.02299,1.5668c-0.37597,0.12798 -6.33542,2.1754 -6.69792,2.22193c-5.94357,0.76287 -12.15685,-0.71747 -18.095,0.01355c-2.63797,0.32475 -5.14261,1.34838 -7.73108,1.95185c-0.02144,0.005 -0.04288,0.00999 -0.06431,0.01498c0.08899,5.59395 0.77472,10.78601 2.60505,16.18019l0.38488,4.37171c0,0 0,0.88521 -0.30412,2.0474c7.74188,-4.34432 19.87249,-11.14868 20.05259,-11.24971zM264.52291,46.37045c9.6255,5.93914 19.16671,11.86596 28.61257,18.03898c1.03189,-0.71073 2.08008,-1.39727 3.1474,-2.05174c-0.21409,-0.62701 -0.14192,-1.41189 -0.36556,-2.05017c-1.39806,-3.99012 -3.06957,-7.99968 -6.1671,-11.00422c-5.23945,-5.08215 -11.52832,-10.23948 -18.40164,-13.17519c-1.65804,0.16255 -3.31854,0.29227 -4.98336,0.36541c-0.1098,0.00482 -5.88783,0.00614 -10.82775,0.00645c-0.59689,1.08857 -1.15073,2.1919 -1.65405,3.30515c3.54681,2.18793 7.09292,4.37701 10.6395,6.56533zM321.01382,86.44755c0.85393,1.16434 1.60259,2.39895 2.30906,3.66061c0.33281,-0.2768 0.65467,-0.56772 0.96287,-0.87593c0.79238,-0.79238 1.13438,-1.94216 1.83441,-2.81721c1.40416,-1.7552 3.56021,-2.85891 4.80673,-4.72936c1.39511,-2.0934 1.72016,-4.75402 2.96435,-6.94049c1.17512,-2.06508 2.39667,-2.78836 2.69456,-5.14564c0.58496,-4.62892 -0.69261,-8.54399 -1.93258,-12.90058c-1.57986,-5.55078 -2.62353,-7.7034 -7.36747,-10.9312c-5.80268,-8.55003 -14.68906,-13.33642 -23.48501,-18.19192c-0.39002,-0.2153 -0.77973,-0.42845 -1.16924,-0.63941c-0.36056,4.56345 -5.20627,6.17869 -5.20627,6.17869c-1.06626,0.32932 -2.06587,0.55414 -3.03282,0.71234c0.22201,0.19413 0.44301,0.38885 0.66302,0.58408c1.69959,1.50812 3.71254,2.66078 5.30139,4.28516c5.24435,5.36164 10.75454,14.61496 11.14051,22.38693c0.11901,2.39634 0.71216,5.21408 -0.68403,7.16529c-1.30976,1.83042 -2.93901,3.37253 -4.68668,4.80731c5.5529,3.83562 11.01058,8.1055 14.8872,13.39132zM265.55352,129l0.38488,0.37171c-1.68315,-5.1175 -2.97954,-10.85743 -3.55049,-16.67966c-2.2308,1.10975 -4.26175,2.65629 -6.40532,3.94144c-0.33528,0.20101 -0.72193,0.31033 -1.11831,0.39903c-1.46856,5.94736 -2.77728,11.90956 -3.18237,17.97964c0.86618,2.83171 1.38514,5.77797 2.48042,8.52843c0.4711,0.96181 0.94372,1.92237 1.41738,2.88166c5.18678,-3.3438 11.95227,-7.70506 15.65151,-10.08848c-5.6777,-1.10404 -5.6777,-7.33377 -5.6777,-7.33377zM249.91349,36.50002c-0.34938,-0.00001 -0.64017,-0.00002 -0.85997,-0.00002c-0.31534,0 -0.63237,0.00283 -0.95083,0.00787c0.50077,0.25775 0.98625,0.50795 1.44956,0.75168c0.11813,-0.25373 0.23857,-0.50693 0.36124,-0.75954zM39.89791,94.19617c1.07016,-0.5361 5.17395,-2.59249 7.72874,-3.87031c-1.07791,-3.38191 -3.22928,-6.42625 -3.93781,-9.90755c-0.97684,-4.79965 0.74814,-9.0205 2.81578,-13.13111c-4.77427,-7.45128 -11.12343,-14.10869 -17.29892,-19.56455c-2.99134,-2.64275 -9.6963,-6.10341 -13.90406,-10.34125c-0.3535,1.89503 -0.62941,3.81074 -0.75296,5.77395c-0.34199,5.43404 0.02138,10.99934 -0.02745,16.4442c1.43066,4.13044 2.66059,8.34014 5.46564,11.81548c1.70457,2.1119 3.75327,3.97019 5.19327,6.27064c2.15581,3.44399 2.80049,7.65744 5.00798,11.01301c1.30121,1.97794 4.01865,4.9574 5.11118,7.20294c0.06478,0.13314 0.12648,0.26636 0.18524,0.39967c1.44781,-0.75042 2.91669,-1.45751 4.41336,-2.10512zM32.29862,31.52834c2.22717,1.55123 4.57638,2.94769 6.60271,4.74901c1.42364,1.26555 2.70362,2.43011 3.87364,3.52793c-0.33148,-1.58672 -0.21494,-3.31179 -0.22145,-4.80528c-0.00632,-1.4492 -0.07417,-2.9617 -0.14661,-4.49853c-2.24584,0.00678 -8.25437,0.02711 -9.81996,-0.16054c-0.05992,0.42236 -0.1588,0.81777 -0.28833,1.18741zM66.18972,74.69248c1.53153,4.68296 3.14834,9.37655 2.63636,14.332c0.43013,-0.53747 0.86121,-1.07418 1.29408,-1.60945c0.50488,-0.62431 1.40148,-0.92729 1.75786,-1.64677c1.35845,-2.74259 1.28164,-6.18561 1.69423,-9.07371c0.19437,-1.36055 0.80068,-2.64016 1,-4c0.552,-3.76591 0.47423,-7.82469 0.3076,-11.8619c-1.2263,0.79257 -2.44817,1.59517 -3.66608,2.40774c-2.43997,1.62791 -5.18863,2.92348 -7.47354,4.73983c0.90228,2.13691 1.67556,4.34583 2.44949,6.71228zM62.89327,50.75962c1.85671,-1.23692 3.68886,-2.51275 5.53006,-3.7743c-1.5948,-0.86408 -2.9921,-2.24706 -4.77026,-2.51761c-3.6843,-0.56057 -7.86155,0.04859 -11.59954,0.03228c-1.47838,-0.00645 -3.18368,0.10769 -4.75708,-0.21153c3.2031,3.3947 5.67056,6.58665 8.82016,11.01737c2.4098,-1.71373 4.93711,-3.32073 6.77667,-4.54622zM18.12923,22.83592c-0.04491,0.2245 -0.08054,0.45131 -0.11041,0.67959c0.23092,-0.09462 0.46243,-0.186 0.69345,-0.2744c-0.19139,-0.13576 -0.38621,-0.27065 -0.58303,-0.40518zM75.28907,42.51317c1.05922,-0.63472 2.15234,-1.22171 3.26445,-1.78186c0,-3.57711 0,-7.15421 0,-10.73132c0,-0.19608 -0.00172,-0.39396 -0.00483,-0.59339c-1.68896,-0.44591 -3.38344,-0.88318 -5.06353,-1.24314c-3.45876,1.04335 -6.93184,1.98537 -10.51527,2.28033c-0.60349,0.04967 -9.51868,0.05647 -15.42058,0.05674c0.00273,0.16805 0.00421,0.33459 0.00421,0.49945c0,0.86371 -0.75408,7.21038 0.26777,8.23223c0.48163,0.48163 4.21682,0.26784 4.23223,0.26777c2.99996,-0.01467 6.00002,-0.01153 9,0c3.32616,0.01278 3.89595,-0.28692 7.09838,1.25421c1.05449,0.50746 1.8381,1.49685 2.91301,1.9595c0.89083,0.38342 1.90513,0.43415 2.85871,0.63549c0.45259,-0.28274 0.90758,-0.56166 1.36545,-0.83603zM89.28907,35.51317c2.11648,-1.17722 4.40062,-2.03958 6.54256,-3.16574c-2.88537,-0.15132 -5.75584,-0.42095 -8.59649,-0.89222c-1.20733,-0.2003 -2.43735,-0.4632 -3.68162,-0.7597c0,2.55465 0,5.1093 0,7.66394c1.94592,-0.90204 3.88282,-1.81577 5.73555,-2.84629zM148.28149,147.77671c1.35899,-2.15461 0.08389,-6.23274 -0.47894,-8.82667c-0.23469,0.43947 -0.45215,0.88647 -0.62691,1.35216c-0.44075,1.17443 -0.33115,2.51758 -0.82007,3.67279c-0.71162,1.68141 -3.25552,2.91907 -2.82416,4.69318c0.20311,0.83537 1.15631,1.28061 1.63465,1.99496c0.14755,0.22036 0.29358,0.4417 0.43831,0.66387c0.94894,-1.05769 1.84318,-2.22809 2.67713,-3.55029zM145.57239,112.53167c-0.11805,-2.11034 -0.00879,-12.69759 0.02591,-16.71329c-2.13443,-9.4041 -2.34741,-19.31954 -4.70363,-28.58212c-0.76789,-3.01864 -3.26583,-5.31448 -4.655,-8.10233c-1.57028,-3.15133 -3.09804,-6.73718 -3.71817,-10.39864c-2.29794,4.96534 -4.39516,10.03172 -6.43763,15.25976c-1.14269,2.92492 -2.76844,5.67383 -3.62728,8.69431c-1.30481,4.58894 -0.90308,9.60886 -0.90308,14.31064c-0.0724,10.94595 5.8429,20.58222 13.35092,28.09715c2.82955,2.83216 5.45096,3.96317 7.39487,7.80447c1.58421,3.1305 2.42629,6.88012 2.59685,10.73637c0.84418,-2.25307 1.58091,-4.54752 2.29031,-6.85482c-0.49501,-4.75651 -1.34535,-9.44749 -1.61408,-14.25151zM171.05352,30.5c-1.62527,-0.08751 -3.19315,0.63558 -4.79863,0.90316c-0.98639,0.1644 -2.00506,-0.10046 -3,0c-0.60619,0.06121 -1.16735,0.26158 -1.70341,0.54046c-0.00613,0.4866 -0.12625,0.84695 -0.12625,0.84695c-0.33333,1 -0.66667,2 -1,3l0.12829,1.20943c0,0 0,2.5 -2.5,2.5c-2.5,0 -2.5,-2.5 -2.5,-2.5l0.06066,-1.31957c-1.88103,1.03301 -3.72421,2.1459 -5.25736,3.62287c-1.89641,1.82692 -4.00787,5.07233 -3.00393,7.97355c1.87707,5.42445 6.28152,9.93405 7.85948,15.48689c0.6545,2.30319 0.82418,4.71344 1.12018,7.09437c0.57774,0.6421 1.41162,1.08058 1.84759,1.82756c0.44124,0.756 0.01638,1.93346 0.64114,2.54656c0.68007,0.66737 2.02458,0.1629 2.74972,0.781c3.33628,2.8438 3.94446,6.97787 3.98252,10.98677c0,0.4669 0.00949,6.15631 -0.03228,6.40046c-0.53469,3.12499 -1.9176,4.69194 -3.17612,7.59884c-0.6733,1.55517 -1.31691,3.12996 -1.94667,4.71343c-0.01303,2.2535 0.01218,4.5059 0.13621,6.75561c0.29802,5.40561 1.62446,10.71666 2.00739,16.11691c0.20455,2.88468 -0.36004,5.80327 -0.02502,8.67572c0.60726,5.20658 2.09707,10.7174 0.26487,15.86101l1.48553,-0.49518c2.5331,-0.83005 5.32753,-0.83157 7.76568,-1.90907c0.33146,-0.14648 4.78259,-3.72898 5.65,-4.42296c2.503,-2.00256 5.29697,-3.68225 7.52768,-5.98424c1.58378,-1.63439 2.50019,-3.80365 3.76262,-5.69729c1.38324,-2.06797 2.92847,-4.11524 3.73256,-6.51494c3.25666,-9.71906 -3.61372,-18.37505 -6.72647,-27.0647c-1.69027,-4.71861 -3.46894,-9.16444 -5.49702,-13.73447c-1.30594,-2.94278 -1.92839,-6.20186 -3.55336,-8.98124c-2.51149,-4.29569 -6.26304,-7.40324 -8.07716,-12.0688c-1.29843,-0.63378 -1.29843,-2.2491 -1.29843,-2.2491l0.00007,-4.01911c0.0134,-0.87779 0.13458,-9.5431 0.19177,-9.83003c0.3506,-1.75897 1.33866,-3.32851 1.9607,-5.01076c0.33923,-0.91743 1.95859,-6.11371 2.3347,-6.62293c0.77051,-1.0432 2.18791,-1.42832 3.10236,-2.34795c1.53197,-1.54063 2.97043,-3.15577 4.40662,-4.76082c-1.47301,0.05548 -2.94895,0.17597 -4.41259,0.03539c-0.62002,-0.05955 -1.23245,-0.16653 -1.84043,-0.30137c-1.25709,0.35757 -2.2432,0.35757 -2.2432,0.35757zM140.94099,153.33687c-0.3325,-0.55843 -0.76558,-1.08241 -1.17172,-1.61589c-0.25823,0.22376 -0.50055,0.46045 -0.68765,0.7408c-1.41974,2.12727 -2.43024,4.50846 -3.79827,6.66769c2.32713,-1.38369 4.52212,-2.73411 6.54778,-4.31206c-0.29885,-0.49225 -0.59556,-0.98578 -0.89014,-1.48054zM464.05352,142.5l0.09264,0.03607c0.1435,-0.57588 0.43251,-1.15044 0.5042,-1.73743c0.16164,-1.3235 -0.18856,-2.68007 0,-4c0.14907,-1.0435 0.80503,-1.9641 1,-3c0.49324,-2.62065 -0.32948,-5.35377 0,-8c0.15558,-1.24959 0.85242,-2.37699 1.12431,-3.60652c1.24482,-5.62929 2.17719,-10.31094 4.23645,-15.77179c0.88116,-2.33669 1.51262,-4.81796 2.5456,-7.08465c-1.24204,-0.0796 -2.43836,-0.28651 -3.4462,-0.95578c-0.49381,-0.32793 -8.28686,-12.1597 -8.40861,-12.89529c-0.80599,-4.8695 1.63073,-9.67411 4.55153,-13.23951c1.19133,-1.45425 3.31102,-2.48428 3.59916,-4.34199c1.8077,-7.22692 3.24681,-14.96118 2.71539,-22.43706c-0.19055,-2.68066 -0.79699,-5.32026 -1,-8c-0.06923,-0.91378 0.39932,-1.85163 0.18614,-2.74288c-0.86681,-3.62403 -3.81371,-6.93836 -6.20355,-9.62727c-1.77683,-1.9992 -3.12653,-4.39292 -5.11268,-6.18433c-0.69885,-0.63033 -1.65157,-0.87275 -2.54658,-1.212c-0.12767,0.04227 -0.25569,0.08347 -0.38404,0.12357c-0.70584,1.18896 -1.73089,2.16619 -2.95704,2.81356l0.00326,0.36333c0,0 0,2.5 -2.5,2.5c-1.78215,0 -2.29388,-1.27042 -2.44081,-2h-1.55919v-0.30705c-0.0529,0.01438 -0.10598,0.02827 -0.15923,0.04166l0.15923,0.26539c-2.86704,0 -5.74072,-0.02239 -8.61832,-0.0497c-2.94653,0.84049 -5.88499,1.92185 -8.84662,2.55741c0.80025,2.68497 0.99371,5.27963 1.00371,8.03269c2.93305,1.75369 5.73108,3.70986 8.1758,6.1402c7.74215,7.69661 13.54652,17.41573 15.68346,28.08519c0.1368,0.41356 2.04422,6.15782 2.06968,6.33376c0.44881,3.1012 0.03228,6.26695 0.03228,9.40046c0,0.66852 0.01949,8.2212 -0.06688,8.57438c-0.38559,1.57676 -1.47733,2.89323 -2.12342,4.38233c-0.50398,1.16157 -0.53769,2.56747 -1.32293,3.56078c-0.46183,0.5842 -1.09522,0.98363 -1.74958,1.36349c0.01558,0.06137 0.0301,0.12305 0.04346,0.18509c0.8226,3.81715 -0.2771,7.85916 0.20719,11.68759c0.20896,1.65192 0.81288,3.2415 0.98011,4.89816c0.37757,3.74038 -0.44683,8.57207 1.66353,12.04172c0.51442,0.84576 1.6823,1.21713 2.07272,2.12681c1.20472,2.807 0.58892,6.22557 1.972,8.94911c0.41268,0.81263 1.48489,1.13267 1.95044,1.91621c0.22597,0.38031 0.42323,0.7754 0.60209,1.17993c1.27045,-0.3656 2.27128,-0.3656 2.27128,-0.3656zM374.01607,78.44356c3.11285,-2.76612 6.98559,-4.56253 10.21695,-7.18923c0.33946,-0.27594 0.66579,-0.56631 0.98291,-0.8668c-3.01383,-2.10691 -5.33093,-4.70666 -8.12576,-6.9664c-3.61087,-2.96822 -6.7631,-6.59009 -7.79595,-10.691c-0.65661,-2.60707 0.03438,-4.77247 0.89238,-7.0188c-3.66271,-2.89447 -7.68638,-5.38437 -11.63308,-7.97191c0,0.42019 0,0.84038 0,1.26058c0,5.42227 -0.73646,11.37281 -0.01391,16.73662c1.2599,9.35284 5.00329,18.29827 6.41106,27.59032c0.01809,0.11939 0.18521,3.0973 0.33385,5.78709c2.55409,-3.91891 5.37302,-7.68603 8.73155,-10.67047zM390.09,65.37741c1.12492,-0.975 2.26887,-1.92985 3.43256,-2.86012c0.97137,-1.11186 1.98105,-2.20602 3.01828,-3.28593c-4.42039,-1.93255 -8.66038,-4.27901 -13.08942,-6.19722c-2.67736,-1.15956 -5.83547,-1.15902 -8.34089,-2.65426c-0.37631,-0.22458 -0.72422,-0.48571 -1.05368,-0.77081c-0.10511,0.77229 -0.08303,1.56386 0.14258,2.38865c0.92881,3.39561 3.48475,6.41158 6.54517,8.84388c2.5493,2.06599 4.67112,4.50784 7.39432,6.45604c0.6231,-0.66954 1.26156,-1.32261 1.95106,-1.92022zM329.34532,2.6459c0.0711,-0.1422 0.14371,-0.27988 0.21773,-0.41317c-1.20421,-0.01802 -2.40374,0.02702 -3.59315,0.21108c-4.72126,0.7306 -10.16414,1.17147 -14.69178,2.71868c-3.81155,1.3025 -7.71941,3.04714 -11.66051,4.57493c1.56018,0.27565 3.12141,0.54774 4.68345,0.81458c1.4923,0.01391 2.98423,0.00803 4.47525,-0.04687c0.20848,-0.00768 0.41693,-0.01572 0.62537,-0.02412c4.30432,-0.35878 8.6158,-0.65041 12.93536,-0.86098c2.24043,-0.18743 4.48037,-0.384 6.72073,-0.57299c-0.78996,-1.60561 -1.04336,-3.73932 0.28754,-6.40113zM382.9965,37.62012c1.6519,1.0153 3.87438,0.58789 5.65911,1.34574c5.07143,2.1535 9.86058,4.94891 14.97759,6.99175c1.6029,0.56301 3.19884,1.21645 4.68013,2.00306c1.68625,-1.57207 3.34601,-3.13975 4.94012,-4.71559c1.00903,-1.54402 3.05325,-4.56395 3.5007,-5.96823c0.2313,-0.72593 -0.17169,-1.51551 -0.20063,-2.27685c-0.03047,-0.80151 0.41484,-3.76348 0.22507,-5.40992c-2.08404,-1.15196 -4.20616,-2.24284 -6.18684,-3.56198c-0.56826,-0.37846 -0.91169,-1.03225 -1.38673,-1.52154c-0.38647,-0.00423 -0.77041,-0.00657 -1.1515,-0.00657c-6.02816,0 -12.05631,0 -18.08447,0c-0.82799,0.14329 -1.65629,0.28608 -2.48485,0.42837c-0.08651,0.11461 -0.17313,0.22916 -0.25986,0.34363c-2.37394,3.13324 -4.75915,6.28043 -6.79154,9.52817c0.85296,0.95122 1.48183,2.155 2.5637,2.81995zM409.01704,69.62259c-1.68116,1.61026 -3.60188,2.94031 -5.49798,4.30128c-0.18887,0.22686 -0.37371,0.45728 -0.554,0.69173c-0.83282,1.08306 -1.38752,2.35594 -2.05804,3.5495c0.5639,0.66447 1.12938,1.31967 1.70544,1.95353c3.76909,4.14723 8.10819,8.2297 11.43033,12.58754c2.49412,3.27169 4.38514,6.96164 6.53007,10.37356c3.34553,5.32172 6.69105,10.64343 10.03658,15.96515c0.71003,-1.85519 1.27632,-3.78157 2.36508,-5.43013c1.88238,-2.85023 3.9981,-5.54357 6.14567,-8.19972c1.92592,-2.38203 4.57145,-5.15251 7.07561,-7.30164c-0.251,-0.54194 -0.47172,-1.09289 -0.5921,-1.67412c-0.69536,-3.3574 -0.48014,-6.85071 -1.04164,-10.23307c0.01332,-5.08902 -1.18282,-9.88634 -1.97624,-14.80575c-0.18049,-1.11908 -0.20163,-2.27964 -0.03228,-3.40046c0.07138,-0.47243 1.07008,-0.89438 0.73223,-1.23223c-0.33785,-0.33785 -0.76144,0.65078 -1.23223,0.73223c-0.98536,0.17048 -2,0 -3,0c-0.88675,0 -9.08744,0.00377 -9.27279,-0.01493c-5.04687,-0.50925 -10.21675,-2.04651 -15.23303,-3.63532c-1.26845,2.24009 -3.64313,3.96491 -5.53066,5.77284zM371.46352,107.69497c-0.65605,1.05238 -1.88692,3.0213 -3.16791,5.06436c0.09454,1.01617 0.1788,2.03682 0.25162,3.06345c0.28363,3.99854 1.09669,8.28521 1.28434,12.49104c5.43709,1.01535 10.87976,2.00103 16.32164,2.99044c1.14195,0.20763 2.28082,0.43804 3.41838,0.67814c-2.9912,-2.52587 -5.68169,-5.40961 -7.83559,-8.94025c-5.34165,-8.75593 -4.19902,-13.9377 -4.18248,-24.04215c0.00069,-0.42341 0.00323,-0.85386 0.00825,-1.29015c-2.50186,3.82177 -4.73762,7.80253 -6.09824,9.98511zM363.92286,119.66914c-0.76134,1.04972 -2.03258,1.66007 -2.78503,2.71619c-0.79219,1.11191 -1.08111,2.5269 -1.79247,3.68705c1.82321,0.45281 3.64399,0.9296 5.4761,1.29457c-0.1708,-2.57438 -0.57564,-5.18346 -0.89663,-7.70055c-0.00068,0.00094 -0.00134,0.00185 -0.00198,0.00274zM424.05352,134.5h1c0,0 1.02967,0 2.32598,0.38152c-0.71989,-2.37211 -1.20641,-4.8087 -0.79369,-7.28198c0.22254,-1.33358 0.83112,-2.54671 1.51853,-3.73367c-4.01584,-6.38798 -8.03167,-12.77595 -12.04751,-19.16393c-2.08818,-3.32166 -3.91785,-6.92326 -6.34622,-10.10869c-3.25566,-4.27065 -7.52541,-8.26996 -11.21935,-12.33449c-0.16176,-0.17799 -0.32263,-0.35752 -0.48283,-0.53834c-1.60407,1.48152 -2.99342,2.41621 -3.9595,4.98405c-1.3884,3.69038 -1.50234,8.3975 -1.49541,12.29552c0.01191,6.7045 -1.66862,10.86864 1.81752,15.95785c5.41607,7.9066 14.10841,11.64556 21.84274,16.80177c1.19822,0.81344 2.39644,1.62687 3.59467,2.44031l0.36004,0.35275c1.30201,-0.03103 2.59832,-0.05268 3.88504,-0.05268zM380.76511,26.07011c-3.41715,0.57448 -6.83668,1.13991 -10.25546,1.69557c2.06264,1.37031 4.15987,2.69891 6.18314,4.11308c1.26865,-1.96287 2.64647,-3.89577 4.07231,-5.80864zM221.52185,34.48113c-6.94348,-0.67173 -14.0087,-1.97443 -20.98437,-1.98266c1.35499,3.01161 2.67522,6.03955 4.14615,8.99559c1.97867,3.97642 5.11579,7.26704 7.10725,11.2108c0.36636,0.72552 0.18541,1.6801 0.64252,2.35215c0.66777,0.98178 1.95463,1.43492 2.60773,2.42652c0.32011,0.48602 0.62953,0.9782 0.92951,1.47581c0.7185,-3.69472 1.55487,-7.34229 2.72145,-10.78013c0.48744,-1.43647 1.52419,-2.64519 2.01385,-4.0809c1.06747,-3.12989 0.91039,-6.37701 0.85898,-9.61312c-0.01436,-0.00132 -0.02872,-0.00267 -0.04308,-0.00406zM283.96753,90.6659c-1.75929,1.75929 -5.26963,4.59983 -5.90795,7.01086c-0.43178,1.63089 -0.52564,3.66562 -0.53283,5.6334c2.28792,-0.57233 6.8115,-1.74099 7.22131,-1.79144c5.88212,-0.72412 12.03071,0.72382 17.905,0.01355c1.85061,-0.22376 3.52909,-1.20243 5.30208,-1.77807c0.85924,-0.57283 1.79958,-1.00383 2.74928,-1.41946c-4.25924,-6.37768 -10.31514,-10.99202 -16.79864,-15.40394c-3.25131,2.65554 -6.57682,5.22208 -9.93825,7.7351zM249.40934,57.42326c-0.96866,4.2824 -0.85582,8.20204 -0.85582,12.57674c0,3.14195 -0.72619,6.35362 -0.06688,9.42562c0.74351,3.46431 4.26945,6.39999 5.81267,9.476c0.43648,0.87001 0.37872,1.95021 0.88084,2.78405c0.48636,0.80768 1.53625,1.17913 2,2c0.67835,1.20071 1.12699,2.55151 1.34109,3.91387c0.65408,4.16203 -0.73782,8.10371 -1.79544,12.05521c0.21948,-0.1597 0.44608,-0.30885 0.68302,-0.44274c1.47661,-0.8344 3.044,-1.5167 4.66521,-2.0951c-0.0652,-5.12374 0.51557,-10.17783 1.97342,-14.79368c1.53383,-4.8564 6.62011,-9.5172 10.09205,-12.98914c2.20713,-1.66035 4.35402,-3.39816 6.49004,-5.15003c-10.15562,-6.54145 -20.43519,-12.87076 -30.724,-19.20998c-0.15591,0.83098 -0.31864,1.65006 -0.49621,2.44918zM433.36322,137.04329c0.67834,1.36311 1.50276,2.66283 2.03501,4.08934c1.28216,3.43637 0.66795,6.56647 3.42305,9.0996l2,2c0,0 0.02743,0.02743 0.07204,0.07887c-0.00784,-0.39245 -0.02079,-0.78353 -0.0234,-1.17064c-0.01998,-2.96084 -0.1045,-6.25086 -1.32792,-9.11885c-1.88287,-4.41388 -5.13294,-8.79282 -8.09081,-13.06068c-0.23278,2.73844 1.07703,5.56446 1.91203,8.08236zM130.79255,30.4635c-0.09997,0.01308 -0.19983,0.02682 -0.29959,0.04118c0.24611,0.22355 0.4844,0.4525 0.69873,0.6974c0.04447,0.05081 1.41504,1.67081 2.89097,3.41631c0.78773,-1.40582 1.60174,-2.80683 2.44547,-4.20429c-1.93173,-0.11747 -3.85647,-0.19648 -5.73559,0.04941zM431.35289,40.72315c-1.44371,4.95167 -3.80764,8.03403 -6.4993,12.03177c-2.26604,2.28732 -4.53611,4.57034 -6.80886,6.8507c5.56855,1.60532 11.20546,2.90431 17.00879,2.89439c2.09113,-0.00358 10.21448,-0.82105 11.76777,0.73223c1.61734,1.61734 0.34606,5.31958 0.69995,7.36731c0.87038,5.03629 2.01079,9.98528 2.02376,15.19425c0.49866,2.97998 0.31791,6.05673 0.83876,9.02859c0.15186,-0.57152 0.12946,-1.23215 0.36006,-1.77909c0.52776,-1.25177 1.53851,-2.30194 1.87658,-3.61767c0.28422,-1.10616 -0.05659,-2.28357 -0.06688,-3.42562c-0.03671,-4.07617 0.59819,-8.57239 0.03228,-12.59954c-0.28677,-2.04075 -1.32744,-3.90209 -1.96915,-5.86043c-1.95657,-9.79698 -7.19403,-18.61757 -14.2777,-25.72062c-1.44481,-1.44876 -3.03008,-2.71446 -4.70042,-3.86342c0.01879,0.94073 -0.02459,1.8718 -0.28564,2.76716zM365.61106,4.37825c-3.27949,-0.62608 -6.55898,-1.25217 -9.83847,-1.87825c-0.90636,0 -1.81271,0 -2.71907,0c-2.77984,0 -5.55967,0 -8.33951,0c1.35029,0.95486 2.63688,1.99565 3.82772,3.13599c0.17836,-0.02513 0.3569,-0.04921 0.53563,-0.0722c5.40354,-0.69488 10.96177,-0.97593 16.53371,-1.18554zM153.61389,6.88066c-0.77893,0.03001 -1.55783,0.06172 -2.33671,0.09512c0.18006,0.64392 0.27635,1.32283 0.27635,2.02422c0,1.67455 -0.5488,3.22093 -1.47635,4.46908c0.18806,0.01321 0.37574,0.02449 0.56231,0.02995c0.82695,-0.08545 1.68168,-0.13261 2.55143,-0.15433c0.19138,-1.09986 0.40468,-2.20544 0.41881,-3.26108c0.01343,-1.00412 -0.01493,-2.0929 0.00417,-3.20296zM253.19007,-1.50366c1.62331,-0.00317 3.24541,0.00366 4.86345,0.00366c6.77278,0 14.37002,0.9507 21.08363,0.05619c1.36233,-0.18151 2.6377,-0.81824 4,-1c1.81678,-0.24239 3.73517,0.58078 5.49807,0.07913c0.81346,-0.23148 1.62359,-0.48586 2.43107,-0.75762c-3.64844,0.12738 -7.28456,0.23912 -10.89582,0.29302c-7.10726,0.10608 -14.28476,-0.71212 -21.32223,0.28705c-1.89933,0.26966 -3.78158,0.63751 -5.65816,1.03857zM160.5858,91.59954c0.29588,-1.84294 -0.03228,-3.733 -0.03228,-5.59954c0.02611,-2.10236 -0.0184,-5.54083 -2.01748,-7.01323c-0.26254,-0.19337 -0.57069,-0.30915 -0.89607,-0.39413c0.75765,4.78182 1.59006,9.55173 2.58944,14.28676c0.1672,-0.45561 0.29369,-0.8893 0.35639,-1.27985zM198.85262,120.90309c0.51986,-1.64548 0.9786,-3.34003 1.82102,-4.84608c0.48232,-0.86227 1.63398,-1.23285 2.07407,-2.11741c1.0915,-2.19384 1.46205,-4.68685 2.43102,-6.93749c0.77739,-1.80567 1.6142,-3.58575 2.45784,-5.36272c1.14587,-6.12123 2.33078,-12.23422 3.5694,-18.33556c-0.31881,-0.26705 -0.66135,-0.52436 -0.82767,-0.88455c-2.44589,-5.29705 -4.04536,-11.0688 -7.31239,-15.90281c-0.91967,-1.36077 -2.48973,-2.2013 -3.39227,-3.57348c-0.71296,-1.08396 -0.78223,-2.48493 -1.35748,-3.64785c-1.86358,-3.76738 -4.98406,-6.98858 -6.89275,-10.7892c-2.18493,-4.35069 -4.04952,-8.85528 -6.12966,-13.25702c-0.45415,-0.96101 -0.84215,-1.78291 -1.19677,-2.51676c-1.80935,2.03984 -3.57217,4.13573 -5.50838,6.06042c-0.71779,0.71352 -1.89431,0.89655 -2.52231,1.69024c-1.16427,1.47145 -1.00151,3.62206 -1.6653,5.37707c-0.54476,1.44029 -1.4484,2.7646 -1.75321,4.27401c-0.58629,2.9033 -0.049,5.92365 -0.09433,8.88521l0.00005,2.93977c0.62664,0.51529 0.87173,1.25056 0.87173,1.25056c1.35127,4.43236 5.44328,7.49577 7.75271,11.47267c0.30705,0.52874 3.51653,8.78234 3.87445,9.5883c2.07785,4.67887 3.90867,9.24673 5.63493,14.07909c2.86411,8.01758 7.79171,15.31766 7.83541,23.62785c0.10726,-0.35919 0.21713,-0.7173 0.32989,-1.07424z" fill="url(#color-3)" stroke-width="0.5"/><path d="M-34.53454,291.11112v-222.22223h69.06907v222.22223z" fill="url(#color-4)" stroke-width="0"/></g></g></svg>