<svg version="1.1" xmlns="http://www.w3.org/2000/svg" xmlns:xlink="http://www.w3.org/1999/xlink" width="625" height="498.25117" viewBox="0,0,625,498.25117"><defs><linearGradient x1="157.14541" y1="8.99671" x2="146.833" y2="25.85655" gradientUnits="userSpaceOnUse" id="color-1"><stop offset="0" stop-color="#6e1f00"/><stop offset="1" stop-color="#320e00"/></linearGradient></defs><g transform="translate(72,27.25117)"><g stroke-miterlimit="10"><path d="M-72,380.5v-401h624v401z" fill="#e2e2e2" stroke="none" stroke-width="NaN" stroke-linecap="butt"/><path d="M-46,471v-208h599v208z" fill="#0034bd" stroke="none" stroke-width="0" stroke-linecap="butt"/><g><path d="M50.79517,89.21066l72.15015,-116.46183l82.88341,51.34773l-58.82234,95.89804l-34.57997,7.39772z" fill="#bdbdbd" stroke="none" stroke-width="0" stroke-linecap="butt"/><path d="M111.52764,126.7819l11.67712,-20.39351l22.99693,13.16781z" fill="#f0f0f0" stroke="none" stroke-width="0" stroke-linecap="butt"/><path d="M95.57421,39.9038l31.07196,-50.15509l62.0563,38.44496l-31.07196,50.15509z" fill="#e2e2e2" stroke="none" stroke-width="0" stroke-linecap="butt"/><text transform="translate(133.32335,-6.94646) rotate(31.77885) scale(0.5,0.5)" font-size="40" xml:space="preserve" fill="#000000" stroke="none" stroke-width="1" stroke-linecap="butt" font-family="Serif" font-weight="normal" text-anchor="start"><tspan x="0" dy="0">wanted</tspan></text><text transform="translate(94.97151,57.89818) rotate(31.77828) scale(0.5,0.49877) skewX(-0.00137)" font-size="40" xml:space="preserve" fill="#000000" stroke="none" stroke-width="1" stroke-linecap="butt" font-family="Serif" font-weight="normal" text-anchor="start"><tspan x="0" dy="0">reward</tspan></text><text transform="translate(80.46362,72.53092) rotate(31.77885) scale(0.5,0.5)" font-size="40" xml:space="preserve" fill="#000000" stroke="none" stroke-width="1" stroke-linecap="butt" font-family="Serif" font-weight="normal" text-anchor="start"><tspan x="0" dy="0">$5.000$</tspan></text><g stroke-width="0.5"><g stroke="none" stroke-linecap="butt"><path d="M131.7037,38.121c-2.96368,4.84534 -4.85354,8.12258 -11.11113,4.57018c-6.82763,-3.87602 -4.29686,-7.33646 -1.33318,-12.18181c2.96368,-4.84534 6.39767,-8.02401 11.58837,-4.96745c5.66513,3.06692 3.81962,7.73373 0.85594,12.57908z" fill="#000000"/><path d="M122.87992,51.19018c-0.77456,1.26634 -1.47577,2.42556 -2.20079,3.38376c-1.89263,-1.13024 -11.51075,-6.82286 -11.9239,-6.93968c0.21271,-1.80967 0.26943,-1.74893 1.68038,-4.0557c2.96368,-4.84534 6.39767,-8.02401 11.58837,-4.96745c5.66513,3.06692 3.81962,7.73373 0.85594,12.57908z" fill="#ffe1ad"/></g><g stroke="none" stroke-linecap="butt"><path d="M143.25988,46.55942c2.96368,-4.84534 6.27773,-8.61393 11.58837,-4.96745c5.08533,3.22883 3.81962,7.73373 0.85594,12.57908c-2.96368,4.84534 -4.89163,8.6745 -11.45207,4.36164c-6.0127,-3.95278 -3.95592,-7.12792 -0.99223,-11.97326z" fill="#000000"/><path d="M135.4286,59.0488c2.96368,-4.84534 6.27772,-8.61392 11.58836,-4.96745c5.08533,3.22883 3.81962,7.73373 0.85594,12.57907c-1.33505,2.18269 -1.0111,2.13083 -2.44395,3.24972c-3.36948,-2.14243 -11.32659,-7.07653 -11.41422,-7.13414c-0.10075,-0.06624 -0.20156,-0.13237 -0.30245,-0.19839c0.19446,-0.56479 0.93374,-2.24938 1.71631,-3.52881z" fill="#ffe1ad"/></g><path d="M144.18892,53.28354c-3.01122,4.92307 -8.13537,11.0956 -8.13537,11.0956l-18.0293,-11.1872c0,0 3.23507,-7.37408 6.15479,-12.14756c5.73828,-9.38155 5.64975,-20.08408 20.39502,-10.86724c15.60315,9.75307 5.35314,13.72484 -0.38514,23.10639z" fill="#000000" stroke="none" stroke-linecap="butt"/><path d="M140.25934,29.5141c0,0 0.51386,1.58343 3.29705,3.21225c3.01677,1.76552 4.27301,1.09919 4.27301,1.09919l-16.655,27.74824c-2.49514,-1.57922 -4.93047,-3.25811 -7.46534,-4.7747z" fill="#009dff" stroke="none" stroke-linecap="butt"/><path d="M145.97619,25.83654c-0.66254,-0.40525 -1.19959,-0.73385 -1.19953,-0.73395c0.00006,-0.00009 0.5372,0.32834 1.19975,0.73359c0.66254,0.40525 1.19958,0.73384 1.19952,0.73393c-0.00006,0.00009 -0.5372,-0.32833 -1.19974,-0.73358z" fill="#000000" stroke="none" stroke-linecap="butt"/><path d="M161.08972,28.42062c-3.89036,6.36038 -12.20023,8.36273 -18.56061,4.47236c-6.36037,-3.89036 -8.36272,-12.20022 -4.47236,-18.5606c3.89036,-6.36037 12.20022,-8.36272 18.5606,-4.47236c6.36037,3.89036 8.36273,12.20023 4.47237,18.5606z" fill="#ffe1ad" stroke="none" stroke-linecap="butt"/><path d="M149.16416,18.3716c-0.63824,0.05802 -1.27927,0.09832 -1.91603,0.15735c-0.39805,0.0369 -0.77846,0.21858 -1.17557,0.2445c-0.48935,1.51353 -1.99579,3.54037 -3.01239,3.72304c-1.87394,0.33672 -2.92183,-0.62426 -3.72832,-1.80694c-0.63271,-0.38858 -1.36866,-0.84616 -1.50517,-0.95902c-1.16428,-0.96247 -2.1824,-2.42602 -3.08383,-3.61148c-1.49624,-1.96768 -2.02042,-3.68128 -0.31993,-5.8309c0.4249,-0.53712 0.99631,-0.96176 1.59364,-1.29678c0.75279,-0.4222 3.05661,-0.92526 3.91485,-0.94332c0.35567,-0.00748 0.68479,0.21807 1.03984,0.24039c0.44224,0.02781 0.84327,-0.27622 1.27482,-0.37683c1.02734,-0.2395 1.92631,-0.69842 2.96019,-0.95877c1.26733,-0.29169 1.50799,-0.42597 2.9747,-0.33036c0.27373,0.01785 0.51605,0.2278 0.79036,0.22923c0.36909,0.00193 0.72029,-0.27402 1.08534,-0.21946c2.09286,0.31279 4.26031,1.51615 6.17904,2.29192c1.63497,0.66105 3.16583,1.3559 4.62583,2.38333c0.54261,0.38184 1.20951,0.65422 1.58954,1.19811c0.41213,0.58985 0.4263,1.3754 0.67926,2.04903c0.45016,1.1988 1.28862,2.30365 1.60499,3.552c0.29011,1.14469 0.10192,2.48454 0.59161,3.61351c0.2327,0.53648 0.69747,0.96097 0.8846,1.515c0.14621,0.43284 0.05941,0.9118 0.08911,1.36771c0.94032,1.84287 1.61769,4.58941 -0.98658,5.99902c-0.95014,0.51428 -2.13081,-0.38717 -3.16399,-0.70302c-0.64551,-0.19734 -1.15643,-0.6967 -1.72747,-1.05662c-1.22202,-0.77022 -2.4503,-1.85749 -3.28758,-3.05577c-0.87075,-1.24617 -1.23018,-2.75641 -2.21026,-3.94703c-0.45402,-0.55155 -2.07186,-1.18789 -2.70624,-1.57592c-1.02353,-0.62605 -2.02204,-1.29339 -3.05437,-1.89192z" fill="url(#color-1)" stroke="none" stroke-linecap="butt"/><path d="M153.40989,24.63893c-0.68081,1.11307 -1.82487,1.6532 -2.55532,1.20641c-0.73045,-0.44679 -0.77069,-1.71128 -0.08987,-2.82435c0.68081,-1.11307 1.82486,-1.6532 2.55531,-1.20642c0.73045,0.44679 0.77069,1.71129 0.08988,2.82436z" fill="#000000" stroke="none" stroke-linecap="butt"/><path d="M149.48699,29.65874c0,0 -1.88972,0.76296 -4.11331,-0.58372c-2.40399,-1.45594 -2.60581,-3.67988 -2.60581,-3.67988" fill="none" stroke="#000000" stroke-linecap="round"/><path d="M148.42266,21.58846c-0.68081,1.11307 -1.82486,1.6532 -2.55532,1.20641c-0.73045,-0.44679 -0.77069,-1.71129 -0.08988,-2.82435c0.68081,-1.11307 1.82486,-1.6532 2.55532,-1.20641c0.73045,0.44679 0.77069,1.71129 0.08987,2.82436z" fill="#000000" stroke="none" stroke-linecap="butt"/></g></g><path d="M-34.53454,291.11112v-222.22223h69.06907v222.22223z" fill="#692e00" stroke="none" stroke-width="0" stroke-linecap="butt"/></g></g></svg>