<svg version="1.1" xmlns="http://www.w3.org/2000/svg" xmlns:xlink="http://www.w3.org/1999/xlink" width="75.67131" height="170.71785" viewBox="0,0,75.67131,170.71785"><defs><linearGradient x1="234.985" y1="94.55992" x2="234.985" y2="131.77915" gradientUnits="userSpaceOnUse" id="color-1"><stop offset="0" stop-color="#6e1f00"/><stop offset="1" stop-color="#320e00"/></linearGradient></defs><g transform="translate(-199.65684,-94.55991)"><g stroke-miterlimit="10"><path d="M204.67186,264.63888v-169.27776h70.65629v169.27776z" fill-opacity="0.01176" fill="#696969" stroke="none" stroke-width="0" stroke-linecap="butt"/><g stroke-width="0" stroke-linecap="butt"><g fill="#001a08" stroke="#6b7680"><path d="M255.74961,225.67513c-3.71677,8.23265 -6.04972,13.77824 -16.6274,9.41223c-11.54127,-4.76374 -8.23329,-10.72538 -4.51652,-18.95802c3.71677,-8.23265 8.50578,-13.92854 17.30176,-10.13361c9.54666,3.7173 7.55892,11.44677 3.84215,19.67941z"/><path d="M234.80077,250.32107c-7.58275,4.90843 -13.33195,8.8153 -19.86025,-0.58313c-7.12302,-10.2546 -0.32883,-13.98325 7.25392,-18.89167c7.58275,-4.90843 14.69324,-7.10361 20.03294,0.84991c6.01284,8.29474 0.15613,13.71646 -7.42662,18.62489z"/></g><path d="M228.24906,242.01169c6.67837,10.31703 5.08243,18.85217 -1.10779,22.85919c-6.19022,4.00702 -23.54617,-22.80518 -17.35595,-26.81221c6.19022,-4.00702 11.78537,-6.36402 18.46374,3.95302z" fill="#808080" stroke="none"/></g><path d="M244.04219,151.86294c9.88218,-4.09339 19.10461,-6.15899 23.1498,5.27849c4.16496,10.55186 -2.75455,16.00856 -12.63674,20.10195c-9.88218,4.09339 -17.06121,7.78728 -22.27091,-6.04987c-4.77474,-12.68188 1.87566,-15.23718 11.75785,-19.33057z" fill="#000000" stroke="#6b7680" stroke-width="0" stroke-linecap="butt"/><path d="M217.69811,181.81983c2.42128,-10.41877 6.10777,-19.12104 17.76339,-15.75557c11.00505,2.75274 11.41647,11.55536 8.99519,21.97413c-2.42128,10.41877 -3.59451,18.40669 -17.87931,14.59195c-13.09213,-3.49624 -11.30052,-10.39173 -8.87925,-20.8105z" fill="#ffe1ad" stroke="#6b7680" stroke-width="0" stroke-linecap="butt"/><path d="M256.87181,178.83575c0,20.71042 2.72748,34.49306 -22.40438,34.00382c-24.79159,-0.48262 -21.7688,-13.2934 -21.7688,-34.00382c0,-20.71042 -10.65897,-37.81733 22.08659,-37.49954c34.65069,0.33628 22.08659,16.78912 22.08659,37.49954z" fill="#000000" stroke="#6b7680" stroke-width="0" stroke-linecap="butt"/><path d="M229.6052,212.45821l-0.25424,-65.84665c0,0 2.38147,2.02403 8.45329,1.90676c6.58141,-0.12712 7.94482,-2.41523 7.94482,-2.41523v65.46529c0,0 -2.74821,1.04578 -8.51684,1.33473c-5.07556,0.25423 -7.62703,-0.44491 -7.62703,-0.44491z" fill="#009dff" stroke="none" stroke-width="0" stroke-linecap="butt"/><path d="M232.9326,162.39749c5.99035,8.86166 10.13156,14.6589 -0.84151,22.60996c-11.97269,8.67538 -15.92756,1.63674 -21.91791,-7.22492c-5.99035,-8.86166 -8.75722,-17.22825 0.53322,-23.73798c9.67855,-7.31472 16.23584,-0.50873 22.2262,8.35294z" fill="#000000" stroke="#6b7680" stroke-width="0" stroke-linecap="butt"/><path d="M245.95522,177.61314c9.88385,4.08937 16.53529,6.64199 11.76572,19.32579c-5.20407,13.83927 -12.3846,10.14829 -22.26845,6.05892c-9.88385,-4.08937 -16.80559,-9.54326 -12.64491,-20.09681c4.04055,-11.43912 13.2638,-9.37727 23.14765,-5.2879z" fill="#ffe1ad" stroke="#6b7680" stroke-width="0" stroke-linecap="butt"/><g stroke-width="0" stroke-linecap="butt"><path d="M234.60347,209.32522c8.32772,3.49856 13.93286,5.68458 9.84707,16.37363c-4.45799,11.66278 -10.50471,8.51304 -18.83243,5.01448c-8.32772,-3.49856 -14.14782,-8.13582 -10.58597,-17.02875c3.46446,-9.64129 11.24363,-7.85792 19.57134,-4.35936z" fill="#00300f" stroke="#6b7680"/><path d="M254.18834,236.60833c1.46234,8.9136 2.74091,15.74605 -8.48503,17.96591c-12.24858,2.42209 -12.94547,-5.29659 -14.40779,-14.21019c-1.46233,-8.9136 -0.62739,-16.30824 8.79862,-18.01736c10.00818,-2.18935 12.63188,5.34805 14.09422,14.26165z" fill="#00300f" stroke="#6b7680"/><path d="M242.64987,240.50246c12.38011,-1.98963 19.71199,2.88972 20.93061,10.16639c1.21862,7.27667 -30.95518,12.44739 -32.1738,5.17073c-1.21862,-7.27667 -1.13692,-13.34748 11.24319,-15.33712z" fill="#bdbdbd" stroke="none"/></g><g><path d="M232.77253,132.65066c-1.4626,0 -2.64828,-0.00018 -2.64828,-0.00039c0,-0.00021 1.18567,-0.00039 2.64828,-0.00039c1.4626,0 2.64827,0.00018 2.64827,0.00039c0,0.00021 -1.18567,0.00039 -2.64827,0.00039z" fill="#000000" stroke="none" stroke-width="0" stroke-linecap="butt"/><path d="M259.59208,121.95086c0,14.04097 -11.38245,25.42342 -25.42342,25.42342c-14.04096,0 -25.42341,-11.38245 -25.42341,-25.42342c0,-14.04096 11.38245,-25.42341 25.42341,-25.42341c14.04096,0 25.42342,11.38245 25.42342,25.42341z" fill="#ffe1ad" stroke="#6b7680" stroke-width="0" stroke-linecap="butt"/><path d="M231.37506,117.46367c-0.96834,0.72037 -1.95858,1.41502 -2.92355,2.13556c-0.60322,0.45042 -1.03582,1.11611 -1.64832,1.54795c0.70109,2.91238 0.27263,7.64884 -1.18107,8.94127c-2.67967,2.38237 -5.30744,1.86822 -7.76524,0.76071c-1.3983,-0.00253 -3.03026,-0.01449 -3.36047,-0.06166c-2.81621,-0.40217 -5.89,-1.75296 -8.50306,-2.77164c-4.33728,-1.69086 -6.86325,-3.92873 -6.24366,-9.05313c0.15482,-1.28042 0.65553,-2.52412 1.28596,-3.64929c0.7945,-1.41799 4.00134,-4.49003 5.36237,-5.36237c0.56405,-0.36152 1.31442,-0.32256 1.90676,-0.63559c0.7378,-0.38989 1.08331,-1.27241 1.67774,-1.85809c1.41512,-1.39427 2.40838,-3.01491 3.81351,-4.44909c1.74938,-1.71395 2.00405,-2.16616 4.4543,-3.45381c0.45729,-0.24031 1.0529,-0.14112 1.49499,-0.40837c0.59485,-0.35959 0.88791,-1.148 1.52798,-1.41906c3.6696,-1.55403 8.33414,-1.75063 12.17895,-2.38975c3.2762,-0.5446 6.41836,-0.93258 9.77349,-0.71664c1.24694,0.08025 2.58599,-0.13749 3.73096,0.36286c1.2417,0.54263 2.03639,1.79071 3.10471,2.62435c1.90119,1.48356 4.33387,2.43464 6.06881,4.12926c1.59089,1.55391 2.60517,3.89133 4.50123,5.22386c0.90102,0.63322 2.06478,0.85846 2.90983,1.56464c0.66021,0.5517 0.99142,1.40646 1.48713,2.1097c3.32153,2.03663 7.10861,5.7834 4.30992,10.60705c-1.02107,1.75984 -3.80365,1.47183 -5.77386,1.97964c-1.23094,0.31727 -2.54246,0.01709 -3.81351,0c-2.72006,-0.03658 -5.76171,-0.57634 -8.28431,-1.67867c-2.62342,-1.14638 -4.68489,-3.21943 -7.42936,-4.16912c-1.27137,-0.43994 -4.49578,0.12752 -5.89623,0.12752c-2.25952,0 -4.51939,-0.09094 -6.766,-0.03809z" fill="url(#color-1)" stroke="none" stroke-width="0.5" stroke-linecap="butt"/><path d="M251.18381,126.50589c0,2.45717 -1.3072,4.4491 -2.91972,4.4491c-1.61252,0 -2.91972,-1.99193 -2.91972,-4.44909c0,-2.45717 1.3072,-4.4491 2.91972,-4.4491c1.61252,0 2.91972,1.99193 2.91972,4.4491z" fill="#000000" stroke="none" stroke-width="0" stroke-linecap="butt"/><path d="M236.35348,126.29402c0,2.45717 -1.3072,4.4491 -2.91972,4.4491c-1.61252,0 -2.91972,-1.99193 -2.91972,-4.44909c0,-2.45717 1.3072,-4.4491 2.91972,-4.4491c1.61252,0 2.91972,1.99193 2.91972,4.4491z" fill="#000000" stroke="none" stroke-width="0" stroke-linecap="butt"/><path d="M240.50946,136.6413l12.04178,-0.34135" fill="none" stroke="#000000" stroke-width="2.5" stroke-linecap="round"/></g></g></g></svg>