<svg version="1.1" xmlns="http://www.w3.org/2000/svg" xmlns:xlink="http://www.w3.org/1999/xlink" width="319.44071" height="219.73957" viewBox="0,0,319.44071,219.73957"><defs><linearGradient x1="240.00001" y1="91.43896" x2="240.00001" y2="128.65819" gradientUnits="userSpaceOnUse" id="color-1"><stop offset="0" stop-color="#782200"/><stop offset="1" stop-color="#800000"/></linearGradient><linearGradient x1="199.33964" y1="170.67463" x2="228.06431" y2="236.17311" gradientUnits="userSpaceOnUse" id="color-2"><stop offset="0" stop-color="#800000"/><stop offset="1" stop-color="#000000"/></linearGradient><linearGradient x1="203.53022" y1="174.04672" x2="230.38142" y2="235.27331" gradientUnits="userSpaceOnUse" id="color-3"><stop offset="0" stop-color="#800000"/><stop offset="1" stop-color="#009dff"/></linearGradient><linearGradient x1="203.53022" y1="174.04672" x2="230.38142" y2="235.27331" gradientUnits="userSpaceOnUse" id="color-4"><stop offset="0" stop-color="#800000"/><stop offset="1" stop-color="#009dff"/></linearGradient><linearGradient x1="175.13086" y1="191.97504" x2="180.10392" y2="229.32511" gradientUnits="userSpaceOnUse" id="color-5"><stop offset="0" stop-color="#800000"/><stop offset="1" stop-color="#000000"/></linearGradient><linearGradient x1="213.04972" y1="135.03413" x2="212.8266" y2="141.36352" gradientUnits="userSpaceOnUse" id="color-6"><stop offset="0" stop-color="#800000"/><stop offset="1" stop-color="#ffffff"/></linearGradient><linearGradient x1="208.69425" y1="135.02916" x2="208.47113" y2="141.35856" gradientUnits="userSpaceOnUse" id="color-7"><stop offset="0" stop-color="#800000"/><stop offset="1" stop-color="#ffffff"/></linearGradient><linearGradient x1="204.46159" y1="134.87996" x2="204.23847" y2="141.20935" gradientUnits="userSpaceOnUse" id="color-8"><stop offset="0" stop-color="#800000"/><stop offset="1" stop-color="#ffffff"/></linearGradient><linearGradient x1="200.34513" y1="134.7728" x2="200.12201" y2="141.1022" gradientUnits="userSpaceOnUse" id="color-9"><stop offset="0" stop-color="#800000"/><stop offset="1" stop-color="#ffffff"/></linearGradient><linearGradient x1="195.98966" y1="134.76783" x2="195.76654" y2="141.09723" gradientUnits="userSpaceOnUse" id="color-10"><stop offset="0" stop-color="#800000"/><stop offset="1" stop-color="#ffffff"/></linearGradient><linearGradient x1="191.757" y1="134.61863" x2="191.53388" y2="140.94803" gradientUnits="userSpaceOnUse" id="color-11"><stop offset="0" stop-color="#800000"/><stop offset="1" stop-color="#ffffff"/></linearGradient><linearGradient x1="173.27077" y1="124.38452" x2="224.10096" y2="123.08485" gradientUnits="userSpaceOnUse" id="color-12"><stop offset="0" stop-color="#ffe1ad"/><stop offset="1" stop-color="#800000"/></linearGradient><linearGradient x1="198.4965" y1="96.45857" x2="199.44784" y2="133.66565" gradientUnits="userSpaceOnUse" id="color-13"><stop offset="0" stop-color="#782200"/><stop offset="1" stop-color="#800000"/></linearGradient><linearGradient x1="209.38599" y1="93.90659" x2="210.33732" y2="131.11367" gradientUnits="userSpaceOnUse" id="color-14"><stop offset="0" stop-color="#782200"/><stop offset="1" stop-color="#800000"/></linearGradient><radialGradient cx="213.42127" cy="128.58285" r="5.31741" gradientUnits="userSpaceOnUse" id="color-15"><stop offset="0" stop-color="#ffffff"/><stop offset="1" stop-color="#000000"/></radialGradient><radialGradient cx="186.15807" cy="130.21151" r="5.31741" gradientUnits="userSpaceOnUse" id="color-16"><stop offset="0" stop-color="#ffffff"/><stop offset="1" stop-color="#000000"/></radialGradient><linearGradient x1="213.05238" y1="175.3694" x2="212.82926" y2="169.04001" gradientUnits="userSpaceOnUse" id="color-17"><stop offset="0" stop-color="#800000"/><stop offset="1" stop-color="#ffffff"/></linearGradient><linearGradient x1="208.69691" y1="175.37437" x2="208.47379" y2="169.04497" gradientUnits="userSpaceOnUse" id="color-18"><stop offset="0" stop-color="#800000"/><stop offset="1" stop-color="#ffffff"/></linearGradient><linearGradient x1="204.46425" y1="175.52357" x2="204.24113" y2="169.19418" gradientUnits="userSpaceOnUse" id="color-19"><stop offset="0" stop-color="#800000"/><stop offset="1" stop-color="#ffffff"/></linearGradient><linearGradient x1="200.34779" y1="175.63073" x2="200.12467" y2="169.30133" gradientUnits="userSpaceOnUse" id="color-20"><stop offset="0" stop-color="#800000"/><stop offset="1" stop-color="#ffffff"/></linearGradient><linearGradient x1="195.99232" y1="175.6357" x2="195.7692" y2="169.3063" gradientUnits="userSpaceOnUse" id="color-21"><stop offset="0" stop-color="#800000"/><stop offset="1" stop-color="#ffffff"/></linearGradient><linearGradient x1="191.75966" y1="175.7849" x2="191.53654" y2="169.4555" gradientUnits="userSpaceOnUse" id="color-22"><stop offset="0" stop-color="#800000"/><stop offset="1" stop-color="#ffffff"/></linearGradient></defs><g transform="translate(-155.13804,-98.3391)"><g stroke-miterlimit="10"><path d="M388.78332,318.07867v-177.30391h85.79543v177.30391z" fill-opacity="0.01176" fill="#696969" stroke="none" stroke-width="0"/><path d="" fill="url(#color-1)" stroke="none" stroke-width="0.5"/><g><g><g stroke-width="0"><path d="M234.37157,196.26317c8.31791,18.96665 16.35126,30.49339 -6.86105,40.13904c-22.89803,9.51505 -25.27494,-3.43114 -33.59285,-22.39779c-8.31791,-18.96665 -24.95006,-30.35224 5.16604,-43.21279c1.32979,-0.56786 3.88968,1.15829 5.09506,0.70533c0.3488,-0.13107 0.28078,-2.19862 0.61955,-2.32034c26.54716,-9.53863 21.70286,9.14036 29.57325,27.08656z" fill="#800000" stroke="#6b7680"/><path d="M227.51053,236.4022c-22.89803,9.51504 -25.27493,-3.43114 -33.59285,-22.39779c-8.31791,-18.96665 -24.95006,-30.35224 5.16604,-43.21278c0.86072,-0.36756 4.81227,1.70125 5.62033,1.38221c1.3012,-0.51374 -0.58224,-3.37725 0.5891,-3.76985c20.93071,-7.01552 21.78396,4.8514 26.02028,19.23401c-0.83239,-0.83954 -1.80083,-1.5164 -2.85253,-2.00996c-6.55444,-7.70949 -19.46966,-9.90163 -27.76529,-3.19501c-3.24614,2.62435 -2.57566,16.68599 -2.50483,19.21892c0.33209,11.87681 12.56973,24.41956 25.1792,18.88962c5.12594,-2.24801 9.53766,-7.17639 12.86574,-11.59903c0.26728,-0.35519 0.47626,-0.73337 0.63849,-1.12996c0.58654,-1.05238 0.98092,-2.20543 1.16023,-3.4005c6.37482,14.27675 9.16185,23.80991 -10.5239,31.99013z" fill="url(#color-2)" stroke="#6b7680"/><path d="M237.33173,230.70701c0,0 -2.0968,2.06149 -7.26368,4.64296c-4.54611,2.27132 -7.16354,2.65579 -7.16354,2.65579l-7.16851,-16.17568c0.93373,-0.27381 1.9033,-0.75872 2.80265,-0.95367c3.16902,-0.6869 8.6363,-3.05434 11.99679,-5.66641z" fill="url(#color-3)" stroke="none"/></g><path d="M196.22573,177.80537c0,0 2.99386,0.89714 8.50735,-1.64888c5.97621,-2.7597 6.30586,-5.40274 6.30586,-5.40274l3.25557,7.4234c-1.30413,0.04608 -2.86517,0.39851 -3.74248,0.4301c-4.50544,0.16224 -8.58407,2.34248 -11.49132,5.59521z" fill="url(#color-4)" stroke="none" stroke-width="0"/><path d="M206.47292,180.34853c4.66207,-2.04458 15.38892,3.44279 19.6752,13.21644c4.28627,9.77364 3.04409,14.80058 -1.61798,16.84515c-4.66207,2.04458 -10.97861,0.33255 -15.26488,-9.4411c-4.28627,-9.77364 -7.45441,-18.57592 -2.79234,-20.62049z" fill="#960028" stroke="none" stroke-width="NaN"/></g><path d="M236.88156,217.8793c8.78139,-2.11613 14.59189,-3.67638 17.63413,7.35513c3.31938,12.03645 -3.41787,13.08201 -12.19926,15.19814c-8.78138,2.11613 -16.21748,1.82915 -18.61754,-7.44504c-2.92193,-9.81933 4.40129,-12.99209 13.18267,-15.10822z" fill="#00300f" stroke="#6b7680" stroke-width="0"/><path d="M218.64336,224.69526c8.2921,-3.58216 13.75157,-6.11011 18.62986,4.2413c5.3227,11.29439 -1.1377,13.47317 -9.4298,17.05533c-8.2921,3.58216 -15.66827,4.56705 -19.6142,-4.16224c-4.5531,-9.17748 2.12204,-13.55223 10.41414,-17.13439z" fill="#00300f" stroke="#6b7680" stroke-width="0"/><path d="M262.03289,248.69476c0,9.03276 0.15558,15.98206 -11.28164,16.35525c-12.47912,0.40719 -11.91723,-7.3225 -11.91723,-16.35525c0,-9.03276 2.02107,-16.19468 11.59944,-16.35525c10.2306,-0.54022 11.59943,7.3225 11.59943,16.35526z" fill="#00300f" stroke="#6b7680" stroke-width="0"/><path d="M239.15181,247.72584c0,9.03276 0.15559,15.98206 -11.28164,16.35525c-12.47912,0.40719 -11.91722,-7.32249 -11.91722,-16.35525c0,-9.03276 2.02107,-16.19468 11.59943,-16.35525c10.2306,-0.54022 11.59944,7.3225 11.59944,16.35526z" fill="#00300f" stroke="#6b7680" stroke-width="0"/><path d="M227.55678,249.76979c12.2899,0 18.58766,5.97777 18.58766,13.35171c0,7.37394 -31.93936,7.37394 -31.93936,0c0,-7.37394 1.0618,-13.35171 13.3517,-13.35171z" fill="#bdbdbd" stroke="none" stroke-width="0"/><path d="M251.49717,249.6794c12.2899,0 18.58767,5.97777 18.58767,13.35171c0,7.37394 -31.93937,7.37394 -31.93937,0c0,-7.37394 1.06179,-13.35171 13.3517,-13.35171z" fill="#bdbdbd" stroke="none" stroke-width="0"/><path d="M191.309,209.39088c1.41174,10.60285 2.53433,17.63828 -10.83258,19.86388c-14.58461,2.42834 -14.987,-5.63526 -16.39874,-16.2381c-1.41174,-10.60285 -0.15871,-19.32553 11.05948,-21.01103c11.92447,-2.23307 14.7601,6.78241 16.17184,17.38526z" fill="url(#color-5)" stroke="#6b7680" stroke-width="0"/><path d="M184.31032,244.81078c-4.70077,9.60813 -7.66524,16.08651 -20.02519,10.5314c-13.48591,-6.06118 -9.35216,-12.99628 -4.65139,-22.60441c4.70077,-9.60813 10.57774,-16.17444 20.84979,-11.36053c11.1634,4.74953 8.52756,13.82542 3.82679,23.43355z" fill="#ffe1ad" stroke="#6b7680" stroke-width="0"/><g><g><path d="M184.12357,174.0811c0,0 10.29797,-15.94277 10.29797,-24.12667c0,-7.88978 -5.88455,-22.65553 -5.88455,-22.65553l26.18627,-0.29423c0,0 -5.00187,15.79022 -5.00187,23.83244c0,8.04222 7.64992,21.47862 7.64992,21.47862z" fill="#800000" stroke="none" stroke-width="0"/><path d="M204.38841,181.43936c-14.03224,0.49465 -22.96494,1.83806 -23.45959,-12.19418c-0.18824,-5.33991 -0.44429,2.52538 1.95177,-3.05968c1.63394,-3.8086 3.41214,-5.64555 4.71182,-2.74407c2.86031,6.38548 6.22442,-1.14151 7.6147,-3.39224c1.66404,-2.69395 1.74169,8.72476 3.05551,6.47533c2.56277,-4.38781 5.78024,0.00532 6.71112,-0.0275c3.0162,-0.10632 5.03591,-14.47881 7.13275,0.31382c0.27197,1.91868 3.2406,-3.60433 4.87941,-2.62817c1.89371,1.12799 3.60696,4.80289 4.93357,4.98807c3.43246,0.47912 4.90815,-4.48359 4.92031,-4.13879c0.49465,14.03224 -8.41912,15.91276 -22.45136,16.40741z" fill="#800000" stroke="#6b7680" stroke-width="0"/><path d="M224.10067,123.07344c0.22902,8.95673 -4.2173,16.94846 -11.12053,21.64398c-1.57651,1.07233 -4.87503,-4.25171 -5.02999,-2.32303c-1.19472,14.86967 -4.08343,0.66863 -7.10053,0.74577c-0.93115,0.02381 -3.87592,4.59734 -6.7004,0.38002c-1.44799,-2.16204 -0.83211,9.22259 -2.65667,6.63882c-1.52437,-2.15868 -5.33935,-9.45587 -7.80662,-2.91844c-1.1211,2.97053 -3.00756,1.24777 -4.86975,-2.44871c-2.73078,-5.42061 -5.40937,-15.08555 -5.54573,-20.41874c-0.35833,-14.0146 10.7299,-25.66662 24.76628,-26.02552c14.03638,-0.3589 25.70561,10.71124 26.06394,24.72585z" fill="#800000" stroke="#6b7680" stroke-width="0"/><g stroke="none" stroke-width="0"><g><path d="M204.1776,135.11862c-1.46169,-0.05153 -2.64663,-0.09348 -2.64662,-0.09369c0.00001,-0.00021 1.18495,0.04138 2.64665,0.09291c1.46169,0.05153 2.64662,0.09348 2.64661,0.09369c-0.00001,0.00021 -1.18495,-0.04138 -2.64664,-0.09291z" fill="#000000"/><path d="M213.04973,135.03413c2.68407,0.04447 1.69906,4.89623 1.69906,4.89623l-4.40884,-0.04424c0,0 -0.53206,-4.9057 2.70977,-4.85199z" fill="url(#color-6)"/><path d="M208.69426,135.02915c2.68407,0.04447 1.69906,4.89624 1.69906,4.89624l-4.40884,-0.04424c0,0 -0.53206,-4.90569 2.70977,-4.852z" fill="url(#color-7)"/><path d="M204.46159,134.87995c2.68407,0.04447 1.69906,4.89624 1.69906,4.89624l-4.40884,-0.04424c0,0 -0.53206,-4.90569 2.70977,-4.852z" fill="url(#color-8)"/></g><g><path d="M191.47302,134.85729c-1.46169,-0.05153 -2.64663,-0.09348 -2.64662,-0.09369c0.00001,-0.00021 1.18495,0.04138 2.64665,0.09291c1.46169,0.05153 2.64662,0.09348 2.64661,0.09369c-0.00001,0.00021 -1.18495,-0.04138 -2.64664,-0.09291z" fill="#000000"/><path d="M200.34514,134.7728c2.68407,0.04447 1.69906,4.89623 1.69906,4.89623l-4.40884,-0.04424c0,0 -0.53206,-4.9057 2.70977,-4.85199z" fill="url(#color-9)"/><path d="M195.98967,134.76782c2.68407,0.04447 1.69906,4.89624 1.69906,4.89624l-4.40884,-0.04424c0,0 -0.53206,-4.90569 2.70977,-4.852z" fill="url(#color-10)"/><path d="M191.757,134.61862c2.68407,0.04447 1.69906,4.89624 1.69906,4.89624l-4.40884,-0.04424c0,0 -0.53206,-4.90569 2.70977,-4.852z" fill="url(#color-11)"/></g></g><path d="M224.10168,123.11283c0.05825,2.27829 -0.18505,4.49423 -0.6936,6.60957c-0.06267,-0.18724 -0.13035,-0.37277 -0.20287,-0.55644c0.00651,-0.15418 0.0088,-0.30882 0.00675,-0.46379c0.51199,-1.24649 0.77891,-2.61736 0.74225,-4.05098c-0.14117,-5.52105 -4.7313,-9.88229 -10.25234,-9.74112c-5.07158,0.12968 -9.16451,4.01343 -9.68789,8.92436c-0.37997,0.15839 -0.76666,0.31581 -1.16405,0.4693l-1.59373,1.12237c-1.21106,1.40258 -2.80989,2.53501 -3.95247,4.04912c-3.58888,4.75585 -4.4835,6.97292 -1.90456,11.96512c-13.26606,-0.53607 -21.78343,-3.56271 -22.12771,-17.0278c-0.3589,-14.03638 10.7289,-25.70605 24.76527,-26.06494c14.03638,-0.3589 25.70606,10.7289 26.06494,24.76527z" fill="url(#color-12)" stroke="#6b7680" stroke-width="0"/><path d="M205.9237,128.13414c-0.10588,-4.14078 3.16507,-7.58338 7.30585,-7.68925c4.14079,-0.10587 7.58338,3.16507 7.68925,7.30585c0.10588,4.14078 -3.16507,7.58338 -7.30585,7.68925c-4.14078,0.10588 -7.58337,-3.16506 -7.68925,-7.30585z" fill="#000000" stroke="none" stroke-width="0.5"/><path d="M195.86482,116.98175c-0.46031,0.36108 -2.65445,-0.03019 -4.90112,-0.44439c2.48106,-1.51283 5.61605,-3.50342 5.64931,-3.53939c0.58443,-0.63205 0.30758,-1.69824 0.5621,-2.52059c0.34969,-1.12981 0.50136,-2.21859 0.48856,-3.26732c0.0502,0.02573 0.10064,0.05104 0.15134,0.07592c0.90058,0.44228 1.87644,0.75281 2.90181,0.90709c5.80674,1.71019 13.68044,-0.60499 14.76115,-7.90542c1.50498,0.8617 3.09034,1.64536 4.34026,2.80531c1.63009,1.51274 2.70378,3.82347 4.63328,5.1071c0.91691,0.60998 2.08604,0.80541 2.94887,1.48975c0.67409,0.53464 1.02705,1.38065 1.54057,2.071c3.3725,1.95107 7.25412,5.59981 4.57964,10.49342c-0.97576,1.78537 -3.76479,1.56857 -5.72138,2.12657c-1.22243,0.34863 -2.54119,0.08207 -3.81226,0.09748c-2.7201,0.03295 -2.78948,-1.05085 -5.33943,-2.08834c-2.65187,-1.07895 -3.69368,-3.85355 -6.46154,-4.73278c-1.2822,-0.4073 -4.45594,-1.94104 -5.85593,-1.90524c-2.25878,0.05776 -8.22073,1.11955 -10.46525,1.22981z" fill="url(#color-13)" stroke="none" stroke-width="0.5"/><path d="M193.19103,130.62179c1.28571,0.54026 0.389,0.56373 -0.41372,0.12132c0.02817,-0.03769 0.05608,-0.07556 0.08372,-0.11365c0.11093,-0.00252 0.22118,-0.00508 0.33,-0.00766z" fill="url(#color-14)" stroke="none" stroke-width="0.5"/><g stroke="none" stroke-width="0"><path d="M218.73858,128.55401c0.00785,1.44642 -2.36644,2.63188 -5.30314,2.64781c-2.93668,0.01592 -5.32369,-1.14374 -5.33153,-2.59017c-0.00785,-1.44642 2.36644,-2.63188 5.30314,-2.64781c2.93668,-0.01592 5.32369,1.14374 5.33153,2.59017z" fill="url(#color-15)"/><path d="M215.91429,127.28837c0.00785,1.44642 -1.10508,2.62505 -2.48577,2.63254c-1.38069,0.00748 -2.50632,-1.15901 -2.51416,-2.60544c-0.00784,-1.44642 1.10509,-2.62505 2.48578,-2.63253c1.38069,-0.00748 2.50632,1.15901 2.51416,2.60544z" fill="#000000"/></g><path d="M179.40805,129.57111c0,-3.72792 3.02208,-6.75 6.75,-6.75c3.72792,0 6.75,3.02208 6.75,6.75c0,3.72792 -3.02208,6.75 -6.75,6.75c-3.72792,0 -6.75,-3.02208 -6.75,-6.75z" fill="#000000" stroke="none" stroke-width="0.5"/><g stroke="none" stroke-width="0"><path d="M191.47539,130.18268c0.00785,1.44643 -2.36644,2.63188 -5.30315,2.64781c-2.93668,0.01592 -5.32369,-1.14374 -5.33152,-2.59017c-0.00785,-1.44642 2.36644,-2.63188 5.30314,-2.64781c2.93668,-0.01592 5.32369,1.14375 5.33153,2.59017z" fill="url(#color-16)"/><path d="M188.6511,128.91704c0.00785,1.44643 -1.10508,2.62506 -2.48577,2.63254c-1.38069,0.00748 -2.50632,-1.159 -2.51416,-2.60544c-0.00784,-1.44642 1.10509,-2.62505 2.48577,-2.63253c1.38069,-0.00748 2.50632,1.159 2.51416,2.60544z" fill="#000000"/></g></g><g stroke="none" stroke-width="0"><g><path d="M206.8269,175.192c0.00001,0.00021 -1.18492,0.04216 -2.64661,0.09369c-1.4617,0.05153 -2.64664,0.09312 -2.64665,0.09291c-0.00001,-0.00021 1.18493,-0.04216 2.64662,-0.09369c1.46169,-0.05153 2.64663,-0.09312 2.64664,-0.09291z" fill="#000000"/><path d="M213.05238,175.3694c-3.24183,0.05371 -2.70977,-4.85199 -2.70977,-4.85199l4.40884,-0.04424c0,0 0.98501,4.85176 -1.69906,4.89623z" fill="url(#color-17)"/><path d="M208.69691,175.37438c-3.24183,0.05369 -2.70977,-4.852 -2.70977,-4.852l4.40884,-0.04424c0,0 0.98501,4.85177 -1.69906,4.89624z" fill="url(#color-18)"/><path d="M204.46424,175.52358c-3.24183,0.05369 -2.70977,-4.852 -2.70977,-4.852l4.40884,-0.04424c0,0 0.98501,4.85177 -1.69906,4.89624z" fill="url(#color-19)"/></g><g><path d="M194.12232,175.45333c0.00001,0.00021 -1.18492,0.04216 -2.64661,0.09369c-1.4617,0.05153 -2.64664,0.09312 -2.64665,0.09291c-0.00001,-0.00021 1.18493,-0.04216 2.64662,-0.09369c1.46169,-0.05153 2.64663,-0.09312 2.64664,-0.09291z" fill="#000000"/><path d="M200.34779,175.63073c-3.24183,0.05371 -2.70977,-4.85199 -2.70977,-4.85199l4.40884,-0.04424c0,0 0.98501,4.85176 -1.69906,4.89623z" fill="url(#color-20)"/><path d="M195.99232,175.63571c-3.24183,0.05369 -2.70977,-4.852 -2.70977,-4.852l4.40884,-0.04424c0,0 0.98501,4.85177 -1.69906,4.89624z" fill="url(#color-21)"/><path d="M191.75965,175.78491c-3.24183,0.05369 -2.70977,-4.852 -2.70977,-4.852l4.40884,-0.04424c0,0 0.98501,4.85177 -1.69906,4.89624z" fill="url(#color-22)"/></g></g></g></g></g></g></svg>