<svg version="1.1" xmlns="http://www.w3.org/2000/svg" xmlns:xlink="http://www.w3.org/1999/xlink" width="251.26413" height="134.54145" viewBox="0,0,251.26413,134.54145"><defs><linearGradient x1="258.49283" y1="178.7728" x2="423.99341" y2="178.7728" gradientUnits="userSpaceOnUse" id="color-1"><stop offset="0" stop-color="#00ffc3"/><stop offset="1" stop-color="#00ffc3" stop-opacity="0"/></linearGradient><radialGradient cx="239.99999" cy="180.00001" r="67.26954" gradientUnits="userSpaceOnUse" id="color-2"><stop offset="0" stop-color="#00ffc1"/><stop offset="1" stop-color="#00ffc1" stop-opacity="0"/></radialGradient><radialGradient cx="240" cy="180.00001" r="67.26954" gradientUnits="userSpaceOnUse" id="color-3"><stop offset="0" stop-color="#00ffc1"/><stop offset="1" stop-color="#00ffc1" stop-opacity="0"/></radialGradient></defs><g transform="translate(-172.72927,-112.72927)"><g stroke="none" stroke-miterlimit="10"><path d="M210.44035,188.57898c0,0 -2.82026,-0.32292 -3.09985,-7.82545c-0.26062,-6.99354 2.93691,-8.49009 2.93691,-8.49009l48.34235,-0.48283l0.16296,16.31555z" fill="#00ffc3" stroke-width="0"/><path d="M278.80604,178.60445c0.11041,11.05495 -7.34686,20.09213 -16.65629,20.1851c-9.30943,0.09298 -16.94572,-8.79345 -17.05612,-19.8484c-0.11041,-11.05495 7.34686,-20.09213 16.65629,-20.1851c9.30943,-0.09298 16.94572,8.79345 17.05612,19.8484z" fill="#00ffc3" stroke-width="0"/><path d="M258.70676,195.25796l-0.21393,-30.66592l165.03864,-42.81901l0.46194,113.99955z" fill="url(#color-1)" stroke-width="0"/><g stroke-width="0.5"><path d="M172.79378,182.91797c-1.61155,-37.11697 27.17128,-68.51265 64.28825,-70.1242c37.11697,-1.61155 68.51265,27.17128 70.1242,64.28825c1.61155,37.11697 -27.17128,68.51265 -64.28825,70.1242c-37.11697,1.61155 -68.51265,-27.17128 -70.1242,-64.28825z" fill="url(#color-2)"/><path d="M172.79378,182.91798c-1.61155,-37.11697 27.17128,-68.51265 64.28825,-70.1242c37.11697,-1.61155 68.51265,27.17128 70.1242,64.28825c1.61155,37.11697 -27.17128,68.51265 -64.28825,70.1242c-37.11697,1.61155 -68.51265,-27.17128 -70.1242,-64.28825z" fill="url(#color-3)"/></g></g></g></svg>