<svg version="1.1" xmlns="http://www.w3.org/2000/svg" xmlns:xlink="http://www.w3.org/1999/xlink" width="581.55343" height="377.39735" viewBox="0,0,581.55343,377.39735"><g transform="translate(50.77672,-35.8017)"><g stroke-miterlimit="10"><g><path d="M338.50001,332.8017v-280h106v280z" fill="#003327" stroke="none" stroke-width="none" stroke-linecap="butt"/><g><path d="M206.54945,63.48613l17.39309,-27.19874l41.92181,-0.48569l13.3793,27.68443z" fill="#11ff00" stroke="none" stroke-width="NaN" stroke-linecap="butt"/><path d="M131.62537,63.48613l17.39309,-27.19874l41.92181,-0.48569l13.3793,27.68443z" fill="#ff0000" stroke="none" stroke-width="NaN" stroke-linecap="butt"/><path d="M38.02975,324.1983v-263.03631h302.46883v263.03631z" fill-opacity="0.50196" fill="#00ffbf" stroke="#003327" stroke-width="17.5" stroke-linecap="butt"/><path d="M253.14605,88.53624h64.00364l-0.51615,77.101" fill="none" stroke="#003327" stroke-width="17.5" stroke-linecap="round"/><path d="M61.89479,164.17871l-0.51615,-77.10101h64.00364" fill="none" stroke="#003327" stroke-width="17.5" stroke-linecap="round"/><path d="M125.38228,295.09789h-64.00364l0.51615,-77.10101" fill="none" stroke="#003327" stroke-width="17.5" stroke-linecap="round"/><path d="M316.63354,216.53835l0.51615,77.10101h-64.00364" fill="none" stroke="#003327" stroke-width="17.5" stroke-linecap="round"/><path d="M76.55865,110.72221c0,-7.94435 5.7773,-14.38451 12.90396,-14.38451c7.12666,0 12.90396,6.44016 12.90396,14.38451c0,7.94435 -5.7773,14.38452 -12.90396,14.38452c-7.12666,0 -12.90396,-6.44017 -12.90396,-14.38452z" fill="#ff0000" stroke="none" stroke-width="0.5" stroke-linecap="butt"/><text transform="translate(57.46079,66.19117) scale(0.37596,0.4191)" font-size="40" xml:space="preserve" fill="#ffffff" stroke="none" stroke-width="1" stroke-linecap="butt" font-family="Sans Serif" font-weight="normal" text-anchor="start"><tspan x="0" dy="0">nvc-3000</tspan></text></g></g><g stroke="#6b7680" stroke-width="0" stroke-linecap="butt"><path d="M-28.88058,322.7124c21.41847,-29.37433 35.17373,-49.30169 73.25222,-23.39542c41.5473,28.2663 23.60846,49.03017 2.18999,78.40454c-21.41847,29.37433 -44.97325,47.87237 -76.50267,25.68237c-34.55065,-22.50204 -20.35801,-51.31712 1.06046,-80.69149z" fill="#000000"/><path d="M34.18542,243.91215c21.41847,-29.37433 35.17374,-49.30169 73.25223,-23.39542c41.5473,28.2663 23.60845,49.03017 2.18998,78.40454c-21.41847,29.37433 -44.97325,47.87237 -76.50266,25.68237c-34.55065,-22.50204 -20.35801,-51.31712 1.06046,-80.69149z" fill="#ffe1ad"/></g><g stroke="#6b7680" stroke-width="0" stroke-linecap="butt"><path d="M509.94104,403.40389c-31.52942,22.19 -55.0842,3.69196 -76.50266,-25.68237c-21.41847,-29.37437 -39.35732,-50.13825 2.18998,-78.40454c38.07849,-25.90627 51.83376,-5.97891 73.25223,23.39542c21.41846,29.37437 35.61111,58.18945 1.06046,80.69149z" fill="#000000"/><path d="M446.87505,324.60364c-31.52941,22.19 -55.0842,3.69196 -76.50267,-25.68237c-21.41847,-29.37437 -39.35731,-50.13825 2.18999,-78.40454c38.07849,-25.90627 51.83376,-5.97892 73.25223,23.39542c21.41847,29.37437 35.61111,58.18945 1.06046,80.69149z" fill="#ffe1ad"/></g></g></g></svg>