<svg version="1.1" xmlns="http://www.w3.org/2000/svg" xmlns:xlink="http://www.w3.org/1999/xlink" width="115.81429" height="173.82927" viewBox="0,0,115.81429,173.82927"><defs><linearGradient x1="239.71693" y1="103.82889" x2="239.71693" y2="113.53535" gradientUnits="userSpaceOnUse" id="color-1"><stop offset="0" stop-color="#000000"/><stop offset="1" stop-color="#333333"/></linearGradient><linearGradient x1="239.77462" y1="114.18245" x2="239.77462" y2="123.88891" gradientUnits="userSpaceOnUse" id="color-2"><stop offset="0" stop-color="#000000"/><stop offset="1" stop-color="#333333"/></linearGradient><linearGradient x1="239.71693" y1="124.21246" x2="239.71693" y2="133.91888" gradientUnits="userSpaceOnUse" id="color-3"><stop offset="0" stop-color="#000000"/><stop offset="1" stop-color="#333333"/></linearGradient><linearGradient x1="239.71693" y1="134.56599" x2="239.71693" y2="144.27245" gradientUnits="userSpaceOnUse" id="color-4"><stop offset="0" stop-color="#000000"/><stop offset="1" stop-color="#333333"/></linearGradient><linearGradient x1="240.22542" y1="144.91951" x2="240.22542" y2="154.62599" gradientUnits="userSpaceOnUse" id="color-5"><stop offset="0" stop-color="#000000"/><stop offset="1" stop-color="#333333"/></linearGradient><linearGradient x1="240.28311" y1="155.2731" x2="240.28311" y2="164.97954" gradientUnits="userSpaceOnUse" id="color-6"><stop offset="0" stop-color="#000000"/><stop offset="1" stop-color="#333333"/></linearGradient></defs><g transform="translate(-182.09287,-93.08536)"><g stroke-miterlimit="10"><g stroke="#ffffff" stroke-width="0"><g><path d="M182.09287,266.91463v-173.82927h115.81429v173.82927z" fill="#333333"/><path d="M191.27327,164.47954v-61.46106h96.50792v61.46106z" fill="#000000"/></g><g><path d="M190.76084,113.53535v-9.70645h97.91217v9.70645z" fill="url(#color-1)"/><path d="M190.81853,123.88891v-9.70645h97.91217v9.70645z" fill="url(#color-2)"/><path d="M190.76084,133.91888v-9.70645h97.91217v9.70645z" fill="url(#color-3)"/><path d="M190.76084,144.27245v-9.70645h97.91217v9.70645z" fill="url(#color-4)"/><path d="M191.26934,154.62599v-9.70645h97.91217v9.70645z" fill="url(#color-5)"/><path d="M191.32703,164.97954v-9.70645h97.91217v9.70645z" fill="url(#color-6)"/></g></g><g fill="#ffffff" stroke="none"><g><path d="M236.72505,127.82645l-0.55566,24.36959l-3.52316,0.03185l-0.06878,12.21247l3.59193,0.19845l0.55566,24.86571l-17.50324,-5.00093l-0.83349,-49.17576zM220.80264,152.03148l12.60714,-2.17857l-0.84524,-14.9881l-11.84524,3.17857z" stroke-width="0"/><path d="M238.6826,139.86814c0,-4.60322 3.73165,-8.33488 8.33488,-8.33488c4.60322,0 8.33488,3.73165 8.33488,8.33488c0,4.60322 -3.73165,8.33488 -8.33488,8.33488c-4.60322,0 -8.33488,-3.73165 -8.33488,-8.33488z" stroke-width="0.5"/><path d="M238.51761,152.72795v-3.68333l8.22239,0.62631l-3.63821,3.05703z" stroke-width="0"/><path d="M234.73745,162.44357l-0.27783,-8.33488l10.1306,0.56978l3.83474,-4.33193l7.56642,0.01145l-5.00093,12.08557z" stroke-width="0"/><path d="M238.83543,188.7264l-0.55566,-24.17114h12.22448l-2.03571,23.90352z" stroke-width="0"/></g><path d="M219.68588,141.40919l-0.57716,-1.57222l14.71386,-3.76446l0.23054,1.75185z" stroke-width="0"/><path d="M220.11446,144.26635l-0.57716,-1.57222l14.71386,-3.76446l0.23054,1.75185z" stroke-width="0"/><path d="M220.68588,146.98063l-0.57716,-1.57222l14.71386,-3.76446l0.23054,1.75185z" stroke-width="0"/><path d="M220.25731,150.12348l-0.57716,-1.57222l14.71386,-3.76446l0.23054,1.75185z" stroke-width="0"/><path d="M220.68589,152.83778l-0.57716,-1.57222l14.71386,-3.76446l0.23054,1.75185l-3.04702,1.36707z" stroke-width="0"/><path d="M218.89788,134.04339l0.14286,-3.05357l8.89286,-0.35714z" stroke-width="0"/><path d="M237.11054,133.38266v-3.14286l10.04058,-0.36851l-4.42686,1.79039l-3.28655,1.91712z" stroke-width="0"/><path d="M237.72836,189.67557l11.15055,-0.18048l9.25539,-1.74981l-1.65862,-55.03602l-9.95391,-2.77952l12.90422,0.83117l2.18571,58.95715l-12.16877,0.88761z" stroke-width="0"/></g><g stroke="none"><path d="M221.5,234.80529v-35h37v35z" fill="#ffffff" stroke-width="0"/><text transform="translate(231.55142,226.40609) scale(0.7584,0.7584)" font-size="40" xml:space="preserve" fill="#000000" stroke-width="1" font-family="Sans Serif" font-weight="normal" text-anchor="start"><tspan x="0" dy="0">E</tspan></text></g></g></g></svg>