<svg version="1.1" xmlns="http://www.w3.org/2000/svg" xmlns:xlink="http://www.w3.org/1999/xlink" width="232.94129" height="271.53399" viewBox="0,0,232.94129,271.53399"><defs><radialGradient cx="245.11035" cy="51.16064" r="116.47064" gradientUnits="userSpaceOnUse" id="color-1"><stop offset="0" stop-color="#000000"/><stop offset="1" stop-color="#000000" stop-opacity="0"/></radialGradient><radialGradient cx="245.11035" cy="51.16064" r="116.47064" gradientUnits="userSpaceOnUse" id="color-2"><stop offset="0" stop-color="#000000"/><stop offset="1" stop-color="#000000" stop-opacity="0"/></radialGradient><radialGradient cx="245.11035" cy="51.16064" r="116.47064" gradientUnits="userSpaceOnUse" id="color-3"><stop offset="0" stop-color="#000000"/><stop offset="1" stop-color="#000000" stop-opacity="0"/></radialGradient><radialGradient cx="245.11034" cy="51.16066" r="65.85317" gradientUnits="userSpaceOnUse" id="color-4"><stop offset="0" stop-color="#000000"/><stop offset="1" stop-color="#000000" stop-opacity="0"/></radialGradient></defs><g transform="translate(-128.6397,65.31)"><g stroke="none" stroke-miterlimit="10"><g stroke-width="0.5"><g><path d="M128.6397,51.16064c0,-64.32496 52.14568,-116.47064 116.47064,-116.47064c64.32496,0 116.47064,52.14568 116.47064,116.47064c0,64.32496 -52.14568,116.47064 -116.47064,116.47064c-64.32496,0 -116.47064,-52.14568 -116.47064,-116.47064z" fill="url(#color-1)"/><path d="M128.6397,51.16064c0,-64.32496 52.14569,-116.47065 116.47065,-116.47065c64.32496,0 116.47064,52.14569 116.47064,116.47065c0,64.32496 -52.14568,116.47064 -116.47064,116.47064c-64.32496,0 -116.47065,-52.14568 -116.47065,-116.47064z" fill="url(#color-2)"/></g><g fill="url(#color-3)"><path d="M128.6397,51.16064c0,-64.32496 52.14569,-116.47065 116.47065,-116.47065c64.32496,0 116.47064,52.14569 116.47064,116.47065c0,64.32496 -52.14568,116.47064 -116.47064,116.47064c-64.32496,0 -116.47065,-52.14568 -116.47065,-116.47064z"/><path d="M128.6397,51.16064c0,-64.32496 52.14569,-116.47065 116.47065,-116.47065c64.32496,0 116.47064,52.14569 116.47064,116.47065c0,64.32496 -52.14568,116.47064 -116.47064,116.47064c-64.32496,0 -116.47065,-52.14568 -116.47065,-116.47064z"/></g></g><path d="M180.14417,59.40573c0.90571,-2.7666 1.71049,-6.00944 3.62464,-7.80184c0.79099,-0.74068 1.70243,-0.96301 2.66449,-0.97719c0.02109,-0.03242 0.04196,-0.06502 0.06262,-0.09783c4.64726,-7.37992 9.6086,-12.33532 15.7585,-17.7452c3.03472,-2.66954 6.64878,-4.39302 10.172,-4.96589c0,0 2.8053,-0.36485 3.59294,2.61453c1.4007,1.63044 0.86951,4.44599 0.86951,4.44599c-2.5796,13.67291 -7.82111,25.63728 -11.62475,38.8473c-3.80638,13.2195 -9.02012,26.00664 -12.73958,39.30601c-1.09711,3.92284 -1.23186,8.09713 -2.26611,12.04075c-0.7,2.66909 -1.45222,5.19535 -2.20734,7.67294c-0.1782,8.30374 4.12643,16.09021 5.50228,23.86304c0.25545,1.44321 -0.75845,3.24571 -0.2599,4.55346c0.4793,1.25726 1.95634,1.27083 2.80731,2.12869c3.20418,3.23012 5.70113,7.349 7.89526,11.70458l2.3442,2.9388c0,0 2.55452,3.24039 -0.23731,6.85132c-2.79183,3.61094 -5.34636,0.37055 -5.34636,0.37055l-2.82047,-3.61254c-2.0814,-4.13181 -4.25068,-7.36294 -7.09075,-10.64209c-1.43525,-1.65714 -3.50832,-2.60523 -4.41759,-4.81133c-0.77713,-1.88549 0.10157,-4.49391 -0.28812,-6.60576c-0.66177,-3.58637 -1.62613,-6.93509 -2.55939,-10.24174c-0.04091,0.20829 -0.0812,0.41751 -0.12085,0.6277c-1.78815,9.25025 -1.0085,21.3754 2.99344,29.11588c1.44702,2.79879 3.22741,5.36566 4.20155,8.52176l1.29807,-0.32009c0,0 3.1991,2.17611 1.17777,6.51242c-2.02133,4.33631 -5.22042,2.16019 -5.22042,2.16019l-4.3746,-4.17879c-0.71404,-2.63714 -2.41118,-4.55563 -3.55957,-6.88486c-2.99189,-6.0683 -4.58389,-13.70477 -4.88917,-21.43065c-0.28825,2.14274 -0.55851,4.29259 -0.75851,6.48154c-0.43108,4.71776 -1.65963,5.15659 -1.03265,9.55488c0.80946,5.67831 3.45894,11.58815 5.02591,16.93241l0.65391,3.44635c0,0 0.83281,4.60498 -2.85859,6.13247c-3.69139,1.52749 -4.5242,-3.07748 -4.5242,-3.07748l-0.3903,-2.3276c-1.69437,-5.77874 -4.59417,-12.30503 -5.35983,-18.48872c-1.153,-9.31198 2.04739,-19.49346 3.00086,-28.84036c0.12441,-1.21966 0.20619,-2.40619 0.26515,-3.57235c-1.5326,6.75493 -3.06525,13.50811 -4.38846,20.42949c-0.74504,3.89713 -4.2201,10.76613 -3.97326,14.54018c0.23968,3.66442 1.26684,7.13248 1.29061,10.8366l-1.09918,5.97717c0,0 -0.90595,4.80193 -4.58007,4.10875c-3.67412,-0.69318 -2.76817,-5.4951 -2.76817,-5.4951l0.93284,-4.79336c0.01265,-3.16809 -1.31067,-6.01442 -1.33404,-9.17789c-0.05267,-7.12976 1.58114,-6.68559 3.30523,-12.57896c2.15106,-7.35287 2.27223,-15.48199 4.31805,-22.88737c1.71245,-6.19869 3.17593,-12.18344 4.47498,-18.457c-1.47361,0.1505 -2.99975,0.82358 -4.45807,1.30773c-0.17226,0.05719 -0.34501,0.10946 -0.51817,0.15731c-0.65731,1.59529 -0.94839,3.77653 -1.76053,5.24225c-2.34967,4.2406 -5.00576,8.57933 -7.75554,12.76783l0.2425,0.11481l-2.27031,6.45253c-0.73186,2.18617 -2.55485,3.60592 -4.36087,3.26519c-2.02916,-0.38283 -3.26851,-2.84307 -2.76817,-5.49511l1.01601,-5.38527c1.24304,-6.58862 1.997,-20.03143 6.81089,-24.53916c1.78511,-1.67158 4.20764,-1.10556 6.31965,-1.50998c0.64592,-0.12368 1.25314,-0.2584 1.83169,-0.39782c0.41298,-0.33079 0.88651,-0.66785 1.43303,-1.01522c1.77827,-1.13029 3.82546,-0.71409 5.73819,-1.07113l1.358,0.20591c-0.05986,-9.48154 5.17609,-20.32059 7.64903,-29.14575c1.68804,-6.02407 1.91445,-12.59562 3.50506,-18.6606c0.16286,-0.62097 0.34304,-1.23503 0.53616,-1.84396c0.38608,-4.71905 1.08182,-9.40526 2.30884,-13.15333zM202.01791,56.04992c0.27939,0.26695 0.55512,0.54715 0.82061,0.84111c0.27214,-0.79681 0.54372,-1.59318 0.81365,-2.38983c-0.6465,0.39579 -1.2185,0.88247 -1.63426,1.54871zM208.41393,38.69634c-0.45222,0.24404 -0.89378,0.51857 -1.32803,0.81897c0.34191,0.17655 0.66494,0.38807 0.96439,0.63628c0.12406,-0.48343 0.24534,-0.96846 0.36363,-1.45525z" fill="#000000" stroke-width="0.5"/><path d="M319.13475,59.40572c1.22702,3.74807 1.92276,8.43429 2.30884,13.15334c0.19312,0.60892 0.37331,1.22298 0.53616,1.84395c1.59061,6.06498 1.81702,12.63653 3.50506,18.6606c2.47294,8.82516 7.70889,19.66421 7.64903,29.14575l1.35801,-0.20591c1.91273,0.35704 3.95992,-0.05916 5.73819,1.07113c0.54652,0.34737 1.02005,0.68443 1.43303,1.01522c0.57855,0.13943 1.18578,0.27414 1.8317,0.39782c2.11201,0.40442 4.53454,-0.1616 6.31965,1.50998c4.81389,4.50772 5.56785,17.95054 6.81089,24.53916l1.01601,5.38527c0.50035,2.65203 -0.73901,5.11227 -2.76817,5.4951c-1.80602,0.34073 -3.629,-1.07901 -4.36087,-3.26519l-2.27032,-6.45253l0.24251,-0.11481c-2.74977,-4.1885 -5.40587,-8.52723 -7.75554,-12.76783c-0.81213,-1.46571 -1.10322,-3.64696 -1.76053,-5.24225c-0.17316,-0.04786 -0.34591,-0.10013 -0.51817,-0.15731c-1.45832,-0.48415 -2.98446,-1.15723 -4.45807,-1.30773c1.29905,6.27356 2.76253,12.2583 4.47498,18.45699c2.04581,7.40539 2.16698,15.53451 4.31804,22.88737c1.7241,5.89337 3.3579,5.4492 3.30524,12.57896c-0.02337,3.16346 -1.34668,6.00979 -1.33404,9.17789l0.93284,4.79335c0,0 0.90596,4.80193 -2.76817,5.4951c-3.67412,0.69318 -4.58008,-4.10875 -4.58008,-4.10875l-1.09918,-5.97717c0.02377,-3.70412 1.05094,-7.17218 1.29061,-10.8366c0.24684,-3.77405 -3.22822,-10.64305 -3.97326,-14.54017c-1.3232,-6.92138 -2.85586,-13.67457 -4.38846,-20.4295c0.05896,1.16616 0.14074,2.35269 0.26515,3.57235c0.95347,9.3469 4.15386,19.52838 3.00086,28.84036c-0.76566,6.18369 -3.66547,12.70998 -5.35983,18.48872l-0.3903,2.3276c0,0 -0.83281,4.60497 -4.5242,3.07748c-3.6914,-1.52749 -2.85859,-6.13246 -2.85859,-6.13246l0.65391,-3.44636c1.56697,-5.34425 4.21646,-11.25409 5.02592,-16.9324c0.62698,-4.39829 -0.60157,-4.83712 -1.03265,-9.55488c-0.20001,-2.18896 -0.47026,-4.33879 -0.75851,-6.48154c-0.30528,7.72588 -1.89728,15.36235 -4.88917,21.43065c-1.14839,2.32922 -2.84554,4.24772 -3.55957,6.88486l-4.3746,4.17879c0,0 -3.19909,2.17612 -5.22042,-2.16019c-2.02133,-4.33631 1.17776,-6.51242 1.17776,-6.51242l1.29807,0.32008c0.97413,-3.1561 2.75453,-5.72298 4.20154,-8.52176c4.00195,-7.74048 4.7816,-19.86563 2.99345,-29.11587c-0.03966,-0.21019 -0.07994,-0.41941 -0.12086,-0.62771c-0.93326,3.30666 -1.89762,6.65537 -2.55939,10.24174c-0.38969,2.11186 0.48901,4.72027 -0.28811,6.60576c-0.90927,2.20611 -2.98234,3.1542 -4.41759,4.81133c-2.84007,3.27915 -5.00935,6.51028 -7.09075,10.64208l-2.82047,3.61255c0,0 -2.55453,3.24039 -5.34636,-0.37055c-2.79184,-3.61094 -0.23731,-6.85133 -0.23731,-6.85133l2.3442,-2.9388c2.19413,-4.35558 4.69108,-8.47445 7.89526,-11.70457c0.85097,-0.85786 2.32801,-0.87143 2.80731,-2.12869c0.49855,-1.30775 -0.51536,-3.11024 -0.2599,-4.55345c1.37585,-7.77282 5.68048,-15.5593 5.50229,-23.86304c-0.75512,-2.4776 -1.50735,-5.00385 -2.20735,-7.67295c-1.03425,-3.94362 -1.169,-8.11791 -2.26611,-12.04075c-3.71946,-13.29937 -8.93319,-26.08652 -12.73957,-39.30602c-3.80364,-13.21002 -9.04515,-25.17439 -11.62475,-38.8473c0,0 -0.5312,-2.81555 0.8695,-4.44599c0.78763,-2.97938 3.59294,-2.61453 3.59294,-2.61453c3.52322,0.57287 7.13728,2.29635 10.172,4.96589c6.14991,5.40989 11.11125,10.36528 15.7585,17.7452c0.02066,0.03281 0.04154,0.06541 0.06262,0.09783c0.96206,0.01419 1.8735,0.2365 2.6645,0.97719c1.91415,1.79241 2.71892,5.03525 3.62463,7.80184zM297.26099,56.04992c-0.41577,-0.66625 -0.98777,-1.15292 -1.63426,-1.54871c0.26993,0.79666 0.54151,1.59302 0.81365,2.38983c0.26549,-0.29397 0.54122,-0.57416 0.82061,-0.84112zM291.22859,40.15158c0.29945,-0.24821 0.62247,-0.45972 0.96439,-0.63627c-0.43425,-0.3004 -0.8758,-0.57493 -1.32802,-0.81897c0.11829,0.48679 0.23957,0.97181 0.36364,1.45524z" fill="#000000" stroke-width="0.5"/><g fill="url(#color-4)" stroke-width="0.5"><g><path d="M179.25717,51.16066c0,-36.3697 29.48347,-65.85317 65.85317,-65.85317c36.3697,0 65.85317,29.48346 65.85317,65.85317c0,36.36971 -29.48346,65.85317 -65.85317,65.85317c-36.3697,0 -65.85317,-29.48347 -65.85317,-65.85317z"/><path d="M179.25717,51.16066c0,-36.3697 29.48347,-65.85317 65.85317,-65.85317c36.3697,0 65.85317,29.48346 65.85317,65.85317c0,36.36971 -29.48346,65.85317 -65.85317,65.85317c-36.3697,0 -65.85317,-29.48347 -65.85317,-65.85317z"/></g><g><path d="M179.25717,51.16066c0,-36.3697 29.48347,-65.85317 65.85317,-65.85317c36.3697,0 65.85317,29.48346 65.85317,65.85317c0,36.36971 -29.48346,65.85317 -65.85317,65.85317c-36.3697,0 -65.85317,-29.48347 -65.85317,-65.85317z"/><path d="M179.25717,51.16066c0,-36.3697 29.48347,-65.85317 65.85317,-65.85317c36.3697,0 65.85317,29.48347 65.85317,65.85317c0,36.3697 -29.48347,65.85317 -65.85317,65.85317c-36.3697,0 -65.85317,-29.48347 -65.85317,-65.85317z"/></g></g><g fill="#ffffff"><g><path d="M264.84242,3.11586c3.22951,0 -7.28695,3.75254 -7.28695,15.47475c0,11.72221 9.257,14.12176 6.02748,14.12176c-3.22951,0 -10.88545,-3.4143 -10.88545,-15.1365c0,-11.7222 8.9154,-14.46 12.14492,-14.46z" stroke-width="NaN"/><path d="M287.7961,17.57586c0,11.7222 -7.65593,15.1365 -10.88545,15.1365c-3.22951,0 6.02748,-2.39956 6.02748,-14.12176c0,-11.7222 -10.51647,-15.47475 -7.28695,-15.47475c3.22951,0 12.14492,2.73781 12.14492,14.46z" stroke-width="NaN"/></g><g><path d="M236.75154,17.57586c0,11.7222 -7.65592,15.13649 -10.88544,15.13649c-3.22951,0 6.02747,-2.39955 6.02747,-14.12175c0,-11.7222 -10.51646,-15.47474 -7.28694,-15.47474c3.22951,0 12.14491,2.7378 12.14491,14.46z" stroke-width="NaN"/><path d="M213.79786,3.11587c3.22951,0 -7.28695,3.75254 -7.28695,15.47474c0,11.72221 9.257,14.12175 6.02748,14.12175c-3.22951,0 -10.88545,-3.4143 -10.88545,-15.13649c0,-11.7222 8.91541,-14.46 12.14493,-14.46z" stroke-width="NaN"/></g><path d="M277.60855,46.92043c-0.37887,-3.76639 1.36249,-7.26476 3.9624,-8.18192c0.57159,-0.45097 1.21338,-0.76213 1.90464,-0.89552c2.91954,-0.56335 5.61602,2.25791 6.02277,6.30146c0.37887,3.76639 -1.36249,7.26476 -3.9624,8.18192c-0.57159,0.45097 -1.21338,0.76213 -1.90464,0.89552c-1.56033,0.30108 -3.05696,-0.3646 -4.17439,-1.66695c0.01301,0.09958 0.02462,0.19996 0.0348,0.30111c0.40675,4.04355 -1.63026,7.77818 -4.54979,8.34153c-2.40312,0.46371 -4.65511,-1.36574 -5.60344,-4.28245c-0.19358,3.38139 -2.05892,6.2427 -4.58488,6.73011c-2.10808,0.40677 -4.09987,-0.95111 -5.19734,-3.25959c-0.60009,2.63604 -2.24805,4.69624 -4.35613,5.10301c-2.04342,0.39429 -3.97757,-0.86945 -5.09384,-3.04985c-0.54779,2.76108 -2.23444,4.94563 -4.41209,5.36582c-2.48064,0.47866 -4.80026,-1.48617 -5.69111,-4.5681c-0.60821,2.61527 -2.24965,4.65514 -4.34617,5.05968c-2.91953,0.56335 -5.61601,-2.25791 -6.02277,-6.30146c-0.02783,-0.27663 -0.04422,-0.55181 -0.04967,-0.82462c-0.81614,1.70135 -2.13469,2.92898 -3.71028,3.233c-2.7501,0.53065 -5.30228,-1.94184 -5.92921,-5.61022c-0.67265,2.43334 -2.25561,4.29919 -4.25067,4.68416c-2.91953,0.56335 -5.61601,-2.25791 -6.02277,-6.30146c-0.05358,-0.53267 -0.06476,-1.06001 -0.03709,-1.57542c-0.77314,0.99289 -1.76592,1.67929 -2.88939,1.89607c-2.91953,0.56335 -5.61602,-2.25791 -6.02277,-6.30146c-0.40675,-4.04355 1.63026,-7.77818 4.54979,-8.34153c2.91953,-0.56335 5.61601,2.25791 6.02276,6.30146c0.05358,0.53267 0.06476,1.06 0.03709,1.57541c0.77314,-0.99289 1.76592,-1.67928 2.8894,-1.89606c2.7501,-0.53065 5.30228,1.94184 5.92921,5.61022c0.67266,-2.43334 2.2556,-4.29919 4.25066,-4.68415c2.91953,-0.56335 5.61602,2.25791 6.02277,6.30146c0.02783,0.27663 0.04422,0.55181 0.04967,0.82462c0.81614,-1.70135 2.13468,-2.92899 3.71027,-3.23301c2.48064,-0.47866 4.80026,1.48617 5.69111,4.5681c0.60821,-2.61527 2.24965,-4.65514 4.34617,-5.05969c2.04342,-0.39429 3.97757,0.86945 5.09384,3.04985c0.54779,-2.76108 2.23445,-4.94563 4.41209,-5.36582c2.10808,-0.40677 4.09987,0.9511 5.19734,3.25959c0.60009,-2.63604 2.24805,-4.69623 4.35612,-5.10301c2.40312,-0.46371 4.65511,1.36574 5.60344,4.28245c0.19358,-3.38139 2.05893,-6.2427 4.58489,-6.73011c1.56033,-0.30108 3.05696,0.36461 4.17438,1.66695c-0.01301,-0.09958 -0.02462,-0.19997 -0.03479,-0.30112z" stroke-width="0.5"/><path d="M277.60855,78.75802c-0.37887,-3.76639 1.36249,-7.26476 3.9624,-8.18192c0.57158,-0.45097 1.21338,-0.76214 1.90465,-0.89553c2.91953,-0.56334 5.61601,2.25792 6.02277,6.30147c0.37887,3.76639 -1.3625,7.26476 -3.9624,8.18192c-0.57158,0.45097 -1.21337,0.76213 -1.90464,0.89552c-1.56033,0.30108 -3.05696,-0.3646 -4.17439,-1.66695c0.01301,0.09958 0.02462,0.19996 0.0348,0.30111c0.40675,4.04355 -1.63026,7.77819 -4.54979,8.34153c-2.40312,0.46371 -4.65511,-1.36574 -5.60344,-4.28245c-0.19358,3.38139 -2.05892,6.2427 -4.58488,6.7301c-2.10807,0.40677 -4.09988,-0.95111 -5.19734,-3.25959c-0.60009,2.63604 -2.24805,4.69623 -4.35613,5.10301c-2.04341,0.3943 -3.97757,-0.86944 -5.09385,-3.04983c-0.54779,2.76108 -2.23444,4.94563 -4.41209,5.36582c-2.48064,0.47867 -4.80026,-1.48617 -5.69111,-4.5681c-0.6082,2.61527 -2.24964,4.65514 -4.34616,5.05969c-2.91953,0.56334 -5.61602,-2.25792 -6.02277,-6.30147c-0.02783,-0.27663 -0.0442,-0.55181 -0.04966,-0.82462c-0.81614,1.70135 -2.1347,2.929 -3.71028,3.23301c-2.7501,0.53065 -5.30227,-1.94184 -5.9292,-5.61022c-0.67265,2.43334 -2.25561,4.29919 -4.25067,4.68416c-2.91953,0.56334 -5.61602,-2.25791 -6.02277,-6.30146c-0.05359,-0.53267 -0.06475,-1.06 -0.03709,-1.57541c-0.77314,0.99289 -1.76592,1.67928 -2.8894,1.89606c-2.91953,0.56334 -5.61601,-2.25791 -6.02276,-6.30146c-0.40675,-4.04355 1.63026,-7.77819 4.54979,-8.34153c2.91953,-0.56334 5.61602,2.25792 6.02277,6.30147c0.05359,0.53267 0.06475,1.06 0.03709,1.57541c0.77314,-0.99289 1.76592,-1.67928 2.8894,-1.89606c2.7501,-0.53065 5.30228,1.94184 5.92921,5.61022c0.67266,-2.43334 2.25561,-4.29919 4.25067,-4.68415c2.91953,-0.56334 5.61601,2.25791 6.02276,6.30146c0.02783,0.27663 0.04423,0.5518 0.04968,0.82462c0.81614,-1.70135 2.13468,-2.92899 3.71027,-3.233c2.48064,-0.47867 4.80025,1.48617 5.69111,4.5681c0.6082,-2.61527 2.24965,-4.65515 4.34617,-5.05969c2.04341,-0.3943 3.97757,0.86945 5.09384,3.04985c0.54779,-2.76108 2.23445,-4.94563 4.4121,-5.36582c2.10808,-0.40677 4.09988,0.9511 5.19734,3.25959c0.60009,-2.63604 2.24805,-4.69623 4.35612,-5.103c2.40312,-0.46371 4.65512,1.36574 5.60345,4.28245c0.19358,-3.38139 2.05892,-6.2427 4.58488,-6.7301c1.56033,-0.30108 3.05695,0.36459 4.17437,1.66694c-0.01301,-0.09958 -0.02461,-0.19996 -0.03478,-0.30111z" stroke-width="0.5"/></g></g></g></svg>