<svg version="1.1" xmlns="http://www.w3.org/2000/svg" xmlns:xlink="http://www.w3.org/1999/xlink" width="792.79279" height="662.72523" viewBox="0,0,792.79279,662.72523"><g transform="translate(156.39639,151.36262)"><g stroke="none" stroke-miterlimit="10"><path d="M-156.39639,511.36261v-662.72523h792.79279v662.72523z" fill-opacity="0.78039" fill="#ff0000" stroke-width="0"/><path d="M449.45945,409.72973v-4.5045h4.5045v4.5045z" fill-opacity="0.4902" fill="#ff0000" stroke-width="0"/><path d="" fill-opacity="0.50196" fill="#ffffff" stroke-width="0.5"/><path d="M245.54609,171.74635c0.53917,0.00748 0.97505,0.10096 0.97356,0.2088c-0.00149,0.10783 -0.4398,0.18919 -0.97897,0.18171c-0.53917,-0.00748 -0.97505,-0.10096 -0.97356,-0.2088c0.00149,-0.10783 0.4398,-0.18919 0.97897,-0.18171z" fill="#5c0000" stroke-width="0"/><path d="M262.44089,258.68908c-1.95251,-0.02709 -1.92543,-1.9796 -1.92543,-1.9796l0.01084,-0.781c0.0232,-1.20348 -0.0906,-2.41481 -0.31545,-3.59734c-0.02611,-0.23701 -0.05133,-0.47185 -0.07535,-0.70474c-0.64513,0.06507 -1.20093,-0.22253 -1.20093,-0.22253l-1.27796,-0.77413c-1.99797,-2.13665 -3.17404,-5.42456 -3.40941,-8.76374c-0.13536,0.32757 -0.29411,0.64454 -0.47951,0.94913c-0.36798,0.60453 -1.29425,0.70331 -1.6824,1.29508c-1.16431,1.7751 -2.02042,4.84885 -2.46585,6.97244l-1.73556,2.14555c0,0 -1.39979,1.36147 -2.76128,-0.03831c-1.36147,-1.39979 0.0383,-2.76127 0.0383,-2.76127l0.63996,-0.16495c0.51732,-2.36853 1.39336,-5.21514 2.57892,-7.4677l-1.05194,0.90407c0,0 -1.6396,1.06052 -2.70013,-0.5791c-1.06052,-1.63962 0.5791,-2.70013 0.5791,-2.70013l0.44006,0.12456c0.98772,-2.24364 -0.03027,-4.47633 0.8824,-6.64963c1.15497,-2.75036 2.5241,-1.56118 3.95921,-3.85085c0.21502,-0.34304 -0.12372,-0.80261 -0.13191,-1.20739c-0.00547,-0.27001 0.00147,-0.95891 0.01592,-1.78674c-0.45668,0.16815 -0.91998,0.26206 -1.39796,0.19136c-3.79929,-0.56205 -2.95189,-2.70335 -3.23095,-5.09457c-0.28235,-2.41948 -0.68278,-4.75182 -1.01128,-7.06814c-1.87717,0.3617 -3.75344,0.71887 -5.62073,0.98589c-0.26576,1.21573 -0.42113,2.03451 -0.26217,2.93549c0.09164,0.16615 0.16933,0.33883 0.22584,0.52154c0.06672,0.21567 0.11481,0.44208 0.14903,0.67678c0.11667,0.26971 0.25961,0.55789 0.4322,0.87265c0.54385,0.99175 2.18621,2.51979 2.45666,3.5186c0.07813,0.28855 0.08792,2.95072 0.01538,4.77299c0.115,0.21162 0.21295,0.43169 0.28744,0.66347c1.43148,4.45481 0.32016,8.99102 -1.38029,13.07687l0.1443,-0.33271c0,0 -0.02709,1.95251 -1.9796,1.92542c-1.95251,-0.02709 -1.92542,-1.9796 -1.92542,-1.9796l0.15513,-1.11371c0.96436,-2.31714 1.78343,-4.77176 1.75816,-7.29537c-0.48333,0.69994 -0.95335,1.40984 -1.46653,2.08669c-0.10086,0.54984 -0.48477,1.63495 -1.94376,1.6147c-1.95251,-0.02709 -1.92543,-1.97961 -1.92543,-1.97961l0.45019,-1.6043c1.00717,-1.21914 1.76467,-2.6311 2.77312,-3.84917c0.21994,-0.26566 0.57147,-0.41852 0.86529,-0.61378c-0.70826,-0.96348 -1.64718,-2.01596 -1.84744,-2.47932c-0.65981,-1.5266 -0.75866,-3.25312 -0.87318,-4.91225c-0.03619,-0.52428 0.18186,-1.06993 0.16555,-1.58673c-0.08165,-0.24343 -0.15143,-0.48125 -0.21003,-0.71569c-0.35703,-0.65541 -1.03049,-1.15288 -1.32108,-1.84856c-0.23863,-0.57127 -0.37369,-1.22457 -0.44618,-1.90729c-0.59539,0.00157 -1.18795,-0.00947 -1.77814,-0.03079c0.44232,2.64009 0.92091,5.54077 0.40239,8.11812c-0.90022,4.4746 -4.97496,8.50575 -4.8468,13.32165c0.09467,3.55724 1.64219,5.27532 3.69574,7.99938l1.72955,1.48881c0,0 1.474,1.28077 0.19322,2.75477c-1.28078,1.474 -2.75477,0.19323 -2.75477,0.19323l-2.02209,-1.77103c-2.51603,-3.32226 -4.26317,-5.56897 -4.66639,-9.56629c-0.66716,2.2008 -1.40523,4.33029 -0.99649,6.68384l0.00558,1.42203c0.00051,0.02353 0.0006,0.04714 0.00028,0.07085c-0.00343,0.24677 -0.05248,0.48223 -0.13903,0.69843c-0.19808,0.55746 -0.67803,1.24312 -1.84058,1.22699c-1.16254,-0.01613 -1.6233,-0.71484 -1.80583,-1.27758c-0.08051,-0.21852 -0.12302,-0.45525 -0.11961,-0.70202c0.00058,-0.04164 0.00245,-0.08296 0.00559,-0.12393l0.03277,-0.72623c-0.56421,-4.10696 1.25434,-7.12745 1.77091,-11.09701c0.26815,-2.06068 -0.20221,-4.25711 0.49582,-6.21443c0.01648,-0.04623 0.03437,-0.09166 0.05354,-0.13637l-0.5528,0.74701c0,0 -1.19318,1.54575 -2.73893,0.35257c-1.54576,-1.19318 -0.35258,-2.73894 -0.35258,-2.73894l0.96753,-1.17426c0.63566,-3.09789 -1.68069,-2.50532 -3.3019,-5.22183c-1.08036,-1.81029 -1.50456,-3.76874 -1.66209,-5.77009c-0.41488,-0.00084 -0.82985,0.00029 -1.24484,0.00257c-0.50564,2.77468 -0.7317,5.50048 -0.57427,8.37585c0.1195,2.18288 1.65704,3.86288 2.1982,5.9454c1.23088,4.73676 1.37281,10.07249 0.62743,14.87191l-0.9635,1.48193c0,0 -1.3998,1.36148 -2.76128,-0.03831c-1.16006,-1.19269 -0.31545,-2.35758 -0.04013,-2.67615c0.56996,-4.11077 0.38786,-8.62306 -0.63771,-12.63931c-0.60373,-2.36429 -2.11788,-4.0831 -2.31447,-6.61571c-0.22855,-2.94432 0.01098,-5.81359 0.49698,-8.67665c-1.52431,0.00322 -3.04755,-0.01493 -4.56797,-0.09688c0.12903,3.07798 0.47786,6.15682 0.90724,8.99787c0.11341,0.75039 0.38097,3.22264 0.85124,3.99311c1.12624,1.84517 3.70623,1.96178 2.40308,5.34452c-0.42307,1.09817 -2.03155,1.18854 -3.04733,1.7828l-0.52629,0.73213c0,0 -1.39979,1.36147 -2.76128,-0.03831c-0.00536,-0.00551 -0.01069,-0.01103 -0.01598,-0.01655c-0.56902,2.49266 -1.44315,4.92657 -2.35683,7.13957l0.1443,-0.3327c0,0 -0.02709,1.95251 -1.9796,1.92542c-1.95251,-0.02709 -1.92542,-1.9796 -1.92542,-1.9796l0.15512,-1.11372c0.46584,-1.10903 0.93086,-2.30152 1.34106,-3.53972c-0.47941,0.08179 -1.05928,-0.01817 -1.63236,-0.60738c-0.72422,-0.7446 -0.66712,-1.47833 -0.45501,-2.0021c-1.29971,-2.30405 -3.90971,-3.30247 -4.6257,-6.38252c-0.68949,-2.96605 0.13947,-5.86518 -0.30555,-8.77189c-0.24114,-1.57498 -1.10122,-2.99853 -1.46682,-4.54935c-0.96587,-4.09683 -2.13912,-8.68854 -2.66403,-13.09357c-0.21277,-0.38186 -0.40477,-0.76999 -0.57335,-1.16458c-0.16862,0.04475 -0.34607,0.06745 -0.52907,0.06491c-0.036,-0.00051 -0.07177,-0.00197 -0.10725,-0.00439c0.35729,1.2592 0.45181,2.61149 0.44359,3.91483c-0.03862,6.11124 -2.66222,13.58597 -0.06324,19.48268c0.60534,1.37345 1.86161,2.35496 2.80665,3.521l0.26757,0.2636c0,0 1.36148,1.3998 -0.03831,2.76127c-1.39979,1.36147 -2.76128,-0.03831 -2.76128,-0.03831l-0.5026,-0.52824c-0.37752,-0.46622 -2.96745,-3.55303 -3.33303,-4.37573c-3.44226,-7.74646 0.97525,-15.37819 -0.21818,-23.11374c-0.439,-2.84553 -2.74184,-3.49102 -1.7926,-6.8704c0.19983,-0.71135 0.98658,-1.12625 1.30021,-1.79527c0.39615,-0.84505 0.38047,-1.84932 0.79929,-2.68338c0.05256,-0.10466 0.10805,-0.20959 0.16625,-0.31471c-0.06334,-0.2602 -0.12375,-0.52095 -0.1818,-0.78225c-0.28842,-0.04738 -0.60082,-0.17723 -0.92909,-0.43064c-1.54576,-1.19318 -0.35258,-2.73894 -0.35258,-2.73894c0.18879,-0.24101 0.36334,-0.48518 0.52609,-0.73216c-0.02691,-0.14678 -0.05397,-0.29375 -0.0813,-0.44098l-0.01635,-1.55496c0,0 0.02703,-1.94887 1.97416,-1.9255c0.00192,-0.00489 0.00385,-0.00978 0.00578,-0.01468c0.03013,-1.34052 -0.17601,-2.7139 0.1265,-4.02c0.16606,-0.71701 0.68667,-1.50638 1.32253,-2.2649l0.73833,-1.77405c0.03663,-0.0941 0.08033,-0.18462 0.13045,-0.27092c-0.22698,-2.84499 0.22482,-6.03381 0.26326,-8.80502c0,0 0.00652,-0.47061 0.24422,-0.94654c1.64485,-4.04678 0.00415,-8.89582 1.18009,-13.17111c0.17161,-0.62392 0.37221,-1.188 0.59957,-1.70674c-0.04462,-0.08357 -0.08334,-0.17074 -0.11561,-0.26094l-0.73762,-1.92089l0.07729,-0.02967l-0.13365,-0.13993c-0.12744,-0.98222 -0.56246,-1.97273 -0.38228,-2.94665c0.0187,-0.10113 0.05231,-0.19551 0.09695,-0.28494c-0.01775,-0.10968 -0.03931,-0.21776 -0.06603,-0.32367c-0.82395,-3.26593 -1.16443,-5.91952 -1.10704,-9.29044l0.08535,-0.14823l-0.06323,-0.01144l0.41731,-2.30601c0.14785,-0.90846 0.92122,-1.60324 1.85863,-1.63542c0.03527,-3.61424 0.61084,-7.26123 0.92037,-10.95269c0.39647,-4.7283 1.66143,-10.84293 6.25395,-13.5125c2.32154,-1.34949 5.32354,-2.12595 8.46041,-2.4802c2.15932,-0.51141 4.38219,-0.77029 6.48798,-0.8716c1.93016,-0.09287 4.12359,-1.85611 6.15814,-1.53772c6.88796,1.07793 17.99971,8.69443 20.28317,15.37951c0.14436,0.42264 0.27082,0.82405 0.38143,1.20854c0.09624,-0.04503 0.20097,-0.086 0.3149,-0.12222c1.86089,-0.59175 2.45261,1.26915 2.45261,1.26915l0.76091,2.39441c0.9968,3.68699 2.54241,8.44927 1.83426,12.29868c-0.35527,1.93117 -1.88587,3.24926 -2.76218,4.82158c0.12545,1.20345 -0.09796,2.30758 -0.58038,3.29228c0.11721,0.96876 0.3959,1.97597 0.65897,2.95763c0.14142,0.1367 0.21838,0.24234 0.21838,0.24234c0.99725,1.38726 1.61182,3.01297 2.40905,4.52407c0.24747,0.46906 0.52601,0.92753 0.80693,1.38551c0.03722,-2.83096 -0.59895,-5.74684 0.45524,-8.48628c0.15767,-0.40976 0.3244,-0.76572 0.50203,-1.08473c-0.9907,-0.51437 -0.97339,-1.76226 -0.97339,-1.76226l0.0105,-0.75678c-0.1315,-0.38716 -0.24394,-0.78968 -0.33589,-1.20821l-0.02719,-0.77395c0,0 0.01333,-0.96085 0.69531,-1.52511c0.73748,-4.3258 2.61131,-8.44269 4.81398,-12.22728c0.53117,-0.91263 0.74412,-2.12968 1.34178,-2.96998c0.19498,-0.98651 0.49489,-2.04433 0.95713,-3.28406c2.46804,-6.61915 13.78682,-13.92445 20.70203,-14.81088c2.0426,-0.26183 4.18627,1.56158 6.11311,1.70797c2.10215,0.15969 4.317,0.48013 6.46129,1.05126c3.12584,0.44112 6.10514,1.30059 8.38835,2.71396c4.51669,2.79596 5.61152,8.9433 5.87666,13.6808c0.16233,2.90049 0.48896,5.77817 0.59103,8.62792c0.00319,0.00003 0.00639,0.00008 0.00958,0.00012c1.07834,0.01496 1.94039,0.90126 1.92543,1.97961l-0.04334,3.12402l-0.05378,-0.00074l0.04694,0.13909c-0.37098,2.38866 -0.67281,4.57798 -0.81669,6.89153c1.76694,2.89094 3.19848,5.31407 2.53596,9.24619c-0.67555,4.00957 -3.01031,5.98624 -0.78858,9.68187l0.24263,2.57044c0,0 -0.02709,1.95251 -1.9796,1.92542c-1.95251,-0.02709 -1.92542,-1.9796 -1.92542,-1.9796l0.28599,-0.55359c-1.10478,-1.94951 -1.78189,-2.56328 -1.77214,-4.93511c0.0149,-3.6208 3.11035,-6.98157 2.17324,-10.77532c-0.07372,-0.29851 -0.21187,-0.62043 -0.39234,-0.95533c-0.13644,0.02271 -0.28506,0.03407 -0.44687,0.03182c-0.49037,-0.0068 -0.85587,-0.13506 -1.1283,-0.32333c-0.56012,1.77259 -1.61169,3.32424 -2.99288,4.49757c0.38049,2.19924 0.81698,4.38742 0.8089,6.67909c-0.00665,1.88703 -0.25149,3.65961 -0.66075,5.38958c2.21684,1.37596 3.86399,3.58835 4.38522,6.43935c0.23725,1.29765 -0.01662,2.45141 -0.31816,3.5952c0.59361,3.04111 0.90781,6.16784 1.68721,9.16025c0.22526,0.86486 0.69047,1.67376 0.79095,2.56181c0.47792,4.22363 -1.84125,7.74872 -2.4972,11.84354c-0.43227,2.69845 0.081,5.7307 -0.10502,8.44993c-0.31642,4.62552 -1.59704,9.37108 -2.57209,13.92026l0.02699,0.78912c0,0 -0.01928,1.38954 -1.19754,1.80791c0.96751,2.32492 0.75095,4.61998 1.01635,7.24493l-1.53794,2.25006c0,0 -1.19319,1.54575 -2.73894,0.35258c-1.54576,-1.19318 -0.35258,-2.73894 -0.35258,-2.73894l0.84843,-0.84145c-0.4241,-1.76088 -0.01028,-3.83307 -1.12587,-5.37667c-1.41418,-1.95671 -3.62506,-3.2301 -5.30505,-5.00492c-0.18027,1.86141 0.21746,3.79558 0.19131,5.68014c-0.01806,1.30168 -0.00689,2.60408 -0.05418,3.90503c-0.01565,0.4308 -0.31689,0.89562 -0.13449,1.2862c0.16122,0.34525 2.70172,2.91002 3.01502,3.23154l0.77017,0.79184c0,0 1.36147,1.39979 -0.0383,2.76127c-1.39979,1.36147 -2.76128,-0.03831 -2.76128,-0.03831l-0.77017,-0.79184c-1.16659,-1.20154 -3.3186,-3.2864 -3.90568,-4.67606c-0.33987,-0.80451 -0.07681,-1.74548 -0.08031,-2.61882c-0.01363,-3.40163 -0.62961,-8.63163 0.24875,-11.88922c0.21404,-0.79378 0.78765,-1.42488 1.30756,-2.08249c-0.08463,-0.80068 -0.04022,-1.65008 0.10505,-2.51845c-1.59096,0.61086 -3.22271,1.09467 -4.8826,1.48212c0.06962,1.72733 0.25815,3.40077 0.2435,4.42112c-0.08473,5.89922 0.52592,11.81929 1.66928,17.59924c0.71688,3.62402 2.15592,6.24358 2.39973,9.9467l-2.96725,1.62303c0,0 -1.82292,0.69998 -2.52293,-1.12294c-0.69999,-1.82293 1.12294,-2.52293 1.12294,-2.52293l0.95943,0.1152c-1.34568,-0.89264 -2.05698,-2.85862 -2.47298,-4.9096c-0.74513,0.77087 -1.81546,1.29435 -2.58207,2.06339c-1.51792,1.52274 -2.1385,2.59788 -3.34114,4.35257l-2.33344,1.41223c0,0 -1.58559,0.76548 -2.4724,-0.66291c-0.51286,2.57613 -0.39412,5.21617 -0.08947,7.94171c0.25245,1.39014 0.37054,2.81073 0.35719,4.22356l-0.01084,0.781c0,0 -0.02708,1.95251 -1.9796,1.92542zM260.81114,241.68503c0.42668,-1.29499 0.75285,-2.63917 1.37537,-3.85222c0.55438,-1.08026 2.19952,-1.72967 2.14687,-2.94274c-0.05369,-1.23736 -1.16071,-2.21697 -1.4486,-3.42156c-0.08243,-0.34488 -0.12257,-0.69747 -0.15275,-1.05191c-0.60594,1.43454 -1.2009,2.79864 -1.40768,3.11837c-0.61995,0.95858 -1.74792,1.54145 -2.29117,2.5455c-1.57341,2.90795 -1.15663,8.43615 0.86363,11.18068c0.03052,-1.83491 0.27804,-3.64496 0.91433,-5.57615zM266.67136,230.51241c0.28751,1.24321 1.61059,3.23311 1.56706,4.43183c-0.06633,1.8267 -1.80113,3.18215 -2.64751,4.8023c-0.20912,0.4003 -0.3962,0.80194 -0.56305,1.20499l0.72249,-0.09468c1.20595,-1.75207 2.2447,-3.44464 3.81793,-4.92198c0.71276,-0.66932 1.76683,-0.96167 2.36512,-1.73501c0.23414,-0.30266 0.01286,-0.78908 -0.14152,-1.13923c-0.95274,-2.16074 -2.19599,-3.24216 -2.63397,-5.54591c-0.92697,-4.87583 0.13116,-9.96036 0.85886,-14.93847c-1.4723,0.16524 -2.95348,0.28806 -4.43553,0.38801c1.01092,2.33046 1.73513,4.76355 1.27693,7.0411c-0.33491,1.66476 -0.96036,3.12213 -1.62886,4.58817c0.51627,1.97746 0.97335,3.89211 1.44207,5.91888zM273.08078,225.5598c-0.03654,-0.242 -0.06995,-0.48511 -0.10041,-0.72922c-0.05758,0.67134 -0.0952,1.34089 0.02235,1.99891c0.12228,0.68449 0.39317,1.32438 0.72387,1.94422c-0.23357,-1.06815 -0.48275,-2.13415 -0.6458,-3.21391zM292.49088,204.32778c0.04613,-0.71807 0.04961,-1.45207 0.03611,-2.19357c-0.86397,1.15006 -1.91674,2.24839 -3.20178,3.30505c0.16968,0.78519 -0.27598,1.50512 -0.27598,1.50512c-1.27455,2.05596 -2.31083,4.23328 -3.57283,6.29346c0.92859,1.85539 2.89274,3.07015 4.52482,4.42346c0.93405,-4.34896 2.20567,-8.91305 2.48966,-13.33351zM197.69136,227.75512c-0.60242,-2.81157 -2.36642,-4.59344 -3.33184,-7.19247c-0.85045,-2.28951 -0.2735,-2.80143 -0.44026,-5.20482c-0.11106,-1.60075 -0.26233,-3.04331 -0.26285,-4.45825c-1.09531,-0.84943 -2.20604,-1.73958 -3.26442,-2.67509c0.4879,2.2205 1.03809,4.40308 1.5169,6.44226c0.22722,0.9677 1.39815,4.01678 1.52718,4.86605c0.45467,2.99264 -1.08714,7.06274 0.73853,9.79362c0.44738,0.6692 3.25059,2.86812 3.41048,3.08342c0.08453,0.11384 0.15913,0.23333 0.2262,0.35705c0.22245,-1.70757 0.22391,-3.40714 -0.11991,-5.0118zM197.81063,215.02696c0.06959,1.00314 -0.2538,3.02523 0.21073,4.17808c0.65051,1.61443 1.50775,2.94907 2.23988,4.38723c-0.0562,-0.48097 -0.11153,-0.95137 -0.17404,-1.40285c-0.26148,-1.88856 -0.45828,-3.95061 -0.56296,-6.05845c-0.1827,-0.11482 -0.34494,-0.25901 -0.48018,-0.42588l-1.31011,-1.59507c0.02855,0.30104 0.05512,0.60637 0.07667,0.91693zM203.11631,231.44638c1.75026,0.54729 -0.44326,-0.09192 -1.2512,-1.38207c0.01592,0.84465 -0.02653,1.69673 -0.11696,2.54985zM186.26953,185.66836c-0.03306,-0.08213 -0.06623,-0.16442 -0.09934,-0.24684c0.00134,0.10339 0.00275,0.20674 0.00424,0.3101c0.03006,-0.02098 0.06179,-0.04217 0.0951,-0.06326zM250.49289,240.68723c0.83959,-1.19071 0.26058,-3.83327 0.16649,-5.04464c-0.02439,-0.31403 -0.04403,-0.64101 -0.05913,-0.97706c-0.19963,0.23171 -0.36618,0.48622 -0.48394,0.77464c-0.54309,1.33006 0.33233,2.90028 0.05362,4.30965c-0.10344,0.52306 -0.329,1.00998 -0.55819,1.49582c0.32658,-0.15233 0.68253,-0.27672 0.88115,-0.55841zM257.08739,221.27745c0.05292,2.35736 -2.21109,5.28043 -2.44746,7.8119c-0.19075,2.04295 0.14226,4.44079 0.27179,6.80188c0.18174,-0.55964 0.39912,-1.09726 0.65296,-1.60559c0.56241,-1.12633 1.78114,-1.80325 2.47072,-2.85654c1.25419,-1.91569 1.7723,-4.22269 2.67891,-6.32529c0.20457,-0.47444 0.41042,-0.92389 0.61256,-1.36238c-0.90765,-3.55977 -1.98626,-7.23371 -3.35641,-10.36502c-0.31492,0.01706 -0.62922,0.03461 -0.94285,0.05287c-1.00537,1.14913 -1.62724,2.70181 -2.01695,4.38858c0.69663,1.17149 2.0737,3.32419 2.07674,3.45957zM223.5507,225.5116c0.62467,-1.69389 -0.4714,-3.58106 -0.78517,-5.35901c-0.26568,-1.50543 -0.46034,-3.02785 -0.57409,-4.5555c-1.70018,-0.19199 -3.40197,-0.36535 -5.11735,-0.46163c0.13129,1.27225 0.43211,2.51098 1.0842,3.60531c0.80554,1.35188 2.71996,1.81165 3.48117,3.18896c1.22059,2.20851 0.52732,3.56331 0.05095,5.74482l-0.01213,0.01638c0.69607,-0.68545 1.54322,-1.28668 1.87242,-2.17935zM226.61135,219.473c0.20362,1.15074 0.89567,4.38341 0.78791,6.3512c0.35105,-0.605 0.65949,-1.22382 0.78778,-1.90346c0.46404,-2.4584 -0.16086,-5.26135 -0.56358,-7.71836c-0.4942,-0.04782 -0.98747,-0.09926 -1.4801,-0.15295c0.10858,1.14775 0.26758,2.291 0.46798,3.42359zM224.45834,230.26746c-0.28759,0.86161 -0.3072,1.77146 -0.28409,2.69112c0.53141,-1.62191 1.22034,-3.22966 1.84044,-4.58049c-0.62991,0.56935 -1.29871,1.1175 -1.55634,1.88939zM250.50828,222.67943c0.10469,-1.19581 0.24925,-2.63953 0.48176,-4.12964c-0.64929,-1.53572 -1.03004,-2.96968 -1.19318,-4.39565c-0.42865,0.06882 -0.85762,0.14142 -1.28682,0.21681c0.15954,1.13464 0.34229,2.28662 0.52261,3.47523c0.2027,1.33613 0.50355,2.66122 0.60536,4.00879c0.03825,0.5063 -0.60039,1.7407 -0.1449,1.51634c0.34458,-0.16973 0.67596,-0.36423 1.00546,-0.56226c0.00326,-0.04956 0.00652,-0.09296 0.00971,-0.1296zM189.42685,200.6517c0,0 0.00311,-0.22458 0.0834,-0.52035c-0.128,-0.04578 -0.26263,-0.10644 -0.39387,-0.18682c0.01961,0.33823 0.04489,0.67877 0.0753,1.0212c0.085,0.09938 0.17319,0.19673 0.26333,0.29286c-0.01344,-0.19297 -0.02282,-0.39486 -0.02815,-0.60689zM236.41295,126.3627c0.16262,0.41227 0.3178,0.82394 0.46533,1.23437c-0.13707,-0.60445 -0.29204,-1.20609 -0.45253,-1.79455c-0.00442,0.18279 -0.00875,0.36935 -0.01279,0.56018zM254.02315,147.63848c-0.26701,-0.0563 -0.53406,-0.11612 -0.80071,-0.17963c0.16075,6.54098 0.40476,13.09181 -0.65623,19.55389c-0.26793,1.63181 -0.42956,3.24277 -0.53121,4.85254c2.2126,-0.37884 4.47297,-0.49177 6.70383,-0.74903c-0.07426,-0.74409 -0.14522,-1.48831 -0.20385,-2.23293c-0.45171,-5.73779 -0.82735,-11.8781 -2.31918,-17.46877c-0.34901,-1.30794 -0.95479,-2.52761 -1.52584,-3.7605c-0.22253,-0.00627 -0.44482,-0.01148 -0.66683,-0.01554zM242.55108,172.09538c-1.95251,-0.02709 -1.92542,-1.9796 -1.92542,-1.9796l0.03205,-0.89511c-0.41921,-3.30073 -0.26415,-6.74517 -0.48095,-10.10004c-0.09685,0.28266 -0.1821,0.56529 -0.2344,0.84735c-0.48425,2.6115 -0.81443,5.13047 -0.8462,7.78311l-0.00542,0.3905c0,0 -0.00358,0.25765 -0.10171,0.58446c0.08904,0.32941 0.08546,0.58704 0.08546,0.58704c-0.0257,1.85247 -0.09674,3.67317 -0.22194,5.48708c0.51546,0.01001 1.03257,0.01033 1.55163,-0.00053c2.46626,-0.05154 5.09513,-1.0668 7.64475,-1.90275c0.21327,-3.47523 0.89844,-6.72017 1.27817,-10.22663c0.58428,-5.39533 0.21577,-10.95742 0.01447,-16.45452c-1.25924,-0.52754 -2.44927,-1.17303 -3.51062,-1.96147c-0.92169,2.97116 0.23456,6.42844 -0.31581,9.44729c-0.20147,1.10507 -1.26575,3.53963 -1.74177,4.68466l0.1443,-0.33271c0,0 -0.00423,0.30494 -0.12987,0.67215c0.18461,0.89219 0.40382,1.78012 0.46719,2.68666c0.17434,2.49385 -0.05072,4.80723 0.27619,7.30971l-0.00046,1.44791c0,0 -0.02709,1.95251 -1.9796,1.92542zM239.23037,154.03043c-0.01362,-0.02499 -0.02741,-0.04993 -0.04137,-0.0748c-0.0057,0.01853 -0.01171,0.03712 -0.01802,0.05574c0.01989,0.00598 0.03968,0.01234 0.05939,0.01906zM235.16945,169.25892c0,0 0.00358,-0.25765 0.10171,-0.58446c-0.08904,-0.32941 -0.08546,-0.58704 -0.08546,-0.58704l0.00542,-0.3905c0.04352,-2.79291 0.15961,-5.8884 0.94336,-8.59633c0.17607,-0.6083 0.77588,-1.06499 0.86361,-1.69214c0.02867,-0.20502 -0.42165,-0.00373 -0.61668,-0.07311c-0.58309,-0.20742 -1.24012,-0.31903 -1.82117,-0.54477c-0.1934,0.31725 -0.38058,0.63757 -0.50883,0.9787c-1.17839,3.13417 -1.16295,6.98618 -1.20874,10.28563l-0.01625,1.17151c0,0 -0.02709,1.95251 -1.9796,1.92542c-1.95251,-0.02709 -1.92543,-1.97961 -1.92543,-1.97961l0.01626,-1.1715c0.05154,-3.71529 0.08807,-8.02607 1.43767,-11.55002c0.26788,-0.69946 0.91332,-1.23088 1.11042,-1.9535c0.13304,-0.4878 -0.01226,-0.95283 -0.25794,-1.41348c-0.26682,0.23226 -0.59712,0.39309 -0.96082,0.45322l-1.92237,0.35681l-0.0126,-0.06787l-0.16213,0.08514c-0.04128,0.89178 -0.1118,1.78729 -0.27208,2.67805c-0.52596,2.92306 -1.37458,5.77235 -2.03427,8.66861c0.10297,0.02785 0.20985,0.06433 0.3207,0.11047c1.80281,0.7503 1.05251,2.55309 1.05251,2.55309c-0.70893,1.68621 -1.28548,3.4893 -1.78321,5.33167c3.18601,0.4434 6.32753,0.99367 9.50145,1.30648c0.12127,-1.75125 0.18958,-3.50916 0.21443,-5.3005zM192.03511,168.81974c1.32199,-0.7492 2.83492,-1.19855 4.44507,-1.25687c-0.26752,-2.56052 -0.47982,-5.158 -0.5177,-7.72376c-0.22511,0.59753 -0.49426,1.16484 -0.81642,1.68909c-0.1421,0.23128 -3.09889,3.08695 -3.45256,3.43094l0.56936,0.18932c0,0 -0.02709,1.95251 -1.9796,1.92542c-0.81062,-0.01124 -1.28003,-0.35437 -1.55183,-0.75186c-0.02558,1.8747 -0.04868,3.7495 -0.07616,5.62418c0.84448,-1.58179 1.98717,-2.7707 3.37981,-3.12644zM289.20071,157.12428c0.00454,-1.61178 -0.20889,-3.18005 -0.46784,-4.74052c-0.06831,0.02005 -0.13695,0.03938 -0.20587,0.05799c-1.62599,0.72549 -3.43095,1.26531 -5.3109,1.64346c-0.58929,2.98114 -1.4014,5.90131 -1.98909,8.86669c0.72585,-0.83994 1.73676,-1.53539 3.31293,-1.82794c1.43613,-0.26656 2.87049,-0.2605 4.22805,-0.00846c0.27014,-1.28207 0.42879,-2.59888 0.43271,-3.99121zM265.04684,165.19605c0.80116,1.62372 2.47339,2.64754 3.63309,4.03802l0.24451,0.24839c0.74433,-0.09305 1.49774,-0.18836 2.24135,-0.28939c0.73307,-4.80939 0.76743,-9.88225 0.01062,-14.66151c-1.34904,-0.15795 -2.60862,-0.38333 -3.72915,-0.66472c-2.42954,3.50791 -4.36312,7.35131 -2.40044,11.32919zM275.15484,154.78842c0.61567,4.51534 0.60944,9.19713 0.03744,13.73782c0.50682,-0.10793 0.9847,-0.22371 1.42417,-0.34908c0.26966,-4.63236 1.51705,-9.02256 2.48798,-13.51985c-1.32745,0.1092 -2.65518,0.15033 -3.9496,0.13112zM262.42835,168.57678c0.04896,0.62182 0.10539,1.24288 0.1648,1.8635c0.45701,-0.10858 0.9762,-0.20909 1.54194,-0.30443c-0.6086,-0.58517 -1.21717,-1.16932 -1.7271,-1.81845c0.00677,0.08655 0.01356,0.17302 0.02037,0.2594zM260.17235,151.1321c0.50138,2.0133 0.87512,4.08646 1.169,6.18123c0.60841,-1.6143 1.4887,-3.16163 2.52364,-4.61757c-1.22103,-0.45246 -2.63064,-1.01735 -3.69263,-1.56364zM191.85275,159.42912c1.50767,-2.40739 1.3646,-6.39507 1.3966,-9.07498c-0.5513,-0.3031 -1.06997,-0.65782 -1.54957,-1.05755c-0.25868,0.27442 -0.49909,0.56432 -0.71182,0.87773c-2.20794,3.25288 -1.49965,7.56772 -1.58791,11.59548c0.8662,-0.74181 1.85247,-1.38225 2.4527,-2.34066zM200.42349,163.5183c0.11535,1.6025 0.22925,3.20487 0.34549,4.80697c0.65869,0.18001 1.28206,0.43209 1.8311,0.83575c0.1573,0.11564 0.42497,0.47692 0.70861,0.84389c0.12936,0.11447 0.25564,0.2323 0.37876,0.35339l0.41548,-1.17467c2.08912,-2.96353 -0.53539,-7.27153 -0.80399,-10.75139c-0.15102,-1.95647 0.43171,-3.41571 1.31705,-4.79695c-1.42948,-0.15317 -2.85763,-0.38542 -4.24185,-0.70532c-0.5015,3.41438 -0.20889,7.00057 0.04938,10.58835zM207.14854,156.89297c-1.20925,3.59363 2.49387,7.90232 1.82874,11.58571c-0.16235,0.89912 -0.89948,1.59061 -1.34922,2.38591l-0.22804,0.66479c0.70823,0.10828 1.42241,0.20319 2.14079,0.28782c2.40397,-5.79578 1.96285,-12.09511 3.20247,-18.13061c-1.12129,0.11009 -2.30679,0.17173 -3.5272,0.17898c-0.81763,0.94239 -1.67676,1.86611 -2.06752,3.02741zM219.96704,164.35349c-0.59663,2.71198 -0.42792,5.42493 -0.46646,8.20325l-0.001,0.07252c0.68915,0.0529 1.37495,0.10933 2.05592,0.17203c0.21966,-0.84004 0.45279,-1.6748 0.70365,-2.49864c-0.76649,-0.56997 -0.75186,-1.62385 -0.75186,-1.62385l0.05269,-1.88264c0.66579,-3.67704 1.82658,-7.23226 2.49455,-10.90063c0.15315,-0.84101 0.24632,-1.65644 0.31245,-2.45293c-1.11809,-0.20012 -2.23699,-0.3884 -3.424,-0.39474c0,0 -0.28987,-0.00403 -0.64468,-0.12066c0.72913,2.97972 0.75556,6.01421 -0.38301,9.3683c-0.06123,0.18036 -0.12979,0.35774 -0.2039,0.53287c0.4358,0.68516 0.25567,1.52513 0.25567,1.52513zM214.94858,167.91018c-0.35961,1.45774 -0.81477,2.90271 -1.35188,4.29352c0.66654,0.0522 1.33392,0.1006 2.00082,0.14762c0.01732,-1.41458 0.00349,-2.79869 0.04844,-4.17459c-0.28104,-0.04865 -0.51033,-0.14363 -0.69739,-0.26654zM217.03538,154.85666c-0.02705,-0.40892 -0.12588,-0.85882 -0.27181,-1.329c-0.57862,2.45837 -0.65976,4.88467 -0.82138,7.40645c0.71626,-1.87289 1.2455,-3.77466 1.09319,-6.07744zM230.90851,146.98601c-0.163,0.04191 -0.32763,0.07972 -0.49378,0.11329c0.12826,0.05952 0.24892,0.13252 0.36018,0.21719c0.04371,-0.10994 0.08832,-0.22017 0.13359,-0.33047z" fill-opacity="0.50196" fill="#000000" stroke-width="0.5"/><path d="M255.06821,128.5243c0.13315,-9.59726 8.02121,-17.26943 17.61847,-17.13628c9.59726,0.13316 17.26944,8.02122 17.13629,17.61847c-0.13315,9.59726 -8.02122,17.26944 -17.61847,17.13628c-9.59726,-0.13315 -17.26943,-8.02121 -17.13628,-17.61847z" fill-opacity="0.50196" fill="#ffffff" stroke-width="0.5"/><path d="M194.52401,128.85606c0.13315,-9.59726 8.02122,-17.26944 17.61847,-17.13628c9.59726,0.13315 17.26945,8.02122 17.1363,17.61847c-0.13315,9.59726 -8.02121,17.26943 -17.61847,17.13628c-9.59726,-0.13315 -17.26943,-8.02121 -17.13628,-17.61847z" fill-opacity="0.50196" fill="#ffffff" stroke-width="0.5"/><path d="M193.8026,124.54969c0.14214,-10.24427 8.56196,-18.43366 18.80623,-18.29153c10.24427,0.14214 18.43366,8.56196 18.29154,18.80623c-0.14212,10.24428 -8.56197,18.43366 -18.80623,18.29155c-10.24427,-0.14214 -18.43366,-8.56197 -18.29153,-18.80623z" fill-opacity="0.50196" fill="#000000" stroke-width="0.5"/><path d="M253.56038,124.59761c0.14214,-10.24427 8.56197,-18.43366 18.80623,-18.29155c10.24427,0.14214 18.43366,8.56197 18.29155,18.80623c-0.14212,10.24428 -8.56197,18.43366 -18.80623,18.29154c-10.24428,-0.14212 -18.43368,-8.56197 -18.29154,-18.80623z" fill-opacity="0.50196" fill="#000000" stroke-width="0.5"/><path d="M182.57637,173.60677c0.05536,-3.98987 3.33466,-7.17943 7.32454,-7.12408c3.38537,0.04697 6.19457,2.41498 6.93428,5.56871c0.74366,-0.24565 1.54024,-0.37362 2.36736,-0.36216c2.75282,0.03819 5.12464,1.61109 6.31262,3.89319c1.11071,-0.6641 2.41357,-1.03807 3.80255,-1.0188c2.49257,0.03458 4.67279,1.32741 5.94463,3.26567c1.01676,-0.52195 2.17248,-0.80959 3.39492,-0.79263c2.3838,0.03307 4.48192,1.21698 5.77298,3.01566c1.28257,-1.08106 2.94543,-1.72296 4.75434,-1.69787c2.49883,0.03467 4.68373,1.3339 5.95419,3.28026c1.34504,-1.68898 3.42951,-2.7595 5.75548,-2.72723c2.3207,0.0322 4.37065,1.1551 5.66878,2.87412c1.04933,-2.7559 3.73466,-4.69656 6.8544,-4.65327c3.24158,0.04498 5.95487,2.21799 6.82893,5.17119c0.52601,-3.52101 3.58701,-6.19843 7.24542,-6.14766c2.3268,0.03228 4.38144,1.16102 5.67902,2.88772c0.49311,-3.55831 3.57173,-6.27458 7.25633,-6.22346c0.19787,0.00274 0.39379,0.01342 0.58743,0.03171c0.14546,-3.90929 3.38767,-7.00697 7.32016,-6.95241c3.98989,0.05536 7.17943,3.33466 7.12406,7.32453c-0.05536,3.98987 -3.33465,7.17943 -7.32453,7.12406c-0.19787,-0.00274 -0.39378,-0.01343 -0.58743,-0.03172c-0.14546,3.90929 -3.38767,7.00697 -7.32016,6.95241c-2.3268,-0.03228 -4.38142,-1.16102 -5.67901,-2.88772c-0.49311,3.55831 -3.57172,6.27457 -7.25635,6.22346c-3.24158,-0.04498 -5.95487,-2.218 -6.82892,-5.1712c-0.52601,3.52101 -3.58701,6.19843 -7.24542,6.14767c-2.32069,-0.0322 -4.37065,-1.1551 -5.66878,-2.87414c-1.04933,2.75591 -3.73465,4.69656 -6.8544,4.65328c-2.49883,-0.03467 -4.68373,-1.3339 -5.95417,-3.28027c-1.34505,1.68898 -3.42952,2.7595 -5.75549,2.72723c-2.3838,-0.03307 -4.48192,-1.21698 -5.77298,-3.01566c-1.28257,1.08107 -2.94543,1.72296 -4.75433,1.69786c-2.49257,-0.03458 -4.67281,-1.32741 -5.94464,-3.26567c-1.01676,0.52195 -2.17248,0.8096 -3.39493,0.79264c-2.75282,-0.03819 -5.12465,-1.61109 -6.31263,-3.89319c-1.11071,0.6641 -2.41356,1.03809 -3.80253,1.01881c-3.38537,-0.04697 -6.19457,-2.41498 -6.93427,-5.56872c-0.74366,0.24565 -1.54025,0.37363 -2.36736,0.36216c-3.98987,-0.05536 -7.17943,-3.33466 -7.12408,-7.32454z" fill-opacity="0.50196" fill="#ffffff" stroke-width="0.5"/><path d="M281.16405,193.08761c3.98987,0.05536 7.17943,3.33466 7.12406,7.32453c-0.05536,3.98987 -3.33466,7.17943 -7.32452,7.12408c-1.91355,-0.02655 -3.64302,-0.79467 -4.91872,-2.02708c-0.523,3.52446 -3.58564,6.20545 -7.24647,6.15467c-2.32645,-0.03228 -4.38081,-1.16068 -5.67842,-2.88694c-0.06598,-1.51862 -0.59163,-2.91799 -1.44128,-4.06244c-0.00463,-0.12429 -0.00611,-0.24937 -0.00436,-0.37515c0.05536,-3.98987 3.33466,-7.17943 7.32453,-7.12406c1.91355,0.02655 3.64302,0.79467 4.91872,2.02708c0.523,-3.52446 3.58564,-6.20545 7.24647,-6.15467z" fill-opacity="0.50196" fill="#ffffff" stroke-width="0.5"/><path d="M186.87233,201.78799c0.05536,-3.98987 3.33466,-7.17943 7.32453,-7.12406c3.18,0.04412 5.85161,2.13622 6.77714,5.00375c0.89766,-0.38191 1.88769,-0.58718 2.92584,-0.57278c3.62107,0.05024 6.58294,2.75596 7.05818,6.23831c1.3042,-2.02728 3.59313,-3.35649 6.181,-3.32058c3.35695,0.04657 6.14735,2.37538 6.91521,5.48944c1.33443,-1.82709 3.50438,-3.00141 5.93888,-2.96764c3.16752,0.04394 5.83063,2.11982 6.76616,4.97004c1.01424,-2.82316 3.73392,-4.82436 6.90144,-4.78042c3.98987,0.05536 7.17943,3.33466 7.12408,7.32453c-0.05536,3.98987 -3.33466,7.17943 -7.32453,7.12408c-3.16752,-0.04394 -5.83063,-2.11982 -6.76616,-4.97005c-1.01424,2.82316 -3.73392,4.82436 -6.90144,4.78042c-3.35695,-0.04657 -6.14735,-2.37538 -6.91521,-5.48944c-1.33443,1.82709 -3.50438,3.00141 -5.93888,2.96764c-3.62107,-0.05024 -6.58294,-2.75596 -7.05818,-6.23832c-1.3042,2.02728 -3.59313,3.35649 -6.18099,3.32059c-3.18,-0.04412 -5.8516,-2.13621 -6.77713,-5.00375c-0.89766,0.38191 -1.88769,0.58717 -2.92584,0.57278c-3.98987,-0.05536 -7.17943,-3.33466 -7.12408,-7.32452z" fill-opacity="0.50196" fill="#ffffff" stroke-width="0.5"/><path d="M249.13774,210.8473c-1.34185,-3.75786 0.61671,-7.89201 4.37459,-9.23387c3.75786,-1.34185 7.89201,0.61671 9.23387,4.37459c1.34185,3.75786 -0.61671,7.89201 -4.37459,9.23387c-3.75786,1.34185 -7.89201,-0.61671 -9.23387,-4.37459z" fill-opacity="0.50196" fill="#ffffff" stroke-width="0.5"/></g></g></svg>