<svg version="1.1" xmlns="http://www.w3.org/2000/svg" xmlns:xlink="http://www.w3.org/1999/xlink" width="221.76828" height="174.62111" viewBox="0,0,221.76828,174.62111"><defs><linearGradient x1="325.34353" y1="103.8289" x2="325.34353" y2="113.53536" gradientUnits="userSpaceOnUse" id="color-1"><stop offset="0" stop-color="#000000"/><stop offset="1" stop-color="#333333"/></linearGradient><linearGradient x1="325.37259" y1="114.18246" x2="325.37259" y2="123.88891" gradientUnits="userSpaceOnUse" id="color-2"><stop offset="0" stop-color="#000000"/><stop offset="1" stop-color="#333333"/></linearGradient><linearGradient x1="325.34353" y1="124.21246" x2="325.34353" y2="133.9189" gradientUnits="userSpaceOnUse" id="color-3"><stop offset="0" stop-color="#000000"/><stop offset="1" stop-color="#333333"/></linearGradient><linearGradient x1="325.34353" y1="134.56601" x2="325.34353" y2="144.27246" gradientUnits="userSpaceOnUse" id="color-4"><stop offset="0" stop-color="#000000"/><stop offset="1" stop-color="#333333"/></linearGradient><linearGradient x1="325.59967" y1="144.91955" x2="325.59967" y2="154.626" gradientUnits="userSpaceOnUse" id="color-5"><stop offset="0" stop-color="#000000"/><stop offset="1" stop-color="#333333"/></linearGradient><linearGradient x1="325.62872" y1="155.27311" x2="325.62872" y2="164.97956" gradientUnits="userSpaceOnUse" id="color-6"><stop offset="0" stop-color="#000000"/><stop offset="1" stop-color="#333333"/></linearGradient><radialGradient cx="240" cy="168.78523" r="64.25177" gradientUnits="userSpaceOnUse" id="color-7"><stop offset="0" stop-color="#000000"/><stop offset="1" stop-color="#000000" stop-opacity="0"/></radialGradient></defs><g transform="translate(-175.74823,-92.68947)"><g stroke-miterlimit="10"><g><g stroke="none" stroke-width="0"><g><path d="M296.31689,266.91465v-173.82927h58.33848v173.82927z" fill="#333333"/><path d="" fill="#333333"/><path d="" fill="#000000"/><path d="M349.55467,164.47956h-0.12414c0.0418,-0.05245 0.08319,-0.10608 0.12414,-0.16088z" fill="#000000"/><path d="M300.94128,164.47956v-0.09098l0.05347,0.09098z" fill="#000000"/></g><g><path d="M300.68316,113.53536v-9.70645h49.32074v9.70645z" fill="url(#color-1)"/><path d="M300.71222,123.88891v-9.70645h49.32075v9.70645z" fill="url(#color-2)"/><path d="M300.68316,133.9189v-9.70645h49.32074v9.70645z" fill="url(#color-3)"/><path d="M300.68316,144.27246v-9.70645h49.32074v9.70645z" fill="url(#color-4)"/><path d="M300.9393,154.626v-9.70645h49.32075v9.70645z" fill="url(#color-5)"/><path d="M300.96835,164.97956v-9.70645h49.32075v9.70645z" fill="url(#color-6)"/></g></g><g fill="#000000"><g stroke="#333333" stroke-width="5"><path d="M183.49472,264.81058v-169.62111h113.01059v169.62111z"/><path d=""/><path d=""/><path d="M286.62447,164.85529h-0.24048c0.08098,-0.05118 0.16114,-0.10351 0.24048,-0.15698z"/><path d="M192.45287,164.85529v-0.08878l0.10358,0.08878z"/></g><path d="M186.4293,166.12945c0,-6.90356 5.59644,-12.5 12.5,-12.5c6.90356,0 12.5,5.59644 12.5,12.5c0,6.90356 -5.59644,12.5 -12.5,12.5c-6.90356,0 -12.5,-5.59644 -12.5,-12.5z" stroke="none" stroke-width="0.5"/><path d="M265.63376,162.62483c0,-6.90356 5.59644,-12.5 12.5,-12.5c6.90356,0 12.5,5.59644 12.5,12.5c0,6.90356 -5.59644,12.5 -12.5,12.5c-6.90356,0 -12.5,-5.59644 -12.5,-12.5z" stroke="none" stroke-width="0.5"/></g></g><path d="M249.54586,194.56411c-2.88655,-0.3771 -6.22237,-0.56672 -8.33858,-2.11538c-0.87449,-0.63996 -1.26193,-1.49439 -1.45423,-2.43714c-0.03576,-0.01471 -0.07167,-0.02918 -0.10774,-0.0434c-8.11356,-3.1985 -13.90285,-7.15513 -20.35911,-12.19546c-3.18588,-2.48719 -5.54951,-5.71907 -6.76563,-9.07501c0,0 -0.87861,-2.68903 1.9031,-4.01537c1.34249,-1.67869 4.20771,-1.67869 4.20771,-1.67869c13.91412,0 26.64282,2.93252 40.32901,4.22116c13.69601,1.28957 27.22808,4.04226 40.98646,5.23161c4.05823,0.35082 8.18514,-0.29066 12.25214,-0.00546c2.7526,0.19303 5.37452,0.46386 7.94916,0.74656c8.19282,-1.36436 15.04626,-7.03793 22.42926,-9.83097c1.37083,-0.51859 3.33005,0.14357 4.5227,-0.58879c1.14661,-0.70408 0.88611,-2.15803 1.57133,-3.15329c2.58009,-3.74748 6.16464,-6.96476 10.03793,-9.92835l2.45325,-2.8484c0,0 2.71062,-3.11099 6.77655,-1.037c4.06593,2.07399 1.35531,5.18498 1.35531,5.18498l-3.02702,3.44132c-3.6743,2.81133 -6.44724,5.54204 -9.14301,8.94081c-1.36232,1.71759 -1.90964,3.93049 -3.90893,5.233c-1.70873,1.11321 -4.43483,0.73333 -6.43783,1.50779c-3.40151,1.31519 -6.51339,2.88366 -9.5897,4.41378c0.21227,0.00159 0.42533,0.00239 0.63923,0.00239c9.4214,0.04221 21.19181,-2.97186 28.05616,-8.33947c2.482,-1.94081 4.6743,-4.16622 7.59509,-5.70859l-0.55519,-1.21623c0,0 1.54529,-3.54707 6.18117,-2.36471c4.63588,1.18236 3.09058,4.72943 3.09058,4.72943l-3.29532,5.07349c-2.45904,1.19057 -4.02964,3.21397 -6.10558,4.77428c-5.40842,4.06505 -12.61736,7.04521 -20.15271,8.77753c2.15904,-0.114 4.32171,-0.247 6.5098,-0.45628c4.7159,-0.45104 5.37489,0.67486 9.58069,-0.75667c5.42981,-1.84815 10.74599,-5.54736 15.70709,-8.07796l3.26538,-1.28151c0,0 4.37075,-1.67211 6.55612,1.67211c2.18537,3.34421 -2.18537,5.01632 -2.18537,5.01632l-2.21489,0.81506c-5.36443,2.73634 -11.23998,6.79581 -17.17452,8.69462c-8.93679,2.8594 -19.5351,1.60208 -28.89673,2.398c-1.22158,0.10386 -2.40271,0.24348 -3.55958,0.40174c6.92196,0.25371 13.84222,0.50779 20.88893,0.52487c3.96769,0.00962 11.36187,2.15097 15.02473,1.20872c3.55646,-0.91488 6.77397,-2.5672 10.40947,-3.27728l6.07733,-0.02801c0,0 4.88664,0 4.88664,3.73894c0,3.73894 -4.88664,3.73894 -4.88664,3.73894l-4.8832,-0.02801c-3.11552,0.57492 -5.66717,2.40299 -8.77146,3.01244c-6.9964,1.37357 -6.86283,-0.31426 -12.97367,-0.91587c-7.62419,-0.75059 -15.63485,0.63743 -23.29114,0c-6.40871,-0.53356 -12.56102,-0.86213 -18.96666,-0.97558c0.42109,1.42016 1.36544,2.79506 2.11156,4.13834c0.08813,0.15867 0.17152,0.31873 0.25065,0.48002c1.68949,0.35016 3.88689,0.23181 5.47776,0.75813c4.6027,1.52275 9.35864,3.32843 13.98432,5.25401l0.06786,-0.25959l6.76157,1.0347c2.28396,0.31387 4.01706,1.84204 4.01706,3.67992c0,2.06496 -2.18782,3.73894 -4.88664,3.73894h-5.48027c-6.70485,0 -20.05441,1.75133 -25.37645,-2.1434c-1.97355,-1.44426 -1.86647,-3.92973 -2.65543,-5.93015c-0.24129,-0.61179 -0.48624,-1.18352 -0.73051,-1.72619c-0.40162,-0.34449 -0.82063,-0.74732 -1.2633,-1.21997c-1.44038,-1.53789 -1.41093,-3.62675 -2.11639,-5.44013l-0.04943,-1.37264c-9.30607,1.81665 -20.92793,-1.31903 -30.05857,-2.11297c-6.23259,-0.54195 -12.73219,0.45389 -18.98692,0.01527c-0.6404,-0.04491 -1.27722,-0.10813 -1.91139,-0.18501c-4.70882,0.4955 -9.44278,0.68062 -13.35336,0.16974zM242.19296,173.69172c0.21053,-0.32404 0.43475,-0.64693 0.6744,-0.96232c-0.83345,-0.1197 -1.66636,-0.23893 -2.49925,-0.35648c0.50879,0.56191 1.09307,1.03377 1.82485,1.31881zM223.95443,170.62383c0.32365,0.39914 0.67528,0.78214 1.05098,1.15317c0.1101,-0.36872 0.25806,-0.72535 0.44645,-1.06563c-0.49805,-0.03229 -0.99715,-0.06155 -1.49743,-0.08754z" fill="#000000" stroke="none" stroke-width="0.5"/><g stroke="none"><g fill="url(#color-7)" stroke-width="0.5"><g><path d="M175.74823,168.78523c0,-35.48527 28.7665,-64.25177 64.25177,-64.25177c35.48527,0 64.25177,28.76649 64.25177,64.25177c0,35.48528 -28.76649,64.25177 -64.25177,64.25177c-35.48527,0 -64.25177,-28.7665 -64.25177,-64.25177z"/><path d="M175.74823,168.78523c0,-35.48527 28.7665,-64.25177 64.25177,-64.25177c35.48527,0 64.25177,28.76649 64.25177,64.25177c0,35.48528 -28.76649,64.25177 -64.25177,64.25177c-35.48527,0 -64.25177,-28.7665 -64.25177,-64.25177z"/></g><g><path d="M175.74823,168.78523c0,-35.48527 28.7665,-64.25177 64.25177,-64.25177c35.48527,0 64.25177,28.76649 64.25177,64.25177c0,35.48528 -28.76649,64.25177 -64.25177,64.25177c-35.48527,0 -64.25177,-28.7665 -64.25177,-64.25177z"/><path d="M175.74823,168.78523c0,-35.48527 28.7665,-64.25177 64.25177,-64.25177c35.48527,0 64.25177,28.7665 64.25177,64.25177c0,35.48527 -28.7665,64.25177 -64.25177,64.25177c-35.48527,0 -64.25177,-28.7665 -64.25177,-64.25177z"/></g></g><g fill="#ffffff"><g><path d="M259.25224,121.90877c3.15098,0 -7.10975,3.66129 -7.10975,15.09844c0,11.43715 9.03189,13.77835 5.88091,13.77835c-3.15098,0 -10.62074,-3.33127 -10.62074,-14.76842c0,-11.43714 8.6986,-14.10837 11.84958,-14.10837z" stroke-width="NaN"/><path d="M281.64774,136.01714c0,11.43714 -7.46976,14.76842 -10.62074,14.76842c-3.15098,0 5.88091,-2.34121 5.88091,-13.77835c0,-11.43714 -10.26073,-15.09844 -7.10975,-15.09844c3.15098,0 11.84958,2.67123 11.84958,14.10837z" stroke-width="NaN"/></g><g><path d="M231.84447,136.01714c0,11.43714 -7.46975,14.76841 -10.62073,14.76841c-3.15098,0 5.8809,-2.3412 5.8809,-13.77834c0,-11.43714 -10.26072,-15.09843 -7.10974,-15.09843c3.15098,0 11.84957,2.67122 11.84957,14.10837z" stroke-width="NaN"/><path d="M209.44897,121.90878c3.15098,0 -7.10975,3.66129 -7.10975,15.09843c0,11.43715 9.03189,13.77834 5.88091,13.77834c-3.15098,0 -10.62074,-3.33127 -10.62074,-14.76841c0,-11.43714 8.69861,-14.10837 11.84959,-14.10837z" stroke-width="NaN"/></g><path d="M271.70793,164.64811c-0.36966,-3.6748 1.32936,-7.0881 3.86604,-7.98295c0.55769,-0.44 1.18387,-0.7436 1.85832,-0.87374c2.84854,-0.54965 5.47945,2.203 5.87631,6.14822c0.36966,3.6748 -1.32936,7.0881 -3.86604,7.98295c-0.55769,0.44 -1.18387,0.7436 -1.85832,0.87374c-1.52239,0.29376 -2.98262,-0.35573 -4.07288,-1.62641c0.01269,0.09716 0.02402,0.1951 0.03395,0.29379c0.39686,3.94522 -1.59062,7.58903 -4.43915,8.13868c-2.34468,0.45243 -4.54191,-1.33253 -5.46718,-4.17831c-0.18887,3.29916 -2.00885,6.09089 -4.47339,6.56645c-2.05682,0.39688 -4.00017,-0.92798 -5.07095,-3.18032c-0.5855,2.57194 -2.19338,4.58204 -4.2502,4.97892c-1.99373,0.3847 -3.88084,-0.84831 -4.96997,-2.97568c-0.53447,2.69394 -2.1801,4.82536 -4.3048,5.23534c-2.42032,0.46702 -4.68353,-1.45003 -5.55272,-4.45701c-0.59342,2.55167 -2.19494,4.54194 -4.24048,4.93664c-2.84853,0.54965 -5.47944,-2.203 -5.87631,-6.14822c-0.02715,-0.2699 -0.04314,-0.53839 -0.04846,-0.80457c-0.79629,1.65998 -2.08278,2.85775 -3.62005,3.15438c-2.68322,0.51775 -5.17334,-1.89462 -5.78503,-5.47379c-0.65629,2.37417 -2.20076,4.19464 -4.1473,4.57025c-2.84853,0.54965 -5.47944,-2.203 -5.87631,-6.14822c-0.05228,-0.51972 -0.06319,-1.03423 -0.03619,-1.53711c-0.75434,0.96875 -1.72298,1.63845 -2.81913,1.84996c-2.84853,0.54965 -5.47945,-2.203 -5.87631,-6.14822c-0.39686,-3.94522 1.59062,-7.58903 4.43915,-8.13868c2.84853,-0.54965 5.47944,2.203 5.8763,6.14822c0.05228,0.51972 0.06319,1.03422 0.03619,1.5371c0.75434,-0.96875 1.72298,-1.63844 2.81914,-1.84995c2.68322,-0.51775 5.17334,1.89462 5.78503,5.47379c0.6563,-2.37417 2.20075,-4.19464 4.14729,-4.57024c2.84853,-0.54965 5.47945,2.203 5.87631,6.14822c0.02715,0.2699 0.04314,0.53839 0.04846,0.80457c0.79629,-1.65998 2.08277,-2.85776 3.62004,-3.15439c2.42032,-0.46702 4.68353,1.45003 5.55272,4.45701c0.59342,-2.55167 2.19494,-4.54194 4.24048,-4.93665c1.99373,-0.3847 3.88084,0.84831 4.96997,2.97568c0.53447,-2.69394 2.18011,-4.82536 4.3048,-5.23534c2.05682,-0.39688 4.00017,0.92797 5.07095,3.18032c0.5855,-2.57194 2.19338,-4.58203 4.25019,-4.97892c2.34468,-0.45243 4.54191,1.33253 5.46718,4.17831c0.18887,-3.29916 2.00886,-6.09089 4.4734,-6.56645c1.52239,-0.29376 2.98262,0.35574 4.07287,1.62641c-0.01269,-0.09716 -0.02402,-0.19511 -0.03394,-0.2938z" stroke-width="0.5"/><path d="M271.70793,195.71149c-0.36966,-3.6748 1.32936,-7.0881 3.86604,-7.98295c0.55768,-0.44 1.18387,-0.74361 1.85833,-0.87375c2.84853,-0.54964 5.47944,2.20301 5.87631,6.14823c0.36966,3.6748 -1.32937,7.0881 -3.86604,7.98295c-0.55768,0.44 -1.18386,0.7436 -1.85832,0.87374c-1.52239,0.29376 -2.98262,-0.35573 -4.07288,-1.62641c0.01269,0.09716 0.02402,0.1951 0.03395,0.29379c0.39686,3.94522 -1.59062,7.58904 -4.43915,8.13868c-2.34468,0.45243 -4.54191,-1.33253 -5.46718,-4.17831c-0.18887,3.29916 -2.00885,6.09089 -4.47339,6.56644c-2.05681,0.39688 -4.00018,-0.92798 -5.07095,-3.18032c-0.5855,2.57194 -2.19338,4.58203 -4.2502,4.97892c-1.99372,0.38471 -3.88084,-0.8483 -4.96998,-2.97567c-0.53447,2.69394 -2.1801,4.82536 -4.3048,5.23534c-2.42032,0.46703 -4.68353,-1.45003 -5.55272,-4.45701c-0.59341,2.55167 -2.19493,4.54194 -4.24047,4.93665c-2.84853,0.54964 -5.47945,-2.20301 -5.87631,-6.14823c-0.02715,-0.2699 -0.04313,-0.53839 -0.04845,-0.80457c-0.79629,1.65998 -2.08279,2.85777 -3.62005,3.15439c-2.68322,0.51775 -5.17333,-1.89462 -5.78502,-5.47379c-0.65629,2.37417 -2.20076,4.19464 -4.1473,4.57025c-2.84853,0.54964 -5.47945,-2.203 -5.87631,-6.14822c-0.05229,-0.51972 -0.06318,-1.03422 -0.03619,-1.5371c-0.75434,0.96875 -1.72298,1.63844 -2.81914,1.84995c-2.84853,0.54964 -5.47944,-2.203 -5.8763,-6.14822c-0.39686,-3.94522 1.59062,-7.58904 4.43915,-8.13868c2.84853,-0.54964 5.47945,2.20301 5.87631,6.14823c0.05229,0.51972 0.06318,1.03422 0.03619,1.5371c0.75434,-0.96875 1.72298,-1.63844 2.81914,-1.84995c2.68322,-0.51775 5.17334,1.89462 5.78503,5.47379c0.6563,-2.37417 2.20076,-4.19464 4.1473,-4.57024c2.84853,-0.54964 5.47944,2.203 5.8763,6.14822c0.02715,0.2699 0.04315,0.53838 0.04847,0.80457c0.79629,-1.65998 2.08277,-2.85776 3.62004,-3.15438c2.42032,-0.46703 4.68352,1.45003 5.55272,4.45701c0.59341,-2.55167 2.19494,-4.54195 4.24048,-4.93665c1.99372,-0.38471 3.88084,0.84831 4.96997,2.97568c0.53447,-2.69394 2.18011,-4.82536 4.30481,-5.23534c2.05682,-0.39688 4.00018,0.92797 5.07095,3.18032c0.5855,-2.57194 2.19338,-4.58203 4.25019,-4.97891c2.34468,-0.45243 4.54192,1.33253 5.46719,4.17831c0.18887,-3.29916 2.00885,-6.09089 4.47339,-6.56644c1.52239,-0.29376 2.98261,0.35572 4.07286,1.6264c-0.01269,-0.09716 -0.02401,-0.1951 -0.03393,-0.29379z" stroke-width="0.5"/></g></g></g></g></svg>