<svg version="1.1" xmlns="http://www.w3.org/2000/svg" xmlns:xlink="http://www.w3.org/1999/xlink" width="115.81429" height="173.82927" viewBox="0,0,115.81429,173.82927"><defs><linearGradient x1="239.71691" y1="103.82887" x2="239.71691" y2="113.53533" gradientUnits="userSpaceOnUse" id="color-1"><stop offset="0" stop-color="#000000"/><stop offset="1" stop-color="#333333"/></linearGradient><linearGradient x1="239.7746" y1="114.18243" x2="239.7746" y2="123.88888" gradientUnits="userSpaceOnUse" id="color-2"><stop offset="0" stop-color="#000000"/><stop offset="1" stop-color="#333333"/></linearGradient><linearGradient x1="239.71691" y1="124.21243" x2="239.71691" y2="133.91888" gradientUnits="userSpaceOnUse" id="color-3"><stop offset="0" stop-color="#000000"/><stop offset="1" stop-color="#333333"/></linearGradient><linearGradient x1="239.71691" y1="134.56598" x2="239.71691" y2="144.27243" gradientUnits="userSpaceOnUse" id="color-4"><stop offset="0" stop-color="#000000"/><stop offset="1" stop-color="#333333"/></linearGradient><linearGradient x1="240.2254" y1="144.91952" x2="240.2254" y2="154.62598" gradientUnits="userSpaceOnUse" id="color-5"><stop offset="0" stop-color="#000000"/><stop offset="1" stop-color="#333333"/></linearGradient><linearGradient x1="240.28309" y1="155.27308" x2="240.28309" y2="164.97953" gradientUnits="userSpaceOnUse" id="color-6"><stop offset="0" stop-color="#000000"/><stop offset="1" stop-color="#333333"/></linearGradient></defs><g transform="translate(-182.09285,-93.08537)"><g stroke="none" stroke-width="0" stroke-miterlimit="10"><g><g><path d="M182.09285,266.91463v-173.82927h115.81429v173.82927z" fill="#333333"/><path d="M191.27325,164.47953v-61.46106h96.50792v61.46106z" fill="#000000"/></g><g><path d="M190.76082,113.53533v-9.70645h97.91217v9.70645z" fill="url(#color-1)"/><path d="M190.81851,123.88888v-9.70645h97.91217v9.70645z" fill="url(#color-2)"/><path d="M190.76082,133.91888v-9.70645h97.91217v9.70645z" fill="url(#color-3)"/><path d="M190.76082,144.27243v-9.70645h97.91217v9.70645z" fill="url(#color-4)"/><path d="M191.26932,154.62598v-9.70645h97.91217v9.70645z" fill="url(#color-5)"/><path d="M191.32701,164.97953v-9.70645h97.91217v9.70645z" fill="url(#color-6)"/></g></g></g></g></svg>