<svg version="1.1" xmlns="http://www.w3.org/2000/svg" xmlns:xlink="http://www.w3.org/1999/xlink" width="98.27952" height="143.75882" viewBox="0,0,98.27952,143.75882"><defs><linearGradient x1="174.00909" y1="150.59458" x2="192.33523" y2="173.44435" gradientUnits="userSpaceOnUse" id="color-1"><stop offset="0" stop-color="#800000"/><stop offset="1" stop-color="#000000"/></linearGradient><linearGradient x1="176.68266" y1="151.77097" x2="193.81352" y2="173.13044" gradientUnits="userSpaceOnUse" id="color-2"><stop offset="0" stop-color="#800000"/><stop offset="1" stop-color="#009dff"/></linearGradient><linearGradient x1="176.68266" y1="151.77097" x2="193.81352" y2="173.13044" gradientUnits="userSpaceOnUse" id="color-3"><stop offset="0" stop-color="#800000"/><stop offset="1" stop-color="#009dff"/></linearGradient><linearGradient x1="158.56407" y1="158.02544" x2="161.73685" y2="171.05536" gradientUnits="userSpaceOnUse" id="color-4"><stop offset="0" stop-color="#800000"/><stop offset="1" stop-color="#000000"/></linearGradient><linearGradient x1="182.75602" y1="138.16106" x2="182.61369" y2="140.36912" gradientUnits="userSpaceOnUse" id="color-5"><stop offset="0" stop-color="#800000"/><stop offset="1" stop-color="#ffffff"/></linearGradient><linearGradient x1="179.97727" y1="138.15932" x2="179.83493" y2="140.36739" gradientUnits="userSpaceOnUse" id="color-6"><stop offset="0" stop-color="#800000"/><stop offset="1" stop-color="#ffffff"/></linearGradient><linearGradient x1="177.27687" y1="138.10728" x2="177.13451" y2="140.31533" gradientUnits="userSpaceOnUse" id="color-7"><stop offset="0" stop-color="#800000"/><stop offset="1" stop-color="#ffffff"/></linearGradient><linearGradient x1="174.65059" y1="138.06989" x2="174.50826" y2="140.27796" gradientUnits="userSpaceOnUse" id="color-8"><stop offset="0" stop-color="#800000"/><stop offset="1" stop-color="#ffffff"/></linearGradient><linearGradient x1="171.87184" y1="138.06815" x2="171.7295" y2="140.27622" gradientUnits="userSpaceOnUse" id="color-9"><stop offset="0" stop-color="#800000"/><stop offset="1" stop-color="#ffffff"/></linearGradient><linearGradient x1="169.17144" y1="138.01611" x2="169.02908" y2="140.22418" gradientUnits="userSpaceOnUse" id="color-10"><stop offset="0" stop-color="#800000"/><stop offset="1" stop-color="#ffffff"/></linearGradient><linearGradient x1="157.37735" y1="134.44584" x2="189.80663" y2="133.99244" gradientUnits="userSpaceOnUse" id="color-11"><stop offset="0" stop-color="#ffe1ad"/><stop offset="1" stop-color="#800000"/></linearGradient><linearGradient x1="173.47118" y1="124.7036" x2="174.07811" y2="137.68365" gradientUnits="userSpaceOnUse" id="color-12"><stop offset="0" stop-color="#782200"/><stop offset="1" stop-color="#800000"/></linearGradient><linearGradient x1="180.41858" y1="123.81332" x2="181.02554" y2="136.79336" gradientUnits="userSpaceOnUse" id="color-13"><stop offset="0" stop-color="#782200"/><stop offset="1" stop-color="#800000"/></linearGradient><radialGradient cx="182.99308" cy="135.91046" r="3.39244" gradientUnits="userSpaceOnUse" id="color-14"><stop offset="0" stop-color="#ffffff"/><stop offset="1" stop-color="#000000"/></radialGradient><radialGradient cx="165.59936" cy="136.47864" r="3.39244" gradientUnits="userSpaceOnUse" id="color-15"><stop offset="0" stop-color="#ffffff"/><stop offset="1" stop-color="#000000"/></radialGradient><linearGradient x1="182.75773" y1="152.2324" x2="182.61537" y2="150.02433" gradientUnits="userSpaceOnUse" id="color-16"><stop offset="0" stop-color="#800000"/><stop offset="1" stop-color="#ffffff"/></linearGradient><linearGradient x1="179.97895" y1="152.23413" x2="179.83661" y2="150.02606" gradientUnits="userSpaceOnUse" id="color-17"><stop offset="0" stop-color="#800000"/><stop offset="1" stop-color="#ffffff"/></linearGradient><linearGradient x1="177.27855" y1="152.28617" x2="177.13622" y2="150.07812" gradientUnits="userSpaceOnUse" id="color-18"><stop offset="0" stop-color="#800000"/><stop offset="1" stop-color="#ffffff"/></linearGradient><linearGradient x1="174.6523" y1="152.32356" x2="174.50994" y2="150.11549" gradientUnits="userSpaceOnUse" id="color-19"><stop offset="0" stop-color="#800000"/><stop offset="1" stop-color="#ffffff"/></linearGradient><linearGradient x1="171.87352" y1="152.3253" x2="171.73118" y2="150.11723" gradientUnits="userSpaceOnUse" id="color-20"><stop offset="0" stop-color="#800000"/><stop offset="1" stop-color="#ffffff"/></linearGradient><linearGradient x1="169.17312" y1="152.37734" x2="169.03079" y2="150.16927" gradientUnits="userSpaceOnUse" id="color-21"><stop offset="0" stop-color="#800000"/><stop offset="1" stop-color="#ffffff"/></linearGradient></defs><g transform="translate(-133.33664,-106.44087)"><g stroke-miterlimit="10"><path d="M133.33664,249.78632l0.78111,-136.99778l97.49841,0.5559l-0.14143,112.50103l-25.63927,24.35422z" fill="#bdbdbd" stroke="none" stroke-width="0"/><path d="M204.75023,250.14794l-0.67963,-23.49018l26.48892,-0.76639z" fill="#f0f0f0" stroke="none" stroke-width="0"/><path d="M145.8088,184.3587l0.33639,-58.99904l72.99881,0.41621l-0.33639,58.99904z" fill="#e2e2e2" stroke="none" stroke-width="0"/><text transform="translate(153.56573,124.69485) rotate(0.32659) scale(0.5,0.5)" font-size="40" xml:space="preserve" fill="#000000" stroke="none" stroke-width="1" font-family="Serif" font-weight="normal" text-anchor="start"><tspan x="0" dy="0">wanted</tspan></text><text transform="translate(154.6839,200.02374) rotate(0.32602) scale(0.5,0.49877) skewX(-0.00137)" font-size="40" xml:space="preserve" fill="#000000" stroke="none" stroke-width="1" font-family="Serif" font-weight="normal" text-anchor="start"><tspan x="0" dy="0">reward</tspan></text><text transform="translate(149.94277,220.07661) rotate(0.32659) scale(0.5,0.5)" font-size="40" xml:space="preserve" fill="#000000" stroke="none" stroke-width="1" font-family="Serif" font-weight="normal" text-anchor="start"><tspan x="0" dy="0">$5.000$</tspan></text><g><g><g><g stroke-width="0"><path d="M196.35921,159.52139c5.30677,6.61669 10.43198,10.63791 -4.37729,14.00288c-14.60876,3.31941 -16.12523,-1.197 -21.432,-7.81369c-5.30677,-6.61669 -15.91796,-10.58866 3.29589,-15.07518c0.84839,-0.19811 2.48159,0.40408 3.25061,0.24606c0.22253,-0.04573 0.17915,-0.76702 0.39528,-0.80948c16.9369,-3.32763 13.84626,3.18871 18.86751,9.4494z" fill="#800000" stroke="#6b7680"/><path d="M191.98191,173.52427c-14.60876,3.31941 -16.1252,-1.197 -21.43198,-7.81369c-5.30677,-6.61669 -15.91796,-10.58866 3.29589,-15.07518c0.54913,-0.12823 3.0702,0.5935 3.58573,0.4822c0.83017,-0.17922 -0.37149,-1.17818 0.37583,-1.31515c13.35363,-2.44743 13.89802,1.69245 16.60075,6.70996c-0.53106,-0.29289 -1.14892,-0.52901 -1.81988,-0.7012c-4.18167,-2.68953 -12.42151,-3.45428 -17.71405,-1.11461c-2.07102,0.91553 -1.64324,5.82107 -1.59806,6.7047c0.21188,4.14333 8.01939,8.51899 16.06414,6.58982c3.27031,-0.78424 6.08493,-2.50354 8.20824,-4.04643c0.17052,-0.12392 0.30385,-0.25585 0.40735,-0.3942c0.3742,-0.36714 0.62584,-0.76938 0.74024,-1.18629c4.0671,4.98058 5.84517,8.3063 -6.71418,11.16006z" fill="url(#color-1)" stroke="#6b7680"/><path d="M198.24776,171.53745c0,0 -1.33774,0.71917 -4.63418,1.61974c-2.90038,0.79237 -4.57028,0.92649 -4.57028,0.92649l-4.57346,-5.64304c0.59572,-0.09552 1.2143,-0.26468 1.78808,-0.33269c2.0218,-0.23964 5.5099,-1.06553 7.65386,-1.97678z" fill="url(#color-2)" stroke="none"/></g><path d="M172.02245,153.0822c0,0 1.91006,0.31298 5.42762,-0.57522c3.81277,-0.96275 4.02307,-1.8848 4.02307,-1.8848l2.07704,2.58973c-0.83202,0.01607 -1.82797,0.13903 -2.38769,0.15005c-2.87443,0.0566 -5.47657,0.81719 -7.33136,1.95194z" fill="url(#color-3)" stroke="none" stroke-width="0"/><path d="M178.56007,153.96942c2.97437,-0.71327 9.81802,1.20104 12.55262,4.61068c2.73461,3.40962 1.94211,5.16331 -1.03226,5.87659c-2.97437,0.71327 -7.00425,0.11601 -9.73886,-3.29363c-2.73461,-3.40962 -4.75588,-6.48037 -1.78151,-7.19364z" fill="#960028" stroke="none" stroke-width="NaN"/></g><path d="M197.96055,167.06237c5.60246,-0.73824 9.30952,-1.28253 11.25045,2.56592c2.11773,4.19902 -2.18058,4.56377 -7.78304,5.30201c-5.60246,0.73824 -10.34662,0.63812 -11.87785,-2.59727c-1.86416,-3.42557 2.80797,-4.5324 8.41043,-5.27064z" fill="#00300f" stroke="#6b7680" stroke-width="0"/><path d="M186.32471,169.44018c5.29031,-1.24967 8.77341,-2.13157 11.88573,1.47962c3.39583,3.94016 -0.72583,4.70025 -6.01614,5.94992c-5.29031,1.24967 -9.99624,1.59327 -12.51372,-1.45203c-2.90485,-3.20165 1.35383,-4.72783 6.64413,-5.9775z" fill="#00300f" stroke="#6b7680" stroke-width="0"/><path d="M214.00692,177.81264c0,3.15117 0.09924,5.57551 -7.19761,5.70569c-7.96159,0.14205 -7.60311,-2.55454 -7.60311,-5.70569c0,-3.15117 1.28942,-5.64966 7.40036,-5.70568c6.52705,-0.18846 7.40036,2.55452 7.40036,5.70569z" fill="#00300f" stroke="#6b7680" stroke-width="0"/><path d="M199.40895,177.47463c0,3.15117 0.09929,5.57549 -7.19759,5.70568c-7.96159,0.14205 -7.60311,-2.55451 -7.60311,-5.70568c0,-3.15117 1.28945,-5.64966 7.40036,-5.70568c6.52705,-0.18846 7.40036,2.55451 7.40036,5.70568z" fill="#00300f" stroke="#6b7680" stroke-width="0"/><path d="M192.01143,178.18768c7.84087,0 11.85877,2.08539 11.85877,4.65787c0,2.57248 -20.37708,2.57248 -20.37708,0c0,-2.57248 0.67744,-4.65787 8.51831,-4.65787z" fill="#bdbdbd" stroke="none" stroke-width="0"/><path d="M207.28521,178.15614c7.84087,0 11.8588,2.0854 11.8588,4.65788c0,2.57248 -20.37708,2.57248 -20.37708,0c0,-2.57248 0.67741,-4.65788 8.51828,-4.65788z" fill="#bdbdbd" stroke="none" stroke-width="0"/><path d="M168.88561,164.10111c0.90067,3.6989 1.61688,6.15329 -6.91111,6.92971c-9.30488,0.84715 -9.56161,-1.96592 -10.46228,-5.66482c-0.90067,-3.6989 -0.10127,-6.7419 7.05585,-7.3299c7.60772,-0.77903 9.41687,2.36612 10.31753,6.06502z" fill="url(#color-4)" stroke="#6b7680" stroke-width="0"/><path d="M164.4205,176.45768c-2.99905,3.35189 -4.89036,5.61193 -12.77593,3.67398c-8.60392,-2.1145 -5.96659,-4.53387 -2.96755,-7.88575c2.99905,-3.35189 6.74852,-5.6426 13.30202,-3.96323c7.12216,1.65692 5.4405,4.82312 2.44145,8.175z" fill="#ffe1ad" stroke="#6b7680" stroke-width="0"/><g><g><path d="M164.30136,151.78296c0,0 6.57002,-5.5618 6.57002,-8.41682c0,-2.75243 -3.75429,-7.90359 -3.75429,-7.90359l16.70664,-0.10264c0,0 -3.19115,5.50856 -3.19115,8.31417c0,2.80561 4.8806,7.49302 4.8806,7.49302z" fill="#800000" stroke="none" stroke-width="0"/><path d="M177.23016,154.34996c-8.95246,0.17257 -14.65143,0.64122 -14.96702,-4.25406c-0.1201,-1.86288 -0.28346,0.881 1.2452,-1.0674c1.04245,-1.32867 2.17691,-1.9695 3.0061,-0.95729c1.82485,2.22764 3.97115,-0.39823 4.85813,-1.18342c1.06165,-0.9398 1.1112,3.04372 1.94939,2.25899c1.63503,-1.53073 3.68776,0.00185 4.28164,-0.00959c1.92432,-0.0371 3.21289,-5.05108 4.55065,0.10948c0.17351,0.66936 2.06748,-1.25741 3.11302,-0.91687c1.20818,0.39351 2.3012,1.67554 3.14758,1.74014c2.18989,0.16715 3.13137,-1.56415 3.13912,-1.44385c0.31559,4.89528 -5.37133,5.55131 -14.32379,5.72388z" fill="#800000" stroke="#6b7680" stroke-width="0"/><path d="M189.80646,133.98846c0.14612,3.12464 -2.69063,5.91263 -7.09483,7.5507c-1.00581,0.37409 -3.11023,-1.48326 -3.2091,-0.81041c-0.76222,5.18743 -2.60517,0.23326 -4.53007,0.26017c-0.59406,0.0083 -2.47283,1.60382 -4.27481,0.13258c-0.92381,-0.75425 -0.53089,3.21739 -1.69494,2.31601c-0.97253,-0.75307 -3.40647,-3.29876 -4.98057,-1.01812c-0.71526,1.0363 -1.91877,0.43529 -3.10685,-0.85426c-1.74223,-1.89103 -3.45115,-5.26273 -3.53814,-7.12326c-0.22862,-4.88913 6.8456,-8.95404 15.8007,-9.07925c8.9551,-0.12521 16.39998,3.73671 16.62861,8.62584z" fill="#800000" stroke="#6b7680" stroke-width="0"/><g stroke="none" stroke-width="0"><g><path d="M177.09568,138.19053c-0.93254,-0.01798 -1.68852,-0.03261 -1.68852,-0.03268c0,-0.00007 0.756,0.01442 1.68854,0.0324c0.93254,0.01798 1.68852,0.03262 1.68852,0.03269c0,0.00007 -0.756,-0.01444 -1.68854,-0.03242z" fill="#000000"/><path d="M182.75602,138.16106c1.71241,0.01551 1.08399,1.70808 1.08399,1.70808l-2.81279,-0.01543c0,0 -0.33946,-1.71139 1.7288,-1.69266z" fill="url(#color-5)"/><path d="M179.97727,138.15932c1.71241,0.01551 1.08399,1.7081 1.08399,1.7081l-2.81279,-0.01543c0,0 -0.33946,-1.71141 1.7288,-1.69267z" fill="url(#color-6)"/><path d="M177.27687,138.10726c1.71241,0.01551 1.08399,1.7081 1.08399,1.7081l-2.81281,-0.01543c0,0 -0.33944,-1.71141 1.72883,-1.69267z" fill="url(#color-7)"/></g><g><path d="M168.99025,138.09936c-0.93254,-0.01798 -1.68852,-0.03261 -1.68852,-0.03268c0,-0.00007 0.756,0.01444 1.68854,0.03242c0.93254,0.01798 1.68852,0.03261 1.68852,0.03268c0,0.00007 -0.756,-0.01444 -1.68854,-0.03242z" fill="#000000"/><path d="M174.65059,138.06989c1.71241,0.01551 1.08399,1.7081 1.08399,1.7081l-2.81279,-0.01544c0,0 -0.33946,-1.71139 1.7288,-1.69266z" fill="url(#color-8)"/><path d="M171.87184,138.06815c1.71241,0.01551 1.08399,1.7081 1.08399,1.7081l-2.81279,-0.01543c0,0 -0.33946,-1.71141 1.7288,-1.69267z" fill="url(#color-9)"/><path d="M169.17144,138.01611c1.71241,0.01551 1.08399,1.7081 1.08399,1.7081l-2.81281,-0.01544c0,0 -0.33944,-1.71139 1.72883,-1.69266z" fill="url(#color-10)"/></g></g><path d="M189.80708,134.00219c0.03717,0.79481 -0.11806,1.56785 -0.44252,2.30581c-0.03998,-0.06533 -0.08315,-0.13004 -0.12941,-0.19411c0.00414,-0.05379 0.0056,-0.10775 0.00429,-0.16181c0.32663,-0.43485 0.49695,-0.91308 0.47356,-1.41322c-0.09005,-1.92607 -3.01855,-3.44752 -6.54093,-3.39827c-3.23563,0.04523 -5.84687,1.40011 -6.18079,3.11335c-0.24243,0.05525 -0.48915,0.11016 -0.74267,0.16372l-1.01677,0.39155c-0.77264,0.48931 -1.79268,0.88436 -2.52164,1.41258c-2.28968,1.65912 -2.86045,2.43257 -1.2151,4.17414c-8.46364,-0.18702 -13.89767,-1.24289 -14.1173,-5.94031c-0.22898,-4.89672 6.84495,-8.9678 15.80005,-9.093c8.9551,-0.12521 16.40028,3.74287 16.62923,8.6396z" fill="url(#color-11)" stroke="#6b7680" stroke-width="0"/><path d="M178.20967,135.75392c-0.06754,-1.44455 2.01929,-2.64553 4.66108,-2.68246c2.64179,-0.03693 4.83816,1.10417 4.9057,2.54872c0.06754,1.44455 -2.01929,2.64553 -4.66108,2.68246c-2.64179,0.03693 -4.83816,-1.10417 -4.9057,-2.54872z" fill="#000000" stroke="none" stroke-width="0.5"/><path d="M171.79217,131.86331c-0.29368,0.12596 -1.69351,-0.01053 -3.12687,-0.15503c1.5829,-0.52776 3.58302,-1.22221 3.60423,-1.23475c0.37287,-0.22049 0.19622,-0.59243 0.35861,-0.87932c0.2231,-0.39414 0.31986,-0.77399 0.3117,-1.13985c0.03203,0.00898 0.0642,0.01781 0.09655,0.02649c0.57456,0.15429 1.19716,0.26263 1.85133,0.31645c3.70465,0.59662 8.72801,-0.21105 9.41749,-2.75788c0.96018,0.30061 1.97163,0.574 2.76907,0.97866c1.03999,0.52774 1.72499,1.33385 2.956,1.78166c0.58498,0.21279 1.33086,0.28098 1.88135,0.51971c0.43007,0.18651 0.65525,0.48165 0.98287,0.72248c2.15164,0.68065 4.62808,1.95356 2.92179,3.66073c-0.62252,0.62284 -2.40192,0.54721 -3.65021,0.74187c-0.77989,0.12162 -1.62125,0.02863 -2.43219,0.03401c-1.7354,0.0115 -1.77968,-0.3666 -3.40652,-0.72853c-1.69188,-0.3764 -2.35654,-1.34435 -4.12242,-1.65107c-0.81804,-0.14209 -2.84283,-0.67715 -3.73602,-0.66466c-1.44109,0.02015 -5.24478,0.39056 -6.67676,0.42903z" fill="url(#color-12)" stroke="none" stroke-width="0.5"/><path d="M170.08634,136.62177c0.82028,0.18847 0.24818,0.19667 -0.26396,0.04233c0.01797,-0.01315 0.03577,-0.02636 0.05341,-0.03965c0.07078,-0.00088 0.14113,-0.00177 0.21055,-0.00268z" fill="url(#color-13)" stroke="none" stroke-width="0.5"/><g stroke="none" stroke-width="0"><path d="M186.38547,135.9004c0.00502,0.5046 -1.50976,0.91816 -3.38336,0.92372c-1.87357,0.00556 -3.39648,-0.39902 -3.40148,-0.90361c-0.00502,-0.5046 1.50976,-0.91815 3.38336,-0.92371c1.87357,-0.00556 3.39648,0.399 3.40148,0.9036z" fill="url(#color-14)"/><path d="M184.58359,135.45887c0.00502,0.5046 -0.70502,0.91579 -1.58589,0.9184c-0.88086,0.00261 -1.59901,-0.40434 -1.60401,-0.90894c-0.00499,-0.5046 0.70502,-0.91577 1.58589,-0.91838c0.88086,-0.00261 1.59904,0.40434 1.60403,0.90894z" fill="#000000"/></g><path d="M161.2929,136.25522c0,-1.30052 1.92806,-2.3548 4.30644,-2.3548c2.37838,0 4.30644,1.05428 4.30644,2.3548c0,1.30052 -1.92806,2.35481 -4.30644,2.35481c-2.37838,0 -4.30644,-1.05429 -4.30644,-2.35481z" fill="#000000" stroke="none" stroke-width="0.5"/><g stroke="none" stroke-width="0"><path d="M168.99176,136.46858c0.00502,0.5046 -1.50976,0.91815 -3.38336,0.92371c-1.87357,0.00556 -3.39648,-0.399 -3.40148,-0.9036c-0.00502,-0.5046 1.50976,-0.91815 3.38336,-0.92371c1.87357,-0.00556 3.39648,0.399 3.40148,0.9036z" fill="url(#color-15)"/><path d="M167.18989,136.02705c0.00502,0.5046 -0.70505,0.91579 -1.58591,0.9184c-0.88086,0.00261 -1.59901,-0.40433 -1.60401,-0.90894c-0.00499,-0.5046 0.70502,-0.91577 1.58589,-0.91838c0.88086,-0.00261 1.59904,0.40431 1.60403,0.90893z" fill="#000000"/></g></g><g stroke="none" stroke-width="0"><g><path d="M178.78591,152.17051c0,0.00007 -0.75597,0.01471 -1.68852,0.03269c-0.93254,0.01798 -1.68854,0.03247 -1.68854,0.0324c0,-0.00007 0.75597,-0.0147 1.68852,-0.03268c0.93254,-0.01798 1.68854,-0.03249 1.68854,-0.03242z" fill="#000000"/><path d="M182.75773,152.2324c-2.06826,0.01873 -1.72883,-1.69267 -1.72883,-1.69267l2.81281,-0.01543c0,0 0.62842,1.69259 -1.08399,1.7081z" fill="url(#color-16)"/><path d="M179.97895,152.23413c-2.06826,0.01873 -1.7288,-1.69266 -1.7288,-1.69266l2.81281,-0.01544c0,0 0.62842,1.69259 -1.08399,1.7081z" fill="url(#color-17)"/><path d="M177.27855,152.28619c-2.06826,0.01873 -1.72883,-1.69267 -1.72883,-1.69267l2.81281,-0.01543c0,0 0.62842,1.69259 -1.08399,1.7081z" fill="url(#color-18)"/></g><g><path d="M170.68047,152.26168c0,0.00007 -0.75597,0.01471 -1.68852,0.03269c-0.93254,0.01798 -1.68854,0.03247 -1.68854,0.0324c0,-0.00007 0.756,-0.0147 1.68854,-0.03268c0.93254,-0.01798 1.68852,-0.03249 1.68852,-0.03242z" fill="#000000"/><path d="M174.6523,152.32356c-2.06826,0.01873 -1.72883,-1.69266 -1.72883,-1.69266l2.81281,-0.01543c0,0 0.62842,1.69258 -1.08399,1.70808z" fill="url(#color-19)"/><path d="M171.87352,152.3253c-2.06826,0.01873 -1.7288,-1.69267 -1.7288,-1.69267l2.81281,-0.01543c0,0 0.62842,1.69259 -1.08399,1.7081z" fill="url(#color-20)"/><path d="M169.17312,152.37736c-2.06826,0.01873 -1.72883,-1.69267 -1.72883,-1.69267l2.81281,-0.01544c0,0 0.62842,1.6926 -1.08399,1.70811z" fill="url(#color-21)"/></g></g></g></g><path d="M145.56562,184.77491v-59.41525h73.82157v59.41525z" fill-opacity="0.01176" fill="#ffffff" stroke="none" stroke-width="0"/></g></g></g></svg>