<svg version="1.1" xmlns="http://www.w3.org/2000/svg" xmlns:xlink="http://www.w3.org/1999/xlink" width="792.79279" height="662.72523" viewBox="0,0,792.79279,662.72523"><g transform="translate(156.3964,151.36262)"><g stroke="none" stroke-miterlimit="10"><path d="M-156.3964,511.36261v-662.72523h792.79279v662.72523z" fill-opacity="0.78039" fill="#ff0000" stroke-width="0"/><path d="M449.45946,409.72973v-4.5045h4.5045v4.5045z" fill-opacity="0.4902" fill="#ff0000" stroke-width="0"/><path d="M249.40881,165.99787c0.91469,0.01269 1.65414,0.17128 1.65161,0.35422c-0.00253,0.18293 -0.7461,0.32096 -1.66079,0.30827c-0.91469,-0.01269 -1.65414,-0.17128 -1.65161,-0.35422c0.00253,-0.18293 0.7461,-0.32095 1.66079,-0.30827z" fill="#5c0000" stroke-width="0"/><path d="M278.07035,313.4937c-3.31237,-0.04595 -3.26643,-3.35834 -3.26643,-3.35834l0.01839,-1.32495c0.03935,-2.04167 -0.1537,-4.09666 -0.53516,-6.10278c-0.0443,-0.40208 -0.08708,-0.80048 -0.12783,-1.19557c-1.09445,0.11039 -2.03735,-0.37752 -2.03735,-0.37752l-2.16803,-1.31329c-3.3895,-3.62476 -5.38467,-9.20261 -5.78397,-14.86744c-0.22964,0.55571 -0.49895,1.09344 -0.81348,1.61017c-0.62427,1.02556 -2.19566,1.19314 -2.85415,2.19706c-1.97522,3.01141 -3.42759,8.22594 -4.18325,11.82854l-2.94433,3.63987c0,0 -2.3747,2.3097 -4.68443,-0.065c-2.3097,-2.3747 0.06498,-4.68441 0.06498,-4.68441l1.08568,-0.27983c0.87761,-4.01815 2.36379,-8.84733 4.37507,-12.66874l-1.78459,1.53373c0,0 -2.78154,1.79914 -4.58069,-0.98243c-1.79914,-2.78157 0.98242,-4.5807 0.98242,-4.5807l0.74655,0.21131c1.67563,-3.80627 -0.05135,-7.59396 1.49696,-11.28091c1.95938,-4.6659 4.28207,-2.64849 6.71668,-6.53285c0.36477,-0.58196 -0.20988,-1.3616 -0.22378,-2.0483c-0.00928,-0.45807 0.00249,-1.62676 0.02701,-3.03115c-0.77475,0.28526 -1.56072,0.44458 -2.3716,0.32464c-6.44539,-0.9535 -5.00779,-4.58616 -5.48121,-8.64279c-0.479,-4.10457 -1.15831,-8.06132 -1.71561,-11.9909c-3.18457,0.61362 -6.3676,1.21954 -9.5354,1.67254c-0.45085,2.06245 -0.71444,3.45148 -0.44476,4.97997c0.15547,0.28187 0.28726,0.57482 0.38313,0.88478c0.11319,0.36588 0.19477,0.74997 0.25283,1.14813c0.19793,0.45755 0.44042,0.94645 0.73322,1.48042c0.92263,1.68247 3.70884,4.27475 4.16765,5.96921c0.13255,0.48952 0.14915,5.00581 0.0261,8.09724c0.19509,0.359 0.36127,0.73235 0.48763,1.12555c2.42846,7.55745 0.54314,15.25301 -2.34163,22.18454l0.2448,-0.56443c0,0 -0.04595,3.31237 -3.35834,3.26642c-3.31237,-0.04595 -3.26642,-3.35834 -3.26642,-3.35834l0.26317,-1.88938c1.63601,-3.93096 3.02553,-8.09516 2.98266,-12.37639c-0.81996,1.18742 -1.61733,2.39175 -2.48792,3.54001c-0.17111,0.93279 -0.82239,2.77365 -3.29753,2.7393c-3.31237,-0.04595 -3.26643,-3.35835 -3.26643,-3.35835l0.76374,-2.72165c1.70864,-2.06824 2.99372,-4.46358 4.70452,-6.53001c0.37313,-0.45069 0.96948,-0.71 1.46794,-1.04126c-1.20154,-1.63451 -2.7944,-3.42002 -3.13413,-4.20609c-1.11935,-2.58984 -1.28704,-5.51882 -1.48132,-8.33349c-0.06139,-0.88943 0.30852,-1.8151 0.28085,-2.69184c-0.13852,-0.41297 -0.25689,-0.81642 -0.35631,-1.21415c-0.60569,-1.11188 -1.74819,-1.95582 -2.24118,-3.13603c-0.40483,-0.96915 -0.63396,-2.07744 -0.75693,-3.23566c-1.01007,0.00266 -2.01532,-0.01606 -3.01657,-0.05223c0.75039,4.47883 1.5623,9.39975 0.68264,13.77215c-1.5272,7.59103 -8.43988,14.42976 -8.22245,22.5998c0.1606,6.03476 2.78592,8.94943 6.26971,13.57071l2.93414,2.52572c0,0 2.50059,2.17279 0.32779,4.67339c-2.1728,2.5006 -4.67339,0.32781 -4.67339,0.32781l-3.43042,-3.0045c-4.26838,-5.63611 -7.23235,-9.44759 -7.91639,-16.22894c-1.13182,3.7336 -2.38393,7.34621 -1.69051,11.33894l0.00947,2.41243c0.00087,0.03991 0.00102,0.07997 0.00048,0.1202c-0.00582,0.41863 -0.08903,0.81809 -0.23586,1.18486c-0.33603,0.94572 -1.15026,2.10891 -3.12249,2.08156c-1.97222,-0.02736 -2.75388,-1.2127 -3.06353,-2.16737c-0.13659,-0.37072 -0.2087,-0.77231 -0.20291,-1.19096c0.00098,-0.07064 0.00415,-0.14074 0.00949,-0.21024l0.05559,-1.23202c-0.95716,-6.96734 2.12796,-12.09152 3.00429,-18.82576c0.45491,-3.49588 -0.34304,-7.22206 0.84114,-10.5426c0.02796,-0.07842 0.0583,-0.1555 0.09083,-0.23135l-0.93781,1.26728c0,0 -2.02419,2.62232 -4.64652,0.59813c-2.62234,-2.02419 -0.59814,-4.64653 -0.59814,-4.64653l1.64139,-1.9921c1.07838,-5.25548 -2.85124,-4.2502 -5.60157,-8.85868c-1.8328,-3.0711 -2.55245,-6.39356 -2.81968,-9.78879c-0.70383,-0.00143 -1.40781,0.00049 -2.11183,0.00436c-0.8578,4.70717 -1.2413,9.33141 -0.97424,14.20939c0.20272,3.70319 2.81112,6.55326 3.72918,10.0862c2.08816,8.03577 2.32894,17.08769 1.06441,25.22977l-1.63455,2.51405c0,0 -2.37472,2.30971 -4.68443,-0.065c-1.968,-2.02336 -0.53515,-3.99956 -0.06808,-4.54001c0.96692,-6.97381 0.658,-14.62878 -1.08186,-21.44223c-1.02421,-4.01095 -3.59292,-6.92686 -3.92643,-11.22336c-0.38772,-4.99495 0.01862,-9.86258 0.84311,-14.71968c-2.58595,0.00547 -5.17008,-0.02532 -7.74943,-0.16436c0.2189,5.22171 0.81067,10.44486 1.5391,15.26462c0.19239,1.27302 0.64631,5.46711 1.4441,6.77419c1.91063,3.13028 6.28752,3.32811 4.07676,9.06683c-0.71772,1.86302 -3.44647,2.01632 -5.16971,3.02447l-0.89283,1.24203c0,0 -2.3747,2.3097 -4.68443,-0.065c-0.00909,-0.00934 -0.01813,-0.01872 -0.02711,-0.02808c-0.96533,4.22873 -2.44827,8.35778 -3.99829,12.11208l0.2448,-0.56441c0,0 -0.04595,3.31237 -3.35834,3.26642c-3.31237,-0.04595 -3.26642,-3.35834 -3.26642,-3.35834l0.26316,-1.88939c0.79028,-1.88144 1.57917,-3.90446 2.27507,-6.00504c-0.81331,0.13876 -1.79704,-0.03083 -2.76926,-1.03041c-1.22862,-1.26319 -1.13175,-2.50795 -0.77191,-3.39651c-2.20492,-3.90876 -6.63271,-5.60254 -7.84736,-10.82776c-1.1697,-5.03182 0.23661,-9.95011 -0.51836,-14.88126c-0.40908,-2.67191 -1.86818,-5.08692 -2.48841,-7.71784c-1.63857,-6.95016 -3.62895,-14.73986 -4.51945,-22.21287c-0.36095,-0.64782 -0.68668,-1.30627 -0.97268,-1.97567c-0.28606,0.07591 -0.58709,0.11443 -0.89756,0.11011c-0.06107,-0.00086 -0.12175,-0.00335 -0.18195,-0.00745c0.60613,2.13619 0.76649,4.43032 0.75253,6.6414c-0.06551,10.36755 -4.51638,23.04821 -0.10728,33.0518c1.02694,2.33001 3.15817,3.99512 4.7614,5.97328l0.45393,0.44719c0,0 2.30971,2.37472 -0.065,4.68441c-2.3747,2.3097 -4.68443,-0.065 -4.68443,-0.065l-0.85264,-0.89614c-0.64045,-0.79093 -5.0342,-6.02762 -5.65439,-7.4233c-5.83969,-13.14165 1.65448,-26.08865 -0.37013,-39.2118c-0.74475,-4.82736 -4.65146,-5.92242 -3.04109,-11.65544c0.339,-1.20679 1.67371,-1.91065 2.20577,-3.04562c0.67205,-1.43361 0.64546,-3.13732 1.35597,-4.55228c0.08916,-0.17755 0.1833,-0.35557 0.28203,-0.53389c-0.10746,-0.44142 -0.20993,-0.88378 -0.30841,-1.32706c-0.4893,-0.08038 -1.01927,-0.30067 -1.57617,-0.73056c-2.62234,-2.02419 -0.59814,-4.64654 -0.59814,-4.64654c0.32027,-0.40887 0.6164,-0.82309 0.8925,-1.24209c-0.04565,-0.249 -0.09156,-0.49834 -0.13793,-0.74811l-0.02773,-2.63795c0,0 0.04586,-3.30621 3.3491,-3.26656c0.00326,-0.0083 0.00653,-0.01659 0.00981,-0.02491c0.05111,-2.27416 -0.29859,-4.60406 0.2146,-6.81981c0.28171,-1.21638 1.16491,-2.55553 2.24363,-3.84234l1.25256,-3.00962c0.06215,-0.15963 0.13628,-0.3132 0.2213,-0.4596c-0.38507,-4.82645 0.3814,-10.23619 0.44662,-14.93747c0,0 0.01106,-0.79837 0.41431,-1.60577c2.79044,-6.86525 0.00704,-15.09151 2.00199,-22.34441c0.29113,-1.05847 0.63144,-2.01541 1.01716,-2.89543c-0.0757,-0.14177 -0.14139,-0.28965 -0.19613,-0.44268l-1.25135,-3.25873l0.13112,-0.05034l-0.22673,-0.23738c-0.21619,-1.6663 -0.95419,-3.34668 -0.64852,-4.99891c0.03172,-0.17156 0.08874,-0.33167 0.16448,-0.4834c-0.03012,-0.18607 -0.06669,-0.36943 -0.11201,-0.54909c-1.39781,-5.54056 -1.97542,-10.04229 -1.87806,-15.76097l0.1448,-0.25146l-0.10727,-0.01941l0.70795,-3.91208c0.25082,-1.54118 1.56283,-2.71985 3.15312,-2.77444c0.05984,-6.13146 1.03627,-12.31846 1.56138,-18.58092c0.6726,-8.02143 2.81857,-18.39472 10.60965,-22.92356c3.93842,-2.28937 9.03124,-3.60662 14.35284,-4.20758c3.66323,-0.8676 7.43426,-1.30677 11.00667,-1.47864c3.27446,-0.15755 6.99555,-3.14883 10.44711,-2.60869c11.68522,1.82868 30.53598,14.74985 34.40981,26.0909c0.24491,0.717 0.45943,1.39797 0.64709,2.05026c0.16326,-0.07639 0.34094,-0.14589 0.53422,-0.20735c3.15695,-1.00388 4.16079,2.15307 4.16079,2.15307l1.29087,4.06205c1.69104,6.25487 4.31313,14.33395 3.11177,20.86436c-0.6027,3.27618 -3.19932,5.51227 -4.68596,8.17967c0.21282,2.04162 -0.16618,3.91474 -0.9846,5.58526c0.19884,1.64348 0.67164,3.35218 1.11793,5.01754c0.23992,0.2319 0.37048,0.41112 0.37048,0.41112c1.69181,2.35344 2.73441,5.11142 4.08689,7.67495c0.41983,0.79575 0.89236,1.57353 1.36893,2.35047c0.06314,-4.80265 -1.0161,-9.74935 0.7723,-14.39673c0.26749,-0.69514 0.55033,-1.29903 0.85168,-1.84021c-1.68069,-0.87261 -1.65132,-2.98963 -1.65132,-2.98963l0.01782,-1.28386c-0.22308,-0.6568 -0.41384,-1.33967 -0.56982,-2.0497l-0.04613,-1.31298c0,0 0.02262,-1.63005 1.17957,-2.5873c1.25112,-7.3386 4.43001,-14.32278 8.16677,-20.74323c0.90111,-1.54825 1.26237,-3.61294 2.27629,-5.03849c0.33077,-1.67359 0.83956,-3.46815 1.62374,-5.57132c4.18696,-11.2292 23.38894,-23.62243 35.1204,-25.12623c3.46521,-0.44418 7.10188,2.64918 10.37071,2.89752c3.56624,0.27091 7.32366,0.81453 10.9614,1.78343c5.3029,0.74835 10.35719,2.20642 14.23059,4.60415c7.66244,4.74326 9.51978,15.17205 9.96959,23.20908c0.27539,4.9206 0.8295,9.80249 1.00266,14.63701c0.00542,0.00005 0.01084,0.00013 0.01626,0.0002c1.82938,0.02538 3.29181,1.52897 3.26643,3.35835l-0.07353,5.29981l-0.09123,-0.00126l0.07964,0.23596c-0.62935,4.0523 -1.1414,7.76641 -1.38549,11.69128c2.99757,4.90439 5.42613,9.01516 4.30219,15.6859c-1.14605,6.80212 -5.1069,10.15549 -1.3378,16.42502l0.41162,4.36067c0,0 -0.04595,3.31237 -3.35834,3.26642c-3.31237,-0.04595 -3.26642,-3.35834 -3.26642,-3.35834l0.48517,-0.93915c-1.87423,-3.30728 -3.02293,-4.34853 -3.00638,-8.37227c0.02527,-6.14259 5.27662,-11.84403 3.68684,-18.28002c-0.12507,-0.50641 -0.35943,-1.05255 -0.66559,-1.62069c-0.23147,0.03853 -0.48359,0.0578 -0.75811,0.05398c-0.8319,-0.01154 -1.45196,-0.22912 -1.91412,-0.54852c-0.95023,3.00714 -2.73419,5.63947 -5.07734,7.63c0.64549,3.73094 1.38598,7.44313 1.37228,11.33088c-0.01128,3.20129 -0.42665,6.20842 -1.12094,9.14327c3.76081,2.33428 6.55514,6.08753 7.4394,10.92417c0.40248,2.20142 -0.0282,4.15874 -0.53975,6.09915c1.00704,5.15915 1.54008,10.46357 2.86231,15.5401c0.38215,1.46721 1.17136,2.83949 1.34182,4.34603c0.81078,7.16526 -3.12363,13.14548 -4.23643,20.09223c-0.73333,4.57784 0.13742,9.72197 -0.17817,14.33506c-0.5368,7.84706 -2.70933,15.89777 -4.36348,23.61532l0.04578,1.33872c0,0 -0.0327,2.35732 -2.03159,3.06707c1.64135,3.94416 1.27397,7.83766 1.72421,12.29082l-2.60907,3.81716c0,0 -2.02421,2.62232 -4.64654,0.59814c-2.62234,-2.02419 -0.59814,-4.64654 -0.59814,-4.64654l1.43934,-1.4275c-0.71947,-2.98728 -0.01744,-6.5027 -1.91,-9.12136c-2.39911,-3.3195 -6.14981,-5.47977 -8.99987,-8.49071c-0.30583,3.15783 0.36892,6.43909 0.32455,9.6362c-0.03064,2.20826 -0.01169,4.41775 -0.09191,6.62477c-0.02655,0.73084 -0.53759,1.51939 -0.22815,2.182c0.27351,0.5857 4.58339,4.93676 5.11489,5.48221l1.30657,1.34333c0,0 2.3097,2.3747 -0.06498,4.68441c-2.3747,2.3097 -4.68443,-0.065 -4.68443,-0.065l-1.30657,-1.34333c-1.97909,-2.03837 -5.62991,-5.57529 -6.62587,-7.9328c-0.57658,-1.36482 -0.13031,-2.96115 -0.13624,-4.44275c-0.02312,-5.77076 -1.06812,-14.64331 0.42199,-20.16972c0.36311,-1.34663 1.33623,-2.41727 2.21823,-3.53289c-0.14357,-1.35833 -0.06824,-2.79931 0.17822,-4.27247c-2.69902,1.03631 -5.46723,1.85707 -8.28319,2.51438c0.1181,2.93036 0.43795,5.7693 0.41309,7.5003c-0.14374,10.00785 0.8922,20.05108 2.83188,29.8566c1.21617,6.14805 3.65746,10.59205 4.07107,16.87429l-5.03386,2.75343c0,0 -3.09253,1.1875 -4.28007,-1.90503c-1.18752,-3.09254 1.90503,-4.28007 1.90503,-4.28007l1.62765,0.19544c-2.2829,-1.51433 -3.4896,-4.84956 -4.19534,-8.329c-1.26409,1.30776 -3.07987,2.19582 -4.38041,3.50048c-2.5751,2.58329 -3.62791,4.40723 -5.66815,7.38401l-3.95861,2.3958c0,0 -2.6899,1.29862 -4.19436,-1.12461c-0.87005,4.37033 -0.66862,8.84909 -0.15179,13.47288c0.42827,2.35834 0.62861,4.76832 0.60597,7.16514l-0.01839,1.32495c0,0 -0.04594,3.31238 -3.35834,3.26642zM275.30553,284.64682c0.72385,-2.19691 1.27718,-4.47728 2.33327,-6.53518c0.94049,-1.83263 3.73142,-2.93434 3.6421,-4.99227c-0.09109,-2.09915 -1.96911,-3.76102 -2.4575,-5.80458c-0.13984,-0.58508 -0.20793,-1.18324 -0.25913,-1.78453c-1.02796,2.43366 -2.03729,4.74781 -2.38809,5.29023c-1.05173,1.62621 -2.96529,2.61502 -3.8869,4.31836c-2.66924,4.93326 -1.96219,14.31168 1.46513,18.9677c0.05177,-3.11287 0.47168,-6.18357 1.55113,-9.45977zM285.24722,265.69279c0.48776,2.10907 2.73232,5.48488 2.65847,7.51848c-0.11253,3.09895 -3.05557,5.39842 -4.49143,8.14697c-0.35476,0.6791 -0.67215,1.36046 -0.9552,2.04423l1.22569,-0.16063c2.04586,-2.97234 3.80807,-5.84373 6.477,-8.34999c1.20918,-1.13548 2.99737,-1.63144 4.01235,-2.94339c0.39722,-0.51346 0.02182,-1.33865 -0.24008,-1.93267c-1.61629,-3.66564 -3.72544,-5.50023 -4.46845,-9.40847c-1.57258,-8.2717 0.22251,-16.89747 1.45703,-25.34268c-2.49771,0.28033 -5.0105,0.48869 -7.52475,0.65825c1.715,3.95355 2.94359,8.08123 2.16628,11.94502c-0.56817,2.82421 -1.62923,5.2966 -2.76332,7.78369c0.87583,3.35471 1.65126,6.60285 2.44643,10.04121zM296.12061,257.29083c-0.06199,-0.41054 -0.11867,-0.82298 -0.17035,-1.2371c-0.09768,1.13891 -0.1615,2.27478 0.03792,3.39109c0.20745,1.16122 0.66701,2.24678 1.22803,3.29831c-0.39625,-1.81209 -0.81897,-3.62052 -1.09558,-5.4523zM329.04929,221.27132c0.07826,-1.21819 0.08416,-2.46339 0.06126,-3.72133c-1.4657,1.95104 -3.2517,3.81433 -5.43172,5.60692c0.28785,1.33205 -0.4682,2.55339 -0.4682,2.55339c-2.16223,3.48787 -3.92025,7.18164 -6.06121,10.67668c1.57532,3.14762 4.90745,5.20842 7.67623,7.50427c1.58459,-7.37789 3.74186,-15.12073 4.22364,-22.61992zM168.22464,261.01513c-1.02198,-4.76974 -4.01456,-7.79264 -5.65237,-12.20181c-1.44276,-3.88409 -0.46399,-4.75255 -0.74688,-8.82982c-0.18841,-2.71562 -0.44504,-5.16289 -0.44592,-7.5633c-1.85817,-1.44103 -3.74248,-2.95115 -5.538,-4.53822c0.82771,3.76702 1.76109,7.46969 2.57337,10.92911c0.38548,1.64167 2.37192,6.81435 2.59081,8.25511c0.77134,5.07692 -1.8443,11.98173 1.25289,16.6146c0.75897,1.13528 5.51454,4.86568 5.78578,5.23094c0.14341,0.19312 0.26996,0.39583 0.38374,0.60572c0.37738,-2.89684 0.37985,-5.78012 -0.20343,-8.50238zM168.42698,239.42218c0.11806,1.70179 -0.43056,5.13221 0.35749,7.088c1.10357,2.73884 2.55786,5.00302 3.7999,7.44281c-0.09534,-0.81596 -0.18921,-1.61398 -0.29525,-2.37989c-0.4436,-3.20389 -0.77746,-6.70209 -0.95504,-10.27799c-0.30995,-0.19479 -0.58518,-0.43941 -0.81461,-0.72249l-2.22257,-2.70599c0.04843,0.51071 0.09351,1.02869 0.13006,1.55554zM177.42791,267.27724c2.96926,0.92847 -0.75198,-0.15594 -2.12263,-2.34465c0.02701,1.43293 -0.045,2.87846 -0.19842,4.32574zM148.84784,189.61615c-0.05609,-0.13933 -0.11235,-0.27893 -0.16852,-0.41875c0.00228,0.17539 0.00466,0.35072 0.0072,0.52607c0.05099,-0.0356 0.10483,-0.07154 0.16133,-0.10732zM257.80092,282.95408c1.42434,-2.02001 0.44206,-6.50303 0.28245,-8.55808c-0.04138,-0.53274 -0.07469,-1.08745 -0.10031,-1.65756c-0.33866,0.39309 -0.62121,0.82486 -0.82099,1.31415c-0.92133,2.2564 0.56378,4.92024 0.09097,7.31119c-0.17548,0.88735 -0.55814,1.7134 -0.94696,2.53762c0.55403,-0.25843 1.1579,-0.46945 1.49485,-0.94733zM268.98829,250.02594c0.08977,3.9992 -3.75105,8.95809 -4.15205,13.25267c-0.32361,3.4658 0.24134,7.53368 0.46108,11.53919c0.30832,-0.94942 0.6771,-1.86147 1.10773,-2.72384c0.95411,-1.91078 3.02166,-3.05916 4.1915,-4.84603c2.1277,-3.24992 3.00665,-7.16367 4.5447,-10.73067c0.34705,-0.80488 0.69626,-1.56735 1.03919,-2.31123c-1.5398,-6.03904 -3.36963,-12.27178 -5.69405,-17.58396c-0.53425,0.02894 -1.06746,0.05871 -1.59952,0.08969c-1.70558,1.94946 -2.76057,4.58354 -3.42169,7.4451c1.18181,1.9874 3.51797,5.6394 3.52313,5.86906zM212.09427,257.20906c1.05973,-2.87364 -0.79971,-6.07517 -1.33201,-9.0914c-0.45071,-2.55392 -0.78095,-5.13666 -0.97393,-7.72827c-2.8843,-0.3257 -5.77134,-0.61981 -8.68143,-0.78315c0.22273,2.15833 0.73307,4.2598 1.83931,6.11631c1.36658,2.29342 4.61433,3.07341 5.90571,5.40998c2.0707,3.74668 0.89458,6.04505 0.08644,9.74592l-0.02058,0.02779c1.18086,-1.16284 2.61803,-2.18281 3.1765,-3.69721zM217.28657,246.96475c0.34544,1.9522 1.51948,7.43632 1.33666,10.77462c0.59554,-1.02637 1.11881,-2.07618 1.33644,-3.22917c0.78723,-4.1706 -0.27289,-8.92573 -0.95609,-13.09398c-0.83839,-0.08113 -1.67521,-0.1684 -2.51095,-0.25948c0.1842,1.94713 0.45395,3.88662 0.79392,5.80802zM213.63405,265.27724c-0.48788,1.4617 -0.52115,3.00523 -0.48195,4.56541c0.90152,-2.75152 2.07027,-5.47903 3.12225,-7.77067c-1.06862,0.96589 -2.20323,1.89581 -2.64029,3.20529zM257.82702,252.40436c0.1776,-2.02866 0.42285,-4.47789 0.8173,-7.00582c-1.1015,-2.6053 -1.74744,-5.03797 -2.02419,-7.45709c-0.72719,0.11675 -1.45493,0.23992 -2.18306,0.36782c0.27065,1.92488 0.58068,3.87918 0.8866,5.89562c0.34387,2.2667 0.85425,4.51468 1.02698,6.80079c0.06489,0.85893 -1.01855,2.95305 -0.24582,2.57242c0.58457,-0.28795 1.14674,-0.6179 1.70574,-0.95385c0.00553,-0.08408 0.01106,-0.1577 0.01648,-0.21987zM154.20414,215.03495c0,0 0.00527,-0.381 0.14149,-0.88276c-0.21715,-0.07766 -0.44555,-0.18058 -0.66819,-0.31693c0.03327,0.57379 0.07615,1.15151 0.12774,1.73244c0.1442,0.16859 0.29381,0.33375 0.44674,0.49683c-0.0228,-0.32736 -0.03872,-0.66987 -0.04776,-1.02957zM233.9147,89.00582c0.27588,0.6994 0.53914,1.39779 0.78942,2.09407c-0.23254,-1.02544 -0.49543,-2.0461 -0.7677,-3.0444c-0.00749,0.3101 -0.01484,0.62659 -0.02169,0.95033zM263.78989,125.09956c-0.45297,-0.09551 -0.90602,-0.197 -1.35838,-0.30474c0.27271,11.09659 0.68667,22.20987 -1.11327,33.17261c-0.45453,2.76832 -0.72874,5.50126 -0.90119,8.23219c3.75361,-0.64269 7.58826,-0.83428 11.37285,-1.27071c-0.12598,-1.26233 -0.24637,-2.52488 -0.34582,-3.7881c-0.76632,-9.73399 -1.40358,-20.15085 -3.93442,-29.63527c-0.59209,-2.21889 -1.61978,-4.28802 -2.58855,-6.37958c-0.37752,-0.01064 -0.75462,-0.01947 -1.13126,-0.02636zM244.32785,166.58999c-3.31237,-0.04595 -3.26642,-3.35834 -3.26642,-3.35834l0.05437,-1.51853c-0.71118,-5.59959 -0.44813,-11.44298 -0.81592,-17.13443c-0.16431,0.47952 -0.30893,0.95899 -0.39766,1.43751c-0.82151,4.43033 -1.38165,8.70369 -1.43555,13.20382l-0.0092,0.66247c0,0 -0.00607,0.43709 -0.17255,0.99152c0.15106,0.55884 0.14498,0.9959 0.14498,0.9959c-0.0436,3.14267 -0.16411,6.23142 -0.37652,9.30867c0.87447,0.01699 1.75172,0.01752 2.6323,-0.0009c4.18394,-0.08743 8.64374,-1.8098 12.96909,-3.22796c0.3618,-5.89562 1.52417,-11.40057 2.16838,-17.34918c0.99121,-9.15302 0.36604,-18.58894 0.02455,-27.91462c-2.13626,-0.89495 -4.15512,-1.99001 -5.95567,-3.32757c-1.56362,5.04049 0.39792,10.90566 -0.53576,16.02706c-0.34178,1.87472 -2.14731,6.00488 -2.95486,7.94739l0.2448,-0.56443c0,0 -0.00718,0.51732 -0.22032,1.14029c0.31318,1.51357 0.68507,3.01993 0.79258,4.55784c0.29576,4.23075 -0.08604,8.15533 0.46854,12.40071l-0.00078,2.45634c0,0 -0.04595,3.31237 -3.35834,3.26642zM238.69437,135.94332c-0.02311,-0.0424 -0.0465,-0.0847 -0.07019,-0.12689c-0.00967,0.03143 -0.01986,0.06297 -0.03057,0.09456c0.03374,0.01015 0.06731,0.02094 0.10076,0.03233zM231.80513,161.77801c0,0 0.00607,-0.43709 0.17255,-0.99152c-0.15106,-0.55884 -0.14498,-0.9959 -0.14498,-0.9959l0.0092,-0.66247c0.07383,-4.73809 0.27078,-9.9895 1.60038,-14.58343c0.29869,-1.03196 1.31626,-1.80672 1.46509,-2.87066c0.04864,-0.34781 -0.71531,-0.00632 -1.04618,-0.12403c-0.9892,-0.35188 -2.10383,-0.54122 -3.08956,-0.92419c-0.3281,0.53821 -0.64565,1.08162 -0.86322,1.66034c-1.99911,5.31703 -1.97291,11.85186 -2.05059,17.44928l-0.02756,1.98744c0,0 -0.04595,3.31237 -3.35834,3.26642c-3.31237,-0.04595 -3.26643,-3.35835 -3.26643,-3.35835l0.02759,-1.98742c0.08744,-6.30288 0.1494,-13.61599 2.43897,-19.59428c0.45445,-1.18661 1.54942,-2.08816 1.8838,-3.31405c0.2257,-0.82754 -0.0208,-1.61645 -0.43758,-2.39792c-0.45265,0.39403 -1.013,0.66686 -1.63001,0.76887l-3.26124,0.60532l-0.02137,-0.11514l-0.27505,0.14443c-0.07003,1.51288 -0.18967,3.03209 -0.46157,4.54323c-0.89227,4.95889 -2.33193,9.79263 -3.45108,14.70604c0.17469,0.04724 0.356,0.10913 0.54405,0.18741c3.05841,1.27286 1.78556,4.33125 1.78556,4.33125c-1.20268,2.8606 -2.18078,5.9195 -3.02517,9.04503c5.40498,0.75222 10.73448,1.68573 16.11894,2.21641c0.20573,-2.97094 0.32162,-5.95319 0.36377,-8.99215zM158.62897,161.03295c2.24271,-1.271 4.80936,-2.0333 7.54094,-2.13225c-0.45384,-4.34384 -0.814,-8.75039 -0.87826,-13.10313c-0.3819,1.0137 -0.8385,1.97611 -1.38503,2.8655c-0.24107,0.39236 -5.25718,5.23692 -5.85716,5.82049l0.9659,0.32117c0,0 -0.04595,3.31237 -3.35834,3.26642c-1.3752,-0.01907 -2.17154,-0.60118 -2.63264,-1.27551c-0.0434,3.18038 -0.08259,6.36091 -0.12921,9.54126c1.43264,-2.68346 3.37117,-4.70042 5.73375,-5.30392zM323.46761,141.19195c0.00771,-2.73434 -0.35437,-5.39486 -0.79367,-8.04216c-0.11589,0.03401 -0.23233,0.06681 -0.34926,0.09837c-2.75845,1.23078 -5.8205,2.14657 -9.00978,2.78808c-0.99972,5.05742 -2.37743,10.0114 -3.37444,15.04208c1.23138,-1.42493 2.94637,-2.60474 5.62029,-3.10105c2.43636,-0.45221 4.86971,-0.44193 7.17276,-0.01436c0.45828,-2.17499 0.72743,-4.40893 0.73408,-6.77097zM282.49126,154.88547c1.35914,2.75459 4.19604,4.49148 6.16344,6.85038l0.4148,0.42138c1.26274,-0.15786 2.54087,-0.31954 3.80239,-0.49094c1.24364,-8.15899 1.30193,-16.76495 0.01802,-24.87282c-2.2886,-0.26796 -4.42544,-0.6503 -6.32639,-1.12767c-4.12164,5.95107 -7.4019,12.47128 -4.07228,19.21965zM299.6392,137.22923c1.04446,7.66014 1.03389,15.60267 0.06352,23.30581c0.85981,-0.1831 1.67052,-0.37952 2.41606,-0.59221c0.45747,-7.85866 2.57363,-15.30652 4.22079,-22.93604c-2.25198,0.18526 -4.50444,0.25503 -6.70038,0.22244zM278.04907,160.62079c0.08306,1.0549 0.17879,2.10851 0.27957,3.16138c0.7753,-0.18421 1.6561,-0.35471 2.61586,-0.51646c-1.03248,-0.99272 -2.0649,-1.98371 -2.92997,-3.08495c0.01149,0.14683 0.023,0.29352 0.03456,0.44006zM274.22183,131.02638c0.85058,3.4155 1.48461,6.93256 1.98317,10.48628c1.03215,-2.73861 2.52554,-5.36361 4.28128,-7.83358c-2.07145,-0.76759 -4.46281,-1.7259 -6.26444,-2.65267zM158.31961,145.10204c2.55772,-4.08406 2.31501,-10.84905 2.3693,-15.39544c-0.93527,-0.5142 -1.81518,-1.11597 -2.6288,-1.79411c-0.43885,0.46554 -0.8467,0.95736 -1.20759,1.48905c-3.7457,5.51841 -2.54412,12.83841 -2.69385,19.6714c1.46949,-1.25846 3.14267,-2.34494 4.16094,-3.97087zM172.85962,152.03922c0.19569,2.7186 0.38891,5.43697 0.58611,8.15488c1.11745,0.30538 2.17497,0.73303 3.1064,1.41782c0.26686,0.19618 0.72095,0.80908 1.20214,1.43163c0.21945,0.1942 0.43369,0.39409 0.64255,0.59952l0.70485,-1.9928c3.54413,-5.02754 -0.90828,-12.33594 -1.36395,-18.23942c-0.2562,-3.3191 0.73239,-5.79466 2.23433,-8.13788c-2.42507,-0.25985 -4.84788,-0.65386 -7.19618,-1.19656c-0.85078,5.79239 -0.35437,11.87627 0.08378,17.96283zM184.26847,140.79953c-2.05145,6.09649 4.23077,13.40606 3.10241,19.65482c-0.27543,1.52533 -1.52595,2.69842 -2.28892,4.04763l-0.38686,1.12779c1.2015,0.1837 2.41307,0.34471 3.63178,0.48828c4.07827,-9.83237 3.32992,-20.51901 5.43289,-30.75806c-1.90223,0.18677 -3.9134,0.29133 -5.9838,0.30363c-1.38709,1.59874 -2.84457,3.1658 -3.50749,5.13591zM206.01469,153.45609c-1.01216,4.6008 -0.72595,9.20323 -0.79134,13.91657l-0.0017,0.12302c1.16912,0.08975 2.33257,0.18548 3.48781,0.29185c0.37265,-1.4251 0.76815,-2.84125 1.19373,-4.23887c-1.30033,-0.96694 -1.27551,-2.75482 -1.27551,-2.75482l0.08938,-3.19384c1.1295,-6.23799 3.09874,-12.26932 4.23194,-18.49261c0.25981,-1.42675 0.41788,-2.8101 0.53007,-4.16132c-1.8968,-0.33949 -3.79499,-0.65891 -5.80871,-0.66967c0,0 -0.49175,-0.00684 -1.09368,-0.20469c1.23695,5.05501 1.28179,10.20293 -0.64977,15.89305c-0.10387,0.30597 -0.22019,0.6069 -0.34591,0.904c0.73933,1.16235 0.43374,2.58734 0.43374,2.58734zM197.50103,159.48992c-0.61007,2.47301 -1.38223,4.92436 -2.29342,7.28383c1.13076,0.08856 2.26296,0.17067 3.39434,0.25044c0.02939,-2.39979 0.00592,-4.7479 0.08218,-7.08207c-0.47678,-0.08254 -0.86576,-0.24367 -1.1831,-0.45218zM201.04121,137.345c-0.04589,-0.69372 -0.21355,-1.45697 -0.46111,-2.25461c-0.98161,4.17056 -1.11927,8.2867 -1.39344,12.56482c1.21511,-3.17731 2.11296,-6.40361 1.85457,-10.3102zM224.57657,123.99266c-0.27653,0.0711 -0.55582,0.13524 -0.83768,0.1922c0.21759,0.10097 0.42228,0.22481 0.61103,0.36845c0.07415,-0.18651 0.14983,-0.37351 0.22664,-0.56064z" fill-opacity="0.50196" fill="#000000" stroke-width="0.5"/><path d="M265.56281,92.67291c0.22589,-16.28147 13.60775,-29.29709 29.88923,-29.07121c16.28148,0.2259 29.29711,13.60776 29.07122,29.88922c-0.22589,16.28147 -13.60776,29.29711 -29.88923,29.07121c-16.28147,-0.22589 -29.29709,-13.60775 -29.07121,-29.88923z" fill-opacity="0.50196" fill="#ffffff" stroke-width="0.5"/><path d="M162.85133,93.23573c0.22589,-16.28147 13.60776,-29.29711 29.88923,-29.07121c16.28147,0.22589 29.29712,13.60776 29.07123,29.88923c-0.22589,16.28147 -13.60775,29.29709 -29.88923,29.07121c-16.28147,-0.22589 -29.29709,-13.60775 -29.07121,-29.88923z" fill-opacity="0.50196" fill="#ffffff" stroke-width="0.5"/><path d="M161.62747,85.93009c0.24113,-17.3791 14.52512,-31.27218 31.90422,-31.03106c17.3791,0.24113 31.27218,14.52512 31.03107,31.90423c-0.24111,17.37912 -14.52513,31.27218 -31.90423,31.03108c-17.3791,-0.24113 -31.27218,-14.52513 -31.03106,-31.90422z" fill-opacity="0.50196" fill="#000000" stroke-width="0.5"/><path d="M263.00482,86.0114c0.24113,-17.3791 14.52513,-31.27218 31.90423,-31.03108c17.3791,0.24113 31.27218,14.52513 31.03108,31.90423c-0.24111,17.37912 -14.52513,31.27218 -31.90423,31.03107c-17.37912,-0.24111 -31.27221,-14.52513 -31.03107,-31.90423z" fill-opacity="0.50196" fill="#000000" stroke-width="0.5"/><path d="M142.5825,169.15401c0.09391,-6.7687 5.65716,-12.1797 12.42587,-12.08579c5.74319,0.07968 10.50891,4.09695 11.76381,9.44715c1.2616,-0.41674 2.61297,-0.63384 4.01616,-0.61439c4.67008,0.06478 8.6938,2.73317 10.70917,6.60468c1.88428,-1.12662 4.09455,-1.76106 6.45091,-1.72837c4.22857,0.05867 7.92726,2.25191 10.0849,5.54011c1.7249,-0.88547 3.68555,-1.37345 5.75939,-1.34467c4.04404,0.0561 7.60344,2.06457 9.7937,5.11598c2.17585,-1.83399 4.99684,-2.92296 8.0656,-2.88038c4.23919,0.05881 7.94581,2.26292 10.10111,5.56486c2.28182,-2.8653 5.81807,-4.68141 9.76401,-4.62667c3.937,0.05462 7.41468,1.9596 9.61692,4.87587c1.78015,-4.6753 6.33574,-7.96758 11.62829,-7.89414c5.49925,0.0763 10.10227,3.76275 11.58508,8.77278c0.89236,-5.97329 6.08526,-10.51545 12.29165,-10.42933c3.94735,0.05477 7.43299,1.96964 9.63429,4.89893c0.83654,-6.03657 6.05933,-10.64464 12.31016,-10.55792c0.33568,0.00465 0.66805,0.02276 0.99655,0.0538c0.24677,-6.632 5.74709,-11.88712 12.41844,-11.79457c6.76873,0.09391 12.1797,5.65716 12.08577,12.42586c-0.09391,6.7687 -5.65714,12.1797 -12.42586,12.08577c-0.33568,-0.00465 -0.66804,-0.02278 -0.99655,-0.05382c-0.24677,6.632 -5.74709,11.88712 -12.41844,11.79457c-3.94735,-0.05477 -7.43296,-1.96964 -9.63428,-4.89894c-0.83654,6.03657 -6.05932,10.64463 -12.31018,10.55792c-5.49925,-0.0763 -10.10227,-3.76278 -11.58507,-8.77279c-0.89236,5.97329 -6.08526,10.51546 -12.29165,10.42934c-3.93699,-0.05462 -7.41468,-1.9596 -9.61692,-4.87589c-1.78015,4.67532 -6.33572,7.96758 -11.62829,7.89416c-4.23919,-0.05881 -7.94582,-2.26293 -10.10108,-5.56488c-2.28183,2.8653 -5.81809,4.68141 -9.76402,4.62667c-4.04404,-0.0561 -7.60344,-2.06457 -9.7937,-5.11598c-2.17585,1.83401 -4.99683,2.92296 -8.06558,2.88037c-4.22857,-0.05867 -7.92728,-2.25192 -10.08491,-5.54012c-1.7249,0.88547 -3.68555,1.37346 -5.7594,1.34469c-4.67008,-0.06478 -8.69382,-2.73317 -10.70919,-6.60469c-1.88428,1.12662 -4.09454,1.76109 -6.45089,1.72838c-5.74319,-0.07968 -10.50891,-4.09695 -11.76379,-9.44717c-1.2616,0.41674 -2.61299,0.63385 -4.01616,0.61439c-6.7687,-0.09391 -12.1797,-5.65716 -12.08579,-12.42587z" fill-opacity="0.50196" fill="#ffffff" stroke-width="0.5"/><path d="M309.83365,202.2027c6.7687,0.09391 12.1797,5.65716 12.08577,12.42586c-0.09391,6.7687 -5.65716,12.1797 -12.42584,12.0858c-3.24629,-0.04504 -6.18028,-1.34814 -8.34446,-3.43889c-0.88725,5.97915 -6.08293,10.52737 -12.29343,10.44122c-3.94676,-0.05477 -7.43192,-1.96906 -9.63328,-4.89761c-0.11193,-2.57629 -1.00368,-4.95028 -2.44509,-6.89181c-0.00785,-0.21086 -0.01036,-0.42305 -0.0074,-0.63643c0.09391,-6.7687 5.65716,-12.1797 12.42586,-12.08577c3.24629,0.04504 6.18028,1.34814 8.34446,3.43889c0.88725,-5.97915 6.08293,-10.52737 12.29343,-10.44122z" fill-opacity="0.50196" fill="#ffffff" stroke-width="0.5"/><path d="" fill-opacity="0.50196" fill="#ffffff" stroke-width="0.5"/><path d="M149.87047,216.96264c0.09391,-6.7687 5.65716,-12.1797 12.42586,-12.08577c5.39478,0.07484 9.92708,3.62403 11.49723,8.48872c1.52286,-0.6479 3.20242,-0.99614 4.9636,-0.97171c6.14304,0.08523 11.16776,4.6754 11.974,10.58312c2.21253,-3.43922 6.09564,-5.69418 10.48588,-5.63326c5.69497,0.07901 10.4288,4.02976 11.73145,9.31268c2.26382,-3.0996 5.94508,-5.09181 10.07514,-5.03451c5.37361,0.07455 9.89149,3.59622 11.4786,8.43153c1.72063,-4.78941 6.33448,-8.18438 11.70809,-8.10984c6.7687,0.09391 12.1797,5.65716 12.0858,12.42586c-0.09391,6.7687 -5.65716,12.1797 -12.42586,12.0858c-5.37361,-0.07455 -9.89149,-3.59622 -11.4786,-8.43154c-1.72063,4.78941 -6.33448,8.18438 -11.70809,8.10984c-5.69497,-0.07901 -10.4288,-4.02976 -11.73145,-9.31267c-2.26382,3.0996 -5.94508,5.09181 -10.07514,5.03451c-6.14304,-0.08523 -11.16776,-4.6754 -11.97399,-10.58313c-2.21253,3.43922 -6.09564,5.69418 -10.48587,5.63329c-5.39478,-0.07484 -9.92707,-3.62402 -11.49721,-8.48872c-1.52286,0.6479 -3.20242,0.99612 -4.96361,0.97171c-6.7687,-0.09391 -12.1797,-5.65716 -12.0858,-12.42584z" fill-opacity="0.50196" fill="#ffffff" stroke-width="0.5"/><path d="M255.50194,232.3315c-2.27641,-6.3751 1.04623,-13.38857 7.42136,-15.66499c6.3751,-2.27641 13.38857,1.04623 15.66499,7.42136c2.27641,6.3751 -1.04623,13.38857 -7.42136,15.66499c-6.3751,2.27641 -13.38857,-1.04623 -15.66499,-7.42136z" fill-opacity="0.50196" fill="#ffffff" stroke-width="0.5"/></g></g></svg>