<svg version="1.1" xmlns="http://www.w3.org/2000/svg" xmlns:xlink="http://www.w3.org/1999/xlink" width="173.66065" height="174.62111" viewBox="0,0,173.66065,174.62111"><defs><linearGradient x1="325.34353" y1="103.8289" x2="325.34353" y2="113.53536" gradientUnits="userSpaceOnUse" id="color-1"><stop offset="0" stop-color="#000000"/><stop offset="1" stop-color="#333333"/></linearGradient><linearGradient x1="325.37259" y1="114.18246" x2="325.37259" y2="123.88891" gradientUnits="userSpaceOnUse" id="color-2"><stop offset="0" stop-color="#000000"/><stop offset="1" stop-color="#333333"/></linearGradient><linearGradient x1="325.34353" y1="124.21246" x2="325.34353" y2="133.9189" gradientUnits="userSpaceOnUse" id="color-3"><stop offset="0" stop-color="#000000"/><stop offset="1" stop-color="#333333"/></linearGradient><linearGradient x1="325.34353" y1="134.56601" x2="325.34353" y2="144.27246" gradientUnits="userSpaceOnUse" id="color-4"><stop offset="0" stop-color="#000000"/><stop offset="1" stop-color="#333333"/></linearGradient><linearGradient x1="325.59967" y1="144.91955" x2="325.59967" y2="154.626" gradientUnits="userSpaceOnUse" id="color-5"><stop offset="0" stop-color="#000000"/><stop offset="1" stop-color="#333333"/></linearGradient><linearGradient x1="325.62872" y1="155.27311" x2="325.62872" y2="164.97956" gradientUnits="userSpaceOnUse" id="color-6"><stop offset="0" stop-color="#000000"/><stop offset="1" stop-color="#333333"/></linearGradient></defs><g transform="translate(-180.99472,-92.68947)"><g stroke-miterlimit="10"><g><g stroke="none" stroke-width="0"><g><path d="M296.31689,266.91465v-173.82927h58.33848v173.82927z" fill="#333333"/><path d="" fill="#333333"/><path d="" fill="#000000"/><path d="M349.55467,164.47956h-0.12414c0.0418,-0.05245 0.08319,-0.10608 0.12414,-0.16088z" fill="#000000"/><path d="M300.94128,164.47956v-0.09098l0.05347,0.09098z" fill="#000000"/></g><g><path d="M300.68316,113.53536v-9.70645h49.32074v9.70645z" fill="url(#color-1)"/><path d="M300.71222,123.88891v-9.70645h49.32075v9.70645z" fill="url(#color-2)"/><path d="M300.68316,133.9189v-9.70645h49.32074v9.70645z" fill="url(#color-3)"/><path d="M300.68316,144.27246v-9.70645h49.32074v9.70645z" fill="url(#color-4)"/><path d="M300.9393,154.626v-9.70645h49.32075v9.70645z" fill="url(#color-5)"/><path d="M300.96835,164.97956v-9.70645h49.32075v9.70645z" fill="url(#color-6)"/></g></g><g fill="#000000"><g stroke="#333333" stroke-width="5"><path d="M183.49472,264.81058v-169.62111h113.01059v169.62111z"/><path d=""/><path d=""/><path d="M286.62447,164.85529h-0.24048c0.08098,-0.05118 0.16114,-0.10351 0.24048,-0.15698z"/><path d="M192.45287,164.85529v-0.08878l0.10358,0.08878z"/></g><path d="M186.4293,166.12945c0,-6.90356 5.59644,-12.5 12.5,-12.5c6.90356,0 12.5,5.59644 12.5,12.5c0,6.90356 -5.59644,12.5 -12.5,12.5c-6.90356,0 -12.5,-5.59644 -12.5,-12.5z" stroke="none" stroke-width="0.5"/><path d="M265.63376,162.62483c0,-6.90356 5.59644,-12.5 12.5,-12.5c6.90356,0 12.5,5.59644 12.5,12.5c0,6.90356 -5.59644,12.5 -12.5,12.5c-6.90356,0 -12.5,-5.59644 -12.5,-12.5z" stroke="none" stroke-width="0.5"/></g></g></g></g></svg>