<svg version="1.1" xmlns="http://www.w3.org/2000/svg" xmlns:xlink="http://www.w3.org/1999/xlink" width="98.27952" height="143.75875" viewBox="0,0,98.27952,143.75875"><defs><linearGradient x1="182.2067" y1="125.86549" x2="182.2067" y2="145.62909" gradientUnits="userSpaceOnUse" id="color-1"><stop offset="0" stop-color="#6e1f00"/><stop offset="1" stop-color="#320e00"/></linearGradient></defs><g transform="translate(-133.33662,-106.44092)"><g stroke-miterlimit="10"><g><path d="M133.33663,249.78631l0.78111,-136.99778l97.49841,0.5559l-0.14143,112.50103l-25.63927,24.35422z" fill="#bdbdbd" stroke="none" stroke-width="0" stroke-linecap="butt"/><path d="M204.75022,250.14793l-0.67963,-23.49018l26.48892,-0.76639z" fill="#f0f0f0" stroke="none" stroke-width="0" stroke-linecap="butt"/><path d="M145.80879,184.35869l0.33639,-58.99904l72.99881,0.41621l-0.33639,58.99904z" fill="#e2e2e2" stroke="none" stroke-width="0" stroke-linecap="butt"/><text transform="translate(153.56573,124.69484) rotate(0.32659) scale(0.5,0.5)" font-size="40" xml:space="preserve" fill="#000000" stroke="none" stroke-width="1" stroke-linecap="butt" font-family="Serif" font-weight="normal" text-anchor="start"><tspan x="0" dy="0">wanted</tspan></text><text transform="translate(154.68389,200.02373) rotate(0.32602) scale(0.5,0.49877) skewX(-0.00137)" font-size="40" xml:space="preserve" fill="#000000" stroke="none" stroke-width="1" stroke-linecap="butt" font-family="Serif" font-weight="normal" text-anchor="start"><tspan x="0" dy="0">reward</tspan></text><text transform="translate(149.94276,220.0766) rotate(0.32659) scale(0.5,0.5)" font-size="40" xml:space="preserve" fill="#000000" stroke="none" stroke-width="1" stroke-linecap="butt" font-family="Serif" font-weight="normal" text-anchor="start"><tspan x="0" dy="0">$5.000$</tspan></text><g stroke-width="0.5"><g stroke="none" stroke-linecap="butt"><path d="M175.69971,163.98588c0,5.67986 0.09783,9.46169 -7.09396,9.69636c-7.84694,0.25604 -7.49362,-4.0165 -7.49362,-9.69636c0,-5.67986 1.27086,-10.18331 7.29379,-10.28428c6.43306,-0.33969 7.29379,4.60442 7.29379,10.28428z" fill="#000000"/><path d="M174.9917,179.73902c0,1.48444 0.00669,2.83923 -0.11183,4.03494c-2.20431,0.02337 -13.37963,0.18576 -13.79302,0.30167c-0.7628,-1.65478 -0.68273,-1.63256 -0.68273,-4.33662c0,-5.67986 1.27086,-10.18331 7.29379,-10.28428c6.43306,-0.33969 7.29379,4.60443 7.29379,10.28428z" fill="#ffe1ad"/></g><g stroke="none" stroke-linecap="butt"><path d="M189.96106,165.15461c0,-5.67986 0.86073,-10.62398 7.29379,-10.28428c6.02293,0.10097 7.29379,4.60442 7.29379,10.28428c0,5.67986 0.35332,9.9524 -7.49362,9.69636c-7.1918,-0.23466 -7.09396,-4.0165 -7.09396,-9.69636z" fill="#000000"/><path d="M189.7972,179.89526c0,-5.67986 0.86073,-10.62396 7.29379,-10.28427c6.02293,0.10097 7.2938,4.60442 7.2938,10.28427c0,2.55862 0.24929,2.34534 -0.38921,4.04748c-3.99232,-0.0695 -13.35488,-0.12674 -13.45969,-0.13016c-0.12051,-0.00394 -0.24102,-0.00774 -0.36153,-0.01143c-0.12882,-0.58327 -0.37715,-2.4061 -0.37715,-3.90589z" fill="#ffe1ad"/></g><path d="M194.26217,170.40603c0,5.77096 -1.15053,13.71032 -1.15053,13.71032l-21.2177,-0.13604c0,0 -1.08795,-7.97867 -1.08795,-13.57427c0,-10.99733 -5.65997,-20.0812 11.72809,-19.91245c18.3997,0.17856 11.72809,8.91512 11.72809,19.91245z" fill="#000000" stroke="none" stroke-linecap="butt"/><path d="M178.50734,152.17932c0,0 1.26458,1.08265 4.48874,1.01993c3.49476,-0.06799 4.21874,-1.29191 4.21874,-1.29191l0.27073,32.36171c-2.95256,-0.04527 -5.9061,-0.20675 -8.85988,-0.17785z" fill="#009dff" stroke="none" stroke-linecap="butt"/><path d="M181.46533,146.0591c-0.77665,0 -1.40626,-0.0001 -1.40626,-0.00021c0,-0.00011 0.6296,-0.0002 1.40626,-0.0002c0.77665,0 1.40624,0.00009 1.40624,0.0002c0,0.00011 -0.62959,0.00021 -1.40624,0.00021z" fill="#000000" stroke="none" stroke-linecap="butt"/><path d="M195.70665,140.37745c0,7.45583 -6.04414,13.49996 -13.49997,13.49996c-7.45582,0 -13.49996,-6.04414 -13.49996,-13.49996c0,-7.45582 6.04414,-13.49996 13.49996,-13.49996c7.45582,0 13.49997,6.04414 13.49997,13.49996z" fill="#ffe1ad" stroke="none" stroke-linecap="butt"/><path d="M180.2898,138.0275c-0.5142,0.38252 -1.04001,0.75138 -1.55242,1.13399c-0.32031,0.23917 -0.55003,0.59266 -0.87527,0.82197c0.37229,1.54649 0.14477,4.06158 -0.62715,4.74786c-1.42291,1.26505 -2.81827,0.99203 -4.12338,0.40394c-0.7425,-0.00134 -1.60909,-0.00769 -1.78443,-0.03274c-1.49542,-0.21356 -3.12762,-0.93083 -4.51516,-1.47176c-2.30312,-0.89785 -3.64442,-2.08618 -3.31542,-4.80726c0.08221,-0.67991 0.34809,-1.34032 0.68285,-1.93779c0.42189,-0.75296 2.12473,-2.38422 2.84744,-2.84744c0.29951,-0.19197 0.69797,-0.17129 1.0125,-0.33751c0.39177,-0.20703 0.57524,-0.67565 0.89089,-0.98665c0.75143,-0.74036 1.27886,-1.60093 2.02499,-2.36249c0.92893,-0.91011 1.06417,-1.15024 2.36526,-1.83399c0.24283,-0.1276 0.5591,-0.07494 0.79385,-0.21685c0.31587,-0.19094 0.47149,-0.60959 0.81136,-0.75353c1.94858,-0.82519 4.42547,-0.92959 6.46708,-1.26897c1.73968,-0.28919 3.40819,-0.4952 5.18977,-0.38054c0.66213,0.04261 1.37317,-0.07301 1.98116,0.19268c0.65935,0.28814 1.08133,0.95088 1.64862,1.39354c1.00954,0.78778 2.30131,1.2928 3.22257,2.19266c0.84477,0.82513 1.38335,2.06632 2.39017,2.7739c0.47844,0.33624 1.09642,0.45585 1.54514,0.83083c0.35057,0.29296 0.52644,0.74684 0.78967,1.12026c1.76375,1.08146 3.77471,3.07101 2.28859,5.6324c-0.54219,0.93448 -2.01976,0.78155 -3.06595,1.0512c-0.65364,0.16848 -1.35005,0.00907 -2.02499,0c-1.44437,-0.01943 -3.0595,-0.30604 -4.39901,-0.89138c-1.39305,-0.60873 -2.4877,-1.70954 -3.94503,-2.21383c-0.67511,-0.23361 -2.38728,0.06771 -3.13092,0.06771c-1.19982,0 -2.39982,-0.04828 -3.59278,-0.02022z" fill="url(#color-1)" stroke="none" stroke-linecap="butt"/><path d="M187.18194,141.15863c0,1.30477 -0.69413,2.3625 -1.55039,2.3625c-0.85626,0 -1.55038,-1.05772 -1.55038,-2.36249c0,-1.30477 0.69412,-2.36249 1.55038,-2.36249c0.85626,0 1.55039,1.05773 1.55039,2.36249z" fill="#000000" stroke="none" stroke-linecap="butt"/><path d="M178.49808,147.35661c0,0 1.33259,1.79189 4.14307,1.77954c2.59957,-0.01143 3.81354,-1.64832 3.81354,-1.64832" fill="none" stroke="#000000" stroke-linecap="round"/><path d="M181.33576,141.15863c0,1.30477 -0.69413,2.3625 -1.55039,2.3625c-0.85626,0 -1.55038,-1.05772 -1.55038,-2.36249c0,-1.30477 0.69412,-2.36249 1.55038,-2.36249c0.85626,0 1.55039,1.05773 1.55039,2.36249z" fill="#000000" stroke="none" stroke-linecap="butt"/></g></g></g></g></svg>