<svg version="1.1" xmlns="http://www.w3.org/2000/svg" xmlns:xlink="http://www.w3.org/1999/xlink" width="583.20821" height="479" viewBox="0,0,583.20821,479"><defs><radialGradient cx="349.5" cy="87.95458" r="48.90169" gradientUnits="userSpaceOnUse" id="color-1"><stop offset="0" stop-color="#ff0000"/><stop offset="1" stop-color="#ff0000" stop-opacity="0"/></radialGradient><radialGradient cx="349.5" cy="87.95458" r="48.90169" gradientUnits="userSpaceOnUse" id="color-2"><stop offset="0" stop-color="#ff0000"/><stop offset="1" stop-color="#ff0000" stop-opacity="0"/></radialGradient><radialGradient cx="349.5" cy="87.95458" r="48.90169" gradientUnits="userSpaceOnUse" id="color-3"><stop offset="0" stop-color="#ff0000"/><stop offset="1" stop-color="#ff0000" stop-opacity="0"/></radialGradient><radialGradient cx="349.5" cy="87.95458" r="48.90169" gradientUnits="userSpaceOnUse" id="color-4"><stop offset="0" stop-color="#ff0000"/><stop offset="1" stop-color="#ff0000" stop-opacity="0"/></radialGradient><radialGradient cx="349.5" cy="87.95458" r="48.90169" gradientUnits="userSpaceOnUse" id="color-5"><stop offset="0" stop-color="#ff0000"/><stop offset="1" stop-color="#ff0000" stop-opacity="0"/></radialGradient><radialGradient cx="349.5" cy="87.95458" r="48.90169" gradientUnits="userSpaceOnUse" id="color-6"><stop offset="0" stop-color="#ff0000"/><stop offset="1" stop-color="#ff0000" stop-opacity="0"/></radialGradient><radialGradient cx="349.5" cy="87.95458" r="48.90169" gradientUnits="userSpaceOnUse" id="color-7"><stop offset="0" stop-color="#ff0000"/><stop offset="1" stop-color="#ff0000" stop-opacity="0"/></radialGradient><radialGradient cx="349.5" cy="87.95458" r="48.90169" gradientUnits="userSpaceOnUse" id="color-8"><stop offset="0" stop-color="#ff0000"/><stop offset="1" stop-color="#ff0000" stop-opacity="0"/></radialGradient><radialGradient cx="240" cy="180" r="291.6041" gradientUnits="userSpaceOnUse" id="color-9"><stop offset="0" stop-color="#000000" stop-opacity="0"/><stop offset="1" stop-color="#000000"/></radialGradient></defs><g transform="translate(51.60411,59.5)"><g stroke-miterlimit="10"><path d="M-36,419.5v-479h552v479z" fill="#000000" stroke="none" stroke-width="0"/><path d="M12.497,348.90515v-337.8103h455.00601v337.8103z" fill="#ffffff" stroke="none" stroke-width="0"/><path d="M251.5,152.46316v-133h193v133z" fill="#000000" stroke="none" stroke-width="0"/><path d="M288.40845,99.00542c-0.48967,0.60631 -2.21899,2.45239 -4.18822,1.0901c-2.33132,-1.61278 -0.33625,-4.49671 -0.33625,-4.49671l0.96053,-1.13279c3.1453,-2.65085 6.3348,-5.9245 10.04443,-7.38647c1.62301,-0.63963 3.38495,-1.22942 4.9408,-0.9883c2.66119,0.41241 4.57687,2.00348 5.97219,4.0897c0.8306,-0.2613 1.50738,0.53205 2.24311,0.82245c2.23627,0.88267 4.15528,2.19319 6.12736,3.46112c0.483,-0.01699 1.0046,0.1154 1.54421,0.48869c0.46912,0.32453 0.76306,0.70054 0.93332,1.09416c0.39679,0.25055 0.81413,0.45349 1.298,0.46555c0.41519,0.01035 0.69345,-0.66763 1.04199,-0.9991c0.77889,-0.74073 1.56019,-1.47832 2.34028,-2.21748c1.72078,-0.93041 3.39427,-2.00031 5.0859,-3.01524c0.73998,-0.44397 1.4507,-1.20415 2.23539,-1.28943c2.29417,-0.24933 4.62811,-0.27195 6.71627,0.31656c1.65063,0.46519 2.60064,1.60954 3.16607,3.05002c0.57366,-0.80909 1.13518,-1.62305 1.6712,-2.44454c0.17464,-0.38447 0.35385,-0.75954 0.53325,-1.12105c-0.38711,-1.36059 -0.76364,-2.72616 -1.07123,-4.12419c-0.2708,-1.23086 -0.51347,-2.47417 -0.75322,-3.71845c-0.06282,-0.32608 -0.05616,-0.68273 -0.15435,-0.99183c-0.0149,-0.04691 -0.07229,-0.07491 -0.12786,-0.10017c-1.9042,0.50482 -2.51135,0.29348 -4.72017,0.4804c-2.00648,0.16979 -4.03737,0.50263 -6.01833,0.49966c-1.16519,-0.00174 -2.2942,-0.1805 -3.45975,-0.18022c-0.8702,0.00021 -1.78136,0.24351 -2.63842,0.1817c-0.62093,-0.04478 -1.1748,-0.3054 -1.74524,-0.49784c-2.49156,-0.84059 -4.52233,-2.54794 -6.63546,-4.03588c-0.09346,0.03232 -0.19797,0.04733 -0.28013,0.10695c-0.80226,0.58221 -1.56736,1.2512 -2.40897,1.74229c-1.0579,0.61729 -1.91386,1.00188 -3.01878,1.23042c-0.07938,0.02813 -0.1612,0.05463 -0.24552,0.0794c-0.69455,0.20407 -1.24367,0.19791 -1.6776,0.06646c-0.16016,0.0142 -0.32074,0.03542 -0.48203,0.06852c-0.48097,0.09871 -0.95945,0.34909 -1.43919,0.41432c-1.45645,0.19803 -2.85408,-0.05377 -4.29312,-0.01054c-0.63972,0.01922 -1.30936,0.2581 -1.93965,0.22768c-0.45815,-0.02211 -0.82324,-0.32922 -1.27351,-0.38278c-0.33346,-0.03966 -0.70571,0.13321 -1.04278,0.10725c-1.06516,-0.08204 -2.42258,-0.37042 -3.43685,-0.95349c-0.08407,0.08801 -0.16059,0.17597 -0.22134,0.26377c-0.54694,0.22489 -1.20607,0.35483 -1.59584,0.8569l-3.82126,0.27217c0,0 -2.33132,-1.61278 -0.33625,-4.4967c0.80438,-1.16276 1.66342,-1.59454 2.40229,-1.69577c0.1895,-0.08644 0.38014,-0.13511 0.57029,-0.12389c1.38579,-2.0032 1.26315,-2.44406 4.30228,-2.47341c1.41084,-0.01363 2.21368,1.73489 3.67253,1.75191c0.41778,0.00487 0.862,-0.13637 1.26967,-0.08844c0.39718,0.0467 0.70639,0.34587 1.10972,0.36821c0.41494,0.02299 0.86133,-0.22002 1.2836,-0.23562c0.76444,-0.02823 1.50155,0.08784 2.25802,0.10483c0.00851,0.00019 0.01702,0.00036 0.02553,0.0005c-0.22352,-1.28197 -0.21438,-2.63463 -0.35111,-3.96264c-0.08238,-0.80013 -0.57916,-1.56027 -0.29215,-2.38536c0.51753,-1.48775 1.45324,-2.9184 2.54272,-4.08436c0.79623,-0.85214 1.8853,-1.30025 2.89065,-1.73049c1.01034,-0.43238 2.05358,-0.61736 3.08427,-0.90833c-0.63411,-0.50715 -1.24252,-1.05642 -1.88895,-1.54212c-0.42224,0.23258 -0.73949,0.32579 -0.73949,0.32579c-0.33789,0.05998 -0.69319,-0.00159 -1.01365,0.17992c-0.3057,0.17314 -0.45038,0.6043 -0.74079,0.81381c-0.58056,0.41884 -1.25623,0.61423 -1.832,1.0423c-1.61428,1.20019 -3.04003,2.9632 -4.78746,3.96543c-2.12907,1.22111 -4.4547,1.49495 -6.57466,1.24298c-1.38119,-0.16417 -1.93799,-0.64182 -2.87796,-1.29209l-1.1805,-0.42985c0,0 -2.67731,-1.01587 -1.17819,-4.16009c1.49912,-3.14422 4.17642,-2.12835 4.17642,-2.12835l1.69353,0.66066c0.39272,0.27168 0.95196,0.73381 1.46849,0.81703c2.60021,0.41892 4.37551,-2.28902 6.57109,-3.9305c0.52931,-0.39572 1.15149,-0.57254 1.69321,-0.94194c-1.2443,-0.70226 -2.56988,-1.21808 -4.00889,-1.33868c-0.58888,0.23217 -1.18812,0.39105 -1.78394,0.56611l-2.72364,-0.63526c0,0 -2.33132,-1.61278 -0.33625,-4.4967c1.3734,-1.98528 2.90613,-1.83963 3.728,-1.55609c0.54191,-0.15237 1.08411,-0.30005 1.62651,-0.4432c5.19883,0.22489 9.03909,3.04163 12.86068,6.00521c1.02297,0.7933 2.42124,1.55304 3.62045,2.52849c0.2501,0.35921 0.60381,0.65542 0.98904,0.91996c1.13388,1.23297 1.82511,2.81384 1.31433,5.07218c-0.59749,2.64171 -4.86728,4.14965 -6.45254,4.74683c-1.15166,0.43384 -2.32698,0.64801 -3.48753,1.00851c-0.08922,0.02772 -0.17951,0.08437 -0.26904,0.14053c0.07518,0.88732 0.19,2.77388 0.21161,2.95127c0.06822,0.56005 0.26851,1.05485 0.50452,1.53286c0.47512,-0.36136 0.92945,-0.75379 1.44657,-1.07949c1.36165,-0.8576 3.23723,-1.63002 4.65582,-1.53834c0.69522,0.04493 1.18682,0.60464 1.78023,0.90695c1.30876,0.90538 2.62341,1.80264 3.92643,2.71626c0.66613,0.46707 1.60943,1.17921 2.49655,1.1939c0.65046,0.01077 1.33332,-0.2061 1.98647,-0.20968c2.11206,-0.01156 4.18741,0.21465 6.32439,0.0301c1.92741,-0.16645 3.85846,-0.36294 5.7811,-0.48922c3.00861,-0.1976 3.47979,-0.93135 5.40654,0.80835c0.90805,0.8199 1.40548,1.93466 1.73615,3.15817l0.37721,-0.39983l-0.17242,-0.07327l0.59079,-1.1594c-1.07463,-1.33044 -2.86529,-2.24292 -4.06404,-3.06649c-2.49088,-1.71129 -5.22048,-2.88472 -7.69275,-4.61204c0.72192,-1.98467 0.98627,-4.1597 2.16576,-5.954c0.18469,-0.28096 0.41042,-0.51467 0.66179,-0.71907c1.12986,-0.00675 1.71222,-0.50829 2.03332,-1.20916c0.19258,-0.11234 0.38008,-0.23085 0.55782,-0.36101c0.01075,-0.00787 0.02149,-0.01612 0.03221,-0.02473c-0.12358,-0.09797 -0.24156,-0.2067 -0.3568,-0.32075c0.08482,-0.36377 0.13382,-0.74983 0.17423,-1.13008c0.16826,0.00811 0.33508,-0.00414 0.4995,-0.05818c1.00345,-0.32982 1.95845,-0.88574 2.80998,-1.5466c0.3575,-0.27745 0.84248,-0.90164 1.33579,-1.64411c0.11088,-0.02605 0.22015,-0.05732 0.32749,-0.09466c1.01419,1.2241 1.90063,2.56478 2.2242,4.21296c0.38207,1.94612 -2.61102,4.54364 -4.05058,5.63309c0.57137,0.31652 1.13557,0.6453 1.69717,0.97734c1.73156,1.02382 3.55542,2.10539 5.09748,3.48617c1.18609,-2.01562 2.63405,-3.98125 4.33835,-5.20913c0.86942,-0.62639 1.87466,-0.8876 2.82399,-1.27193c0.33476,-0.13553 0.66965,-0.27556 1.00507,-0.41298c-0.39652,-0.26254 -0.79388,-0.52421 -1.04967,-0.93215c-0.40906,-0.65237 -0.44803,-1.55038 -0.67813,-2.3224c-0.57417,-1.92639 -1.1174,-4.15451 -0.17153,-6.46121c0.51093,-1.246 1.58083,-2.24457 2.53321,-3.2042c0.56477,-0.56907 1.12744,-1.16113 1.69621,-1.75305c-3.03126,-0.55018 -6.36635,-1.99735 -7.82939,-4.65022c-0.51382,-0.93169 -0.84581,-1.99634 -1.15241,-3.05933c-0.72994,-2.53064 -0.77769,-5.44047 0.07709,-8.27783c0.10585,-0.35136 0.74229,-1.48672 0.76473,-2.04793c0.00822,-0.20537 -0.06954,-0.39317 -0.10486,-0.58758c-0.5444,-0.52972 -1.65056,-2.01145 -0.08184,-4.27909c1.99507,-2.88393 4.32639,-1.27115 4.32639,-1.27115l1.4765,1.346c0.21137,1.12208 0.62109,2.77645 0.49941,4.036c-0.0784,0.81153 -0.29095,1.63458 -0.52834,2.44376c-0.31529,1.07474 -0.70849,1.23081 -0.77945,2.19707c-0.18532,2.52347 0.20353,5.28799 2.25745,6.37502c0.18052,0.09554 2.30329,1.07262 2.78811,1.19713c1.60031,0.41099 3.41922,0.13146 5.10028,0.21089c0,0 0.41232,0.02116 0.89185,0.21782c0.13631,-0.08098 0.2728,-0.16136 0.40942,-0.24121c0.28715,-0.16783 0.62046,-0.10921 0.91082,-0.26761c0.59312,-0.32357 1.11451,-0.83125 1.70597,-1.15995c1.5632,-0.86871 2.71579,-0.93952 2.32886,-3.29848c-0.0489,-0.29809 -0.27771,-0.49368 -0.41656,-0.74052c-0.42345,-1.34862 -0.84314,-2.7187 -1.51492,-3.90517l-0.4809,-0.74018c0,0 -1.58078,-2.44199 1.04913,-4.66792c2.62991,-2.22593 4.2107,0.21607 4.2107,0.21607l0.5715,0.88556c0.80523,1.47333 1.39555,3.10686 1.92543,4.75876c0.23555,0.61064 0.67544,1.1335 0.70663,1.8319c0.07629,1.70853 0.07956,3.49273 -0.39057,5.24596c-0.27911,1.04087 -1.14407,1.90095 -1.7713,2.81617c-0.40117,0.58536 -0.76225,1.24929 -1.3082,1.67723c-0.8881,0.69613 -1.93009,1.04118 -2.8798,1.6055c-0.77342,0.45956 -1.50137,1.03901 -2.28652,1.46431c-0.29066,0.15745 -0.62259,0.10283 -0.91082,0.26761c-0.89472,0.5115 -1.76629,1.09804 -2.60233,1.74083c-1.2516,0.96229 -2.39809,2.10026 -3.53567,3.22988c-0.66703,0.66237 -1.18173,1.77058 -1.94526,2.13952c-0.03033,0.16199 -0.15762,0.33432 -0.12689,0.48257c0.09371,0.45208 0.38943,0.79638 0.50074,1.24046c0.0664,0.26489 -0.07834,0.61295 0.02505,0.85716c0.0453,0.10701 0.23118,0.01405 0.34676,0.02107c0,0 2.20993,1.5288 0.48525,4.2711c0.00427,-0.00048 0.00854,-0.00096 0.01281,-0.00145c1.88411,-0.21438 2.39701,-0.4735 4.604,-0.57794c0.22364,-0.01059 0.44541,-0.01027 0.66592,-0.00303c0.00436,-0.00421 0.00873,-0.00842 0.01309,-0.01262c0.08738,-0.50937 0.232,-1.03031 0.30511,-1.53595c0.08362,-0.57843 0.66286,-4.30721 0.75931,-4.61947c0.11137,-0.36055 0.59289,-0.59469 0.65132,-0.95859c0.0832,-0.51817 -0.17723,-0.96152 -0.26584,-1.44228c0.8155,-1.24893 1.37196,-2.73662 2.4465,-3.74679c1.93658,-1.82057 4.11028,-0.69183 5.87646,-0.50384c0.73167,0.07788 2.5484,-0.0286 3.4051,-0.29374c1.80554,-0.5588 3.26109,-1.54174 5.10438,-1.32385c2.22224,0.26269 4.43858,1.28944 3.55709,4.9074c-0.37759,1.54975 -2.42864,2.16483 -3.70387,3.14646c-0.78922,0.60752 -1.49895,2.14896 -2.08578,2.83251c-1.87995,2.18977 -4.41742,3.8711 -6.98945,4.10611c-0.48055,0.04391 -0.92023,-0.10849 -1.3705,-0.20999c-0.40075,0.54436 -0.86449,1.01951 -1.34886,1.46984c0.0598,0.53936 0.04014,1.07043 -0.23211,1.58225c-1.13185,2.12778 -2.47136,2.86997 -3.89177,3.1144c-0.40069,0.6795 -0.76277,1.31282 -1.75031,2.49757c-1.07288,1.28713 -2.11925,1.99318 -3.47134,2.80864c-0.28204,0.1701 -0.61205,0.20688 -0.87559,0.41577c-0.04682,0.03712 -0.09356,0.07452 -0.14022,0.11219c0.45044,0.35947 0.98881,0.97143 1.53688,1.66958c0.33063,0.10754 0.64441,0.24378 0.92521,0.41337c0.55644,-1.08703 1.19872,-2.15296 2.00786,-3.25934c0.79993,-1.09378 1.38399,-2.44733 2.43059,-3.25778c3.05349,-2.36453 6.08017,-2.5475 9.19401,-2.39221c1.4608,0.07285 2.81393,0.58919 4.29402,0.5635c1.03016,-0.01788 2.87661,-1.55527 3.57866,-1.9687c1.49624,-0.88112 1.69213,-0.83299 3.26429,-1.30983c0.6302,-0.16884 1.23001,-0.43955 1.84035,-0.69463c0.79244,-0.69592 2.10451,-1.41611 3.54496,-0.41962c2.33132,1.61278 0.33625,4.49671 0.33625,4.49671l-2.30356,1.87045c-1.00281,0.26866 -1.92867,0.7953 -2.94246,1.1064c-2.8269,0.78865 -5.00631,3.25385 -8.00858,3.50374c-1.00612,0.08374 -1.94799,-0.17972 -2.91819,-0.28385c-1.46774,-0.15753 -2.95581,-0.25095 -4.46173,-0.23668c-0.78195,0.00741 -1.38405,-0.09022 -2.25645,0.64871c-0.46308,0.39223 -0.60087,1.0768 -0.92952,1.59936c-0.44781,0.71204 -1.04531,1.3307 -1.45376,2.06412c-0.7394,1.32767 -1.12149,2.79024 -1.63641,4.19916c1.1526,1.93555 2.1241,3.98784 2.41517,6.34449c0.52447,-1.38813 0.94091,-2.80782 1.5012,-4.1873c0.63304,-1.55861 1.36296,-3.08764 2.06708,-4.62361c0.58475,-1.27559 1.99303,-4.54896 3.55631,-4.68839c3.12182,-0.27845 6.0096,0.90265 8.63212,2.17589c1.27624,0.61962 2.35509,1.59339 3.69223,2.0941c0.22451,0.08407 0.52428,0.16806 0.86504,0.24878c1.38254,-0.59821 2.43891,0.16725 2.80513,0.4962c0.3883,0.05177 0.71406,0.08791 0.92154,0.1032c1.17253,0.08644 2.37555,0.03345 3.56448,0.04416c0.58964,0.00531 1.18081,0.25532 1.77118,0.00388c0.86488,-0.36835 0.47943,-1.40958 0.9341,-1.94203c0.92034,-1.07778 1.78168,-2.51671 3.01304,-2.96037c1.07767,-0.38828 2.01803,0.44778 2.96904,0.80503c0.37634,0.14137 0.65441,0.45271 0.98161,0.67906c0.3272,0.22635 0.6544,0.45272 0.98161,0.67907l1.09955,2.45842c0,0 0.23776,3.17965 -2.82145,4.07849c-1.37673,0.4045 -2.18204,-0.01698 -2.65143,-0.60295c-0.71539,0.96676 -1.47621,1.88605 -2.43644,2.46693c-0.87189,0.52744 -1.81671,0.70277 -2.76631,0.79064c0.41613,0.61532 0.81948,1.24218 1.22449,1.86664c0.59641,0.91954 1.06747,2.18107 1.92454,2.91934c0.62524,0.53857 1.33927,0.96016 2.03493,1.40151c1.44403,0.91615 3.25667,-0.47132 4.94738,-0.44367c2.55963,0.04185 3.51428,1.40413 4.86731,3.28378l0.24526,1.76282c0,0 0.23777,3.17965 -2.82145,4.07849c-3.05921,0.89884 -3.29699,-2.28082 -3.29699,-2.28082l0.10368,-0.13053c-0.0348,-0.00741 -0.09514,-0.01704 -0.14606,-0.03009c-0.08386,0.05335 -0.1767,0.08944 -0.2658,0.10956c-0.76187,0.17198 -1.52445,0.30116 -2.28467,0.4085c-0.79536,0.11229 -1.62531,0.36348 -2.37929,0.24997c-2.49647,-0.37583 -5.36636,-2.50173 -6.79477,-4.52053c-1.28168,-1.81141 -2.26661,-3.88626 -3.63119,-5.62056c-0.90422,-1.14922 -1.89496,-2.21174 -2.87727,-3.28272c-1.18838,-0.23609 -2.33145,-0.55763 -3.38563,-0.96068c-1.30104,-0.49745 -2.35551,-1.44339 -3.59904,-2.05219c-1.17681,-0.57613 -2.61036,-0.84632 -3.63365,-1.62841c-0.62934,1.38635 -1.29518,2.76162 -1.86568,4.16643c-0.78871,1.94213 -1.32471,3.95584 -2.20408,5.86904c-0.86523,1.88245 -2.00655,3.64971 -3.00982,5.47456c0,0 -0.50216,0.90948 -1.37369,1.53588c0.00004,0.00013 0.00007,0.00026 0.0001,0.00039c0.25563,-0.11803 0.51399,-0.22259 0.77203,-0.31421c1.16104,-0.41226 2.29683,-0.46173 3.41111,-0.38401c0.25151,-0.18041 0.43977,-0.31126 0.53468,-0.37395c2.6288,-1.73651 5.48264,-2.86075 8.19295,-4.38697c0.78859,-0.44407 1.48376,-1.21472 2.31061,-1.47845c1.26004,-0.40189 2.82392,-1.1318 3.78623,-0.46618c2.12324,1.46864 1.5702,5.35022 3.80858,6.64244l0.98161,0.67907c0,0 2.33132,1.61278 0.33625,4.4967c-1.99507,2.88393 -4.32639,1.27115 -4.32639,1.27115l-0.98161,-0.67907c-0.28777,-0.21349 -0.54328,-0.39465 -0.77376,-0.56181c0.11323,0.37775 0.21905,0.75926 0.31353,1.14654c0.04651,0.19063 -0.08648,0.4458 -0.0137,0.62195c0.2445,0.5918 1.87741,1.99912 2.01893,2.11463c1.09534,0.89399 2.37754,1.63651 3.54002,2.4407c0.67343,0.46586 1.74025,0.59517 2.03082,1.40216c1.54249,-0.5981 3.0697,-1.10937 4.58371,-1.74306c0.63056,-0.75322 1.27981,-1.10176 1.86705,-1.23049c0.80259,-0.60179 1.97848,-1.0672 3.25523,-0.18397c1.02501,0.7091 1.21369,1.66392 1.10331,2.51131c0.45806,0.72403 0.44058,1.30376 0.95423,2.49814c0.27048,0.62894 0.71902,1.14012 0.9327,1.80307c0.13866,0.43017 -0.01857,0.98249 0.10618,1.42001c0.22836,0.80088 0.6816,1.18431 1.28201,1.43607c0.87989,-0.09891 2.61348,0.01248 2.7901,2.37449c0.23777,3.17965 -2.82146,4.07849 -2.82146,4.07849l-2.06324,0.14313c-2.49493,-0.8308 -4.17378,-2.29746 -5.08528,-4.99258c-0.14441,-0.42697 0.02845,-0.98766 -0.10618,-1.42001c-0.13445,-0.43178 -0.50124,-0.70447 -0.68129,-1.10888c-0.15783,-0.35452 -0.18103,-0.82082 -0.28203,-1.2159c-2.28422,1.02563 -4.72485,1.91652 -6.85989,2.31207c-0.18903,0.03502 -0.37708,0.049 -0.56376,0.04492c-0.55622,1.39961 -1.21156,3.0476 -1.23765,3.10836c-0.29823,0.69471 -1.49274,2.59817 -1.18641,3.45749c0.38405,1.07732 0.98014,2.37168 1.7385,3.13212c0.31549,0.31635 0.78555,0.43224 1.10843,0.74011c1.03823,0.98998 2.05918,2.00781 2.96247,3.14159c0.27441,0.34444 0.27939,0.9033 0.54282,1.25816c0.70427,0.94874 1.75349,1.56848 2.35995,2.6012c0.96934,1.65063 1.21693,3.29684 1.30059,5.3503l-0.57404,1.84278c0,0 -1.15546,3.24595 -3.99804,2.6279c-2.84258,-0.61804 -1.68712,-3.86398 -1.68712,-3.86398l0.09866,-0.16083c-0.02006,-0.03116 -0.00703,-0.27837 -0.15416,-0.67989c-0.2896,-0.79035 -0.31159,-0.8656 -0.8435,-1.43357c-0.55532,-0.59297 -1.21013,-1.08272 -1.70123,-1.74017c-0.27763,-0.37167 -0.29765,-0.94739 -0.58038,-1.31426c-0.61526,-0.79835 -1.34953,-1.47997 -2.08715,-2.14708c-0.40947,-0.37034 -0.96791,-0.55093 -1.3456,-0.95755c-0.64675,-0.69629 -1.19261,-1.50016 -1.70317,-2.32478c-0.96888,-1.56489 -1.71769,-3.6278 -1.58267,-5.7176c0.13029,-2.01658 1.05307,-3.70977 1.86053,-5.58772c0.58671,-1.36455 1.10312,-2.74969 1.64067,-4.12865c-2.6444,-1.79238 -5.3671,-3.50927 -6.7782,-6.67758c-0.16385,-0.36789 -0.05464,-0.86761 -0.15528,-1.2714c-0.13858,-0.55603 -0.47886,-1.01248 -0.55867,-1.59306c-0.00468,-0.03404 -0.00651,-0.06852 -0.00598,-0.10339c-0.32893,0.0348 -0.65649,0.05362 -0.98073,0.05675c-0.77178,0.00744 -1.52645,-0.07159 -2.28888,-0.111c-1.18876,-0.06144 -2.35881,-0.20088 -3.5324,-0.32464c-0.6028,0.54349 -1.19818,1.11059 -1.80347,1.64479c0.07015,0.30913 0.13618,0.6207 0.28572,0.87721c0.34462,0.59113 0.79911,1.10129 1.30931,1.52547c0.91628,0.76178 1.96686,1.34004 2.94775,2.01376c0.8367,0.57469 1.53329,1.37236 2.46795,1.78424c1.05721,0.46588 2.05457,-1.17128 3.19496,0.34861c2.19033,2.91922 -0.23713,7.2674 -0.55801,10.72541c-0.05649,0.60868 0.1492,1.16112 0.14671,1.76133c-0.00297,0.71514 -0.36326,1.48899 -0.28697,2.18281c0.04376,0.39799 0.29411,0.71192 0.31619,1.11644c0.03675,0.67318 0.16787,1.55404 -0.33706,2.0864l0.15553,-0.10013c0,0 1.58078,2.44199 -1.04913,4.66792c-2.62991,2.22593 -4.21071,-0.21607 -4.21071,-0.21607l-0.89687,-1.72586c0.03915,-0.96653 0.32222,-1.98324 0.21981,-2.91458c-0.04376,-0.39799 -0.29411,-0.71192 -0.31619,-1.11644c-0.04985,-0.91318 0.2757,-1.8942 0.26989,-2.81818c-0.00431,-0.68551 -0.20419,-1.32833 -0.13645,-2.02537c0.13261,-1.36441 0.4601,-2.74097 0.73285,-4.11114c0.08965,-0.45036 0.09772,-0.93855 0.14751,-1.4111c-1.46024,-0.5451 -2.7532,-1.70262 -3.85014,-2.46642c-2.79615,-1.94697 -3.87151,-2.25342 -5.7006,-5.14477c-0.34514,-0.54559 -0.37352,-1.30886 -0.66686,-1.89453c-0.06578,-0.13134 -0.12921,-0.25449 -0.19077,-0.37038c-0.43873,0.27584 -0.95999,0.58756 -1.61401,0.97895c-0.47152,0.28217 -0.94474,0.54459 -1.41991,0.78786c-0.08414,0.3513 -0.11204,0.71856 -0.19638,1.07297c0.75949,0.31709 1.64526,0.48244 2.15166,1.12816c0.98906,1.26118 1.86218,2.7508 2.11443,4.48129c0.18002,1.23492 -0.53803,2.62685 -0.88775,3.93395c-0.18883,0.70577 -1.49982,4.69799 -1.89259,5.58385c-0.35652,0.80411 -0.88851,1.53909 -1.24626,2.34279c-0.55093,1.23771 -0.91412,2.53194 -1.47326,3.76684c-0.17332,0.38278 -0.50547,0.68462 -0.70977,1.05457c-0.53376,0.9665 -0.99877,1.97402 -1.6199,2.89036c-0.03036,0.04225 -0.50854,0.79941 -1.02443,1.45191c0.41623,0.26644 0.81231,0.58003 1.25708,0.78877c0.66459,0.31191 1.50162,0.25873 2.15607,0.58899c0.57306,0.2892 1.04228,0.74238 1.56341,1.11357l1.41682,2.58439c0,0 1.35693,2.61841 -1.39518,4.63386c-2.7521,2.01544 -4.10904,-0.60297 -4.10904,-0.60297l-0.74177,-1.57763c-0.0164,0.06576 -0.39864,0.00617 -0.54003,-0.03208c-0.5112,-0.13831 -1.03449,-0.25864 -1.50555,-0.48252c-1.1722,-0.55712 -2.47059,-0.96252 -3.41228,-1.85478c-0.98667,-0.93487 -2.30769,-1.95246 -2.25032,-3.51053c0.14643,-3.97637 2.46537,-4.02888 3.92258,-6.32653c1.44898,-2.01555 2.07107,-4.16822 3.05414,-6.39635c0.59886,-1.3573 1.37335,-2.66625 1.83612,-4.05852c0.30987,-0.93227 0.56847,-1.87427 0.9005,-2.80204c0.16222,-0.45328 0.58819,-0.8839 0.57994,-1.33465c-0.02359,-1.28817 -2.14318,-1.49999 -2.61304,-1.89289c-0.64229,-0.53709 -1.19075,-1.2316 -1.52438,-2.04913c-0.28678,-0.70273 -0.32467,-1.51008 -0.23815,-2.34027c-0.26295,0.04563 -0.52674,0.08666 -0.79142,0.1232c-0.44158,0.06096 -0.84302,-0.14284 -1.28446,-0.084c-0.30687,0.0409 -0.61584,0.10201 -0.92627,0.17858c-0.95954,0.58205 -1.92971,1.10375 -2.9436,1.38553c-0.36355,0.10103 -0.67016,0.09676 -0.93866,0.02317c-0.4954,0.19624 -0.98782,0.38201 -1.4747,0.5383c-0.4991,0.8914 -0.99433,1.78463 -1.47047,2.68678c-0.40785,0.77275 -0.90849,1.53742 -1.11953,2.36114c-0.55302,2.15852 -0.40734,3.81689 -0.51322,5.84696c-0.08664,1.66125 -0.26567,3.33703 -0.30789,4.99081c-0.01978,0.7748 0.2459,1.49726 0.12219,2.2832c-0.20657,1.31221 -0.53698,2.65412 -1.09797,3.9156c-0.96331,2.16616 -1.82549,2.44676 -3.57122,3.40737c-3.85146,2.11929 -4.07394,2.18403 -7.91074,4.03136c-0.76601,0.36882 -1.20481,0.7926 -1.88952,1.35494c-0.22762,0.18695 -0.54278,0.29382 -0.68505,0.55729c-0.13121,0.24299 0.02767,0.5136 -0.03395,0.77418c-0.01286,0.05439 -0.3463,0.99465 -0.59158,1.68404c-0.03638,0.84064 -0.37164,3.02362 -2.82183,3.74352c-3.05921,0.89884 -3.29698,-2.28081 -3.29698,-2.28081l0.18125,-1.99022c0.37305,-1.04798 0.92397,-3.52385 1.35898,-4.26276c1.3617,-2.31303 3.94532,-4.38735 6.17967,-5.49725c0.19446,-0.0966 0.38929,-0.19182 0.58436,-0.28613c-0.68324,-0.40297 -1.36355,-0.81055 -2.03538,-1.2314c-0.78114,-0.48933 -1.55139,-0.99884 -2.27407,-1.57153c-0.07873,-0.0624 0.00819,-0.30335 -0.09746,-0.30779c-0.887,-0.03732 -2.16075,1.29139 -2.73809,1.76898c-1.01964,0.84348 -2.10012,1.59158 -3.08905,2.48113c-0.59764,0.53758 -1.0518,1.25213 -1.65311,1.78447c-0.69759,0.61757 -1.52049,1.02559 -2.22555,1.63214l-0.81478,0.68962c-1.10821,0.97577 -2.58778,1.21876 -3.6365,0.49327c-1.28755,-0.89071 -1.4381,-2.90396 -0.33625,-4.49671l0.63002,-0.91071c0.61545,-1.82908 2.24008,-3.23809 3.36011,-4.85714l0.42001,-0.60715c0,0 1.95323,-2.82344 4.25278,-1.32065c2.49138,-1.9537 5.20421,-3.48556 8.05224,-3.16764c0.73755,0.08234 1.26322,0.66939 1.86575,1.05033c2.22787,1.40854 4.43658,2.84755 6.70347,4.19509c0,0 0.40342,0.23995 0.75673,0.72444c0.01852,-0.00929 0.03704,-0.01856 0.05557,-0.0278c0.00416,-0.00207 0.00853,-0.00421 0.01307,-0.00638c0.10231,-0.29981 0.26527,-0.60414 0.28711,-0.90303c0.03816,-0.52215 -0.17262,-0.98553 -0.16098,-1.5035c0.03985,-1.77275 0.22416,-3.56924 0.31504,-5.3507c0.143,-2.80308 -0.05327,-4.36416 0.80815,-7.60218c0.20825,-0.78279 0.78616,-2.03731 1.47185,-3.38008c-0.60893,0.26175 -1.22058,0.50669 -1.83778,0.71776c-3.29432,1.12659 -7.15001,2.6448 -8.81252,-1.41634c-0.30104,0.04862 -0.60188,0.09497 -0.90179,0.1462c-1.57458,0.26896 -3.14852,0.49792 -4.71712,0.67158c-0.00157,0.00017 -0.00295,0.00022 -0.00414,0.00013c-0.37826,0.39187 -0.78718,0.75734 -1.09929,1.20614c-1.71334,2.4637 -1.62004,3.35746 -2.75912,6.36402c-0.2656,0.70106 -0.43646,1.46889 -0.89588,2.07522c-2.15053,2.8382 -5.02729,2.9512 -7.92915,4.20998c-0.80389,0.34871 -1.5894,0.78874 -2.35518,1.26481c-0.39955,0.24839 -0.70375,0.71824 -1.12364,0.89795c-1.80998,0.77464 -3.64705,1.57576 -5.49434,1.93444c-3.67944,0.71443 -7.18146,-1.43386 -10.18714,-2.64819c-0.6377,-0.27528 -1.29714,-0.51049 -1.9131,-0.82586c-0.46734,-0.23927 -0.78587,-0.71695 -1.27231,-0.92069c-0.5846,-0.24486 -1.30982,-0.16265 -1.89243,-0.41145c-1.90254,-0.81248 -3.61339,-2.44464 -5.30724,-3.61642l-0.7362,-0.5093c0,0 -2.33132,-1.61278 -0.33625,-4.4967c1.99507,-2.88393 4.32638,-1.27115 4.32638,-1.27115c0.89981,0.62247 2.53582,1.75425 3.43563,2.37672c0.61181,0.42324 1.11809,1.01723 1.80942,1.30679c0.5846,0.24486 1.30982,0.16266 1.89243,0.41146c1.12018,0.47837 1.97618,1.24287 3.12426,1.72069c0.07517,0.03036 0.15034,0.0607 0.22553,0.091c-0.2267,-1.06475 -0.23737,-2.23488 -0.61587,-3.2198c-0.45229,-1.17688 -1.22365,-2.13316 -1.8614,-3.17892c-0.124,-0.20333 -0.30666,-0.35662 -0.42317,-0.56557c-1.93219,0.2162 -3.89456,0.2639 -5.69718,-0.09822l-1.33041,-0.70154c0,0 -2.33132,-1.61278 -0.33625,-4.49671c1.99507,-2.88393 4.32639,-1.27115 4.32639,-1.27115l-0.34881,-0.02248c1.98206,0.49673 4.34127,-0.4145 6.31251,0.22249c1.11251,0.3595 2.09414,1.42443 2.70655,2.40533c0.86131,1.37955 1.80433,2.71402 2.41899,4.27072c0.48116,1.21858 0.5274,2.6632 0.83658,3.97437c0.35604,1.50987 0.72119,3.02815 0.85155,4.62395c0,0 0.01001,0.13389 -0.0005,0.35449c0.11316,-0.00993 0.22709,-0.02536 0.34177,-0.04686c1.04915,-0.19666 2.09813,-0.62613 3.12304,-1.0812c0.24707,-0.1097 0.39026,-0.44021 0.62721,-0.58394c1.13331,-0.68745 2.27719,-1.37028 3.45896,-1.89467c1.52684,-0.6775 3.07671,-1.26212 4.63279,-1.75536c1.54586,-4.68619 3.31365,-8.75516 7.45427,-11.86381c0.59148,-0.44406 1.31004,-0.56533 1.97412,-0.70144c1.03562,-0.21227 2.06793,-0.33073 3.10075,-0.45825c-0.12898,-0.46119 -0.2349,-0.99462 -0.32012,-1.62274c-0.43692,-3.22044 1.00308,-3.62305 1.21592,-6.04717c0.03897,-0.44384 -0.14714,-0.8632 -0.02467,-1.30712c0.21832,-0.79135 0.48892,-1.59717 0.87797,-2.34383c-0.14724,-0.98292 -0.47539,-1.82822 -1.16164,-2.03437c-0.95859,-0.28795 -2.03818,-0.26889 -3.09509,-0.18689c-0.18243,0.01416 -0.25688,0.3486 -0.42627,0.46008c-1.53794,1.01216 -3.09158,2.03719 -4.72073,2.76851c-1.71053,1.67561 -4.00191,4.22807 -6.28278,4.46051c-1.42698,0.14543 -2.59256,-0.09371 -3.634,-0.53443c-0.64657,1.13061 -1.18685,2.31304 -1.42947,3.47801c-0.18659,0.89592 -0.46859,1.78852 -0.62469,2.68474c-0.06263,0.35957 0.11347,0.68418 0.05825,1.04358c-0.05631,0.36644 -0.25642,0.72032 -0.38462,1.08048l0.098,0.1921c0,0 0.23777,3.17965 -2.82145,4.07849c-3.05921,0.89884 -3.29698,-2.28082 -3.29698,-2.28082l-0.04358,-1.70125c0.1282,-0.36016 0.32741,-0.71401 0.38461,-1.08048c0.04624,-0.29628 -0.13496,-0.55337 -0.08333,-0.84977c0.20517,-1.17772 0.49577,-2.35471 0.7722,-3.53052c0.50034,-2.1282 1.46119,-4.18019 2.60027,-6.1286c-0.54109,-0.32869 -1.09521,-0.6367 -1.6551,-0.93503c-0.39151,0.752 -1.09021,1.49374 -2.33319,1.85894c-2.45569,0.72151 -3.09335,-1.18497 -3.24938,-1.96528c-0.507,-0.52577 -0.67811,-1.13518 -0.67615,-1.72121c-0.00453,-0.0096 -0.00894,-0.01923 -0.01324,-0.02891c-0.81608,-1.83745 -1.0952,-3.59473 -3.40794,-4.04182c-0.60069,-0.11612 -1.30401,0.23902 -1.92573,0.54543c-2.80626,1.38305 -5.18983,3.70168 -7.62327,5.8017zM387.87398,98.20535c-0.00351,0.00157 -0.00702,0.00313 -0.01053,0.0047c0.00384,0.00149 0.00768,0.00298 0.01153,0.00447c-0.00034,-0.00306 -0.00067,-0.00612 -0.001,-0.00917z" fill="#ff0000" stroke="none" stroke-width="0.5"/><path d="M309.28362,60.13339c15.36522,-22.21089 45.82668,-27.76041 68.03757,-12.39519c22.21089,15.36522 27.76041,45.82668 12.39519,68.03757c-15.36522,22.21089 -45.82668,27.7604 -68.03757,12.39518c-22.21089,-15.36522 -27.76041,-45.82668 -12.39519,-68.03757z" fill="url(#color-1)" stroke="none" stroke-width="0.5"/><path d="M309.28362,60.13339c15.36522,-22.21089 45.82668,-27.76041 68.03757,-12.39519c22.21089,15.36522 27.76041,45.82668 12.39519,68.03757c-15.36522,22.21089 -45.82668,27.7604 -68.03757,12.39518c-22.21089,-15.36522 -27.76041,-45.82668 -12.39519,-68.03757z" fill="url(#color-2)" stroke="none" stroke-width="0.5"/><path d="M309.28362,60.13339c15.36522,-22.21089 45.82668,-27.76041 68.03757,-12.39519c22.21089,15.36522 27.76041,45.82668 12.39519,68.03757c-15.36522,22.21089 -45.82668,27.7604 -68.03757,12.39518c-22.21089,-15.36522 -27.76041,-45.82668 -12.39519,-68.03757z" fill="url(#color-3)" stroke="none" stroke-width="0.5"/><path d="M309.28362,60.13339c15.36522,-22.21089 45.82668,-27.76041 68.03757,-12.39519c22.21089,15.36522 27.76041,45.82668 12.39519,68.03757c-15.36522,22.21089 -45.82668,27.7604 -68.03757,12.39518c-22.21089,-15.36522 -27.76041,-45.82668 -12.39519,-68.03757z" fill="url(#color-4)" stroke="none" stroke-width="0.5"/><path d="M309.28362,60.13339c15.36522,-22.21089 45.82668,-27.76041 68.03757,-12.39519c22.21089,15.36522 27.76041,45.82668 12.39519,68.03757c-15.36522,22.21089 -45.82668,27.7604 -68.03757,12.39518c-22.21089,-15.36522 -27.76041,-45.82668 -12.39519,-68.03757z" fill="url(#color-5)" stroke="none" stroke-width="0.5"/><path d="M309.28362,60.13339c15.36522,-22.21089 45.82668,-27.76041 68.03757,-12.39519c22.21089,15.36522 27.76041,45.82668 12.39519,68.03757c-15.36522,22.21089 -45.82668,27.7604 -68.03757,12.39518c-22.21089,-15.36522 -27.76041,-45.82668 -12.39519,-68.03757z" fill="url(#color-6)" stroke="none" stroke-width="0.5"/><path d="M309.28362,60.13339c15.36522,-22.21089 45.82668,-27.76041 68.03757,-12.39519c22.21089,15.36522 27.76041,45.82668 12.39519,68.03757c-15.36522,22.21089 -45.82668,27.7604 -68.03757,12.39518c-22.21089,-15.36522 -27.76041,-45.82668 -12.39519,-68.03757z" fill="url(#color-7)" stroke="none" stroke-width="0.5"/><path d="M309.28362,60.13339c15.36522,-22.21089 45.82668,-27.76041 68.03757,-12.39519c22.21089,15.36522 27.76041,45.82668 12.39519,68.03757c-15.36522,22.21089 -45.82668,27.7604 -68.03757,12.39518c-22.21089,-15.36522 -27.76041,-45.82668 -12.39519,-68.03757z" fill="url(#color-8)" stroke="none" stroke-width="0.5"/><path d="M352.12104,84.05396c0.25481,0.00353 0.4608,0.04771 0.4601,0.09868c-0.0007,0.05096 -0.20784,0.08941 -0.46265,0.08588c-0.25481,-0.00353 -0.4608,-0.04771 -0.4601,-0.09868c0.0007,-0.05096 0.20784,-0.08941 0.46265,-0.08588z" fill="#5c0000" stroke="none" stroke-width="0"/><path d="M360.10538,125.14235c-0.92274,-0.0128 -0.90994,-0.93554 -0.90994,-0.93554l0.00512,-0.3691c0.01096,-0.56875 -0.04282,-1.14122 -0.14908,-1.70007c-0.01234,-0.11201 -0.02426,-0.22299 -0.03561,-0.33305c-0.30489,0.03075 -0.56755,-0.10517 -0.56755,-0.10517l-0.60396,-0.36585c-0.94423,-1.00976 -1.50002,-2.5636 -1.61126,-4.14167c-0.06397,0.1548 -0.13899,0.3046 -0.22661,0.44855c-0.1739,0.2857 -0.61165,0.33238 -0.79509,0.61204c-0.55025,0.83889 -0.95484,2.29153 -1.16535,3.29512l-0.82021,1.01396c0,0 -0.66153,0.64342 -1.30496,-0.01811c-0.64342,-0.66153 0.0181,-1.30495 0.0181,-1.30495l0.30244,-0.07795c0.24448,-1.11935 0.65849,-2.46463 1.21878,-3.52917l-0.49714,0.42726c0,0 -0.77486,0.50119 -1.27605,-0.27368c-0.50119,-0.77487 0.27367,-1.27606 0.27367,-1.27606l0.20797,0.05886c0.46679,-1.06033 -0.0143,-2.11548 0.41701,-3.14256c0.54583,-1.2998 1.19286,-0.73779 1.87108,-1.81987c0.10161,-0.16212 -0.05847,-0.37931 -0.06234,-0.5706c-0.00259,-0.12761 0.0007,-0.45317 0.00752,-0.8444c-0.21582,0.07946 -0.43478,0.12385 -0.66066,0.09044c-1.79552,-0.26562 -1.39504,-1.27758 -1.52692,-2.40765c-0.13344,-1.14342 -0.32267,-2.24567 -0.47792,-3.34034c-0.88714,0.17094 -1.77384,0.33973 -2.65631,0.46592c-0.12559,0.57455 -0.19903,0.96149 -0.1239,1.38729c0.04331,0.07852 0.08002,0.16013 0.10673,0.24648c0.03153,0.10192 0.05426,0.20892 0.07043,0.31984c0.05514,0.12746 0.12269,0.26365 0.20426,0.41241c0.25702,0.46869 1.03318,1.19083 1.16099,1.66286c0.03692,0.13637 0.04156,1.39448 0.00727,2.25567c0.05435,0.10001 0.10064,0.20402 0.13584,0.31355c0.67651,2.10531 0.15131,4.24908 -0.65231,6.18002l0.0682,-0.15724c0,0 -0.01281,0.92274 -0.93554,0.90994c-0.92274,-0.0128 -0.90994,-0.93555 -0.90994,-0.93555l0.07331,-0.52633c0.45575,-1.09506 0.84283,-2.2551 0.83089,-3.44773c-0.22842,0.33079 -0.45054,0.66628 -0.69306,0.98615c-0.04766,0.25985 -0.2291,0.77266 -0.91861,0.76309c-0.92274,-0.0128 -0.90994,-0.93554 -0.90994,-0.93554l0.21276,-0.75818c0.47598,-0.57615 0.83397,-1.24343 1.31056,-1.81909c0.10395,-0.12555 0.27007,-0.19779 0.40892,-0.29007c-0.33472,-0.45533 -0.77844,-0.95272 -0.87309,-1.1717c-0.31182,-0.72146 -0.35853,-1.5374 -0.41265,-2.32149c-0.0171,-0.24778 0.08594,-0.50564 0.07824,-0.74987c-0.03859,-0.11504 -0.07157,-0.22743 -0.09926,-0.33823c-0.16873,-0.30974 -0.487,-0.54484 -0.62433,-0.87362c-0.11277,-0.26998 -0.17661,-0.57872 -0.21086,-0.90137c-0.28138,0.00074 -0.56141,-0.00447 -0.84033,-0.01455c0.20904,1.24768 0.43521,2.61852 0.19016,3.83655c-0.42543,2.11466 -2.35112,4.01975 -2.29055,6.2957c0.04474,1.68112 0.77608,2.49307 1.74658,3.78043l0.81737,0.7036c0,0 0.6966,0.60528 0.09131,1.30188c-0.60528,0.6966 -1.30188,0.09132 -1.30188,0.09132l-0.95562,-0.83697c-1.18905,-1.57007 -2.01474,-2.63184 -2.2053,-4.52095c-0.31529,1.04008 -0.66409,2.04646 -0.47093,3.15873l0.00264,0.67204c0.00025,0.01112 0.00028,0.02228 0.00013,0.03348c-0.00162,0.11662 -0.0248,0.2279 -0.06571,0.33007c-0.09361,0.26345 -0.32043,0.58749 -0.86984,0.57986c-0.54941,-0.00763 -0.76716,-0.33783 -0.85342,-0.60377c-0.03805,-0.10327 -0.05814,-0.21514 -0.05653,-0.33177c0.00027,-0.01968 0.00116,-0.0392 0.00265,-0.05857l0.01549,-0.3432c-0.26664,-1.94092 0.59279,-3.36838 0.83691,-5.24435c0.12673,-0.97386 -0.09557,-2.01188 0.23431,-2.93689c0.00779,-0.02184 0.01625,-0.04332 0.02531,-0.06445l-0.26125,0.35303c0,0 -0.56389,0.73051 -1.2944,0.16662c-0.73052,-0.56388 -0.16663,-1.2944 -0.16663,-1.2944l0.45725,-0.55494c0.30041,-1.46403 -0.79428,-1.18399 -1.56045,-2.46779c-0.51057,-0.85553 -0.71104,-1.78108 -0.78548,-2.72689c-0.19607,-0.0004 -0.39218,0.00014 -0.5883,0.00122c-0.23896,1.31129 -0.34579,2.59948 -0.27139,3.95835c0.05647,1.03161 0.7831,1.82556 1.03885,2.80975c0.5817,2.23855 0.64878,4.76018 0.29651,7.02834l-0.45534,0.70034c0,0 -0.66153,0.64342 -1.30496,-0.01811c-0.54823,-0.56365 -0.14908,-1.11417 -0.01897,-1.26472c0.26936,-1.94272 0.1833,-4.07519 -0.30138,-5.97323c-0.28532,-1.11735 -1.00089,-1.92964 -1.09379,-3.12653c-0.10801,-1.39146 0.00519,-2.74745 0.23487,-4.10051c-0.72037,0.00153 -1.44025,-0.00705 -2.15879,-0.04578c0.06098,1.45463 0.22584,2.90966 0.42876,4.25231c0.05359,0.35463 0.18004,1.523 0.40229,1.88711c0.53225,0.87201 1.75153,0.92712 1.13567,2.52577c-0.19993,0.51899 -0.96009,0.56169 -1.44014,0.84253l-0.24872,0.346c0,0 -0.66153,0.64342 -1.30496,-0.01811c-0.00253,-0.0026 -0.00505,-0.00521 -0.00756,-0.00782c-0.26891,1.17801 -0.68203,2.32825 -1.11381,3.3741l0.0682,-0.15723c0,0 -0.01281,0.92274 -0.93554,0.90994c-0.92274,-0.0128 -0.90994,-0.93555 -0.90994,-0.93555l0.07331,-0.52634c0.22015,-0.52412 0.43992,-1.08768 0.63378,-1.67284c-0.22656,0.03866 -0.50061,-0.00859 -0.77145,-0.28705c-0.34226,-0.35189 -0.31527,-0.69864 -0.21503,-0.94617c-0.61423,-1.08888 -1.8477,-1.56072 -2.18607,-3.01632c-0.32585,-1.40173 0.06592,-2.77184 -0.1444,-4.14552c-0.11396,-0.74432 -0.52043,-1.41708 -0.69321,-2.14999c-0.45646,-1.93613 -1.01093,-4.10613 -1.259,-6.18791c-0.10055,-0.18046 -0.19129,-0.36389 -0.27096,-0.55037c-0.07969,0.02115 -0.16354,0.03188 -0.25004,0.03068c-0.01702,-0.00024 -0.03391,-0.00093 -0.05068,-0.00208c0.16885,0.59508 0.21352,1.23417 0.20963,1.85012c-0.01825,2.88813 -1.25815,6.42061 -0.02989,9.20735c0.28607,0.64908 0.87979,1.11294 1.3264,1.664l0.12645,0.12457c0,0 0.64343,0.66153 -0.0181,1.30495c-0.66153,0.64342 -1.30496,-0.01811 -1.30496,-0.01811l-0.23752,-0.24964c-0.17841,-0.22033 -1.40239,-1.67913 -1.57516,-2.06793c-1.62678,-3.66091 0.46089,-7.2676 -0.10311,-10.92336c-0.20747,-1.34477 -1.29577,-1.64983 -0.84716,-3.2469c0.09443,-0.33618 0.46625,-0.53225 0.61447,-0.84842c0.18721,-0.39937 0.17981,-0.87398 0.37774,-1.26815c0.02484,-0.04946 0.05106,-0.09905 0.07856,-0.14872c-0.02994,-0.12297 -0.05848,-0.2462 -0.08591,-0.36969c-0.1363,-0.02239 -0.28394,-0.08375 -0.43908,-0.20351c-0.73052,-0.56388 -0.16663,-1.2944 -0.16663,-1.2944c0.08922,-0.1139 0.17172,-0.22929 0.24863,-0.34601c-0.01272,-0.06937 -0.02551,-0.13882 -0.03843,-0.2084l-0.00772,-0.73486c0,0 0.01278,-0.92102 0.93297,-0.90998c0.00091,-0.00231 0.00183,-0.00462 0.00274,-0.00694c0.01423,-0.63352 -0.08318,-1.28256 0.05978,-1.89981c0.07848,-0.33885 0.32451,-0.71191 0.62501,-1.07037l0.34893,-0.8384c0.01731,-0.04447 0.03796,-0.08725 0.06164,-0.12803c-0.10727,-1.34452 0.10625,-2.85153 0.12442,-4.16118c0,0 0.00308,-0.22241 0.11541,-0.44733c0.77734,-1.91248 0.00196,-4.20409 0.5577,-6.22455c0.0811,-0.29487 0.1759,-0.56144 0.28335,-0.80659c-0.02109,-0.0395 -0.03939,-0.08069 -0.05464,-0.12332l-0.34859,-0.90779l0.03653,-0.01403l-0.06317,-0.06612c-0.06023,-0.46419 -0.26581,-0.93229 -0.18066,-1.39256c0.00883,-0.04779 0.02472,-0.09239 0.04582,-0.13466c-0.00839,-0.05183 -0.01857,-0.10291 -0.0312,-0.15296c-0.38939,-1.54345 -0.5503,-2.79752 -0.52318,-4.39059l0.04034,-0.07005l-0.02988,-0.00541l0.19722,-1.0898c0.06988,-0.42933 0.43536,-0.75768 0.87838,-0.77289c0.01667,-1.70806 0.28868,-3.4316 0.43496,-5.17615c0.18737,-2.23456 0.78518,-5.12427 2.95556,-6.38589c1.09714,-0.63775 2.51586,-1.00471 3.99831,-1.17212c1.02047,-0.24169 2.07099,-0.36403 3.06617,-0.41191c0.91217,-0.04389 1.94878,-0.87718 2.91028,-0.72671c3.25519,0.50942 8.50651,4.10891 9.58566,7.26823c0.06822,0.19973 0.12798,0.38943 0.18026,0.57115c0.04548,-0.02128 0.09498,-0.04064 0.14882,-0.05776c0.87944,-0.27965 1.15909,0.59979 1.15909,0.59979l0.3596,1.13158c0.47108,1.74244 1.20152,3.99305 0.86686,5.81225c-0.16789,0.91266 -0.89124,1.53557 -1.30538,2.27864c0.05928,0.56874 -0.0463,1.09054 -0.27429,1.5559c0.05539,0.45783 0.1871,0.93382 0.31142,1.39775c0.06684,0.0646 0.10321,0.11453 0.10321,0.11453c0.47129,0.6556 0.76174,1.42391 1.1385,2.13804c0.11695,0.22168 0.24858,0.43834 0.38135,0.65478c0.01759,-1.33789 -0.28305,-2.71591 0.21515,-4.01054c0.07452,-0.19365 0.1533,-0.36188 0.23726,-0.51264c-0.46819,-0.24308 -0.46001,-0.83283 -0.46001,-0.83283l0.00496,-0.35765c-0.06214,-0.18297 -0.11528,-0.3732 -0.15873,-0.57099l-0.01285,-0.36576c0,0 0.0063,-0.45408 0.3286,-0.72075c0.34852,-2.04434 1.23408,-3.98994 2.27504,-5.77851c0.25103,-0.4313 0.35166,-1.00647 0.63412,-1.40359c0.09215,-0.46622 0.23388,-0.96614 0.45233,-1.55202c1.16638,-3.12815 6.51553,-6.58058 9.7836,-6.99949c0.96531,-0.12374 1.97839,0.73799 2.889,0.80717c0.99346,0.07547 2.04018,0.2269 3.05356,0.49681c1.47724,0.20847 2.88523,0.61465 3.96426,1.2826c2.13455,1.32135 2.65195,4.22652 2.77726,6.46542c0.07671,1.37074 0.23107,2.73071 0.27931,4.07748c0.00151,0.00002 0.00302,0.00003 0.00453,0.00005c0.50961,0.00707 0.91701,0.42594 0.90994,0.93555l-0.02048,1.47638l-0.02542,-0.00035l0.02218,0.06574c-0.17532,1.12886 -0.31796,2.16351 -0.38596,3.25687c0.83504,1.36623 1.51158,2.51139 1.19848,4.36968c-0.31926,1.89489 -1.42264,2.82904 -0.37268,4.57557l0.11467,1.21477c0,0 -0.01281,0.92273 -0.93554,0.90993c-0.92274,-0.0128 -0.90994,-0.93554 -0.90994,-0.93554l0.13515,-0.26162c-0.52211,-0.92132 -0.84211,-1.21139 -0.8375,-2.33229c0.00704,-1.71116 1.46993,-3.29943 1.02706,-5.09233c-0.03484,-0.14107 -0.10013,-0.29321 -0.18542,-0.45148c-0.06448,0.01073 -0.13471,0.0161 -0.21119,0.01504c-0.23174,-0.00321 -0.40448,-0.06382 -0.53322,-0.1528c-0.26471,0.83771 -0.76167,1.571 -1.41441,2.12551c0.17982,1.03934 0.38609,2.07345 0.38228,3.15648c-0.00314,0.8918 -0.11885,1.72951 -0.31226,2.54708c1.04766,0.65027 1.82608,1.69582 2.07242,3.04318c0.11212,0.61326 -0.00785,1.15852 -0.15036,1.69906c0.28053,1.4372 0.42903,2.91487 0.79737,4.32905c0.10646,0.40873 0.32631,0.791 0.37379,1.21068c0.22586,1.99605 -0.87016,3.66198 -1.18016,5.59716c-0.20429,1.27527 0.03829,2.70829 -0.04963,3.99336c-0.14954,2.18598 -0.75475,4.42869 -1.21555,6.5786l0.01276,0.37293c0,0 -0.00911,0.65668 -0.56594,0.8544c0.45724,1.09874 0.35489,2.18336 0.48031,3.4239l-0.72681,1.06336c0,0 -0.56389,0.73051 -1.2944,0.16663c-0.73052,-0.56388 -0.16663,-1.2944 -0.16663,-1.2944l0.40096,-0.39766c-0.20042,-0.83218 -0.00485,-1.81148 -0.53207,-2.54096c-0.66833,-0.92472 -1.71318,-1.52652 -2.50713,-2.36528c-0.08519,0.87968 0.10277,1.79376 0.09041,2.68439c-0.00853,0.61516 -0.00326,1.23067 -0.0256,1.84548c-0.00739,0.20359 -0.14976,0.42326 -0.06356,0.60784c0.07619,0.16316 1.27681,1.37525 1.42487,1.5272l0.36397,0.37421c0,0 0.64342,0.66153 -0.0181,1.30496c-0.66153,0.64342 -1.30496,-0.01811 -1.30496,-0.01811l-0.36397,-0.37421c-0.55132,-0.56784 -1.56835,-1.55313 -1.84579,-2.20987c-0.16062,-0.3802 -0.0363,-0.82489 -0.03796,-1.23763c-0.00644,-1.60758 -0.29755,-4.07923 0.11756,-5.61875c0.10116,-0.37514 0.37224,-0.67339 0.61794,-0.98417c-0.03999,-0.37839 -0.01902,-0.77981 0.04964,-1.19019c-0.75187,0.28869 -1.52303,0.51732 -2.30748,0.70043c0.0329,0.81632 0.12201,1.60717 0.11508,2.08938c-0.04005,2.78792 0.24854,5.5857 0.78888,8.31725c0.3388,1.71268 1.01887,2.95066 1.13409,4.70073l-1.4023,0.76703c0,0 -0.8615,0.33081 -1.19231,-0.53069c-0.33081,-0.8615 0.53069,-1.19231 0.53069,-1.19231l0.45342,0.05444c-0.63596,-0.42185 -0.97211,-1.35095 -1.16871,-2.32023c-0.35214,0.36431 -0.85797,0.61169 -1.22026,0.97514c-0.71735,0.71963 -1.01064,1.22774 -1.579,2.05699l-1.10276,0.66741c0,0 -0.74933,0.36176 -1.16843,-0.31328c-0.24237,1.21746 -0.18626,2.46512 -0.04228,3.75319c0.1193,0.65697 0.17511,1.32833 0.16881,1.99602l-0.00512,0.3691c0,0 -0.0128,0.92274 -0.93554,0.90993zM359.33518,117.10638c0.20164,-0.612 0.35579,-1.24725 0.64999,-1.82053c0.262,-0.51052 1.03947,-0.81743 1.01459,-1.39071c-0.02537,-0.58477 -0.54854,-1.04771 -0.6846,-1.617c-0.03895,-0.16299 -0.05792,-0.32962 -0.07218,-0.49712c-0.28636,0.67795 -0.56753,1.32261 -0.66526,1.47371c-0.29298,0.45301 -0.82605,0.72848 -1.08279,1.20298c-0.74358,1.37427 -0.54662,3.98686 0.40814,5.2839c0.01442,-0.86716 0.1314,-1.72258 0.4321,-2.63524zM362.10467,111.8263c0.13588,0.58753 0.76114,1.52794 0.74057,2.09445c-0.03134,0.86329 -0.8512,1.50386 -1.25119,2.26953c-0.09883,0.18918 -0.18725,0.37899 -0.2661,0.56947l0.34145,-0.04475c0.56992,-0.82801 1.06083,-1.62791 1.80432,-2.32609c0.33684,-0.31632 0.83499,-0.45447 1.11773,-0.81995c0.11066,-0.14303 0.00608,-0.37291 -0.06688,-0.53839c-0.45026,-1.02115 -1.0378,-1.53221 -1.24479,-2.62095c-0.43808,-2.30428 0.06198,-4.70718 0.40589,-7.05979c-0.69579,0.0781 -1.3958,0.13614 -2.0962,0.18337c0.47776,1.10135 0.82001,2.25121 0.60347,3.32756c-0.15828,0.78675 -0.45386,1.47549 -0.76979,2.16832c0.24398,0.93453 0.45999,1.83938 0.68151,2.79722zM365.1337,109.48574c-0.01727,-0.11437 -0.03306,-0.22926 -0.04745,-0.34462c-0.02721,0.31727 -0.04499,0.6337 0.01056,0.94467c0.05779,0.32349 0.18581,0.62589 0.34209,0.91882c-0.11039,-0.5048 -0.22814,-1.00858 -0.3052,-1.51886zM374.30675,99.45167c0.0218,-0.33935 0.02344,-0.68623 0.01707,-1.03666c-0.4083,0.5435 -0.90583,1.06257 -1.51313,1.56194c0.08018,0.37108 -0.13043,0.71131 -0.13043,0.71131c-0.60234,0.97163 -1.09208,2.00061 -1.68849,2.97424c0.43885,0.87685 1.36708,1.45092 2.1384,2.09049c0.44142,-2.05528 1.04237,-4.21223 1.17659,-6.3013zM329.50531,110.52323c-0.28469,-1.32872 -1.11835,-2.17082 -1.5746,-3.39909c-0.40191,-1.082 -0.12926,-1.32394 -0.20806,-2.45976c-0.05248,-0.7565 -0.12398,-1.43824 -0.12422,-2.10693c-0.51764,-0.40143 -1.04255,-0.82211 -1.54274,-1.26423c0.23058,1.04939 0.4906,2.08086 0.71688,3.04456c0.10739,0.45732 0.66075,1.8983 0.72173,2.29966c0.21488,1.41429 -0.51378,3.33778 0.34902,4.62838c0.21143,0.31626 1.5362,1.35545 1.61176,1.4572c0.03995,0.05379 0.0752,0.11027 0.1069,0.16874c0.10513,-0.80698 0.10582,-1.61019 -0.05666,-2.36854zM329.56167,104.50801c0.03289,0.47407 -0.11995,1.4297 0.09958,1.97453c0.30743,0.76296 0.71255,1.39371 1.05855,2.07337c-0.02656,-0.22731 -0.05271,-0.44961 -0.08225,-0.66297c-0.12358,-0.89252 -0.21658,-1.86702 -0.26605,-2.86317c-0.08634,-0.05426 -0.16302,-0.12241 -0.22693,-0.20127l-0.61915,-0.75382c0.01349,0.14227 0.02605,0.28656 0.03623,0.43333zM332.06909,112.26768c0.82716,0.25865 -0.20949,-0.04344 -0.59131,-0.65315c0.00752,0.39917 -0.01254,0.80186 -0.05527,1.20503zM324.10745,90.63338c-0.01562,-0.03881 -0.0313,-0.0777 -0.04694,-0.11665c0.00063,0.04886 0.0013,0.09771 0.002,0.14655c0.01421,-0.00992 0.0292,-0.01994 0.04494,-0.0299zM354.45886,116.63483c0.39679,-0.56272 0.12314,-1.81157 0.07868,-2.38405c-0.01153,-0.1484 -0.0208,-0.30294 -0.02794,-0.46176c-0.09434,0.1095 -0.17305,0.22979 -0.22871,0.36609c-0.25666,0.62857 0.15706,1.37065 0.02535,2.0367c-0.04888,0.2472 -0.15548,0.47731 -0.2638,0.70691c0.15434,-0.07199 0.32256,-0.13077 0.41643,-0.2639zM357.57536,107.46193c0.02501,1.11407 -1.04495,2.49549 -1.15665,3.69184c-0.09015,0.96548 0.06723,2.09868 0.12844,3.21451c0.08589,-0.26448 0.18862,-0.51856 0.30858,-0.75879c0.26579,-0.53229 0.84175,-0.8522 1.16764,-1.34998c0.59272,-0.90534 0.83757,-1.99561 1.26603,-2.98928c0.09668,-0.22422 0.19396,-0.43662 0.28949,-0.64384c-0.42894,-1.68232 -0.93869,-3.41859 -1.58621,-4.89843c-0.14882,0.00806 -0.29737,0.01636 -0.44558,0.02499c-0.47513,0.54306 -0.76902,1.27685 -0.95319,2.074c0.32922,0.55363 0.98001,1.57098 0.98145,1.63496zM341.72621,109.46296c0.29521,-0.80052 -0.22278,-1.69238 -0.37106,-2.53262c-0.12556,-0.71146 -0.21755,-1.43094 -0.27131,-2.15289c-0.80349,-0.09073 -1.60774,-0.17266 -2.41842,-0.21816c0.06205,0.60125 0.20422,1.18667 0.51238,1.70384c0.3807,0.63889 1.28543,0.85617 1.64517,1.50708c0.57684,1.04372 0.24921,1.68399 0.02408,2.71495l-0.00574,0.00774c0.32896,-0.32394 0.72931,-0.60807 0.88489,-1.02994zM343.17265,106.60917c0.09623,0.54383 0.42329,2.07156 0.37236,3.00152c0.16591,-0.28592 0.31167,-0.57837 0.3723,-0.89956c0.2193,-1.16182 -0.07602,-2.48647 -0.26634,-3.64763c-0.23356,-0.0226 -0.46667,-0.04691 -0.69948,-0.07228c0.05131,0.54242 0.12645,1.08271 0.22116,1.61796zM342.15515,111.71054c-0.13591,0.40719 -0.14518,0.83718 -0.13425,1.2718c0.25114,-0.7665 0.57672,-1.52631 0.86978,-2.1647c-0.29769,0.26907 -0.61376,0.52813 -0.73552,0.89291zM354.46613,108.1245c0.04947,-0.56513 0.11779,-1.24742 0.22767,-1.95163c-0.30685,-0.72576 -0.48679,-1.40344 -0.56388,-2.07734c-0.20258,0.03253 -0.4053,0.06683 -0.60814,0.10246c0.0754,0.53622 0.16176,1.08064 0.24698,1.64236c0.0958,0.63144 0.23798,1.25767 0.28609,1.89451c0.01808,0.23928 -0.28374,0.82265 -0.06847,0.71661c0.16285,-0.08021 0.31945,-0.17213 0.47517,-0.26572c0.00154,-0.02342 0.00308,-0.04393 0.00459,-0.06125zM325.59957,97.71438c0,0 0.00148,-0.10613 0.03942,-0.24591c-0.0605,-0.02164 -0.12412,-0.0503 -0.18614,-0.08829c0.00927,0.15984 0.02121,0.32078 0.03558,0.48261c0.04017,0.04697 0.08185,0.09298 0.12445,0.13841c-0.00635,-0.09119 -0.01079,-0.18661 -0.01331,-0.28682zM347.8048,62.60604c0.07686,0.19483 0.15019,0.38938 0.21991,0.58335c-0.06478,-0.28566 -0.13801,-0.56999 -0.21386,-0.84809c-0.00209,0.08639 -0.00413,0.17455 -0.00604,0.26474zM356.12723,72.66079c-0.12619,-0.02661 -0.2524,-0.05488 -0.37841,-0.0849c0.07597,3.09121 0.19129,6.18708 -0.31012,9.24101c-0.12662,0.77118 -0.20301,1.5325 -0.25105,2.29327c1.04566,-0.17903 2.11389,-0.23241 3.16817,-0.35399c-0.0351,-0.35165 -0.06863,-0.70336 -0.09634,-1.05526c-0.21348,-2.71163 -0.391,-5.61349 -1.09602,-8.25559c-0.16494,-0.61813 -0.45122,-1.19452 -0.7211,-1.77718c-0.10516,-0.00297 -0.21022,-0.00542 -0.31514,-0.00734zM350.70562,84.21891c-0.92274,-0.0128 -0.90994,-0.93555 -0.90994,-0.93555l0.01515,-0.42302c-0.19811,-1.55989 -0.12483,-3.18771 -0.22729,-4.77319c-0.04577,0.13358 -0.08607,0.26715 -0.11078,0.40045c-0.22885,1.23417 -0.38489,2.42462 -0.3999,3.67823l-0.00256,0.18455c0,0 -0.00169,0.12176 -0.04807,0.27621c0.04208,0.15568 0.04039,0.27743 0.04039,0.27743c-0.01214,0.87547 -0.04572,1.73591 -0.10489,2.59315c0.24361,0.00473 0.48799,0.00487 0.73329,-0.00025c1.16553,-0.02435 2.40792,-0.50415 3.61284,-0.89922c0.10079,-1.64236 0.42459,-3.1759 0.60405,-4.83302c0.27612,-2.54979 0.10197,-5.17838 0.00684,-7.77626c-0.5951,-0.24931 -1.15751,-0.55437 -1.65909,-0.92697c-0.43559,1.40414 0.11086,3.03802 -0.14925,4.46471c-0.09521,0.52225 -0.59818,1.6728 -0.82315,2.21393l0.06819,-0.15724c0,0 -0.002,0.14411 -0.06137,0.31765c0.08724,0.42164 0.19085,0.84127 0.2208,1.26969c0.08239,1.17857 -0.02397,2.27186 0.13052,3.4545l-0.00022,0.68427c0,0 -0.01281,0.92274 -0.93554,0.90994zM349.13629,75.68157c-0.00644,-0.01181 -0.01295,-0.0236 -0.01955,-0.03535c-0.0027,0.00875 -0.00554,0.01755 -0.00852,0.02635c0.0094,0.00283 0.01875,0.00583 0.02807,0.00901zM347.21713,82.87842c0,0 0.00169,-0.12176 0.04807,-0.27621c-0.04208,-0.15568 -0.04039,-0.27743 -0.04039,-0.27743l0.00256,-0.18455c0.02057,-1.31991 0.07544,-2.78281 0.44583,-4.06256c0.08321,-0.28748 0.36667,-0.5033 0.40813,-0.79968c0.01355,-0.09689 -0.19927,-0.00176 -0.29144,-0.03455c-0.27556,-0.09803 -0.58607,-0.15077 -0.86067,-0.25746c-0.0914,0.14993 -0.17986,0.30132 -0.24047,0.46253c-0.5569,1.48118 -0.5496,3.30161 -0.57124,4.8609l-0.00768,0.55365c0,0 -0.01281,0.92274 -0.93554,0.90994c-0.92274,-0.0128 -0.90994,-0.93555 -0.90994,-0.93555l0.00769,-0.55364c0.02436,-1.75581 0.04162,-3.79305 0.67943,-5.45844c0.1266,-0.33056 0.43163,-0.5817 0.52478,-0.9232c0.06288,-0.23053 -0.00579,-0.4503 -0.1219,-0.668c-0.1261,0.10976 -0.28219,0.18577 -0.45408,0.21419l-0.90849,0.16862l-0.00596,-0.03207l-0.07662,0.04023c-0.01951,0.42145 -0.05284,0.84467 -0.12858,1.26563c-0.24856,1.38142 -0.64961,2.72796 -0.96137,4.09671c0.04867,0.01316 0.09917,0.0304 0.15155,0.05221c0.85199,0.35459 0.49741,1.20657 0.49741,1.20657c-0.33504,0.79689 -0.60751,1.64902 -0.84273,2.51971c1.50569,0.20955 2.99034,0.46959 4.4903,0.61743c0.05731,-0.82762 0.0896,-1.6584 0.10134,-2.50497zM326.83221,82.67087c0.62476,-0.35407 1.33976,-0.56643 2.10071,-0.59399c-0.12643,-1.21008 -0.22676,-2.43762 -0.24466,-3.65018c-0.10639,0.28239 -0.23358,0.55049 -0.38583,0.79825c-0.06716,0.1093 -1.46451,1.45887 -1.63165,1.62143l0.26907,0.08947c0,0 -0.01281,0.92274 -0.93554,0.90994c-0.3831,-0.00531 -0.60494,-0.16748 -0.73338,-0.35533c-0.01209,0.88597 -0.02301,1.77198 -0.03599,2.65794c0.39909,-0.74754 0.93912,-1.30941 1.59727,-1.47753zM372.75184,77.1437c0.00215,-0.76171 -0.09871,-1.50286 -0.22109,-2.24033c-0.03229,0.00947 -0.06472,0.01861 -0.0973,0.0274c-0.76843,0.34286 -1.62144,0.59798 -2.50988,0.77669c-0.2785,1.40887 -0.66229,2.78891 -0.94003,4.19032c0.34303,-0.39695 0.82078,-0.72561 1.56566,-0.86387c0.6787,-0.12597 1.35658,-0.12311 1.99814,-0.004c0.12766,-0.6059 0.20264,-1.22821 0.2045,-1.88621zM361.33693,80.95835c0.37862,0.76735 1.1689,1.2512 1.71697,1.90833l0.11555,0.11738c0.35177,-0.04398 0.70782,-0.08902 1.05925,-0.13676c0.34645,-2.27287 0.36268,-4.67027 0.00502,-6.9289c-0.63754,-0.07465 -1.23281,-0.18115 -1.76237,-0.31414c-1.14818,1.65781 -2.06197,3.47416 -1.13442,5.35408zM366.11389,76.03979c0.29095,2.13391 0.28802,4.34649 0.0177,6.49237c0.23952,-0.05101 0.46536,-0.10572 0.67305,-0.16497c0.12744,-2.18921 0.71695,-4.26399 1.1758,-6.38936c-0.62734,0.05161 -1.25482,0.07104 -1.86655,0.06197zM360.09945,82.55605c0.02314,0.29386 0.0498,0.58737 0.07788,0.88067c0.21598,-0.05132 0.46135,-0.09881 0.72871,-0.14387c-0.28762,-0.27654 -0.57522,-0.55261 -0.81621,-0.85939c0.0032,0.0409 0.0064,0.08177 0.00962,0.12259zM359.03329,74.31184c0.23695,0.95147 0.41357,1.93122 0.55246,2.92119c0.28753,-0.76291 0.70355,-1.49416 1.19266,-2.18223c-0.57705,-0.21383 -1.24322,-0.48079 -1.7451,-0.73896zM326.74603,78.23294c0.71251,-1.13771 0.64489,-3.02226 0.66002,-4.28876c-0.26054,-0.14324 -0.50565,-0.31088 -0.73231,-0.49979c-0.12225,0.12968 -0.23587,0.26669 -0.33641,0.41481c-1.04345,1.53728 -0.70872,3.57643 -0.75043,5.47992c0.40936,-0.35057 0.87547,-0.65323 1.15913,-1.10617zM330.79649,80.16546c0.05451,0.75733 0.10834,1.51459 0.16327,2.27173c0.31129,0.08507 0.60589,0.20421 0.86536,0.39497c0.07434,0.05465 0.20084,0.22539 0.33488,0.39881c0.06113,0.0541 0.12081,0.10979 0.17899,0.16701l0.19635,-0.55514c0.9873,-1.40054 -0.25302,-3.43646 -0.37996,-5.08102c-0.07137,-0.92462 0.20403,-1.61423 0.62243,-2.26699c-0.67556,-0.07238 -1.35049,-0.18215 -2.00467,-0.33333c-0.23701,1.61361 -0.09871,3.30841 0.02334,5.00396zM333.97469,77.03437c-0.57148,1.69832 1.17858,3.73457 0.86425,5.47531c-0.07673,0.42491 -0.42509,0.75171 -0.63763,1.12756l-0.10777,0.31417c0.3347,0.05118 0.67222,0.09602 1.01172,0.13602c1.1361,-2.73904 0.92763,-5.71605 1.51346,-8.56838c-0.52991,0.05203 -1.09017,0.08116 -1.66693,0.08459c-0.38641,0.44536 -0.79241,0.8819 -0.97709,1.43072zM340.0326,80.56016c-0.28196,1.28166 -0.20223,2.56377 -0.22044,3.87678l-0.00047,0.03427c0.32569,0.025 0.64979,0.05167 0.97161,0.0813c0.10381,-0.397 0.21398,-0.79149 0.33254,-1.18084c-0.36223,-0.26936 -0.35532,-0.76741 -0.35532,-0.76741l0.0249,-0.88972c0.31465,-1.73774 0.86322,-3.41791 1.1789,-5.15154c0.07238,-0.39745 0.11641,-0.78282 0.14767,-1.15923c-0.5284,-0.09457 -1.05719,-0.18355 -1.61815,-0.18655c0,0 -0.13699,-0.00191 -0.30467,-0.05702c0.34458,1.40819 0.35707,2.84226 -0.18101,4.42737c-0.02893,0.08523 -0.06133,0.16907 -0.09636,0.25183c0.20596,0.3238 0.12083,0.72077 0.12083,0.72077zM337.66093,82.24102c-0.16995,0.68891 -0.38506,1.37179 -0.63889,2.02907c0.315,0.02467 0.6304,0.04755 0.94557,0.06977c0.00819,-0.66851 0.00165,-1.32264 0.0229,-1.97288c-0.13281,-0.02299 -0.24117,-0.06788 -0.32958,-0.12597zM338.64713,76.07204c-0.01279,-0.19325 -0.05949,-0.40587 -0.12846,-0.62807c-0.27345,1.16181 -0.3118,2.30845 -0.38817,3.50023c0.3385,-0.88511 0.58861,-1.78388 0.51663,-2.87215zM345.20345,72.35244c-0.07704,0.01981 -0.15483,0.03767 -0.23335,0.05354c0.06061,0.02813 0.11763,0.06263 0.17022,0.10264c0.02065,-0.05196 0.04173,-0.10405 0.06313,-0.15618z" fill="#000000" stroke="none" stroke-width="0.5"/><path d="M356.62111,63.62759c0.06293,-4.53558 3.79076,-8.16139 8.32635,-8.09846c4.53559,0.06293 8.16138,3.79076 8.09846,8.32634c-0.06293,4.53558 -3.79076,8.16139 -8.32634,8.09846c-4.53558,-0.06293 -8.16139,-3.79076 -8.09846,-8.32634z" fill="#ffffff" stroke="none" stroke-width="0.5"/><path d="M328.00844,63.78437c0.06293,-4.53558 3.79077,-8.16139 8.32635,-8.09846c4.53558,0.06292 8.16139,3.79076 8.09846,8.32634c-0.06293,4.53558 -3.79075,8.16139 -8.32634,8.09846c-4.53558,-0.06293 -8.16139,-3.79076 -8.09846,-8.32634z" fill="#ffffff" stroke="none" stroke-width="0.5"/><path d="M327.66751,61.74922c0.06717,-4.84135 4.0463,-8.7116 8.88766,-8.64443c4.84136,0.06717 8.71159,4.04631 8.64443,8.88767c-0.06716,4.84135 -4.04631,8.7116 -8.88766,8.64443c-4.84136,-0.06717 -8.71159,-4.04631 -8.64442,-8.88766z" fill="#000000" stroke="none" stroke-width="0.5"/><path d="M355.90853,61.77187c0.06717,-4.84135 4.04631,-8.7116 8.88767,-8.64443c4.84136,0.06717 8.71159,4.04631 8.64443,8.88767c-0.06716,4.84136 -4.04631,8.71159 -8.88767,8.64442c-4.84136,-0.06717 -8.7116,-4.04631 -8.64443,-8.88766z" fill="#000000" stroke="none" stroke-width="0.5"/><path d="M322.36209,84.93318c0.02616,-1.88558 1.57593,-3.39294 3.46151,-3.36678c1.5999,0.02219 2.9275,1.1413 3.27708,2.63173c0.35145,-0.11609 0.7279,-0.17657 1.11879,-0.17115c1.30096,0.01805 2.42186,0.76139 2.98329,1.83989c0.52491,-0.31385 1.14064,-0.49059 1.79705,-0.48148c1.17796,0.01635 2.20833,0.62732 2.80939,1.54333c0.48051,-0.24667 1.02669,-0.38261 1.60441,-0.37459c1.12656,0.01563 2.11812,0.57514 2.72827,1.42518c0.60613,-0.5109 1.39198,-0.81426 2.24685,-0.8024c1.18093,0.01638 2.21349,0.63038 2.8139,1.55022c0.63565,-0.7982 1.62076,-1.30411 2.71999,-1.28887c1.09674,0.01521 2.06554,0.5459 2.67902,1.35829c0.4959,-1.30241 1.76497,-2.21955 3.23933,-2.1991c1.53195,0.02125 2.81422,1.0482 3.22729,2.44386c0.24859,-1.664 1.69519,-2.92932 3.42413,-2.90533c1.09963,0.01525 2.07063,0.54869 2.68386,1.36471c0.23303,-1.68162 1.68797,-2.96531 3.42928,-2.94115c0.09351,0.00129 0.1861,0.00634 0.27762,0.01499c0.06874,-1.8475 1.60098,-3.31144 3.45944,-3.28566c1.88558,0.02616 3.39294,1.57594 3.36677,3.46152c-0.02616,1.88558 -1.57593,3.39293 -3.46151,3.36677c-0.09351,-0.00129 -0.1861,-0.00634 -0.27762,-0.01499c-0.06874,1.8475 -1.60098,3.31144 -3.45944,3.28566c-1.09963,-0.01525 -2.07063,-0.54869 -2.68385,-1.36472c-0.23303,1.68162 -1.68797,2.96531 -3.42928,2.94116c-1.53195,-0.02125 -2.81422,-1.04821 -3.22729,-2.44387c-0.24859,1.664 -1.69519,2.92932 -3.42413,2.90533c-1.09674,-0.01521 -2.06553,-0.5459 -2.67902,-1.35829c-0.4959,1.30242 -1.76496,2.21956 -3.23933,2.19911c-1.18093,-0.01638 -2.2135,-0.63039 -2.81389,-1.55023c-0.63565,0.7982 -1.62077,1.30412 -2.71999,1.28887c-1.12656,-0.01563 -2.11811,-0.57514 -2.72826,-1.42518c-0.60613,0.5109 -1.39198,0.81426 -2.24685,0.80239c-1.17796,-0.01635 -2.20833,-0.62732 -2.80939,-1.54333c-0.48051,0.24667 -1.0267,0.38261 -1.60442,0.37459c-1.30096,-0.01805 -2.42186,-0.76138 -2.98329,-1.83989c-0.52491,0.31385 -1.14063,0.49059 -1.79705,0.48148c-1.5999,-0.02219 -2.9275,-1.1413 -3.27708,-2.63173c-0.35145,0.11609 -0.72791,0.17657 -1.11879,0.17115c-1.88558,-0.02616 -3.39294,-1.57594 -3.36678,-3.46152z" fill="#ffffff" stroke="none" stroke-width="0.5"/><path d="M370.12565,94.73274c1.88558,0.02616 3.39293,1.57593 3.36677,3.46151c-0.02616,1.88558 -1.57593,3.39294 -3.4615,3.36678c-0.90433,-0.01255 -1.72166,-0.37556 -2.32455,-0.95799c-0.24716,1.66563 -1.69454,2.93265 -3.42462,2.90865c-1.21157,-0.01681 -2.267,-0.66267 -2.85978,-1.62248c0.01229,0.12591 0.01772,0.25378 0.01592,0.38323c-0.02616,1.88558 -1.57593,3.39294 -3.46151,3.36678c-1.88558,-0.02616 -3.39294,-1.57593 -3.36677,-3.46151c0.02616,-1.88558 1.57593,-3.39294 3.46151,-3.36678c1.21157,0.01681 2.267,0.66267 2.85978,1.62248c-0.01229,-0.12591 -0.01773,-0.25378 -0.01593,-0.38323c0.02616,-1.88558 1.57594,-3.39294 3.46152,-3.36677c0.90433,0.01255 1.72166,0.37555 2.32454,0.95798c0.24716,-1.66563 1.69454,-2.93264 3.42462,-2.90864z" fill="#ffffff" stroke="none" stroke-width="0.5"/><path d="M324.39233,98.25138c0.02616,-1.88558 1.57593,-3.39294 3.46151,-3.36677c1.50284,0.02085 2.76542,1.00955 3.20282,2.36473c0.42423,-0.18049 0.89211,-0.2775 1.38273,-0.27069c1.71128,0.02375 3.11103,1.30245 3.33563,2.94818c0.61635,-0.95807 1.69808,-1.58625 2.92109,-1.56928c1.58646,0.02201 2.90518,1.12259 3.26807,2.59427c0.63064,-0.86347 1.65614,-1.41844 2.80666,-1.40248c1.49694,0.02076 2.75551,1.00181 3.19763,2.3488c0.47932,-1.3342 1.76462,-2.27995 3.26156,-2.25919c1.88558,0.02616 3.39294,1.57593 3.36678,3.46151c-0.02616,1.88558 -1.57594,3.39294 -3.46152,3.36678c-1.49694,-0.02076 -2.75551,-1.0018 -3.19763,-2.3488c-0.47932,1.3342 -1.76461,2.27995 -3.26155,2.25919c-1.58646,-0.02201 -2.90519,-1.12258 -3.26807,-2.59426c-0.63064,0.86347 -1.65615,1.41844 -2.80667,1.40248c-1.71128,-0.02375 -3.11103,-1.30244 -3.33563,-2.94818c-0.61635,0.95807 -1.69808,1.58624 -2.92109,1.56928c-1.50284,-0.02085 -2.76541,-1.00955 -3.20281,-2.36473c-0.42423,0.18049 -0.89211,0.27749 -1.38273,0.27069c-1.88558,-0.02616 -3.39294,-1.57593 -3.36678,-3.46151z" fill="#ffffff" stroke="none" stroke-width="0.5"/><path d="M353.81843,102.53274c-0.63414,-1.77593 0.29145,-3.7297 2.06739,-4.36385c1.77593,-0.63415 3.7297,0.29145 4.36385,2.06739c0.63414,1.77593 -0.29145,3.7297 -2.06739,4.36385c-1.77593,0.63415 -3.7297,-0.29145 -4.36385,-2.06739z" fill="#ffffff" stroke="none" stroke-width="0.5"/><path d="M503.5,156c0,-1.38071 1.11929,-2.5 2.5,-2.5c1.38071,0 2.5,1.11929 2.5,2.5c0,1.38071 -1.11929,2.5 -2.5,2.5c-1.38071,0 -2.5,-1.11929 -2.5,-2.5z" fill-opacity="0.50196" fill="#000000" stroke="none" stroke-width="0.5"/><text transform="translate(18.75,50.0445) scale(0.94851,0.94851)" font-size="40" xml:space="preserve" fill="#000000" stroke="none" stroke-width="1" font-family="Serif" font-weight="normal" text-anchor="start"><tspan x="0" dy="0">la dificultad 1:</tspan><tspan x="0" dy="48px">player hunt</tspan><tspan x="0" dy="48px">hace que A-20</tspan><tspan x="0" dy="48px">aparece mas temprano y </tspan><tspan x="0" dy="48px">frecuente.</tspan><tspan x="0" dy="48px"> </tspan></text><g><path d="M139.5,318.56902v-59h193v59z" fill="#ff0000" stroke="#800000" stroke-width="2.5"/><text transform="translate(156.94418,299.08777) scale(0.86836,0.86836)" font-size="40" xml:space="preserve" fill="#ffffff" stroke="none" stroke-width="1" font-family="Scratch" font-weight="normal" text-anchor="start"><tspan x="0" dy="0">player hunt</tspan></text></g><path d="M-51.60411,401.47147v-442.94294h583.20821v442.94294z" fill="url(#color-9)" stroke="none" stroke-width="0"/></g></g></svg>