<svg version="1.1" xmlns="http://www.w3.org/2000/svg" xmlns:xlink="http://www.w3.org/1999/xlink" width="624.99999" height="499.56503" viewBox="0,0,624.99999,499.56503"><defs><radialGradient cx="331.97447" cy="136.97575" r="174.42883" gradientUnits="userSpaceOnUse" id="color-1"><stop offset="0" stop-color="#ffffff"/><stop offset="1" stop-color="#ffffff" stop-opacity="0"/></radialGradient><radialGradient cx="331.97447" cy="136.97576" r="174.42883" gradientUnits="userSpaceOnUse" id="color-2"><stop offset="0" stop-color="#ffffff"/><stop offset="1" stop-color="#ffffff" stop-opacity="0"/></radialGradient><radialGradient cx="331.97447" cy="136.97576" r="174.42883" gradientUnits="userSpaceOnUse" id="color-3"><stop offset="0" stop-color="#ffffff"/><stop offset="1" stop-color="#ffffff" stop-opacity="0"/></radialGradient></defs><g transform="translate(72,28.56503)"><g stroke-miterlimit="10"><path d="M-72,380.5v-401h624v401z" fill="#e2e2e2" stroke="none" stroke-width="NaN" stroke-linecap="butt"/><path d="M198.44563,297.98317l-1,-36.2" fill="none" stroke="#808080" stroke-width="2.5" stroke-linecap="round"/><path d="M178.04563,297.98317l-1,-36.2" fill="none" stroke="#808080" stroke-width="2.5" stroke-linecap="round"/><path d="M158.04563,297.98317l-1,-36.2" fill="none" stroke="#808080" stroke-width="2.5" stroke-linecap="round"/><path d="M201.2684,292.38317h-76.6" fill="none" stroke="#808080" stroke-width="2.5" stroke-linecap="round"/><path d="M208.2684,273.78317l-95.2,-0.2" fill="none" stroke="#808080" stroke-width="2.5" stroke-linecap="round"/><path d="M134.8684,299.78317l-1,-36.2" fill="none" stroke="#808080" stroke-width="2.5" stroke-linecap="round"/><path d="M213.94999,276.33883c-1.90831,-1.75573 -4.12494,-3.3073 -5.72492,-5.2672c-0.9841,-1.20546 -1.12521,-2.77389 -1.90557,-4.07975c-0.81454,-1.36306 -2.26941,-2.45345 -2.8601,-3.89517c-0.78577,-1.91784 -0.438,-4.07382 -1.19411,-6c-0.38748,-0.9871 -1.67095,-1.58418 -2.15813,-2.53981c-0.76482,-1.50025 -0.84335,-3.19768 -1.54295,-4.72009c-1.24087,-2.70026 -3.62879,-4.93282 -5.1815,-7.51747c-1.01631,-1.69176 -1.53968,-3.57046 -2.54979,-5.26482c-2.06527,-3.46427 -4.92187,-6.60909 -6.59803,-10.21771c-0.52637,-1.13322 -0.39233,-2.44329 -0.98506,-3.55329c-0.94747,-1.77432 -2.66046,-3.21625 -3.58233,-5c-3.55155,-6.87195 -4.71853,-14.41171 -4.71853,-21.78354c0,-1 0,-2 0,-3l13.10263,-15.40634c5.51175,4.59891 11.71719,8.68516 16.68664,13.68486c0.09225,-0.46315 0.18558,-0.92608 0.27777,-1.38894c0.79252,-3.97915 1.56274,-7.96586 2.61409,-11.90273c0.97327,-3.64448 1.38175,-7.2974 2.14081,-10.98913c0.84605,-4.1148 3.11199,-8.34741 3.50143,-12.52501c0.43578,-4.67473 -0.11184,-9.75194 -0.11184,-14.47271l8.43983,-13.32568c-0.60124,-4.17886 0.60992,-8.79029 1.85639,-12.83306c0.11494,-0.37281 0.2599,-0.72855 0.43183,-1.06835c-1.91939,-5.14732 -2.16638,-11.20131 -0.03896,-15.55646c1.04663,-2.1426 7.7878,-8.38696 10.71936,-9.84959c3.5651,-1.77872 8.54891,-2.64621 12.58586,-3.49365c6.01776,-1.26325 12.26458,-2.00643 18.40974,-2.99715c0.65783,-1.91279 1.33752,-3.82039 2.0539,-5.71918c6.93734,-18.38772 14.11787,-36.76823 21.49505,-55.00275c0.69129,-1.7087 0.82687,-3.57942 1.74607,-5.21105c1.52459,-2.70624 4.31201,-4.77567 6.31792,-7.25196c1.72504,-2.12955 2.44863,-4.732 3.97537,-6.96521c0.53881,-0.78813 1.40101,-1.40705 1.8896,-2.21781c0.78563,-1.30364 0.39823,-3.34565 1.90557,-4.07975c6.45573,-3.14401 13.86496,-4.65124 20.79744,-6.97686l9.02156,16.55077c-3.17763,7.98326 -0.45301,16.92708 -3.52027,24.84198c0.25816,0.47688 0.48161,0.96975 0.66765,1.47634l1.08527,2.72655l-0.46008,0.12843c0.02119,0.27252 0.03195,0.54741 0.03195,0.82442v0.26871l1.00137,0.72902c0.1952,6.07901 -0.31585,12.32263 0.17421,18.37961c0.29776,3.68027 0.80474,7.32083 1.42924,10.94062c2.31357,-0.53403 4.53857,-1.44007 6.91548,-1.72429c0.2982,-0.03566 0.94844,-0.06065 1.79561,-0.07621c1.19464,-0.76525 2.4435,-1.48261 3.7002,-2.18422c5.73612,-4.93759 11.4624,-9.69766 18.68876,-13.1446c1.12389,-0.53609 2.46635,-0.72613 3.54078,-1.32915c1.22409,-0.68702 2.00988,-1.85092 3.26857,-2.49261c2.96852,-1.51336 4.65874,-0.30603 3.26327,-1.2057l18.65484,-4.70966c3.07143,4.8495 6.69652,9.48018 9.2143,14.54849c0.61155,1.23105 0,2.66667 0,4c0,1.93011 0.05017,7.11789 -0.26933,8.36384c-0.45004,1.75505 -1.84732,3.26304 -2.38822,5c-0.2177,0.69911 0.27782,1.44802 0.15749,2.16345c-0.44757,2.66115 -0.79607,5.33333 -1.19411,8c-0.60186,4.03218 -1.71491,7.97314 -2.38822,12c-0.63751,3.81274 -0.29068,9.13992 0,12.94542c0.21986,2.87833 2.72559,5.33931 3.42484,8.16345c0.40407,1.63195 -0.39031,3.3657 0,5c0.42037,1.7602 1.93055,3.24634 2.38822,5c0.10264,0.3933 0.15742,0.79139 0.18306,1.1924c4.02022,-1.81164 10.61432,-3.18958 17.20842,2.33261c1.7261,1.44551 2.88762,2.89102 3.62307,4.29787c2.7237,-2.43647 6.59888,-3.95904 10.89871,-3.95904c8.24361,0 14.92638,5.59644 14.92638,12.5v3c1.45587,2.45812 1.08168,4.45834 0,6.23556c0,4.58815 0,9.17629 0,13.76444c0,1.79286 0.03851,6.79759 -0.19274,8.00228c-0.73887,3.84915 -2.61946,7.48227 -3.89758,11.23103c-1.95035,6.16985 -5.08409,10.33871 -9.10854,15.63083c-1.76544,2.32155 -3.07638,4.8759 -4.90599,7.16233c-2.35288,2.94036 -4.89668,5.76655 -7.51834,8.54525c1.58165,0.67467 2.66852,2.04215 4.21474,2.79515c0.67521,0.32882 1.59664,0.1079 2.293,0.40419c1.81156,0.77081 3.55029,1.68216 5.15295,2.72894h0.23022c0,0 2.82263,0 6.01299,1.02792c0.07289,-0.1172 0.15282,-0.23011 0.24312,-0.33661c2.339,-2.7584 4.75415,-5.47385 7.27701,-8.11617c1.20008,-1.25691 3.16088,-2.01461 4.03616,-3.44728c1.5606,-2.55439 0.69399,-5.74325 1.67108,-8.49341c0.39325,-1.10686 1.65781,-1.9007 2.05587,-3.00636c0.24558,-0.68213 -0.36099,-1.42974 -0.20656,-2.13037c0.24661,-1.11881 0.68152,-2.19962 1.11816,-3.28007c0.47149,-3.18813 2.84647,-11.21765 14.80959,-11.21765c14.92638,0 14.92638,12.5 14.92638,12.5l-0.76597,4.95285c-0.87783,1.48375 -0.30036,3.3231 -0.82743,4.91906c-0.58237,1.76341 -2.08774,3.24247 -2.72058,4.99364c-1.36011,3.76369 -1.0122,7.98664 -3.10536,11.50659c-1.91903,3.22711 -5.21449,5.73838 -7.90494,8.55272c-4.88968,5.11483 -8.93113,10.96551 -14.94689,15.32859c-1.15381,0.83683 -2.99463,0.68057 -4.27248,1.37969c-0.87199,0.47707 -1.08085,1.57448 -1.96643,2.03364c-0.89781,0.4655 -1.79237,0.96118 -2.69456,1.45145c1.54458,0.9383 3.04881,1.92292 4.57545,2.88177c1.47803,0.92832 3.46086,1.47219 4.43442,2.78592l3.05556,1.70591c4.11522,2.22568 6.83934,6.10051 6.83934,10.50817c0,6.90356 -6.68277,12.5 -14.92638,12.5h-3.58233c-6.9013,0 -14.67023,0.74083 -21.49671,-0.16141c-2.53647,-0.33524 -4.85642,-1.48268 -7.37533,-1.87481c-1.70423,-0.05551 -3.26352,-0.15125 -4.75409,-0.29597c-5.30254,-0.01584 -10.88298,0.7508 -15.96204,0.23853c-1.8499,-0.18658 -3.64469,-0.62035 -5.43887,-1.06157c-2.29446,-0.24662 -4.56645,-0.70399 -6.84143,-1.10209c-2.96679,0.12172 -6.28291,0.95818 -8.11686,-0.74269c-0.75786,0 -1.95806,0 -2.85541,0c-0.39804,0 -0.79607,0 -1.19411,0c-5.57252,0 -11.14503,0 -16.71755,0c-2.78609,0 -5.60837,-0.54751 -8.35605,-0.16141c-6.78717,0.95373 -13.94312,2.39909 -20.86707,3.06775c-1.78946,0.17281 -3.61571,-0.25322 -5.40337,-0.06775c-1.24915,0.1296 -2.3335,0.86824 -3.58233,1c-2.16232,0.22814 -4.36996,-0.12058 -6.53774,0.06775c-3.7672,0.32728 -7.33885,1.65946 -11.09994,2.03282c-5.01795,0.49813 -6.99891,0.60831 -12.03591,1.85493c-2.70976,3.15294 -7.13009,5.20591 -12.12299,5.20591c-4.84276,0 -9.14687,-1.93136 -11.87393,-4.92448c-7.58757,-0.01404 -15.17587,-0.07552 -22.75527,-0.07552c-4.74954,0 -10.18148,0.18762 -14.58301,-1.7385c-8.71737,3.40342 -16.27141,-2.92267 -16.27141,-2.92267z" fill="#ffffff" stroke="none" stroke-width="0.5" stroke-linecap="butt"/><path d="M-46,471v-208h169.8684l11.4689,11.73366l-2.0689,13.46634l6.24708,-13.22974l-5.30428,-12.56009l25.4572,0.58983l-6.56421,18.80599l-14.64909,12.92634l15.2133,-8.13233l21.51629,-23.6l-3.51629,23.8l23.51291,19.43294l-17.89037,-25.75948l20.63179,9.60325l-16.25404,-18.03995l31.05352,-9.03676h340.27778v208z" fill="#bd0000" stroke="none" stroke-width="0" stroke-linecap="butt"/><path d="M-34.754,291.11112v-222.22223h69.06907c0,0 7.55251,15.30691 -40,112.61111c-30.67928,62.7774 40,109.61112 40,109.61112z" fill="#692e00" stroke="none" stroke-width="0" stroke-linecap="butt"/><g stroke="none" stroke-width="0.5" stroke-linecap="butt"><g><path d="M200.86921,291.78459c-2.11981,-1.95032 -4.58211,-3.67385 -6.35942,-5.85096c-1.09316,-1.33907 -1.24992,-3.08132 -2.11677,-4.53191c-0.90482,-1.51413 -2.52093,-2.72537 -3.17709,-4.32687c-0.87286,-2.13039 -0.48654,-4.52533 -1.32645,-6.66499c-0.43042,-1.0965 -1.85615,-1.75976 -2.39732,-2.8213c-0.84959,-1.66652 -0.93681,-3.55208 -1.71396,-5.24322c-1.37839,-2.99953 -4.03097,-5.47952 -5.75578,-8.35064c-1.12895,-1.87926 -1.71032,-3.96618 -2.83239,-5.84833c-2.29417,-3.84822 -5.46737,-7.34158 -7.3293,-11.35014c-0.5847,-1.25881 -0.43581,-2.71408 -1.09424,-3.9471c-1.05248,-1.97097 -2.95532,-3.57271 -3.97936,-5.55416c-3.94517,-7.63358 -5.2415,-16.00898 -5.2415,-24.19784c0,-1.11083 0,-2.22166 0,-3.33249l14.5548,-17.11385c6.12263,5.10861 13.01582,9.64774 18.53604,15.20157c0.10247,-0.51449 0.20615,-1.02871 0.30856,-1.54287c0.88036,-4.42017 1.73593,-8.84872 2.90381,-13.22192c1.08114,-4.0484 1.53489,-8.10618 2.37808,-12.20707c0.93982,-4.57085 3.4569,-9.27256 3.8895,-13.91317c0.48408,-5.19283 -0.12423,-10.83276 -0.12423,-16.07674l9.37523,-14.80258c-0.66788,-4.642 0.67752,-9.76453 2.06214,-14.25536c0.12768,-0.41412 0.28871,-0.8093 0.47968,-1.18676c-2.13212,-5.7178 -2.40648,-12.44277 -0.04328,-17.2806c1.16262,-2.38007 8.65092,-9.3165 11.90739,-10.94123c3.96023,-1.97586 9.49639,-2.93949 13.98076,-3.88085c6.68471,-1.40326 13.62388,-2.2288 20.45011,-3.32933c0.73074,-2.12479 1.48576,-4.24381 2.28154,-6.35305c7.70622,-20.42566 15.68257,-40.8433 23.87737,-61.09876c0.76791,-1.89808 0.91852,-3.97613 1.93959,-5.7886c1.69356,-3.00618 4.78991,-5.30497 7.01814,-8.0557c1.91623,-2.36557 2.72001,-5.25645 4.41597,-7.73717c0.59853,-0.87548 1.55628,-1.56299 2.09903,-2.46361c0.8727,-1.44812 0.44236,-3.71646 2.11676,-4.53191c7.17123,-3.49246 15.40163,-5.16674 23.10244,-7.75011l10.02143,18.38512c-3.52981,8.86805 -0.50322,18.80313 -3.91043,27.59524c0.28677,0.52974 0.53499,1.07723 0.74165,1.63997l1.20555,3.02874l-0.51108,0.14266c0.02353,0.30272 0.03549,0.60809 0.03549,0.91579v0.29849l1.11236,0.80981c0.21683,6.75275 -0.35086,13.68837 0.19351,20.41664c0.33076,4.08815 0.89392,8.13221 1.58764,12.15318c2.56998,-0.59321 5.04158,-1.59968 7.68192,-1.91539c0.33126,-0.03961 1.05355,-0.06737 1.99462,-0.08466c1.32704,-0.85006 2.71432,-1.64693 4.1103,-2.4263c6.37185,-5.48483 12.73279,-10.77246 20.76005,-14.60143c1.24845,-0.59551 2.7397,-0.8066 3.93321,-1.47646c1.35976,-0.76316 2.23263,-2.05606 3.63082,-2.76887c3.29752,-1.68109 5.17508,-0.33995 3.62494,-1.33933l20.72238,-5.23164c3.41185,5.38698 7.4387,10.53088 10.23553,16.16092c0.67933,1.36749 0,2.96221 0,4.44332c0,2.14403 0.05573,7.90678 -0.29917,9.29082c-0.49991,1.94956 -2.05206,3.62468 -2.65291,5.55416c-0.24183,0.77659 0.30861,1.60851 0.17494,2.40322c-0.49718,2.95609 -0.8843,5.92443 -1.32645,8.88665c-0.66856,4.47908 -1.90497,8.85681 -2.65291,13.32997c-0.70817,4.23531 -0.3229,10.15291 0,14.38017c0.24423,3.19733 3.02767,5.93107 3.80442,9.06821c0.44885,1.81283 -0.43356,3.73872 0,5.55416c0.46697,1.95528 2.14451,3.60614 2.65291,5.55416c0.11402,0.4369 0.17487,0.87911 0.20335,1.32456c4.46579,-2.01243 11.79072,-3.54308 19.11565,2.59113c1.91741,1.60572 3.20766,3.21144 4.02462,4.77421c3.02558,-2.7065 7.33025,-4.39782 12.10662,-4.39782c9.15726,0 16.58069,6.2167 16.58069,13.88539v3.33249c1.61723,2.73056 1.20156,4.95246 0,6.92666c0,5.09665 0,10.19331 0,15.28996c0,1.99156 0.04278,7.55098 -0.2141,8.88918c-0.82076,4.27576 -2.90978,8.31153 -4.32955,12.47577c-2.16651,6.85366 -5.64757,11.48456 -10.11805,17.36321c-1.96111,2.57884 -3.41733,5.4163 -5.44972,7.95614c-2.61365,3.26624 -5.43938,6.40566 -8.35161,9.49233c1.75695,0.74945 2.96427,2.26848 4.68186,3.10494c0.75004,0.36527 1.7736,0.11986 2.54713,0.44899c2.01233,0.85623 3.94377,1.8686 5.72406,3.03139h0.25574c0,0 3.13547,0 6.67942,1.14185c0.08096,-0.13018 0.16975,-0.25562 0.27006,-0.37392c2.59823,-3.06411 5.28106,-6.08052 8.08353,-9.01569c1.33309,-1.39621 3.5112,-2.2379 4.48349,-3.82935c1.73356,-2.8375 0.77091,-6.37977 1.85629,-9.43474c0.43684,-1.22953 1.84155,-2.11136 2.28372,-3.33956c0.2728,-0.75773 -0.401,-1.58821 -0.22945,-2.36648c0.27394,-1.24281 0.75705,-2.4434 1.24209,-3.6436c0.52375,-3.54147 3.16195,-12.46091 16.45096,-12.46091c16.58069,0 16.58069,13.88539 16.58069,13.88539l-0.85087,5.50177c-0.97512,1.64819 -0.33364,3.6914 -0.91913,5.46425c-0.64692,1.95885 -2.31913,3.60183 -3.0221,5.54709c-1.51086,4.18082 -1.12438,8.87181 -3.44953,12.78188c-2.13171,3.58478 -5.79241,6.37437 -8.78105,9.50062c-5.43161,5.68171 -9.92098,12.18083 -16.60348,17.02747c-1.28169,0.92958 -3.32653,0.756 -4.746,1.5326c-0.96863,0.52994 -1.20064,1.74898 -2.18438,2.25903c-0.99731,0.51709 -1.99101,1.0677 -2.9932,1.61232c1.71577,1.04229 3.38671,2.13604 5.08255,3.20117c1.64184,1.03121 3.84443,1.63536 4.92589,3.09469l3.39422,1.89498c4.57131,2.47235 7.59735,6.77664 7.59735,11.6728c0,7.66869 -7.42343,13.88539 -16.58069,13.88539h-3.97936c-7.66618,0 -16.29615,0.82294 -23.87921,-0.17929c-2.81759,-0.3724 -5.39466,-1.64702 -8.19275,-2.0826c-1.89312,-0.06166 -3.62522,-0.16802 -5.28099,-0.32877c-5.89023,-0.0176 -12.08915,0.83401 -17.73113,0.26497c-2.05493,-0.20726 -4.04864,-0.68911 -6.04167,-1.17922c-2.54876,-0.27395 -5.07255,-0.78201 -7.59967,-1.22423c-3.2956,0.13521 -6.97925,1.06438 -9.01646,-0.825c-0.84186,0 -2.17507,0 -3.17188,0c-0.44215,0 -0.8843,0 -1.32645,0c-6.19012,0 -12.38025,0 -18.57037,0c-3.09488,0 -6.22996,-0.60819 -9.28217,-0.17929c-7.53939,1.05943 -15.48845,2.66498 -23.17978,3.40775c-1.98779,0.19197 -4.01644,-0.28128 -6.00223,-0.07526c-1.3876,0.14396 -2.59212,0.96447 -3.97936,1.11083c-2.40197,0.25343 -4.85429,-0.13394 -7.26232,0.07526c-4.18473,0.36355 -8.15222,1.84338 -12.33015,2.25812c-5.5741,0.55333 -7.77461,0.67574 -13.36987,2.06051c-3.01009,3.50238 -7.92033,5.78289 -13.4666,5.78289c-5.37949,0 -10.16062,-2.14541 -13.18993,-5.47027c-8.42851,-0.01559 -16.85783,-0.08388 -25.27727,-0.08388c-5.27594,0 -11.3099,0.20841 -16.19926,-1.93118c-9.68353,3.78062 -18.07479,-3.24659 -18.07479,-3.24659z" fill="url(#color-1)"/><path d="M200.86921,291.7846c-2.11981,-1.95032 -4.58211,-3.67386 -6.35943,-5.85096c-1.09316,-1.33907 -1.24992,-3.08132 -2.11676,-4.53191c-0.90482,-1.51413 -2.52094,-2.72537 -3.1771,-4.32687c-0.87286,-2.13039 -0.48655,-4.52533 -1.32646,-6.66499c-0.43043,-1.0965 -1.85614,-1.75976 -2.39731,-2.8213c-0.84959,-1.66652 -0.93681,-3.55208 -1.71396,-5.24322c-1.37839,-2.99953 -4.03097,-5.47952 -5.75577,-8.35064c-1.12895,-1.87926 -1.71032,-3.96618 -2.83239,-5.84833c-2.29416,-3.84822 -5.46737,-7.34158 -7.3293,-11.35015c-0.58471,-1.25881 -0.43581,-2.71408 -1.09423,-3.9471c-1.05248,-1.97097 -2.95532,-3.57271 -3.97936,-5.55416c-3.94517,-7.63358 -5.24149,-16.00898 -5.24149,-24.19784c0,-1.11083 0,-2.22166 0,-3.33249l14.5548,-17.11385c6.12263,5.10861 13.01582,9.64774 18.53604,15.20157c0.10247,-0.51449 0.20616,-1.02872 0.30856,-1.54287c0.88036,-4.42017 1.73593,-8.84872 2.90381,-13.22192c1.08114,-4.0484 1.53489,-8.10618 2.37808,-12.20707c0.93982,-4.57085 3.4569,-9.27256 3.8895,-13.91318c0.48408,-5.19283 -0.12423,-10.83276 -0.12423,-16.07673l9.37523,-14.80258c-0.66788,-4.642 0.67752,-9.76453 2.06213,-14.25536c0.12769,-0.41413 0.28871,-0.8093 0.47968,-1.18676c-2.13212,-5.7178 -2.40648,-12.44277 -0.04328,-17.2806c1.16262,-2.38007 8.65093,-9.3165 11.9074,-10.94123c3.96023,-1.97586 9.49639,-2.9395 13.98076,-3.88085c6.68471,-1.40326 13.62387,-2.2288 20.45011,-3.32933c0.73074,-2.12479 1.48576,-4.24381 2.28153,-6.35305c7.70622,-20.42566 15.68257,-40.8433 23.87737,-61.09876c0.76791,-1.89808 0.91852,-3.97612 1.93959,-5.7886c1.69356,-3.00618 4.78992,-5.30497 7.01814,-8.05571c1.91623,-2.36557 2.72001,-5.25645 4.41597,-7.73717c0.59853,-0.87548 1.55628,-1.563 2.09903,-2.46361c0.8727,-1.44812 0.44236,-3.71646 2.11676,-4.53191c7.17123,-3.49246 15.40163,-5.16673 23.10244,-7.7501l10.02144,18.38511c-3.52981,8.86806 -0.50323,18.80313 -3.91043,27.59524c0.28677,0.52974 0.53499,1.07724 0.74165,1.63997l1.20556,3.02874l-0.51108,0.14266c0.02354,0.30272 0.03548,0.60809 0.03548,0.91578v0.29848l1.11236,0.80981c0.21683,6.75276 -0.35086,13.68837 0.19351,20.41665c0.33076,4.08816 0.89392,8.1322 1.58764,12.15317c2.56998,-0.59321 5.04159,-1.59968 7.68192,-1.91539c0.33126,-0.0396 1.05355,-0.06737 1.99462,-0.08466c1.32704,-0.85007 2.71432,-1.64693 4.1103,-2.4263c6.37185,-5.48483 12.73279,-10.77246 20.76004,-14.60143c1.24845,-0.59551 2.73971,-0.8066 3.93322,-1.47647c1.35976,-0.76316 2.23264,-2.05606 3.63083,-2.76886c3.29752,-1.68108 5.17507,-0.33996 3.62494,-1.33933l20.72239,-5.23164c3.41184,5.38698 7.4387,10.53089 10.23553,16.16093c0.67933,1.36749 0,2.96221 0,4.44332c0,2.14402 0.05573,7.90678 -0.29918,9.29082c-0.49991,1.94956 -2.05206,3.62468 -2.65291,5.55416c-0.24184,0.77659 0.3086,1.60851 0.17494,2.40322c-0.49718,2.9561 -0.88431,5.92443 -1.32646,8.88665c-0.66857,4.47907 -1.90497,8.85681 -2.65291,13.32997c-0.70817,4.23531 -0.3229,10.15291 0,14.38018c0.24423,3.19734 3.02767,5.93107 3.80442,9.0682c0.44885,1.81283 -0.43357,3.73873 0,5.55416c0.46696,1.95528 2.14451,3.60613 2.65291,5.55416c0.11402,0.43689 0.17488,0.87911 0.20335,1.32456c4.46579,-2.01242 11.79072,-3.54308 19.11565,2.59113c1.9174,1.60571 3.20766,3.21144 4.02462,4.77421c3.02558,-2.7065 7.33025,-4.39783 12.10662,-4.39783c9.15726,0 16.58069,6.2167 16.58069,13.88539v3.33249c1.61723,2.73056 1.20157,4.95246 0,6.92666c0,5.09665 0,10.19331 0,15.28996c0,1.99157 0.04278,7.55098 -0.21409,8.88918c-0.82076,4.27576 -2.90979,8.31153 -4.32956,12.47578c-2.16652,6.85366 -5.64756,11.48456 -10.11805,17.36321c-1.9611,2.57885 -3.41733,5.4163 -5.44972,7.95614c-2.61365,3.26624 -5.43939,6.40565 -8.35161,9.49232c1.75694,0.74945 2.96428,2.26849 4.68186,3.10494c0.75005,0.36527 1.7736,0.11986 2.54713,0.44899c2.01233,0.85624 3.94378,1.86859 5.72406,3.03139h0.25574c0,0 3.13547,0 6.67942,1.14184c0.08096,-0.13018 0.16974,-0.25561 0.27006,-0.37391c2.59824,-3.06411 5.28107,-6.08053 8.08353,-9.0157c1.33308,-1.39621 3.5112,-2.2379 4.48349,-3.82935c1.73356,-2.8375 0.77091,-6.37977 1.85629,-9.43474c0.43684,-1.22954 1.84155,-2.11136 2.28372,-3.33956c0.2728,-0.75773 -0.401,-1.58821 -0.22946,-2.36649c0.27394,-1.24282 0.75705,-2.4434 1.24209,-3.6436c0.52375,-3.54147 3.16195,-12.46091 16.45096,-12.46091c16.58069,0 16.58069,13.88538 16.58069,13.88538l-0.85087,5.50178c-0.97512,1.64819 -0.33364,3.6914 -0.91913,5.46425c-0.64692,1.95885 -2.31912,3.60183 -3.0221,5.54709c-1.51086,4.18082 -1.12438,8.87182 -3.44953,12.78189c-2.13171,3.58478 -5.79241,6.37437 -8.78105,9.50062c-5.43161,5.68171 -9.92097,12.18084 -16.60348,17.02748c-1.28169,0.92957 -3.32653,0.756 -4.746,1.5326c-0.96863,0.52994 -1.20064,1.74897 -2.18437,2.25903c-0.99731,0.51709 -1.99102,1.0677 -2.9932,1.61232c1.71578,1.04229 3.38671,2.13604 5.08254,3.20116c1.64184,1.03121 3.84443,1.63536 4.92589,3.09469l3.39422,1.89498c4.57132,2.47235 7.59735,6.77663 7.59735,11.6728c0,7.66869 -7.42343,13.88539 -16.58069,13.88539h-3.97936c-7.66618,0 -16.29615,0.82294 -23.87921,-0.1793c-2.81759,-0.37239 -5.39466,-1.64702 -8.19275,-2.0826c-1.89311,-0.06166 -3.62523,-0.16802 -5.28099,-0.32877c-5.89022,-0.0176 -12.08915,0.83401 -17.73113,0.26497c-2.05493,-0.20726 -4.04864,-0.68911 -6.04166,-1.17922c-2.54877,-0.27395 -5.07255,-0.78202 -7.59968,-1.22423c-3.29561,0.13521 -6.97925,1.06438 -9.01646,-0.825c-0.84186,0 -2.17508,0 -3.17188,0c-0.44215,0 -0.8843,0 -1.32645,0c-6.19013,0 -12.38024,0 -18.57037,0c-3.09488,0 -6.22996,-0.60819 -9.28216,-0.1793c-7.53939,1.05943 -15.48845,2.66498 -23.17979,3.40775c-1.9878,0.19197 -4.01644,-0.28128 -6.00222,-0.07526c-1.3876,0.14396 -2.59213,0.96447 -3.97937,1.11083c-2.40197,0.25343 -4.85429,-0.13394 -7.26232,0.07525c-4.18473,0.36356 -8.15222,1.84338 -12.33015,2.25812c-5.5741,0.55334 -7.77461,0.67574 -13.36987,2.06051c-3.01009,3.50238 -7.92033,5.78289 -13.4666,5.78289c-5.37949,0 -10.16062,-2.14542 -13.18993,-5.47027c-8.42851,-0.01559 -16.85783,-0.08389 -25.27726,-0.08389c-5.27594,0 -11.3099,0.20841 -16.19926,-1.93118c-9.68353,3.78062 -18.07478,-3.24658 -18.07478,-3.24658z" fill="url(#color-2)"/></g><g fill="url(#color-3)"><path d="M200.86921,291.7846c-2.11981,-1.95032 -4.58211,-3.67386 -6.35943,-5.85096c-1.09316,-1.33907 -1.24992,-3.08132 -2.11676,-4.53191c-0.90482,-1.51413 -2.52094,-2.72537 -3.1771,-4.32687c-0.87286,-2.13039 -0.48655,-4.52533 -1.32646,-6.66499c-0.43043,-1.0965 -1.85614,-1.75976 -2.39731,-2.8213c-0.84959,-1.66652 -0.93681,-3.55208 -1.71396,-5.24322c-1.37839,-2.99953 -4.03097,-5.47952 -5.75577,-8.35064c-1.12895,-1.87926 -1.71032,-3.96618 -2.83239,-5.84833c-2.29416,-3.84822 -5.46737,-7.34158 -7.3293,-11.35014c-0.58471,-1.25881 -0.43581,-2.71408 -1.09423,-3.9471c-1.05248,-1.97097 -2.95532,-3.57271 -3.97936,-5.55415c-3.94517,-7.63358 -5.24149,-16.00898 -5.24149,-24.19784c0,-1.11083 0,-2.22166 0,-3.33249l14.5548,-17.11385c6.12263,5.10861 13.01582,9.64774 18.53604,15.20157c0.10247,-0.51449 0.20616,-1.02871 0.30856,-1.54287c0.88036,-4.42017 1.73593,-8.84872 2.90381,-13.22192c1.08114,-4.0484 1.53489,-8.10618 2.37808,-12.20706c0.93982,-4.57085 3.4569,-9.27256 3.8895,-13.91317c0.48408,-5.19283 -0.12423,-10.83277 -0.12423,-16.07674l9.37523,-14.80258c-0.66788,-4.642 0.67752,-9.76453 2.06213,-14.25536c0.12769,-0.41412 0.28871,-0.8093 0.47968,-1.18676c-2.13212,-5.7178 -2.40648,-12.44277 -0.04328,-17.2806c1.16262,-2.38007 8.65093,-9.3165 11.9074,-10.94123c3.96023,-1.97586 9.49639,-2.93949 13.98076,-3.88085c6.68471,-1.40326 13.62387,-2.2288 20.45011,-3.32933c0.73074,-2.12479 1.48576,-4.24381 2.28153,-6.35305c7.70622,-20.42565 15.68257,-40.8433 23.87737,-61.09876c0.76791,-1.89808 0.91852,-3.97612 1.93959,-5.7886c1.69356,-3.00617 4.78992,-5.30497 7.01814,-8.05571c1.91623,-2.36557 2.72001,-5.25645 4.41597,-7.73716c0.59852,-0.87548 1.55628,-1.563 2.09903,-2.46361c0.8727,-1.44812 0.44236,-3.71646 2.11676,-4.53191c7.17123,-3.49246 15.40163,-5.16674 23.10244,-7.75011l10.02143,18.38512c-3.52981,8.86805 -0.50322,18.80312 -3.91042,27.59524c0.28677,0.52974 0.53499,1.07723 0.74165,1.63997l1.20556,3.02874l-0.51108,0.14267c0.02354,0.30272 0.03548,0.60808 0.03548,0.91578v0.29849l1.11236,0.80981c0.21683,6.75276 -0.35086,13.68837 0.19351,20.41665c0.33076,4.08816 0.89392,8.1322 1.58764,12.15318c2.56998,-0.59321 5.04159,-1.59968 7.68193,-1.91539c0.33125,-0.03961 1.05355,-0.06737 1.99462,-0.08466c1.32704,-0.85007 2.71433,-1.64693 4.1103,-2.4263c6.37185,-5.48483 12.73278,-10.77245 20.76004,-14.60143c1.24844,-0.59551 2.7397,-0.8066 3.93322,-1.47646c1.35975,-0.76316 2.23263,-2.05606 3.63082,-2.76887c3.29753,-1.68108 5.17507,-0.33996 3.62494,-1.33933l20.72238,-5.23164c3.41184,5.38698 7.4387,10.53088 10.23553,16.16092c0.67933,1.36749 0,2.96221 0,4.44332c0,2.14402 0.05573,7.90678 -0.29918,9.29082c-0.49991,1.94956 -2.05206,3.62468 -2.65291,5.55415c-0.24184,0.77659 0.3086,1.60851 0.17494,2.40323c-0.49718,2.9561 -0.88431,5.92443 -1.32646,8.88665c-0.66857,4.47907 -1.90497,8.85681 -2.65291,13.32997c-0.70817,4.23531 -0.3229,10.15291 0,14.38018c0.24423,3.19734 3.02767,5.93107 3.80442,9.06821c0.44885,1.81283 -0.43357,3.73873 0,5.55416c0.46696,1.95528 2.14451,3.60613 2.65291,5.55416c0.11402,0.4369 0.17488,0.87911 0.20335,1.32456c4.46579,-2.01242 11.79072,-3.54308 19.11565,2.59113c1.9174,1.60571 3.20766,3.21143 4.02462,4.77421c3.02558,-2.7065 7.33025,-4.39783 12.10662,-4.39783c9.15726,0 16.58069,6.2167 16.58069,13.88539v3.33249c1.61723,2.73056 1.20157,4.95247 0,6.92666c0,5.09665 0,10.1933 0,15.28996c0,1.99157 0.04278,7.55098 -0.21409,8.88918c-0.82076,4.27576 -2.90979,8.31153 -4.32956,12.47578c-2.16651,6.85366 -5.64756,11.48456 -10.11805,17.36321c-1.9611,2.57885 -3.41733,5.4163 -5.44972,7.95614c-2.61365,3.26625 -5.43939,6.40566 -8.35161,9.49232c1.75694,0.74945 2.96428,2.26849 4.68186,3.10494c0.75005,0.36527 1.7736,0.11986 2.54713,0.44899c2.01233,0.85624 3.94377,1.86859 5.72406,3.03139h0.25574c0,0 3.13547,0 6.67942,1.14184c0.08096,-0.13018 0.16974,-0.25561 0.27006,-0.37391c2.59823,-3.06411 5.28106,-6.08053 8.08353,-9.0157c1.33308,-1.39621 3.5112,-2.23789 4.48349,-3.82935c1.73356,-2.8375 0.77091,-6.37978 1.85629,-9.43474c0.43684,-1.22953 1.84155,-2.11136 2.28372,-3.33956c0.2728,-0.75773 -0.401,-1.58821 -0.22946,-2.36648c0.27394,-1.24282 0.75705,-2.44339 1.24209,-3.6436c0.52375,-3.54147 3.16195,-12.46092 16.45096,-12.46092c16.58069,0 16.58069,13.88539 16.58069,13.88539l-0.85087,5.50178c-0.97512,1.64819 -0.33364,3.6914 -0.91913,5.46425c-0.64692,1.95885 -2.31912,3.60183 -3.0221,5.54709c-1.51086,4.18083 -1.12438,8.87182 -3.44953,12.78189c-2.13171,3.58478 -5.79241,6.37437 -8.78105,9.50062c-5.43161,5.6817 -9.92097,12.18083 -16.60348,17.02747c-1.28169,0.92957 -3.32653,0.756 -4.746,1.5326c-0.96863,0.52994 -1.20064,1.74897 -2.18437,2.25903c-0.99731,0.51709 -1.99102,1.0677 -2.9932,1.61232c1.71578,1.04229 3.38671,2.13604 5.08254,3.20116c1.64184,1.03121 3.84443,1.63536 4.92589,3.09469l3.39422,1.89498c4.57132,2.47235 7.59735,6.77663 7.59735,11.6728c0,7.66869 -7.42343,13.88539 -16.58069,13.88539h-3.97936c-7.66618,0 -16.29615,0.82294 -23.87921,-0.1793c-2.81759,-0.37239 -5.39466,-1.64702 -8.19275,-2.0826c-1.89311,-0.06166 -3.62523,-0.16802 -5.28099,-0.32877c-5.89022,-0.0176 -12.08915,0.83401 -17.73113,0.26497c-2.05493,-0.20726 -4.04864,-0.68911 -6.04166,-1.17922c-2.54877,-0.27395 -5.07255,-0.78202 -7.59968,-1.22423c-3.29561,0.13521 -6.97925,1.06438 -9.01646,-0.825c-0.84186,0 -2.17508,0 -3.17188,0c-0.44215,0 -0.8843,0 -1.32646,0c-6.19012,0 -12.38024,0 -18.57037,0c-3.09488,0 -6.22995,-0.60819 -9.28216,-0.1793c-7.5394,1.05943 -15.48845,2.66498 -23.17979,3.40775c-1.9878,0.19197 -4.01644,-0.28128 -6.00222,-0.07526c-1.3876,0.14396 -2.59213,0.96447 -3.97937,1.11083c-2.40197,0.25343 -4.85429,-0.13394 -7.26232,0.07525c-4.18473,0.36356 -8.15222,1.84338 -12.33015,2.25812c-5.5741,0.55334 -7.77461,0.67574 -13.36987,2.06051c-3.01009,3.50238 -7.92033,5.78289 -13.4666,5.78289c-5.37949,0 -10.16062,-2.14542 -13.18993,-5.47027c-8.42851,-0.01559 -16.85783,-0.08389 -25.27726,-0.08389c-5.27594,0 -11.3099,0.20841 -16.19926,-1.93118c-9.68353,3.78062 -18.07478,-3.24658 -18.07478,-3.24658z"/><path d="M284.36314,7.7621c0.76791,-1.89808 0.91852,-3.97612 1.93959,-5.7886c1.69356,-3.00617 4.78992,-5.30497 7.01814,-8.05571c1.91623,-2.36557 2.72001,-5.25645 4.41597,-7.73716c0.59852,-0.87548 1.55628,-1.563 2.09903,-2.46361c0.8727,-1.44812 0.44236,-3.71646 2.11676,-4.53191c7.17123,-3.49246 15.40163,-5.16674 23.10244,-7.75011l10.02143,18.38512c-3.52981,8.86805 -0.50322,18.80312 -3.91042,27.59524c0.28677,0.52974 0.53499,1.07723 0.74165,1.63997l1.20556,3.02874l-0.51108,0.14267c0.02354,0.30272 0.03548,0.60808 0.03548,0.91578v0.29849l1.11236,0.80981c0.07891,2.45759 0.05391,4.9394 0.01643,7.42663c-6.42613,1.86354 -11.76811,3.46609 -12.27454,3.78528c-1.0302,0.64931 -12.34029,11.87968 -20.87828,20.40922c-8.89255,1.80612 -17.78251,3.62511 -26.67496,5.43175c-3.82241,0.77658 -7.64694,1.54282 -11.46987,2.31687c7.08907,-18.67651 14.40035,-37.3353 21.89431,-55.85846z"/><path d="M459.41307,186.69387c-2.16651,6.85366 -5.64756,11.48456 -10.11805,17.36321c-1.9611,2.57885 -3.41733,5.4163 -5.44972,7.95614c-2.61365,3.26625 -5.43939,6.40566 -8.35161,9.49232c1.75694,0.74945 2.96428,2.26849 4.68186,3.10494c0.75005,0.36527 1.7736,0.11986 2.54713,0.44899c2.01233,0.85624 3.94377,1.86859 5.72406,3.03139h0.25574c0,0 3.13547,0 6.67942,1.14184c0.08096,-0.13018 0.16974,-0.25561 0.27006,-0.37391c2.59823,-3.06411 5.28106,-6.08053 8.08353,-9.0157c1.33308,-1.39621 3.5112,-2.23789 4.48349,-3.82935c1.73356,-2.8375 0.77091,-6.37978 1.85629,-9.43474c0.43684,-1.22953 1.84155,-2.11136 2.28372,-3.33956c0.2728,-0.75773 -0.401,-1.58821 -0.22946,-2.36648c0.27394,-1.24282 0.75705,-2.44339 1.24209,-3.6436c0.52375,-3.54147 3.16195,-12.46092 16.45096,-12.46092c2.46396,0 4.56176,0.30663 6.34782,0.82876c-1.10956,4.305 -2.07873,8.67022 -4.27743,12.48924c-2.96058,5.14235 -7.92486,8.83355 -11.8873,13.25032c-10.18105,11.59867 -20.3621,23.19733 -30.54315,34.796c-2.26361,-0.24325 -4.52329,-1.10476 -6.79478,-1.40337c-6.05846,-0.79643 -12.24062,-0.84899 -18.19845,-2.2068c-2.40547,-0.54821 -4.34088,-2.34885 -6.55615,-3.43485c-4.29964,-2.10783 -8.77908,-3.86638 -13.04217,-6.03911c5.11872,-7.12703 10.21448,-14.27185 15.30384,-21.42071c1.86587,-1.38418 3.7319,-2.76814 5.59817,-4.15176c10.71082,-7.94078 21.42165,-15.88157 32.13247,-23.82235c1.24888,-0.92589 2.49846,-1.85084 3.74824,-2.77551c-0.76078,1.93561 -1.5744,3.86144 -2.24064,5.81556z"/><path d="M305.33926,79.44309c1.72027,-1.72027 3.44598,-3.43516 5.17117,-5.15056c2.20341,-0.44971 4.40658,-0.90062 6.60941,-1.35316c6.10745,-1.25467 12.09405,-3.36711 18.31353,-3.80663c6.21948,-0.43952 12.44458,0.79554 18.66687,1.19331c7.02654,0.41742 14.05278,0.84592 21.07915,1.2738c-0.22343,0.74987 -0.43482,1.50176 -0.62693,2.25685c-0.08567,0.33674 -0.17036,0.67377 -0.25413,1.01107c-3.06298,4.66944 -4.9529,10.08259 -7.27933,15.219c-6.15552,-0.00544 -12.31109,-0.02692 -18.46655,0.00099c-1.83928,0.00834 -3.73129,-0.32635 -5.51668,0.11568c-6.96212,1.72373 -13.72671,4.16641 -20.56146,6.34091c-6.01818,1.91471 -12.61388,2.62138 -17.99562,5.92616c-1.65912,1.01882 -3.20068,2.19355 -4.66927,3.46461c-0.23853,-1.74678 -0.52869,-3.4848 -0.90444,-5.20828c-0.88249,-4.04775 -0.91201,-8.90086 -1.3422,-13.4768c2.5933,-2.60115 5.17926,-5.20972 7.77647,-7.80694z"/><path d="M200.86921,291.7846c-2.11981,-1.95032 -4.58211,-3.67386 -6.35943,-5.85096c-1.09316,-1.33907 -1.24992,-3.08132 -2.11676,-4.53191c-0.90482,-1.51413 -2.52094,-2.72537 -3.1771,-4.32687c-0.87286,-2.13039 -0.48655,-4.52533 -1.32646,-6.66499c-0.43043,-1.0965 -1.85614,-1.75976 -2.39731,-2.8213c-0.84959,-1.66652 -0.93681,-3.55208 -1.71396,-5.24322c-1.37839,-2.99953 -4.03097,-5.47952 -5.75577,-8.35064c-1.12895,-1.87926 -1.71032,-3.96618 -2.83239,-5.84833c-2.29416,-3.84822 -5.46737,-7.34158 -7.3293,-11.35014c-0.58471,-1.25881 -0.43581,-2.71408 -1.09423,-3.9471c-1.05248,-1.97097 -2.95532,-3.57271 -3.97936,-5.55415c-1.11016,-2.14808 -2.01058,-4.35489 -2.73138,-6.59976c1.56098,2.21169 3.15862,4.40277 4.61671,6.65248c2.23237,3.44437 3.5464,8.13553 7.21338,9.97955c7.14662,3.59382 15.55149,3.76753 23.38133,5.40561c5.05973,1.05855 10.09082,2.655 15.18783,3.48017c0.10617,2.1257 0.55732,4.34146 1.42939,6.65155c0.77265,2.04675 1.95754,3.59248 3.45003,4.72713c-0.45222,2.3193 -0.91009,4.6357 -1.37573,6.94837c-2.05922,10.22748 -4.30278,20.46002 -6.49346,30.70711c-3.98714,-1.27775 -6.59605,-3.46257 -6.59605,-3.46257z"/><path d="M408.20941,291.3042c-2.05493,-0.20726 -4.04864,-0.68911 -6.04166,-1.17922c-2.54877,-0.27395 -5.07255,-0.78202 -7.59968,-1.22423c-0.02165,0.00089 -0.04331,0.00181 -0.06499,0.00277c-0.31189,-3.63431 -2.05774,-5.77037 -4.00224,-7.02584c-0.77229,-8.78993 -9.94836,-8.78993 -9.94836,-8.78993c-1.61721,0 -3.2959,-0.06602 -4.97676,-0.10396c0.97139,-1.24389 1.92874,-2.4953 2.86934,-3.75543c4.96063,-6.64576 9.8755,-13.32838 14.75863,-20.03622c5.10128,2.85644 10.54536,5.13596 15.7652,7.78415c3.19221,1.61951 6.18902,3.82908 9.66677,4.67661c5.04846,1.23031 10.23761,1.72613 15.42003,2.24664c-6.29178,7.5261 -12.47803,15.15156 -19.47077,22.01514c-1.97221,1.93578 -4.10891,3.68816 -6.28354,5.39867c-0.03067,-0.00301 -0.06131,-0.00605 -0.09195,-0.00914z"/><path d="M212.59916,201.60801c-0.15029,-0.12232 -0.47659,0.42553 -0.52983,0.23921c-0.69386,-2.42846 -1.92294,-4.92866 -1.52254,-7.42236c0.92095,-5.73569 3.64947,-11.0309 5.37608,-16.57753c1.28982,-4.14347 1.71859,-8.61518 3.67235,-12.49007c2.78187,-5.51726 6.92996,-10.23194 10.37176,-15.36352c3.71349,-5.53665 7.4152,-11.08125 11.094,-16.64101c2.31526,-3.49904 3.97609,-7.51445 6.88802,-10.53511c3.53107,-3.66291 7.56684,-6.77391 11.70341,-9.77522c-6.66165,16.04382 -13.22061,32.13201 -19.84308,48.19149c-3.28931,7.97658 -7.76775,15.56806 -9.82516,23.94735c-1.31365,5.35015 -2.53864,10.73106 -3.70178,16.13227c-2.7348,1.8612 -5.46175,3.73144 -7.92555,5.88212c-1.87776,-1.91766 -3.7055,-3.91741 -5.75768,-5.58763z"/><path d="M196.22694,170.88053c0.93982,-4.57085 3.4569,-9.27256 3.8895,-13.91317c0.48408,-5.19283 -0.12423,-10.83277 -0.12423,-16.07674l9.37523,-14.80258c-0.66788,-4.642 0.67752,-9.76453 2.06213,-14.25536c0.12769,-0.41412 0.28871,-0.8093 0.47968,-1.18676c-0.16572,-0.44441 -0.32021,-0.8949 -0.46311,-1.35012c0.61421,-0.39654 1.22884,-0.79242 1.8441,-1.18729c5.61058,-3.60082 11.23732,-7.17656 16.83173,-10.80245c5.07989,-3.29242 9.65088,-7.51208 15.19082,-9.95225c4.03903,-1.77906 8.6787,-1.61209 13.00828,-2.46857c2.08518,-0.41249 4.16899,-0.83181 6.25209,-1.2547c-6.50254,4.88339 -12.19625,9.95653 -14.80433,12.08421c-5.5524,4.52966 -11.66399,8.46089 -16.61289,13.64311c-3.58681,3.75592 -5.84147,8.58878 -8.73596,12.90087c-1.08119,1.61071 -22.42869,33.59462 -22.91025,34.5595c-2.3736,4.75585 -3.21625,10.13301 -4.72735,15.22895c-0.48285,1.62834 -1.04815,3.24412 -1.63784,4.8565c0.34725,-1.99997 0.66773,-4.00635 1.08241,-6.02315z"/><path d="M467.93608,263.08204c1.64184,1.03121 3.84443,1.63536 4.92589,3.09469l3.39422,1.89498c4.57132,2.47235 7.59735,6.77663 7.59735,11.6728c0,7.66869 -7.42343,13.88539 -16.58069,13.88539h-3.97936c-7.66618,0 -16.29615,0.82294 -23.87921,-0.1793c-1.37704,-0.182 -2.69664,-0.5795 -4.01266,-0.98924c7.82649,-8.90175 19.58696,-22.30666 20.0537,-22.8384c1.41732,-1.61467 2.83464,-3.22934 4.25197,-4.84401c2.47688,-0.6498 4.9261,-1.43806 7.37273,-2.23777c0.28487,0.18084 0.57011,0.36126 0.85606,0.54086z"/><path d="M172.10045,182.65081c6.06828,5.06326 12.8935,9.56711 18.38871,15.0539c0.12904,9.61648 2.75226,13.73348 9.31165,19.27217c2.20366,1.86076 4.29602,3.91072 6.42258,5.91098c-0.29517,0.57957 -0.57519,1.16536 -0.83837,1.75743c-2.08585,-0.58933 -4.1745,-1.16995 -6.28763,-1.54224c-5.26478,-0.92755 -10.8547,-0.42677 -15.8783,-2.25481c-1.37725,-0.50117 -0.84218,-2.83809 -1.58666,-4.10052c-3.00375,-5.0935 -7.67258,-9.32116 -9.62085,-14.90422c-1.86092,-5.33275 -0.89672,-11.26154 -1.47073,-16.88042c-0.0145,-0.14191 -0.02949,-0.28378 -0.04495,-0.42562z"/><path d="M397.79559,203.32111c-3.14052,2.32832 -6.28216,4.65512 -9.42394,6.98174c-3.06324,-4.54524 -6.18341,-9.05191 -9.30821,-13.55548c9.91131,-5.51516 19.82261,-11.03032 29.73392,-16.54549c0.26085,-0.14515 7.43275,-4.13499 15.25238,-8.48696c-6.12867,8.57022 -12.23596,17.15969 -18.34936,25.74575c-2.63493,1.95348 -5.26985,3.90696 -7.90478,5.86044z"/><path d="M365.66312,227.14345c-5.04695,3.75458 -9.70331,8.09401 -15.12119,11.29013c-0.60215,0.35522 -1.21448,0.69043 -1.83503,1.00947c0.37352,-6.0069 0.72006,-12.01224 1.00963,-18.02105c1.26808,-3.48045 2.53063,-6.9629 3.78317,-10.44896c1.61342,-0.89814 2.66023,-1.48099 2.86817,-1.5967c1.79032,-0.99623 3.58065,-1.99246 5.37097,-2.98869c4.14465,6.27327 8.30519,12.48222 10.54829,15.83425c-2.20889,1.63933 -4.417,3.27969 -6.62401,4.92155z"/><path d="M401.98945,26.97657c3.41184,5.38698 7.4387,10.53088 10.23553,16.16092c0.67933,1.36749 0,2.96221 0,4.44332c0,1.30812 0.02075,3.96334 -0.04369,6.14925c-4.35488,-0.2731 -8.71031,-0.53903 -13.06606,-0.80033c-0.26397,-5.69531 -1.52281,-11.37722 -2.29838,-17.03913c-0.3194,-2.33174 -0.03534,-5.14683 -1.64152,-6.86707c-0.08287,-0.08876 -0.16535,-0.17682 -0.24745,-0.26417z"/><path d="M346.06915,109.97206c0.79887,-0.22025 1.65466,0.11142 2.48332,0.11568c2.90662,0.01496 5.81328,0.01736 8.71994,0.0151c-0.08642,0.17971 -0.17276,0.35946 -0.25903,0.53924c-1.42416,2.96789 -3.58176,5.71959 -4.1477,8.96248c-0.13649,0.78209 -0.45189,6.26991 -0.80318,13.04346c-0.30417,0.09932 -0.60833,0.19865 -0.91249,0.29798c-0.9813,-0.53224 -1.96349,-1.06282 -2.94662,-1.59165c-3.06739,-7.84145 -9.86362,-13.25833 -17.42181,-16.46407c5.09221,-1.6536 10.12698,-3.49547 15.28757,-4.91823z"/><path d="M310.42623,146.33898c-1.89394,0.63005 -3.81023,1.2049 -5.72988,1.77167c-0.68017,-5.565 -1.36033,-11.13001 -2.0405,-16.69501c1.98737,-1.98391 3.8006,-4.18369 5.71317,-6.25546l1.69662,5.08985l0.31095,-0.10365c0.30119,1.18168 0.77445,2.30292 1.49016,3.33901c2.84381,4.11675 7.52644,6.27226 12.31737,8.29907c-4.588,1.51222 -9.17421,3.0297 -13.75789,4.55452z"/><path d="M267.4814,155.01668c-6.77661,8.42555 -9.85065,16.04769 -12.0743,24.38c-1.00674,0.76719 -2.01353,1.53431 -3.0203,2.30148c1.90066,-4.30215 4.12282,-8.50057 5.91214,-12.83968c7.33325,-17.78312 14.7549,-35.53353 22.01103,-53.34847c0.42255,2.49682 0.86324,4.99271 1.16913,7.49546c0.0371,0.30354 0.0742,0.60709 0.1113,0.91063c-0.15336,0.23647 -0.29682,0.48011 -0.42898,0.73192c-3.46039,6.5933 -5.17115,13.96598 -7.69527,20.97132c-0.76583,2.12546 -1.52137,4.2408 -2.2695,6.35c-1.43848,0.79054 -2.72634,1.81777 -3.71526,3.04733z"/><path d="M355.28627,50.36123c-1.10273,-0.06113 -2.20563,-0.14389 -3.30861,-0.23818c1.85959,-1.57039 3.73792,-3.10934 5.67612,-4.58594c6.48883,-2.01953 12.9402,-4.1653 19.38203,-6.32769c0.42946,4.19706 1.57137,8.35684 1.98713,12.53866c-7.91255,-0.45964 -15.82518,-0.91687 -23.73667,-1.38686z"/><path d="M415.21103,134.33279c4.47209,-4.57135 11.67937,-5.02705 17.7855,-7.17071c0.8613,0.91495 1.53487,1.82512 2.04945,2.72247c-10.4765,5.39895 -28.97116,15.21986 -30.53246,16.04611c-0.28912,0.15301 -0.57882,0.30503 -0.869,0.45621c3.82641,-4.0508 7.67535,-8.07656 11.56651,-12.05408z"/><path d="M387.99946,110.07244c7.16502,0.15481 14.25461,1.43566 21.36878,2.35918c-0.00331,0.03877 -0.00679,0.07756 -0.01042,0.11637c-10.58997,3.16482 -24.58513,7.34728 -26.17094,7.8212c0.22197,-0.47527 0.42505,-0.95938 0.60438,-1.45461c1.04943,-2.89795 1.85504,-5.87116 2.57229,-8.87153c0.54532,0.0079 1.09063,0.01761 1.63591,0.02939z"/><path d="M405.46846,87.04563c-0.23358,1.39696 -0.3482,2.97694 -0.38534,4.61892c-4.65281,-0.64559 -9.30802,-1.25803 -13.98885,-1.48789c0.47068,-1.88129 0.99712,-3.98799 1.54913,-6.20118c0.88864,-0.84577 1.92368,-1.65261 3.15444,-2.429c0.26182,-0.16516 0.4457,0.5216 0.75464,0.54127c2.35348,0.14981 4.73325,-0.32471 7.07459,-0.04291c0.91851,0.11055 1.83837,0.224 2.75777,0.34533c-0.33501,1.54578 -0.65542,3.09481 -0.91637,4.65546z"/><path d="M280.84394,202.38742c1.51966,-3.14114 3.17059,-6.22588 4.75323,-9.34011c0.90802,-0.66564 1.90201,-1.19825 2.92263,-1.68997c0.13343,2.95609 0.2522,5.91349 0.36902,8.87154c-3.62651,4.40156 -6.398,7.77172 -6.74827,8.20152c-0.83612,1.02596 -1.72744,2.0172 -2.6332,2.99956c0.16273,-2.38383 0.32587,-4.82929 0.48746,-7.2877c0.28309,-0.58493 0.56613,-1.16987 0.84913,-1.75484z"/><path d="M498.16164,227.94884c-0.80896,1.36038 -1.83811,2.60625 -2.96717,3.79945c-3.53275,1.70047 -7.05881,3.41492 -10.71721,4.8117c3.51975,-4.00984 7.03949,-8.01967 10.55924,-12.02951c1.80211,-2.09018 3.76614,-4.06549 5.70683,-6.05736c-0.62363,3.23671 -0.85473,6.5716 -2.58168,9.47571z"/><path d="M233.09373,275.06998c-0.83886,3.62062 -2.18128,7.16646 -2.47533,10.87134c-0.29061,3.66146 -0.2932,7.33489 -0.23062,11.01094c-0.93717,-0.0161 -1.88014,-0.04745 -2.81979,-0.10632c2.032,-9.46254 4.0955,-18.91293 5.99724,-28.35824c0.64547,-3.20584 1.27766,-6.41735 1.90149,-9.63275c0.50369,-0.11959 1.00632,-0.24476 1.50689,-0.37469c-1.29625,5.52922 -2.59804,11.05715 -3.87989,16.58972z"/><path d="M463.95672,150.03895c0,1.47992 0,2.95984 0,4.43976c-0.59838,0.4353 -1.29846,0.75787 -1.89619,1.19769c-1.91623,1.41 -3.82884,2.82492 -5.73976,4.24212c1.36201,-2.62348 2.72202,-5.72986 4.31559,-9.9827c0.15514,-0.41402 0.32827,-0.83589 0.51497,-1.26423c1.27819,-0.8914 2.55634,-1.78287 3.83445,-2.67439c0.16315,1.48549 -0.28041,2.81169 -1.02906,4.04173z"/><path d="M321.2899,203.36982c3.07629,-2.67752 6.15869,-5.34805 9.23598,-8.02442c-0.00427,0.41736 -0.00904,0.83467 -0.0143,1.25194c-1.35424,0.99414 -2.65671,2.04795 -3.84221,3.23624c-2.16347,2.16856 -4.15152,4.49713 -6.07704,6.88265c-2.59511,1.41206 -5.20938,2.78781 -7.85299,4.10791c4.27815,-3.72317 7.67007,-6.68797 8.55056,-7.45432z"/><path d="M362.65989,256.94713c-0.04576,0.06146 -0.09159,0.12287 -0.13748,0.18423c-0.00651,-0.65344 -0.06439,-1.50482 -0.25395,-2.43619c1.44592,-0.92277 2.8514,-1.90685 4.23352,-2.92631c-1.27794,1.7283 -2.55856,3.45445 -3.84209,5.17827z"/><path d="M321.46417,237.42246c0.68437,-0.82845 1.34125,-1.62361 1.96001,-2.37264c-0.49524,1.36323 -0.99092,2.7263 -1.4873,4.08911c-0.21777,-0.21658 -0.44317,-0.43089 -0.67634,-0.64282c0.08677,-0.35094 0.15501,-0.7092 0.20363,-1.07365z"/><path d="M263.45031,265.51683c-0.65486,-0.21024 -0.89123,-1.10054 -1.50433,-1.41223c-1.33429,-0.67834 -2.82082,-1.00245 -4.23124,-1.50368c0,0 -0.41031,-0.13677 -1.08872,-0.26809c0.30647,-1.31264 0.61274,-2.62533 0.9189,-3.93805c2.19352,0.21756 4.49599,0.44469 6.79326,0.67052c0.82404,2.22333 1.65835,4.468 2.46032,6.62192c-1.08317,-0.18283 -2.29044,0.16921 -3.3482,-0.17038z"/><path d="M267.87965,289.08775h-0.32718l-0.16228,-0.48683l-2.78124,0.92708c-3.44865,1.06061 -6.10239,3.93608 -6.84658,7.51175c-2.47791,-0.00745 -4.9558,-0.01835 -7.43338,-0.02964c-0.05939,-2.92921 -0.05674,-5.85622 0.15755,-8.77594c0.16206,-2.20804 0.86979,-4.33 1.5,-6.46494c1.97617,0.73281 3.66526,2.20147 5.66809,2.88944c0.66123,0.22713 1.4176,-0.58089 2.07101,-0.33212c0.53511,0.20373 0.36315,1.26367 0.89985,1.4632c2.68722,0.99905 5.44394,1.83266 8.23813,2.49418c-0.33554,0.25976 -0.66322,0.52802 -0.98396,0.80382z"/></g></g></g></g></svg>