<svg version="1.1" xmlns="http://www.w3.org/2000/svg" xmlns:xlink="http://www.w3.org/1999/xlink" width="624" height="488.48348" viewBox="0,0,624,488.48348"><defs><linearGradient x1="240" y1="-20.5" x2="240" y2="380.5" gradientUnits="userSpaceOnUse" id="color-1"><stop offset="0" stop-color="#0f8000"/><stop offset="1" stop-color="#e2e2e2"/></linearGradient><linearGradient x1="250.51051" y1="259.98348" x2="250.51051" y2="467.98348" gradientUnits="userSpaceOnUse" id="color-2"><stop offset="0" stop-color="#0034bd"/><stop offset="1" stop-color="#0f8000"/></linearGradient><linearGradient x1="240" y1="-18.23334" x2="240" y2="221.0015" gradientUnits="userSpaceOnUse" id="color-3"><stop offset="0" stop-color="#0f8500"/><stop offset="1" stop-color="#0f8500" stop-opacity="0"/></linearGradient><linearGradient x1="-34.53453" y1="180" x2="34.53454" y2="180" gradientUnits="userSpaceOnUse" id="color-4"><stop offset="0" stop-color="#692e00"/><stop offset="1" stop-color="#0f8500"/></linearGradient><linearGradient x1="116.75705" y1="200.70466" x2="145.48172" y2="266.20314" gradientUnits="userSpaceOnUse" id="color-5"><stop offset="0" stop-color="#800000"/><stop offset="1" stop-color="#000000"/></linearGradient><linearGradient x1="120.94763" y1="204.07675" x2="147.79883" y2="265.30334" gradientUnits="userSpaceOnUse" id="color-6"><stop offset="0" stop-color="#800000"/><stop offset="1" stop-color="#009dff"/></linearGradient><linearGradient x1="120.94763" y1="204.07675" x2="147.79883" y2="265.30334" gradientUnits="userSpaceOnUse" id="color-7"><stop offset="0" stop-color="#800000"/><stop offset="1" stop-color="#009dff"/></linearGradient><linearGradient x1="92.54827" y1="222.00507" x2="97.52133" y2="259.35514" gradientUnits="userSpaceOnUse" id="color-8"><stop offset="0" stop-color="#800000"/><stop offset="1" stop-color="#000000"/></linearGradient><linearGradient x1="130.46714" y1="165.06416" x2="130.24402" y2="171.39355" gradientUnits="userSpaceOnUse" id="color-9"><stop offset="0" stop-color="#800000"/><stop offset="1" stop-color="#ffffff"/></linearGradient><linearGradient x1="126.11167" y1="165.05919" x2="125.88855" y2="171.38859" gradientUnits="userSpaceOnUse" id="color-10"><stop offset="0" stop-color="#800000"/><stop offset="1" stop-color="#ffffff"/></linearGradient><linearGradient x1="121.87901" y1="164.90999" x2="121.65589" y2="171.23938" gradientUnits="userSpaceOnUse" id="color-11"><stop offset="0" stop-color="#800000"/><stop offset="1" stop-color="#ffffff"/></linearGradient><linearGradient x1="117.76255" y1="164.80283" x2="117.53943" y2="171.13223" gradientUnits="userSpaceOnUse" id="color-12"><stop offset="0" stop-color="#800000"/><stop offset="1" stop-color="#ffffff"/></linearGradient><linearGradient x1="113.40708" y1="164.79786" x2="113.18396" y2="171.12726" gradientUnits="userSpaceOnUse" id="color-13"><stop offset="0" stop-color="#800000"/><stop offset="1" stop-color="#ffffff"/></linearGradient><linearGradient x1="109.17442" y1="164.64866" x2="108.9513" y2="170.97806" gradientUnits="userSpaceOnUse" id="color-14"><stop offset="0" stop-color="#800000"/><stop offset="1" stop-color="#ffffff"/></linearGradient><linearGradient x1="90.68818" y1="154.41455" x2="141.51837" y2="153.11488" gradientUnits="userSpaceOnUse" id="color-15"><stop offset="0" stop-color="#ffe1ad"/><stop offset="1" stop-color="#800000"/></linearGradient><linearGradient x1="115.91391" y1="126.4886" x2="116.86525" y2="163.69568" gradientUnits="userSpaceOnUse" id="color-16"><stop offset="0" stop-color="#782200"/><stop offset="1" stop-color="#800000"/></linearGradient><linearGradient x1="126.8034" y1="123.93662" x2="127.75473" y2="161.1437" gradientUnits="userSpaceOnUse" id="color-17"><stop offset="0" stop-color="#782200"/><stop offset="1" stop-color="#800000"/></linearGradient><radialGradient cx="130.83868" cy="158.61288" r="5.31741" gradientUnits="userSpaceOnUse" id="color-18"><stop offset="0" stop-color="#ffffff"/><stop offset="1" stop-color="#000000"/></radialGradient><radialGradient cx="103.57548" cy="160.24154" r="5.31741" gradientUnits="userSpaceOnUse" id="color-19"><stop offset="0" stop-color="#ffffff"/><stop offset="1" stop-color="#000000"/></radialGradient><linearGradient x1="130.46979" y1="205.39943" x2="130.24667" y2="199.07004" gradientUnits="userSpaceOnUse" id="color-20"><stop offset="0" stop-color="#800000"/><stop offset="1" stop-color="#ffffff"/></linearGradient><linearGradient x1="126.11432" y1="205.4044" x2="125.8912" y2="199.075" gradientUnits="userSpaceOnUse" id="color-21"><stop offset="0" stop-color="#800000"/><stop offset="1" stop-color="#ffffff"/></linearGradient><linearGradient x1="121.88166" y1="205.5536" x2="121.65854" y2="199.22421" gradientUnits="userSpaceOnUse" id="color-22"><stop offset="0" stop-color="#800000"/><stop offset="1" stop-color="#ffffff"/></linearGradient><linearGradient x1="117.7652" y1="205.66076" x2="117.54208" y2="199.33136" gradientUnits="userSpaceOnUse" id="color-23"><stop offset="0" stop-color="#800000"/><stop offset="1" stop-color="#ffffff"/></linearGradient><linearGradient x1="113.40973" y1="205.66573" x2="113.18661" y2="199.33633" gradientUnits="userSpaceOnUse" id="color-24"><stop offset="0" stop-color="#800000"/><stop offset="1" stop-color="#ffffff"/></linearGradient><linearGradient x1="109.17707" y1="205.81493" x2="108.95395" y2="199.48553" gradientUnits="userSpaceOnUse" id="color-25"><stop offset="0" stop-color="#800000"/><stop offset="1" stop-color="#ffffff"/></linearGradient></defs><g transform="translate(72,20.5)"><g stroke-miterlimit="10"><path d="M-72,380.5v-401h624v401z" fill="url(#color-1)" stroke="none" stroke-width="NaN"/><path d="M550.01051,259.98348v208h-599v-208z" fill="url(#color-2)" stroke="none" stroke-width="0"/><path d="M267.07477,206.38637c0.33605,-0.06227 0.62491,-0.14516 0.8799,-0.24688zM268.24522,206.00857c1.12832,-0.5714 1.57017,-1.57856 2.89795,-2.81032c1.96568,-1.82353 2.98833,-3.80519 4.00393,-6.41985c0.45461,-1.17037 -1.83458,-4.95042 -2.08051,-5.33387c-2.68521,-4.18672 -5.04049,-6.82557 -9.05734,-9.89641c-8.28238,-6.3318 -18.39446,-11.81673 -27.16575,-17.47142c-0.43338,-0.27939 -0.86681,-0.55834 -1.3003,-0.83684c-1.06623,2.58133 -2.28417,5.31575 -4.95278,6.4846c-1.75998,0.77087 -3.77317,0.72894 -5.66493,1.06506c-2.94132,0.5226 -7.55394,1.39088 -10.53704,1.19325c-2.33189,-0.15448 -4.60504,-0.99601 -6.94199,-0.98123h-2c0,0 -2.5,0 -2.5,-2.5c0,-2.5 2.5,-2.5 2.5,-2.5h2c2.4738,0.01286 4.88722,0.81247 7.35407,0.99824c2.44339,0.18401 6.98575,-0.78637 9.30296,-1.14223c1.39654,-0.21447 2.86911,-0.10176 4.19901,-0.57893c1.59755,-0.5732 2.42934,-2.79776 3.08015,-4.69702c-14.95926,-9.50485 -30.02145,-18.50399 -45.52343,-27.20022c-2.37525,-1.33576 -16.18985,-8.08345 -19.49708,-12.49451c-5.309,-7.08094 -2.26844,-19.07058 1.46621,-25.9141c-1.56285,-1.49735 -2.93469,-3.16056 -4.31525,-4.88626c-2.05916,-2.57394 -2.94346,-1.89683 -5.19327,-5.27064c-1.42114,-2.13112 -1.76063,-4.83788 -3.03565,-7.05951c-1.7907,-3.12016 -2.72592,-3.11243 -3.30544,-6.85436c-0.82375,-5.31892 0.63142,-10.09169 2.06742,-15.09942c1.7249,-6.01522 3.33415,-9.61878 8.63253,-13.0688c4.46084,-6.82695 11.22497,-11.44011 18.20594,-15.46449c-7.15969,1.00403 -14.33276,1.90197 -21.56628,2.68141c-3.69051,0.39767 -7.26517,1.5955 -10.95552,1.99466c-1.51326,0.16368 -3.0815,0.10128 -4.66737,-0.08488c-0.15981,0.15239 -0.32389,0.30011 -0.49409,0.44114c-1.05484,0.87409 -2.14327,1.70887 -3.25433,2.51689c0.026,7.13648 0.90918,14.90224 -0.01449,21.94642c-1.23734,9.4363 -5.02107,18.44917 -6.43965,27.81253c-0.49481,3.26598 -0.35842,6.59677 -0.54518,9.89473c-0.12745,0.73493 -0.25372,1.46718 -0.37832,2.19731c0.73615,1.22131 1.46229,2.42024 2.18704,3.57704c3.83662,6.12378 8.20276,11.73749 11.77435,17.86969c1.74415,2.9946 6.29901,2.09275 7.87598,5.83287c1.47887,3.50744 3.32371,7.96141 1.52653,11.3169c-1.7392,3.24724 -6.51998,3.54275 -10.0497,4.59657c-4.51257,1.34726 -9.61648,2.39158 -14.83571,3.29833c0.37716,1.64625 0.69531,3.30538 0.86653,4.99246c0.76332,7.52133 0.62041,16.2454 3.8208,23.34236c1.8748,4.15741 5.56673,8.14537 8.63645,11.41617c2.23497,3.32567 4.52586,6.9686 7.04183,10.04665c2.7092,3.31445 4.38356,4.7437 5.81237,8.17136c0.73367,0.21701 1.72061,0.80085 1.72061,2.37163c0,2.5 -2.5,2.5 -2.5,2.5l-3.37171,-1.70943c-1.41154,-4.30567 -2.58503,-4.55377 -5.59531,-8.24758c-2.50462,-3.07335 -4.80517,-6.69908 -7.02109,-10.0204c-3.37554,-3.59727 -7.25322,-7.95691 -9.30062,-12.51677c-3.41125,-7.59733 -3.40975,-16.79888 -4.21804,-24.85183c-0.15846,-1.57879 -0.45606,-3.13433 -0.81142,-4.67864c-5.59726,0.89306 -11.15618,1.68839 -16.09821,2.58696c-6.30155,1.14574 -12.52846,2.86189 -18.91005,3.40739c-4.68507,0.40048 -9.4946,0.28698 -14.2729,0.16255c-0.48234,0.04514 -0.98708,0.03842 -1.50791,-0.03908c-1.97611,-0.05019 -3.94404,-0.09317 -5.89273,-0.09317h-1c0,0 -4.2197,0 -6.32884,-3.16514c-0.85863,2.69852 -1.8634,5.28422 -3.90339,7.4329l-2,2c0,0 -1.36901,1.36901 -2.90228,0.49277c0.01706,0.03085 0.03452,0.06166 0.05239,0.09241c1.08088,1.86032 2.94144,2.69427 4.57355,4.13238c2.00426,1.76604 3.95928,3.56394 5.97655,5.3215c7.12627,6.20881 14.7225,11.98648 22.37935,17.83524c2.16222,1.38796 4.59619,2.56896 6.46934,4.17923c1.37878,1.18528 2.40432,2.60076 3.88068,3.71687l0.71904,2.0948c0,0 -0.01191,1.88975 -2.51188,1.88075c-2.49998,-0.009 -2.48807,-1.89875 -2.48807,-1.89875l0.35865,0.28698c-1.34462,-1.11721 -2.39188,-2.4314 -3.70168,-3.57494c-1.74959,-1.52751 -4.08867,-2.60335 -6.12449,-3.91261c-7.78862,-5.93851 -15.50617,-11.81473 -22.74995,-18.12402c-3.47918,-3.03035 -9.21923,-6.69362 -11.36373,-10.4257c-1.35506,-2.35821 -1.16564,-4.36125 -1.15159,-6.74221c0.01982,-3.3583 0.18474,-7.01539 1.56915,-10.26078c2.43985,-5.71957 7.05479,-11.36496 10.54122,-16.81057c-0.19441,-0.31239 -0.37813,-0.62866 -0.53981,-0.95274c-1.08864,-2.18216 -1.49029,-4.71432 -2.85301,-6.73667c-1.81093,-2.68751 -3.80401,-5.25106 -5.83456,-7.77674c-1.33831,-1.66465 -3.0225,-3.45581 -4.74391,-5.08609c-0.09902,2.89173 0.50837,5.92922 0.16509,8.74746c-0.40118,3.29347 -0.66278,6.60246 -0.99966,9.90313c-0.1802,1.76551 -1.29267,7.2788 -2.35671,9.15698c-0.44159,0.77948 -1.5699,1.05169 -1.92728,1.87319c-1.23337,2.83511 -0.67782,6.26951 -2.028,9.05089c-0.42547,0.87646 -1.54432,1.25076 -2.04956,2.08379c-0.28182,0.46466 -0.51908,0.95235 -0.73109,1.45306c0.66552,1.04272 1.10447,2.41819 1.10447,4.23261c0,7.09676 -6.7152,7.47832 -7.43729,7.49883c-0.75472,1.59301 -1.59121,3.13373 -3.106,3.81086c-0.56902,0.25435 -7.4019,0.1903 -7.95671,0.1903c-2.29445,-0.02178 -4.60728,-0.42244 -6.79057,-1.12829l-2.32746,-1.13564c0,0 -2.23606,-1.11803 -1.11803,-3.3541c1.11803,-2.23606 3.3541,-1.11803 3.3541,-1.11803l1.67254,0.86436c1.66365,0.57624 3.44895,0.89357 5.20943,0.87171c1.7694,0 3.59536,0.57024 5.3269,0.3376c-2.09573,-1.42839 -4.19147,-2.85677 -6.2872,-4.28515c-0.84873,-2.04056 -3.05352,-6.88138 -3.44286,-9.35109c-0.7819,-4.95979 -0.37283,-10.01377 -1,-15c-0.35777,-2.84443 -1.26595,-5.59224 -1.87569,-8.39348c-1.38312,-6.3543 -6.04599,-12.64702 -6.96676,-18.87108c-0.67625,-4.57124 -1.68577,-9.82328 0.5797,-13.85083c1.47788,-2.62738 5.72283,-1.9336 8.6659,-2.58599c0.48574,-0.10767 1.01336,-0.22659 1.52911,-0.26c0.02836,-0.05892 0.05867,-0.11989 0.09101,-0.18298c0.27079,-0.52829 0.8098,-0.83974 1.35043,-1.14124c-0.33368,-0.29469 -0.46264,-0.82107 -0.77062,-1.16086c-1.48711,-1.64067 -3.35654,-2.96616 -4.57982,-4.81193c-0.95331,-1.43842 -1.21401,-3.23072 -1.82102,-4.84608c-2.23629,-8.94877 -3.86582,-18.30308 -3.28461,-27.56294c0.16835,-2.68214 0.76051,-5.32327 1,-8c0.15626,-1.7465 -0.24725,-3.55805 0.18614,-5.25712c1.56889,-6.15066 5.64806,-11.8053 9.79645,-16.37273c0.4958,-0.54588 0.97515,-1.10774 1.4474,-1.67639c-2.30106,-0.0883 -4.59008,-0.1106 -6.74312,0.17542c-1.04491,0.13881 -1.95793,0.84128 -3,1c-5.78053,0.88043 -12.36926,0.09684 -18.20137,0.09684c-3.6864,0 -11.14819,1.02411 -13.94298,-2.12012c-2.57982,-2.90238 -6.21817,-6.6125 -5.28488,-10.38188c0.90598,-3.65913 6.10338,-4.46189 9.40884,-6.27407c1.12101,-0.61458 2.49272,-0.57415 3.72211,-0.92483c1.72253,-0.49134 5.4267,-1.97623 6.89554,-2.20225c5.56851,-0.85687 11.62973,-1.09248 17.28499,-1.04065c12.92304,-3.23076 27.18461,0.09197 40.38471,-1.03732c4.93687,-0.42236 9.76284,-1.49319 14.61529,-1.96268c3.4843,-0.33712 7.0118,0.22939 10.50162,-0.04472c3.00919,-0.23636 5.98802,-0.80236 9,-1c6.74461,-0.44257 13.65367,-0.01148 20.41475,-0.01148c10.95398,0 21.90795,0 32.86193,0c3.04502,-0.58132 6.09005,-1.16265 9.13508,-1.74397c7.44838,-1.42197 14.77976,-3.83308 22.35238,-4.22776c15.08514,-0.78622 30.64981,0.41864 45.75753,0.64413c7.56276,0.11288 15.19602,-0.67012 22.68779,0.36982c5.23309,0.72641 10.39333,1.91986 15.54772,3.07962c2.14813,0.48334 4.35338,0.90132 6.34238,1.84576c1.09755,0.52115 1.69326,1.76864 2.70052,2.44808c2.67198,1.80237 5.7542,2.90831 8.57819,4.46173c0.21957,0.49026 0.49613,0.97734 0.80424,1.46265c2.59427,-0.69929 5.31787,-0.7775 7.96599,-1.2324c4.85192,-0.83347 9.55799,-2.49301 14.44788,-3.06288c8.06892,-0.94035 20.26752,-0.04543 27.81838,-0.04478c25.06695,0.00215 50.16903,1.92506 75.08194,5.00053c6.76052,0.07897 14.53948,0.24213 15.0493,0.25062c16.69673,0.27813 33.40293,0.41831 50.0952,0.89512c1.19909,0.03425 2.39816,0.06928 3.59722,0.10481c-0.30154,-0.45993 -0.60335,-0.91505 -0.90378,-1.36433c0,0 -1.38675,-2.08013 0.69338,-3.46688c2.08013,-1.38675 3.46688,0.69338 3.46688,0.69338c0.92684,1.39415 1.87451,2.84384 2.79116,4.31993c6.74487,0.20486 13.48971,0.41063 20.23582,0.56759c3.01695,0.0702 10.17933,-0.46234 12.58813,1.97274c9.79963,9.90655 6.46021,12.73116 -4.77887,16.97031c-2.15718,0.81364 -4.61087,0.04313 -6.91637,0.05619c-3.72561,0.02111 -7.30297,0.493 -10.93324,0.77466c-0.23504,0.47897 -0.55869,0.92377 -0.9443,1.34391c0.07741,0.14896 0.1458,0.3025 0.20237,0.46208c0.60653,1.71097 0.58744,3.58363 0.94893,5.36257c0.15023,0.73927 0.30811,1.47469 0.47006,2.20756c0.37247,0.64319 0.60712,1.35566 0.65934,2.14785c0.01747,0.26493 0.0189,0.52779 0.0052,0.78859c0.92265,4.03829 1.82236,8.05099 2.08681,12.25744c0.36421,5.79318 0.0151,11.75604 -0.02745,17.5558c-1.22755,3.797 -2.29812,7.35547 -4.30544,10.85436c-1.97829,3.4483 -4.93469,5.69192 -7.03565,9.05951c-2.14575,3.43937 -2.80307,7.59991 -4.99202,10.98699c-1.43031,2.2132 -4.10287,4.66669 -5.21043,7.40472c2.70949,1.57697 5.36659,3.25305 8.0188,4.91407c2.48598,1.55691 5.26215,2.66055 7.60947,4.41958c2.02747,1.51933 3.48799,3.68825 5.41107,5.33771c2.98937,2.56404 6.45013,4.56835 9.30334,7.28309c5.38582,5.12443 9.52816,13.67392 11.09782,20.92119c0.18527,0.85538 0.13533,10.87619 0.13533,11.41831v3c0,0 0,7.5 -7.5,7.5c-7.5,0 -7.5,-7.5 -7.5,-7.5v-3c0,-2.86092 0.7849,-5.79549 0.13533,-8.58169c-0.29348,-1.25883 -1.05838,-2.35877 -1.56442,-3.54818c-0.85031,-1.99858 -1.44312,-4.12031 -2.50443,-6.01529c-2.49038,-4.4466 -8.07113,-7.26971 -11.53,-10.23225c-1.65615,-1.41851 -2.84507,-3.3531 -4.58893,-4.66229c-1.85833,-1.39513 -4.09092,-2.20747 -6.0882,-3.3963c1.29209,5.27927 3.55707,10.30265 6.6815,14.99207c3.04346,4.06744 6.08385,7.54469 10.3459,10.36381l1.73128,0.84406c0,0 2.23606,1.11803 1.11803,3.3541c-1.11803,2.23606 -3.3541,1.11803 -3.3541,1.11803l-2.26872,-1.15594c-4.77659,-3.20623 -8.21643,-7.06231 -11.6541,-11.63619c-4.57059,-6.852 -7.22539,-13.60427 -8.11775,-21.3153c-3.23056,-1.97613 -6.51995,-3.85082 -9.99701,-5.3248c-1.63107,-0.81413 -3.36294,-1.58065 -5.11351,-2.36574c-0.23432,0.78122 -0.48568,1.55731 -0.75911,2.32675c-0.05231,0.14719 -0.10599,0.29383 -0.16092,0.43996c1.14652,0.70386 2.52835,1.0164 3.65092,1.76709c1.81728,1.21526 3.3042,2.88208 5.1232,4.09475c5.94584,5.94584 9.52069,14.23575 10.88275,22.5329c0.91162,5.55327 -1.09999,11.08645 -1.78895,16.51823c-0.37044,2.92057 -0.17877,5.94734 -0.17877,8.88223l-3.5,2.5c0,0 -2.5,0 -2.5,-2.5c0,-1.0705 0.45839,-1.68261 0.9826,-2.03262c-0.03315,-2.47448 -0.07714,-4.9729 0.22839,-7.41626c0.61101,-4.88639 2.6702,-10.15231 1.8213,-15.15067c-1.18507,-6.97779 -4.07613,-14.42598 -9.11725,-19.4671c-1.73281,-1.15521 -3.14227,-2.75262 -4.8768,-3.90525c-0.84171,-0.55933 -1.82896,-0.8731 -2.75151,-1.29268c-0.61221,1.26855 -1.22287,2.53806 -1.74433,3.84425c-1.13632,3.3864 -1.85383,6.89922 -2.79364,10.34533c-2.96215,10.86163 -8.85425,21.39082 0.66527,30.40909l3.58599,2.6659c0,0 6,4.5 1.5,10.5c-4.5,6 -10.5,1.5 -10.5,1.5l-4.41401,-3.3341c-4.79041,-4.87477 -9.76772,-11.72472 -10.52979,-18.74953c-1.00283,-9.24421 2.81131,-18.10129 5.19506,-26.84138c1.0602,-3.88724 1.93835,-7.83017 3.20636,-11.65467c1.24546,-3.1087 2.93818,-6.03352 4.07062,-9.18516c0.12233,-0.34046 0.239,-0.68259 0.35065,-1.02622c-1.45024,-1.90394 -2.86444,-3.81494 -4.31223,-5.62396c-1.81931,-2.27325 -4.94668,-4.7802 -6.24214,-7.35323c-0.29383,-0.58359 -0.5397,-1.18489 -0.74806,-1.79877c-0.55289,0.91183 -1.56304,1.54763 -2.30867,2.33479c-3.15265,3.32827 -6.86693,5.60644 -10.76899,7.94844c-5.50372,3.30331 -10.41415,7.16885 -15.38547,11.19356c-1.10579,0.89523 -3.21673,3.55027 -4.29898,4.21685c-0.89751,0.55279 -2.11882,0.42153 -3,1c-1.38157,0.90695 -5.34345,4.817 -5.9216,6.59783c-0.23448,0.72225 0.09429,1.5163 0.10727,2.27554c0.07054,4.12688 -0.08623,7.42979 0.93909,11.45153c1.39136,6.98519 4.10342,14.50006 8.49426,19.9635c1.05216,1.30918 3.51383,5.61999 4.66851,6.66559c1.45337,1.31608 3.76361,1.15381 5.70359,1.43811c4.46564,0.65443 8.57349,2.77501 12.80008,4.23899l3.28122,2.16215c0,0 2.08013,1.38675 0.69338,3.46688c-1.38675,2.08013 -3.46688,0.69338 -3.46688,0.69338l-2.71878,-1.83785c-3.69983,-1.23422 -7.30591,-3.21992 -11.19992,-3.76101c-2.86677,-0.39835 -6.06437,-0.71931 -8.29641,-2.56189c-2.4222,-1.99956 -3.44116,-4.96115 -5.33149,-7.33441c-4.87761,-6.12372 -7.94851,-14.28073 -9.50574,-22.0365c-1.06475,-4.33489 -1.12272,-8.09734 -1.06091,-12.54847c0.01725,-1.24188 -0.29083,-2.54799 0.10727,-3.72446c1.00162,-2.96 5.57466,-7.71106 8.0784,-9.40217c0.87351,-0.59 2.08854,-0.47052 3,-1c1.52543,-0.88614 2.33393,-2.66813 3.70102,-3.78315c3.76817,-3.07338 7.59492,-6.36699 11.67018,-9.03764c4.11676,-2.69784 8.49986,-4.76758 12.30513,-7.94122c1.15878,-0.96643 2.69876,-1.69679 3.32831,-3.06807c0.66548,-1.44957 -0.93245,-3.06385 -1.15802,-4.64284c-0.18856,-1.31993 0,-2.66667 0,-4c-1.09723,-3.29171 -1.03228,-5.95608 -1.03228,-9.40046c0,-3.51909 0,-7.03817 0,-10.55726c-5.22366,-3.11563 -10.54314,-6.05257 -15.99162,-8.80508c-1.82009,-0.91949 -3.92391,-1.27035 -5.63707,-2.37636c-1.611,-1.04005 -2.80183,-2.61917 -4.17462,-3.95801c-0.85137,-0.8303 -2.24753,-1.38558 -2.49677,-2.54838c-0.05594,-0.26101 -0.1075,-0.52264 -0.15507,-0.78483l-0.28524,0.19016l-1.94312,-2.91468c-0.36837,-0.5355 -0.66899,-1.12123 -0.88947,-1.74482c-2.42188,-0.00119 -5.40118,-0.00827 -5.66606,-0.03725c-1.37417,-0.15035 -2.72701,-0.43622 -4.07529,-0.75219c-0.78337,0.9387 -1.73317,1.77954 -2.50693,2.72048c-1.35674,1.64987 -2.8082,3.22304 -4.19971,4.84401c3.83282,7.40344 7.05229,14.97629 10.14781,22.89979c0.07971,0.20402 3.71501,8.91697 3.77623,9.13505c1.42717,5.08376 1.09692,10.4814 1.09692,15.68936c-0.04506,8.10591 -2.91949,16.69571 -7.47189,23.46178c-1.57641,2.34296 -5.58609,6.41327 -7.42414,8.24976c-1.4308,1.42959 -3.40246,2.29779 -4.67061,3.87344c-3.61409,4.49043 -4.55539,12.38885 -3.47846,17.94226c0.48437,2.49779 1.36914,4.96358 2.66753,7.15167c0.45289,0.76324 1.41376,1.12065 1.90568,1.85933c1.46116,2.19409 2.44803,4.68009 3.90525,6.8768c2.95752,2.93957 6.07533,6.26018 9.52842,8.55687c2.21243,1.47151 4.71223,2.47692 6.92497,3.94798l-0.38675,-0.41987c0,0 2.5,0 2.5,2.5c0,0.25066 -0.02513,0.47619 -0.07036,0.67911c9.37702,5.17651 18.10976,11.14359 23.30772,21.02576c2.50927,4.77052 1.76264,10.14126 1.76264,15.29514c0,1 0,2 0,3l-3.1967,6.3033c0,0 -5.3033,5.3033 -10.6066,0c-3.51735,-3.51734 -2.36902,-7.03469 -1.1967,-9.00481c0,-0.0995 0,-0.19899 0,-0.29849c0,-2.59974 0.26306,-5.2042 0.09684,-7.79863c-0.24102,-3.7619 -6.93204,-9.16336 -9.77528,-10.97315c-7.36869,-4.69034 -8.9208,-4.47922 -16.43063,-8.65367c-3.05921,-1.70051 -14.90699,-8.95478 -18.45899,-11.27368c-2.39714,-1.56496 -5.08732,-2.80295 -7.08605,-4.85246c-2.26458,-2.32212 -4.29669,-4.89697 -6.05767,-7.63325c-1.01112,1.07911 -2.57879,0.55655 -2.57879,0.55655l-2.99553,-0.99852c-2.68861,-0.88933 -5.65316,-0.92595 -8.23432,-2.09093c-1.01188,-0.45669 -5.22416,-3.87646 -6.73263,-5.08314c-0.40598,-0.32476 -7.88423,-6.29568 -8.0897,-6.50966c-0.15141,-0.15768 -3.99437,-5.93819 -4.23738,-6.30271c-1.03962,-1.56418 -2.05191,-2.97473 -2.90847,-4.5239c0.90211,3.95212 1.80905,7.90246 3.08264,11.70313c0.47365,1.41346 1.5306,2.58512 2,4c1.85098,5.5793 3.30911,11.81065 3.30911,17.63539l-1.28803,4.17034c0,0 -1.57727,4.73181 -6.01806,5.19162c0.56488,6.62981 1.12592,13.25995 1.68771,19.89003c0.32317,3.81399 0.36354,7.15952 1.58693,10.75608l0.12829,1.79057c0,0 0,2.5 -2.5,2.5c-2.5,0 -2.5,-2.5 -2.5,-2.5l0.12829,-0.20943c-1.31564,-4.01478 -1.46779,-7.69158 -1.82566,-11.91506c-0.55977,-6.60627 -1.1204,-13.21248 -1.67689,-19.81903c-0.10212,-0.58379 -0.20406,-1.16764 -0.30581,-1.75153c-4.87033,-2.8708 -2.93505,-8.67665 -2.93505,-8.67665l0.71197,-1.82966c0,-1.73377 -1.46715,-4.35567 -1.84559,-5.87362c-0.36849,-1.47804 -0.3613,-3.04664 -0.8453,-4.49099c-0.47365,-1.41346 -1.5306,-2.58512 -2,-4c-0.5908,-1.7808 -0.69848,-3.68908 -1.1547,-5.50901c-0.76619,-3.05641 -2.22819,-5.94161 -3,-9c-0.45035,-1.78457 -0.86673,-8.15802 -2.13113,-9.98203c-0.51145,-0.7378 -1.52314,-1.08029 -1.92593,-1.88259c-1.45669,-2.90152 -2.25248,-6.09476 -3.56898,-9.06251c-2.59359,-5.84663 -5.32332,-11.64716 -7.50487,-17.6597c-0.09931,-4.40507 -0.83077,-11.33874 0.20146,-15.51157c0.39452,-1.59484 1.83063,-2.74685 2.50297,-4.24589c1.38076,-3.07852 2.64208,-6.23279 4.02519,-9.32012c-0.96931,-5.58501 -1.93913,-11.27912 -3.71139,-16.43982c-0.49637,-1.44539 -1.55061,-2.66054 -2.02499,-4.11329c-0.63178,-1.93477 -0.92236,-3.83419 -1.05,-5.74099c-4.56748,3.94622 -16.43647,10.70367 -17.39083,11.29287c-0.48878,0.30176 -0.97758,0.60339 -1.4664,0.90493c0.25732,1.42082 0.51865,2.82389 0.81875,4.1743c1.3498,6.17085 1.01473,12.36016 0.97488,18.66139c-0.01175,1.85822 0.34614,3.7626 -0.06688,5.57438c-0.9427,4.13532 -4.37829,6.89332 -6.18733,10.524c-0.50619,1.01592 -0.53662,2.2418 -1.11916,3.21595c-0.83402,1.39467 -2.46538,2.47267 -2.65891,4.08613c-0.57015,4.75318 1.67154,10.30646 2.94684,14.98996c0.47779,0.18888 0.92296,0.42572 1.2905,0.78126c1.18498,1.14628 1.40527,2.99694 2.32304,4.36655c0.62873,0.93828 1.92641,1.43291 2.28159,2.50507c0.25467,0.76878 0.21791,10.09695 0.12342,10.53109c-0.32616,1.49861 -1.5117,2.68754 -2.03114,4.12948c0.06035,1.09319 0.09412,2.19154 0.09802,3.29613c0,4.41388 0,8.82776 0,13.24164c3.54232,2.2844 7.08402,4.56975 10.62805,6.85149c10.84703,6.9836 21.35968,12.73325 28.25183,23.96389c3.06869,5.00037 5.14247,10.69895 3.91949,16.66613c-0.37924,1.85038 -1.6313,3.40869 -2.37027,5.14698c-0.56827,1.33674 -0.74314,2.86454 -1.54922,4.07286c-1.1042,1.65522 -2.70209,2.92165 -4.07658,4.36032c-3.22938,3.38017 -5.50689,5.13222 -9.93159,6.81182l-3.37171,0.38488c0,0 -7.5,0 -7.5,-7.5c0,-6.76637 6.1045,-7.42824 7.29875,-7.49298zM193.19801,120.29918c0.1801,0.10103 12.31071,6.90539 20.05259,11.24971c-0.30412,-1.16219 -0.30412,-2.0474 -0.30412,-2.0474l0.38488,-4.37171c1.83033,-5.39418 2.51606,-10.58624 2.60505,-16.18019c-0.02143,-0.00499 -0.04287,-0.00998 -0.06431,-0.01498c-2.58847,-0.60347 -5.09311,-1.6271 -7.73108,-1.95185c-5.93815,-0.73102 -12.15143,0.74932 -18.095,-0.01355c-0.3625,-0.04653 -6.32195,-2.09395 -6.69792,-2.22193c-0.94545,-0.6303 -1.97987,-1.10557 -3.02299,-1.5668c-0.29752,0.62491 -0.57932,1.26561 -0.84449,1.92311c-0.98076,2.43179 -0.01327,4.78088 -0.62853,7.18697c0.56405,0.30638 1.12748,0.61392 1.68803,0.92666c4.22213,2.35558 8.43859,4.72131 12.65789,7.08197zM228.97708,46.87195c3.54658,-2.18832 7.09269,-4.3774 10.6395,-6.56533c-0.50332,-1.11325 -1.05716,-2.21658 -1.65405,-3.30515c-4.93992,-0.00031 -10.71795,-0.00163 -10.82775,-0.00645c-1.66482,-0.07314 -3.32532,-0.20286 -4.98336,-0.36541c-6.87332,2.93571 -13.16219,8.09304 -18.40164,13.17519c-3.09753,3.00454 -4.76904,7.0141 -6.1671,11.00422c-0.22364,0.63828 -0.15147,1.42316 -0.36556,2.05017c1.06732,0.65447 2.11551,1.34101 3.1474,2.05174c9.44586,-6.17302 18.98707,-12.09984 28.61257,-18.03898zM172.48618,86.94904c3.87662,-5.28582 9.3343,-9.5557 14.8872,-13.39132c-1.74767,-1.43478 -3.37692,-2.97689 -4.68668,-4.80731c-1.39619,-1.95121 -0.80304,-4.76895 -0.68403,-7.16529c0.38597,-7.77197 5.89616,-17.02529 11.14051,-22.38693c1.58885,-1.62438 3.6018,-2.77704 5.30139,-4.28516c0.22001,-0.19523 0.44101,-0.38995 0.66302,-0.58408c-0.96695,-0.1582 -1.96656,-0.38302 -3.03282,-0.71234c0,0 -4.84571,-1.61524 -5.20627,-6.17869c-0.38951,0.21096 -0.77922,0.42411 -1.16924,0.63941c-8.79595,4.8555 -17.68233,9.64189 -23.48501,18.19192c-4.74394,3.2278 -5.78761,5.38042 -7.36747,10.9312c-1.23997,4.35659 -2.51754,8.27166 -1.93258,12.90058c0.29789,2.35728 1.51944,3.08056 2.69456,5.14564c1.24419,2.18647 1.56924,4.84709 2.96435,6.94049c1.24652,1.87045 3.40257,2.97416 4.80673,4.72936c0.70003,0.87505 1.04203,2.02483 1.83441,2.81721c0.3082,0.30821 0.63006,0.59913 0.96287,0.87593c0.70647,-1.26166 1.45513,-2.49627 2.30906,-3.66061zM222.26878,136.83527c3.69924,2.38342 10.46473,6.74468 15.65151,10.08848c0.47366,-0.95929 0.94628,-1.91985 1.41738,-2.88166c1.09528,-2.75046 1.61424,-5.69672 2.48042,-8.52843c-0.40509,-6.07008 -1.71381,-12.03228 -3.18237,-17.97964c-0.39638,-0.0887 -0.78303,-0.19802 -1.11831,-0.39903c-2.14357,-1.28515 -4.17452,-2.83169 -6.40532,-3.94144c-0.57095,5.82223 -1.86734,11.56216 -3.55049,16.67966l0.38488,-0.37171c0,0 0,6.22973 -5.6777,7.33377zM243.58651,37.00151c0.12267,0.25261 0.24311,0.50581 0.36124,0.75954c0.46331,-0.24373 0.94879,-0.49393 1.44956,-0.75168c-0.31846,-0.00504 -0.63549,-0.00787 -0.95083,-0.00787c-0.2198,0 -0.51059,0.00001 -0.85997,0.00002zM453.6021,94.69767c1.49667,0.64761 2.96555,1.3547 4.41336,2.10512c0.05876,-0.13331 0.12046,-0.26653 0.18524,-0.39967c1.09253,-2.24554 3.80997,-5.225 5.11118,-7.20294c2.20749,-3.35557 2.85217,-7.56902 5.00798,-11.01301c1.44,-2.30045 3.4887,-4.15874 5.19327,-6.27064c2.80505,-3.47534 4.03498,-7.68504 5.46564,-11.81548c-0.04883,-5.44486 0.31454,-11.01016 -0.02745,-16.4442c-0.12355,-1.96321 -0.39946,-3.87892 -0.75296,-5.77395c-4.20776,4.23784 -10.91272,7.6985 -13.90406,10.34125c-6.17549,5.45586 -12.52465,12.11327 -17.29892,19.56455c2.06764,4.11061 3.79262,8.33146 2.81578,13.13111c-0.70853,3.4813 -2.8599,6.52564 -3.93781,9.90755c2.55479,1.27782 6.65858,3.33421 7.72874,3.87031zM460.91305,30.84243c-1.56559,0.18765 -7.57412,0.16732 -9.81996,0.16054c-0.07244,1.53683 -0.14029,3.04933 -0.14661,4.49853c-0.00651,1.49349 0.11003,3.21856 -0.22145,4.80528c1.17002,-1.09782 2.45,-2.26238 3.87364,-3.52793c2.02633,-1.80132 4.37554,-3.19778 6.60271,-4.74901c-0.12953,-0.36964 -0.22841,-0.76505 -0.28833,-1.18741zM427.31028,75.194c0.77393,-2.36645 1.54721,-4.57537 2.44949,-6.71228c-2.28491,-1.81635 -5.03357,-3.11192 -7.47354,-4.73983c-1.21791,-0.81257 -2.43978,-1.61517 -3.66608,-2.40774c-0.16663,4.03721 -0.2444,8.09599 0.3076,11.8619c0.19932,1.35984 0.80563,2.63945 1,4c0.41259,2.8881 0.33578,6.33112 1.69423,9.07371c0.35638,0.71948 1.25298,1.02246 1.75786,1.64677c0.43287,0.53527 0.86395,1.07198 1.29408,1.60945c-0.51198,-4.95545 1.10483,-9.64904 2.63636,-14.332zM430.60672,51.26111c1.83956,1.22549 4.36687,2.83249 6.77667,4.54622c3.1496,-4.43072 5.61706,-7.62267 8.82016,-11.01737c-1.5734,0.31922 -3.2787,0.20508 -4.75708,0.21153c-3.73799,0.01631 -7.91524,-0.59285 -11.59954,-0.03228c-1.77816,0.27055 -3.17546,1.65353 -4.77026,2.51761c1.8412,1.26155 3.67335,2.53738 5.53006,3.7743zM475.37076,23.33743c-0.19682,0.13453 -0.39164,0.26942 -0.58303,0.40518c0.23102,0.0884 0.46253,0.17978 0.69345,0.2744c-0.02987,-0.22828 -0.0655,-0.45509 -0.11041,-0.67959zM418.21093,43.01465c0.45787,0.27437 0.91286,0.55329 1.36545,0.83603c0.95358,-0.20134 1.96788,-0.25207 2.85871,-0.63549c1.07491,-0.46265 1.85852,-1.45204 2.91301,-1.9595c3.20243,-1.54113 3.77222,-1.24143 7.09838,-1.25421c2.99998,-0.01153 6.00004,-0.01467 9,0c0.01541,0.00007 3.7506,0.21386 4.23223,-0.26777c1.02185,-1.02185 0.26777,-7.36852 0.26777,-8.23223c0,-0.16486 0.00148,-0.3314 0.00421,-0.49945c-5.9019,-0.00027 -14.81709,-0.00707 -15.42058,-0.05674c-3.58343,-0.29496 -7.05651,-1.23698 -10.51527,-2.28033c-1.68009,0.35996 -3.37457,0.79723 -5.06353,1.24314c-0.00311,0.19943 -0.00483,0.39731 -0.00483,0.59339c0,3.57711 0,7.15421 0,10.73132c1.11211,0.56015 2.20523,1.14714 3.26445,1.78186zM404.21093,36.01466c1.85273,1.03052 3.78963,1.94425 5.73555,2.84629c0,-2.55464 0,-5.10929 0,-7.66394c-1.24427,0.2965 -2.47429,0.5594 -3.68162,0.7597c-2.84065,0.47127 -5.71112,0.7409 -8.59649,0.89222c2.14194,1.12616 4.42608,1.98852 6.54256,3.16574zM345.2185,148.27821c0.83395,1.3222 1.72819,2.4926 2.67713,3.55029c0.14473,-0.22217 0.29076,-0.44351 0.43831,-0.66387c0.47834,-0.71435 1.43154,-1.15959 1.63465,-1.99496c0.43136,-1.77411 -2.11254,-3.01177 -2.82416,-4.69318c-0.48892,-1.15521 -0.37932,-2.49836 -0.82007,-3.67279c-0.17476,-0.46569 -0.39222,-0.91269 -0.62691,-1.35216c-0.56283,2.59393 -1.83793,6.67206 -0.47894,8.82667zM347.92762,113.03316c-0.26873,4.80402 -1.11907,9.495 -1.61408,14.25151c0.7094,2.3073 1.44613,4.60175 2.29031,6.85482c0.17056,-3.85625 1.01264,-7.60587 2.59685,-10.73637c1.94391,-3.8413 4.56532,-4.97231 7.39487,-7.80447c7.50802,-7.51493 13.42332,-17.1512 13.35092,-28.09715c0,-4.70178 0.40173,-9.7217 -0.90308,-14.31064c-0.85884,-3.02048 -2.48459,-5.76939 -3.62728,-8.69431c-2.04247,-5.22804 -4.13969,-10.29442 -6.43763,-15.25976c-0.62013,3.66146 -2.14789,7.24731 -3.71817,10.39864c-1.38917,2.78785 -3.88711,5.08369 -4.655,8.10233c-2.35622,9.26258 -2.5692,19.17802 -4.70363,28.58212c0.0347,4.0157 0.14396,14.60295 0.02591,16.71329zM322.44647,31.00148c0,0 -0.98611,0 -2.2432,-0.35757c-0.60798,0.13484 -1.22041,0.24182 -1.84043,0.30137c-1.46364,0.14058 -2.93958,0.02009 -4.41259,-0.03539c1.43619,1.60505 2.87465,3.22019 4.40662,4.76082c0.91445,0.91963 2.33185,1.30475 3.10236,2.34795c0.37611,0.50922 1.99547,5.7055 2.3347,6.62293c0.62204,1.68225 1.6101,3.25179 1.9607,5.01076c0.05719,0.28693 0.17837,8.95224 0.19177,9.83003l0.00007,4.01911c0,0 0,1.61532 -1.29843,2.2491c-1.81412,4.66556 -5.56567,7.77311 -8.07716,12.0688c-1.62497,2.77938 -2.24742,6.03846 -3.55336,8.98124c-2.02808,4.57003 -3.80675,9.01586 -5.49702,13.73447c-3.11275,8.68965 -9.98313,17.34564 -6.72647,27.0647c0.80409,2.3997 2.34932,4.44697 3.73256,6.51494c1.26243,1.89364 2.17884,4.0629 3.76262,5.69729c2.23071,2.30199 5.02468,3.98168 7.52768,5.98424c0.86741,0.69398 5.31854,4.27648 5.65,4.42296c2.43815,1.0775 5.23258,1.07902 7.76568,1.90907l1.48553,0.49518c-1.8322,-5.14361 -0.34239,-10.65443 0.26487,-15.86101c0.33502,-2.87245 -0.22957,-5.79104 -0.02502,-8.67572c0.38293,-5.40025 1.70937,-10.7113 2.00739,-16.11691c0.12403,-2.24971 0.14924,-4.50211 0.13621,-6.75561c-0.62976,-1.58347 -1.27337,-3.15826 -1.94667,-4.71343c-1.25852,-2.9069 -2.64143,-4.47385 -3.17612,-7.59884c-0.04177,-0.24415 -0.03228,-5.93356 -0.03228,-6.40046c0.03806,-4.0089 0.64624,-8.14297 3.98252,-10.98677c0.72514,-0.6181 2.06965,-0.11363 2.74972,-0.781c0.62476,-0.6131 0.1999,-1.79056 0.64114,-2.54656c0.43597,-0.74698 1.26985,-1.18546 1.84759,-1.82756c0.296,-2.38093 0.46568,-4.79118 1.12018,-7.09437c1.57796,-5.55284 5.98241,-10.06244 7.85948,-15.48689c1.00394,-2.90122 -1.10752,-6.14663 -3.00393,-7.97355c-1.53315,-1.47697 -3.37633,-2.58986 -5.25736,-3.62287l0.06066,1.31957c0,0 0,2.5 -2.5,2.5c-2.5,0 -2.5,-2.5 -2.5,-2.5l0.12829,-1.20943c-0.33333,-1 -0.66667,-2 -1,-3c0,0 -0.12012,-0.36035 -0.12625,-0.84695c-0.53606,-0.27888 -1.09722,-0.47925 -1.70341,-0.54046c-0.99494,-0.10046 -2.01361,0.1644 -3,0c-1.60548,-0.26758 -3.17336,-0.99067 -4.79863,-0.90316zM351.66887,155.31891c2.02566,1.57795 4.22065,2.92837 6.54778,4.31206c-1.36803,-2.15923 -2.37853,-4.54042 -3.79827,-6.66769c-0.1871,-0.28035 -0.42942,-0.51704 -0.68765,-0.7408c-0.40614,0.53348 -0.83922,1.05746 -1.17172,1.61589c-0.29458,0.49476 -0.59129,0.98829 -0.89014,1.48054zM29.4465,143.00154c0,0 1.00083,0 2.27128,0.3656c0.17886,-0.40453 0.37612,-0.79962 0.60209,-1.17993c0.46555,-0.78354 1.53776,-1.10358 1.95044,-1.91621c1.38308,-2.72354 0.76728,-6.14211 1.972,-8.94911c0.39042,-0.90968 1.5583,-1.28105 2.07272,-2.12681c2.11036,-3.46965 1.28596,-8.30134 1.66353,-12.04172c0.16723,-1.65666 0.77115,-3.24624 0.98011,-4.89816c0.48429,-3.82843 -0.61541,-7.87044 0.20719,-11.68759c0.01336,-0.06204 0.02788,-0.12372 0.04346,-0.18509c-0.65436,-0.37986 -1.28775,-0.77929 -1.74958,-1.36349c-0.78524,-0.99331 -0.81895,-2.39921 -1.32293,-3.56078c-0.64609,-1.4891 -1.73783,-2.80557 -2.12342,-4.38233c-0.08637,-0.35318 -0.06688,-7.90586 -0.06688,-8.57438c0,-3.13351 -0.41653,-6.29926 0.03228,-9.40046c0.02546,-0.17594 1.93288,-5.9202 2.06968,-6.33376c2.13694,-10.66946 7.94131,-20.38858 15.68346,-28.08519c2.44472,-2.43034 5.24275,-4.38651 8.1758,-6.1402c0.01,-2.75306 0.20346,-5.34772 1.00371,-8.03269c-2.96163,-0.63556 -5.90009,-1.71692 -8.84662,-2.55741c-2.8776,0.02731 -5.75128,0.0497 -8.61832,0.0497l0.15923,-0.26539c-0.05325,-0.01339 -0.10633,-0.02728 -0.15923,-0.04166v0.30705h-1.55919c-0.14693,0.72958 -0.65866,2 -2.44081,2c-2.5,0 -2.5,-2.5 -2.5,-2.5l0.00326,-0.36333c-1.22615,-0.64737 -2.2512,-1.6246 -2.95704,-2.81356c-0.12835,-0.0401 -0.25637,-0.0813 -0.38404,-0.12357c-0.89501,0.33925 -1.84773,0.58167 -2.54658,1.212c-1.98615,1.79141 -3.33585,4.18513 -5.11268,6.18433c-2.38984,2.68891 -5.33674,6.00324 -6.20355,9.62727c-0.21318,0.89125 0.25537,1.8291 0.18614,2.74288c-0.20301,2.67974 -0.80945,5.31934 -1,8c-0.53142,7.47588 0.90769,15.21014 2.71539,22.43706c0.28814,1.85771 2.40783,2.88774 3.59916,4.34199c2.9208,3.5654 5.35752,8.37001 4.55153,13.23951c-0.12175,0.73559 -7.9148,12.56736 -8.40861,12.89529c-1.00784,0.66927 -2.20416,0.87618 -3.4462,0.95578c1.03298,2.26669 1.66444,4.74796 2.5456,7.08465c2.05926,5.46085 2.99163,10.1425 4.23645,15.77179c0.27189,1.22953 0.96873,2.35693 1.12431,3.60652c0.32948,2.64623 -0.49324,5.37935 0,8c0.19497,1.0359 0.85093,1.9565 1,3c0.18856,1.31993 -0.16164,2.6765 0,4c0.07169,0.58699 0.3607,1.16155 0.5042,1.73743l0.09264,-0.03607zM128.21548,89.61553c0.14864,-2.68979 0.31576,-5.6677 0.33385,-5.78709c1.40777,-9.29205 5.15116,-18.23748 6.41106,-27.59032c0.72255,-5.36381 -0.01391,-11.31435 -0.01391,-16.73662c0,-0.4202 0,-0.84039 0,-1.26058c-3.9467,2.58754 -7.97037,5.07744 -11.63308,7.97191c0.858,2.24633 1.54899,4.41173 0.89238,7.0188c-1.03285,4.10091 -4.18508,7.72278 -7.79595,10.691c-2.79483,2.25974 -5.11193,4.85949 -8.12576,6.9664c0.31712,0.30049 0.64345,0.59086 0.98291,0.8668c3.23136,2.6267 7.1041,4.42311 10.21695,7.18923c3.35853,2.98444 6.17746,6.75156 8.73155,10.67047zM103.41002,65.87892c0.6895,0.59761 1.32796,1.25068 1.95106,1.92022c2.7232,-1.9482 4.84502,-4.39005 7.39432,-6.45604c3.06042,-2.4323 5.61636,-5.44827 6.54517,-8.84388c0.22561,-0.82479 0.24769,-1.61636 0.14258,-2.38865c-0.32946,0.2851 -0.67737,0.54623 -1.05368,0.77081c-2.50542,1.49524 -5.66353,1.4947 -8.34089,2.65426c-4.42904,1.91821 -8.66903,4.26467 -13.08942,6.19722c1.03723,1.07991 2.04691,2.17407 3.01828,3.28593c1.16369,0.93027 2.30764,1.88512 3.43256,2.86012zM164.15469,3.14741c1.3309,2.66181 1.0775,4.79552 0.28754,6.40113c2.24036,0.18899 4.4803,0.38556 6.72073,0.57299c4.31956,0.21057 8.63104,0.5022 12.93536,0.86098c0.20844,0.0084 0.41689,0.01644 0.62537,0.02412c1.49102,0.0549 2.98295,0.06078 4.47525,0.04687c1.56204,-0.26684 3.12327,-0.53893 4.68345,-0.81458c-3.9411,-1.52779 -7.84896,-3.27243 -11.66051,-4.57493c-4.52764,-1.54721 -9.97052,-1.98808 -14.69178,-2.71868c-1.18941,-0.18406 -2.38894,-0.2291 -3.59315,-0.21108c0.07402,0.13329 0.14663,0.27097 0.21773,0.41317zM110.5035,38.12161c1.08187,-0.66495 1.71074,-1.86873 2.5637,-2.81995c-2.03239,-3.24774 -4.4176,-6.39493 -6.79154,-9.52817c-0.08673,-0.11447 -0.17335,-0.22902 -0.25986,-0.34363c-0.82856,-0.14229 -1.65686,-0.28508 -2.48485,-0.42837c-6.02816,0 -12.05631,0 -18.08447,0c-0.38109,0 -0.76503,0.00234 -1.1515,0.00657c-0.47504,0.48929 -0.81847,1.14308 -1.38673,1.52154c-1.98068,1.31914 -4.1028,2.41002 -6.18684,3.56198c-0.18977,1.64644 0.25554,4.60841 0.22507,5.40992c-0.02894,0.76134 -0.43193,1.55092 -0.20063,2.27685c0.44745,1.40428 2.49167,4.42421 3.5007,5.96823c1.59411,1.57584 3.25387,3.14352 4.94012,4.71559c1.48129,-0.78661 3.07723,-1.44005 4.68013,-2.00306c5.11701,-2.04284 9.90616,-4.83825 14.97759,-6.99175c1.78473,-0.75785 4.00721,-0.33044 5.65911,-1.34574zM84.48294,70.12408c-1.88753,-1.80793 -4.26221,-3.53275 -5.53066,-5.77284c-5.01628,1.58881 -10.18616,3.12607 -15.23303,3.63532c-0.18535,0.0187 -8.38604,0.01493 -9.27279,0.01493c-1,0 -2.01464,0.17048 -3,0c-0.47079,-0.08145 -0.89438,-1.07008 -1.23223,-0.73223c-0.33785,0.33785 0.66085,0.7598 0.73223,1.23223c0.16935,1.12082 0.14821,2.28138 -0.03228,3.40046c-0.79342,4.91941 -1.98956,9.71673 -1.97624,14.80575c-0.5615,3.38236 -0.34628,6.87567 -1.04164,10.23307c-0.12038,0.58123 -0.3411,1.13218 -0.5921,1.67412c2.50416,2.14913 5.14969,4.91961 7.07561,7.30164c2.14757,2.65615 4.26329,5.34949 6.14567,8.19972c1.08876,1.64856 1.65505,3.57494 2.36508,5.43013c3.34553,-5.32172 6.69105,-10.64343 10.03658,-15.96515c2.14493,-3.41192 4.03595,-7.10187 6.53007,-10.37356c3.32214,-4.35784 7.66124,-8.44031 11.43033,-12.58754c0.57606,-0.63386 1.14154,-1.28906 1.70544,-1.95353c-0.67052,-1.19356 -1.22522,-2.46644 -2.05804,-3.5495c-0.18029,-0.23445 -0.36513,-0.46487 -0.554,-0.69173c-1.8961,-1.36097 -3.81682,-2.69102 -5.49798,-4.30128zM122.03647,108.19646c-1.36062,-2.18258 -3.59638,-6.16334 -6.09824,-9.98511c0.00502,0.43629 0.00756,0.86674 0.00825,1.29015c0.01654,10.10445 1.15917,15.28622 -4.18248,24.04215c-2.1539,3.53064 -4.84439,6.41438 -7.83559,8.94025c1.13756,-0.2401 2.27643,-0.47051 3.41838,-0.67814c5.44188,-0.98941 10.88455,-1.97509 16.32164,-2.99044c0.18765,-4.20583 1.00071,-8.4925 1.28434,-12.49104c0.07282,-1.02663 0.15708,-2.04728 0.25162,-3.06345c-1.28099,-2.04306 -2.51186,-4.01198 -3.16791,-5.06436zM129.57715,120.17064c-0.00064,-0.00089 -0.0013,-0.0018 -0.00198,-0.00274c-0.32099,2.51709 -0.72583,5.12617 -0.89663,7.70055c1.83211,-0.36497 3.65289,-0.84176 5.4761,-1.29457c-0.71136,-1.16015 -1.00028,-2.57514 -1.79247,-3.68705c-0.75245,-1.05612 -2.02369,-1.66647 -2.78503,-2.71619zM69.44647,135.00149c1.28672,0 2.58303,0.02165 3.88504,0.05268l0.36004,-0.35275c1.19823,-0.81344 2.39645,-1.62687 3.59467,-2.44031c7.73433,-5.15621 16.42667,-8.89517 21.84274,-16.80177c3.48614,-5.08921 1.80561,-9.25335 1.81752,-15.95785c0.00693,-3.89802 -0.10701,-8.60514 -1.49541,-12.29552c-0.96608,-2.56784 -2.35543,-3.50253 -3.9595,-4.98405c-0.1602,0.18082 -0.32107,0.36035 -0.48283,0.53834c-3.69394,4.06453 -7.96369,8.06384 -11.21935,12.33449c-2.42837,3.18543 -4.25804,6.78703 -6.34622,10.10869c-4.01584,6.38798 -8.03167,12.77595 -12.04751,19.16393c0.68741,1.18696 1.29599,2.40009 1.51853,3.73367c0.41272,2.47328 -0.0738,4.90987 -0.79369,7.28198c1.29631,-0.38152 2.32598,-0.38152 2.32598,-0.38152h1zM112.7349,26.57162c1.42584,1.91287 2.80366,3.84577 4.07231,5.80864c2.02327,-1.41417 4.1205,-2.74277 6.18314,-4.11308c-3.41878,-0.55566 -6.83831,-1.12109 -10.25546,-1.69557zM271.97816,34.98263c-0.01436,0.00139 -0.02872,0.00274 -0.04308,0.00406c-0.05141,3.23611 -0.20849,6.48323 0.85898,9.61312c0.48966,1.43571 1.52641,2.64443 2.01385,4.0809c1.16658,3.43784 2.00295,7.08541 2.72145,10.78013c0.29998,-0.49761 0.6094,-0.98979 0.92951,-1.47581c0.6531,-0.9916 1.93996,-1.44474 2.60773,-2.42652c0.45711,-0.67205 0.27616,-1.62663 0.64252,-2.35215c1.99146,-3.94376 5.12858,-7.23438 7.10725,-11.2108c1.47093,-2.95604 2.79116,-5.98398 4.14615,-8.99559c-6.97567,0.00823 -14.04089,1.31093 -20.98437,1.98266zM199.59422,83.4323c-6.4835,4.41192 -12.5394,9.02626 -16.79864,15.40394c0.9497,0.41563 1.89004,0.84663 2.74928,1.41946c1.77299,0.57564 3.45147,1.55431 5.30208,1.77807c5.87429,0.71027 12.02288,-0.73767 17.905,-0.01355c0.40981,0.05045 4.93339,1.21911 7.22131,1.79144c-0.00719,-1.96778 -0.10105,-4.00251 -0.53283,-5.6334c-0.63832,-2.41103 -4.14866,-5.25157 -5.90795,-7.01086c-3.36143,-2.51302 -6.68694,-5.07956 -9.93825,-7.7351zM244.09067,57.92476c-0.17757,-0.79912 -0.3403,-1.6182 -0.49621,-2.44918c-10.28881,6.33922 -20.56838,12.66853 -30.724,19.20998c2.13602,1.75187 4.28291,3.48968 6.49004,5.15003c3.47194,3.47194 8.55822,8.13274 10.09205,12.98914c1.45785,4.61585 2.03862,9.66994 1.97342,14.79368c1.62121,0.5784 3.1886,1.2607 4.66521,2.0951c0.23694,0.13389 0.46354,0.28304 0.68302,0.44274c-1.05762,-3.9515 -2.44952,-7.89318 -1.79544,-12.05521c0.2141,-1.36236 0.66274,-2.71316 1.34109,-3.91387c0.46375,-0.82087 1.51364,-1.19232 2,-2c0.50212,-0.83384 0.44436,-1.91404 0.88084,-2.78405c1.54322,-3.07601 5.06916,-6.01169 5.81267,-9.476c0.65931,-3.072 -0.06688,-6.28367 -0.06688,-9.42562c0,-4.3747 0.11284,-8.29434 -0.85582,-12.57674zM62.04881,129.46243c-2.95787,4.26786 -6.20794,8.6468 -8.09081,13.06068c-1.22342,2.86799 -1.30794,6.15801 -1.32792,9.11885c-0.00261,0.38711 -0.01556,0.77819 -0.0234,1.17064c0.04461,-0.05144 0.07204,-0.07887 0.07204,-0.07887l2,-2c2.7551,-2.53313 2.14089,-5.66323 3.42305,-9.0996c0.53225,-1.42651 1.35667,-2.72623 2.03501,-4.08934c0.835,-2.5179 2.14481,-5.34392 1.91203,-8.08236zM362.70746,30.96501c-1.87912,-0.24589 -3.80386,-0.16688 -5.73559,-0.04941c0.84373,1.39746 1.65774,2.79847 2.44547,4.20429c1.47593,-1.7455 2.8465,-3.3655 2.89097,-3.41631c0.21433,-0.2449 0.45262,-0.47385 0.69873,-0.6974c-0.09976,-0.01436 -0.19962,-0.0281 -0.29959,-0.04118zM62.14711,41.22466c-0.26105,-0.89536 -0.30443,-1.82643 -0.28564,-2.76716c-1.67034,1.14896 -3.25561,2.41466 -4.70042,3.86342c-7.08367,7.10305 -12.32113,15.92364 -14.2777,25.72062c-0.64171,1.95834 -1.68238,3.81968 -1.96915,5.86043c-0.56591,4.02715 0.06899,8.52337 0.03228,12.59954c-0.01029,1.14205 -0.3511,2.31946 -0.06688,3.42562c0.33807,1.31573 1.34882,2.3659 1.87658,3.61767c0.2306,0.54694 0.2082,1.20757 0.36006,1.77909c0.52085,-2.97186 0.3401,-6.04861 0.83876,-9.02859c0.01297,-5.20897 1.15338,-10.15796 2.02376,-15.19425c0.35389,-2.04773 -0.91739,-5.74997 0.69995,-7.36731c1.55329,-1.55328 9.67664,-0.73581 11.76777,-0.73223c5.80333,0.00992 11.44024,-1.28907 17.00879,-2.89439c-2.27275,-2.28036 -4.54282,-4.56338 -6.80886,-6.8507c-2.69166,-3.99774 -5.05559,-7.0801 -6.4993,-12.03177zM127.88893,4.87975c5.57194,0.20961 11.13017,0.49066 16.53371,1.18554c0.17873,0.02299 0.35727,0.04707 0.53563,0.0722c1.19084,-1.14034 2.47743,-2.18113 3.82772,-3.13599c-2.77984,0 -5.55967,0 -8.33951,0c-0.90636,0 -1.81271,0 -2.71907,0c-3.27949,0.62608 -6.55898,1.25217 -9.83847,1.87825zM339.8861,7.38216c0.0191,1.11006 -0.00926,2.19884 0.00417,3.20296c0.01413,1.05564 0.22743,2.16122 0.41881,3.26108c0.86975,0.02172 1.72448,0.06888 2.55143,0.15433c0.18657,-0.00546 0.37425,-0.01674 0.56231,-0.02995c-0.92755,-1.24815 -1.47635,-2.79453 -1.47635,-4.46908c0,-0.70139 0.09629,-1.3803 0.27635,-2.02422c-0.77888,-0.0334 -1.55778,-0.06511 -2.33671,-0.09512zM240.30992,-1.00216c-1.87658,-0.40106 -3.75883,-0.76891 -5.65816,-1.03857c-7.03747,-0.99917 -14.21497,-0.18097 -21.32223,-0.28705c-3.61126,-0.0539 -7.24738,-0.16564 -10.89582,-0.29302c0.80748,0.27176 1.61761,0.52614 2.43107,0.75762c1.7629,0.50165 3.68129,-0.32152 5.49807,-0.07913c1.3623,0.18176 2.63767,0.81849 4,1c6.71361,0.89451 14.31085,-0.05619 21.08363,-0.05619c1.61804,0 3.24014,-0.00683 4.86345,-0.00366zM332.9142,92.10105c0.0627,0.39055 0.18919,0.82424 0.35639,1.27985c0.99938,-4.73503 1.83179,-9.50494 2.58944,-14.28676c-0.32538,0.08498 -0.63353,0.20076 -0.89607,0.39413c-1.99908,1.4724 -2.04359,4.91087 -2.01748,7.01323c0,1.86654 -0.32816,3.7566 -0.03228,5.59954zM294.64738,121.40461c0.11276,0.35694 0.22263,0.71505 0.32989,1.07424c0.0437,-8.31019 4.9713,-15.61027 7.83541,-23.62785c1.72626,-4.83236 3.55708,-9.40022 5.63493,-14.07909c0.35792,-0.80596 3.5674,-9.05956 3.87445,-9.5883c2.30943,-3.9769 6.40144,-7.04031 7.75271,-11.47267c0,0 0.24509,-0.73527 0.87173,-1.25056l0.00005,-2.93977c-0.04533,-2.96156 0.49196,-5.98191 -0.09433,-8.88521c-0.30481,-1.50941 -1.20845,-2.83372 -1.75321,-4.27401c-0.66379,-1.75501 -0.50103,-3.90562 -1.6653,-5.37707c-0.628,-0.79369 -1.80452,-0.97672 -2.52231,-1.69024c-1.93621,-1.92469 -3.69903,-4.02058 -5.50838,-6.06042c-0.35462,0.73385 -0.74262,1.55575 -1.19677,2.51676c-2.08014,4.40174 -3.94473,8.90633 -6.12966,13.25702c-1.90869,3.80062 -5.02917,7.02182 -6.89275,10.7892c-0.57525,1.16292 -0.64452,2.56389 -1.35748,3.64785c-0.90254,1.37218 -2.4726,2.21271 -3.39227,3.57348c-3.26703,4.83401 -4.8665,10.60576 -7.31239,15.90281c-0.16632,0.36019 -0.50886,0.6175 -0.82767,0.88455c1.23862,6.10134 2.42353,12.21433 3.5694,18.33556c0.84364,1.77697 1.68045,3.55705 2.45784,5.36272c0.96897,2.25064 1.33952,4.74365 2.43102,6.93749c0.44009,0.88456 1.59175,1.25514 2.07407,2.11741c0.84242,1.50605 1.30116,3.2006 1.82102,4.84608z" fill="url(#color-3)" stroke="none" stroke-width="0.5"/><path d="M-34.53453,291.11112v-222.22223h69.06907v222.22223z" fill="url(#color-4)" stroke="none" stroke-width="0"/><path d="M238.96716,274.17721c2.26436,0 4.1,0.17909 4.1,0.4c0,0.22091 -1.83564,0.4 -4.1,0.4c-2.26437,0 -4.1,-0.17909 -4.1,-0.4c0,-0.22092 1.83564,-0.4 4.1,-0.4z" fill="#800000" stroke="none" stroke-width="0"/><path d="M186.27985,115.1415c1.51843,0.86767 3.61041,1.16565 4.78297,2.37686c0.17883,0.18472 0.33627,0.39068 0.46703,0.62314c1.53163,2.72285 1.87582,10.31091 1.91696,13.59099c0.01888,1.50538 -1.18953,3.19962 -2.77892,4.51219c-0.78717,3.98456 -1.56521,8.16009 -1.72138,12.10451c-0.14848,3.75013 -0.07039,7.50679 0,11.2592c0.02534,1.35102 0.18405,2.64009 0.41891,3.89679c2.39817,-4.54624 4.08069,-9.14312 8.8548,-10.16449c1.00218,-3.43106 2.4746,-7.4658 3.21975,-11.04754c0.28285,-1.35961 0.42197,-9.72622 2.13998,-11.83493c2.64373,-3.24497 8.64827,-4.2533 10.9499,0.34995c1.42683,2.85366 0.76989,9.48308 0.75,11.33333c-0.04133,3.84358 -1.05318,7.62002 -1.3443,11.45278c-0.26869,3.53747 -0.22336,7.09182 -0.32237,10.6381c-0.00562,0.20139 -0.00465,0.43363 -0.00418,0.68303c0.00278,0.07502 0.00418,0.15039 0.00418,0.22608c0,0.0884 -0.00191,0.17635 -0.0057,0.26382c-0.01195,0.27621 -0.04258,0.54758 -0.09064,0.81288c2.06325,1.90076 2.18563,5.27877 1.9916,8.00893c-0.54596,7.68227 -4.48447,15.53179 -7.76639,22.39719c-0.83771,1.75239 -2.66786,4.4516 -3.19869,5.40657c-1.17069,2.10607 -2.28928,5.58236 -4.22628,7.6123c-0.90596,3.34685 -1.93248,6.67329 -2.83786,10.27688c-1.42032,5.65316 -2.55934,11.42352 -3.93043,17.13156c3.06194,-2.55179 4.63529,-5.36522 7.59465,-6.17291c0.8334,-1.68817 1.84745,-2.62202 2.98991,-3.34186c1.88309,-1.1865 4.11506,-1.79162 6.46202,-4.23494c1.88879,-1.96635 3.56199,-4.19029 6.00119,-5.52698c1.97071,-1.07995 11.51967,-5.59734 13.34995,-2.88344c1.13384,1.68125 2.11518,3.14965 3.03738,4.91459c0.81827,1.56602 -1.60455,6.05382 -2.2438,7.59712c-1.17871,2.84565 -3.17267,4.92594 -4.57779,7.73127c-0.14644,0.29237 -0.28325,0.59007 -0.41143,0.89251c0.00182,0.01342 0.00361,0.02685 0.00539,0.04029c0.44448,3.36331 -0.55872,6.35834 -2.16076,9.12176c-0.35271,2.13793 -0.73844,4.24719 -1.41145,6.18081c-0.86998,2.49954 -2.71897,7.53781 -6.06951,8.00214c-0.6867,2.46897 -2.83146,3.55812 -3.96851,5.7869c-2.16529,4.24427 -6.87134,9.81607 -12.06383,11.67222c-4.82745,4.13327 -13.33848,6.16816 -17.83379,7.86764c-2.98316,1.12781 -5.40493,3.25984 -8.45853,4.32623c-7.12667,2.4888 -13.40871,2.10014 -21.20303,2.11652c-2.53919,0.00534 -5.1029,0.98462 -7.64033,1c-13.5073,0.08187 -26.47238,-0.02674 -39.65306,-1.41497c-3.64963,-0.38439 -15.50324,-3.36299 -16.79398,-8.70905c-0.50548,-0.24674 -0.96637,-0.53776 -1.33593,-0.91951c-0.17883,-0.18472 -0.33627,-0.39068 -0.46703,-0.62314c-0.30274,-0.53819 -0.48557,-1.08477 -0.59467,-1.6377c-0.10161,-0.43767 -0.15533,-0.89371 -0.15533,-1.3623c0,-0.07765 0.00148,-0.15496 0.0044,-0.23189c-0.01614,-0.86032 0.03725,-1.73101 -0.0044,-2.60487c-0.10441,-2.1909 -3.47788,-8.66618 -4.0375,-12.06114c-1.0559,-2.50439 -2.14203,-4.97375 -3.2382,-7.33679c-1.82618,-3.93674 -4.61943,-7.32549 -5.99693,-11.45626c-5.17125,-15.50731 -8.69611,-31.70263 -9.86076,-48.04262c-0.06635,-0.93091 -0.15014,-1.85054 -0.23662,-2.75834c-0.30716,-0.27758 -0.60094,-0.56237 -0.87999,-0.84142c-2.12997,-2.12997 1.10195,-12.05772 1.30882,-13.97453c1.23109,-11.40708 1.92775,-21.07988 1.94118,-33.02547c0.00305,-2.71585 3.243,-6.15317 6,-6c8.26066,0.45893 4.89917,7.22137 6.43163,11.9879c2.21512,6.88985 5.48097,13.53299 7.75759,20.44671c0.08883,-0.82201 0.21528,-1.66994 0.36265,-2.52412c-0.02755,-3.60799 0.15421,-7.86658 1.19813,-8.9105c0.1664,-0.1664 0.33804,-0.33485 0.51463,-0.50258c0.02192,-0.30958 0.0304,-0.59808 0.02289,-0.86249c-0.17727,-6.24194 -2.22502,-11.61819 -4.00979,-17.59197c-1.02882,-3.44355 -3.97629,-8.65246 -1.86107,-12.37629c0.80623,-1.41936 2.53621,-1.82585 3.81519,-2.18011c8.58569,-2.3781 9.37038,10.83555 12.39934,15.97693c1.92151,3.26159 3.67495,7.17208 5.88177,10.45143l-0.13256,-1.45815l-2.2906,-13.08915l0.03768,-0.52431l-0.12749,-0.50997v-2.62525c-0.74383,-1.45809 -2.47703,-4.39121 -2.03738,-5.71016c0.63738,-1.91213 1.55133,-4.12977 3.3541,-5.03115c0.03875,-0.01938 0.07736,-0.03836 0.11583,-0.05697l0.35063,-1.75316l0.15089,-0.31855l0.02392,-0.35167l3.56729,-11.02618l1.56196,-7.4974l0.90208,-6.31456l-0.31691,-12.67633l-0.32142,-4.17842l0.01249,-0.07353l-0.02187,-0.0713l-0.33333,-6.33333l0.0309,-0.1586l-0.03919,-0.15675v-2.16002l-0.03236,-0.09062l0.03236,-0.06473v-0.3513l0.75,-3l1.29591,-0.74052l0.62589,-1.25178l1.7795,-0.12272l1.54871,-0.88497l1.21514,0.69436l1.48903,-0.10269l2.28814,2.08013l0.19486,0.2923l0.06283,0.03591l0.02334,0.09335l1.68977,2.53466l5.93034,8.56604l5.2923,7.27692l0.31775,0.7868l0.47316,0.70437l3.96273,10.97371l3.01181,-9.42829l0.33411,-0.53987l0.1719,-0.61118l4,-7l0.5545,-0.57861l0.41232,-0.6872l1,-1l2.65165,-1.59099l0.11607,0.03166l0.0197,-0.01888l2.8458,0.80038l2.85205,0.77783l0.00718,0.02633l0.11582,0.03257l1.45521,2.72853l0.33333,1.33333v1.11137l0.13084,1.10364l-0.3563,2.79106l4.39337,-8.611l0.29754,-0.34147l0.01588,-0.28581l0.92109,-0.78951l0.79697,-0.91464l0.28593,-0.01355l0.34388,-0.29475l0.66667,-0.33333l2.57689,-0.57264l0.10639,-0.06079l0.04681,0.02675l0.2886,-0.06413l1.55153,1.03436l0.17321,-0.00821l0.14381,0.21955l0.53644,0.35763l2.5096,1.43406l0.0717,0.28681l0.04486,0.02991l-0.0068,0.12235l0.64023,2.56094v1.35967l0.35877,1.0763l0.04183,0.54377l0.20577,0.50507l0.28051,1.96354l0.85789,3.14561l1.09279,3.27838l1.03857,1.8175l0.04616,0.16411l0.11095,0.12944l0.15826,0.31651l0.05851,0.03344l0.0418,0.16718l0.07477,0.14953l0.29907,1.34581l0.29783,1.19131l0.19073,0.35762l0.17359,0.69437l0.37212,0.74423l0.14334,0.64504l0.31095,0.58303l0.33333,1.33333v0.1463l0.06263,0.13222l0.33333,1.66667l-0.02843,0.59693l0.14494,0.57977v1.66667l-0.17914,0.71658v0.73863l-0.33333,1.33333l-0.31095,0.58303l-0.14334,0.64504l-0.72247,1.44493c-0.00568,0.04539 -0.01155,0.09083 -0.0176,0.13632c-0.64168,4.82458 -1.99562,9.98614 -3.09222,15.23969l1.46572,-0.83755l3.07231,1.7556c0.22809,-1.27182 0.5284,-2.58523 0.94813,-3.76382c-0.00591,-0.0945 -0.01271,-0.18947 -0.02044,-0.2849c-0.1241,-1.53146 -1.12182,-6.49441 0.49577,-7.41875zM135.94027,158.19253c-0.02095,-0.4605 -0.0545,-0.91773 -0.09901,-1.37264l-0.47003,-0.15668c0.19229,0.50853 0.38271,1.01826 0.56904,1.52932zM177.95588,168.48117c0.0244,0.34558 0.04687,0.69205 0.06738,1.03926c0.05149,0.00636 0.10277,0.01338 0.15384,0.02104c-0.08257,-0.39517 -0.15649,-0.7535 -0.22122,-1.0603z" fill="#800000" stroke="none" stroke-width="0.5"/><g><g><g stroke-width="0"><path d="M151.78898,226.2932c8.31791,18.96665 16.35126,30.49339 -6.86105,40.13904c-22.89803,9.51505 -25.27494,-3.43114 -33.59285,-22.39779c-8.31791,-18.96665 -24.95006,-30.35224 5.16604,-43.21279c1.32979,-0.56786 3.88968,1.15829 5.09506,0.70533c0.3488,-0.13107 0.28078,-2.19862 0.61955,-2.32034c26.54716,-9.53863 21.70286,9.14036 29.57325,27.08656z" fill="#800000" stroke="#6b7680"/><path d="M144.92794,266.43223c-22.89803,9.51504 -25.27493,-3.43114 -33.59285,-22.39779c-8.31791,-18.96665 -24.95006,-30.35224 5.16604,-43.21278c0.86072,-0.36756 4.81227,1.70125 5.62033,1.38221c1.3012,-0.51374 -0.58224,-3.37725 0.5891,-3.76985c20.93071,-7.01552 21.78396,4.8514 26.02028,19.23401c-0.83239,-0.83954 -1.80083,-1.5164 -2.85253,-2.00996c-6.55444,-7.70949 -19.46966,-9.90163 -27.76529,-3.19501c-3.24614,2.62435 -2.57566,16.68599 -2.50483,19.21892c0.33209,11.87681 12.56973,24.41956 25.1792,18.88962c5.12594,-2.24801 9.53766,-7.17639 12.86574,-11.59903c0.26728,-0.35519 0.47626,-0.73337 0.63849,-1.12996c0.58654,-1.05238 0.98092,-2.20543 1.16023,-3.4005c6.37482,14.27675 9.16185,23.80991 -10.5239,31.99013z" fill="url(#color-5)" stroke="#6b7680"/><path d="M154.74914,260.73704c0,0 -2.0968,2.06149 -7.26368,4.64296c-4.54611,2.27132 -7.16354,2.65579 -7.16354,2.65579l-7.16851,-16.17568c0.93373,-0.27381 1.9033,-0.75872 2.80265,-0.95367c3.16902,-0.6869 8.6363,-3.05434 11.99679,-5.66641z" fill="url(#color-6)" stroke="none"/></g><path d="M113.64314,207.8354c0,0 2.99386,0.89714 8.50735,-1.64888c5.97621,-2.7597 6.30586,-5.40274 6.30586,-5.40274l3.25557,7.4234c-1.30413,0.04608 -2.86517,0.39851 -3.74248,0.4301c-4.50544,0.16224 -8.58407,2.34248 -11.49132,5.59521z" fill="url(#color-7)" stroke="none" stroke-width="0"/><path d="M123.89033,210.37856c4.66207,-2.04458 15.38892,3.44279 19.6752,13.21644c4.28627,9.77364 3.04409,14.80058 -1.61798,16.84515c-4.66207,2.04458 -10.97861,0.33255 -15.26488,-9.4411c-4.28627,-9.77364 -7.45441,-18.57592 -2.79234,-20.62049z" fill="#960028" stroke="none" stroke-width="NaN"/></g><path d="M154.29897,247.90933c8.78139,-2.11613 14.59189,-3.67638 17.63413,7.35513c3.31938,12.03645 -3.41787,13.08201 -12.19926,15.19814c-8.78138,2.11613 -16.21748,1.82915 -18.61754,-7.44504c-2.92193,-9.81933 4.40129,-12.99209 13.18267,-15.10822z" fill="#00300f" stroke="#6b7680" stroke-width="0"/><path d="M136.06077,254.72529c8.2921,-3.58216 13.75157,-6.11011 18.62986,4.2413c5.3227,11.29439 -1.1377,13.47317 -9.4298,17.05533c-8.2921,3.58216 -15.66827,4.56705 -19.6142,-4.16224c-4.5531,-9.17748 2.12204,-13.55223 10.41414,-17.13439z" fill="#00300f" stroke="#6b7680" stroke-width="0"/><path d="M179.4503,278.72479c0,9.03276 0.15558,15.98206 -11.28164,16.35525c-12.47912,0.40719 -11.91723,-7.3225 -11.91723,-16.35525c0,-9.03276 2.02107,-16.19468 11.59944,-16.35525c10.2306,-0.54022 11.59943,7.3225 11.59943,16.35526z" fill="#00300f" stroke="#6b7680" stroke-width="0"/><path d="M156.56922,277.75587c0,9.03276 0.15559,15.98206 -11.28164,16.35525c-12.47912,0.40719 -11.91722,-7.32249 -11.91722,-16.35525c0,-9.03276 2.02107,-16.19468 11.59943,-16.35525c10.2306,-0.54022 11.59944,7.3225 11.59944,16.35526z" fill="#00300f" stroke="#6b7680" stroke-width="0"/><path d="M144.97419,279.79982c12.2899,0 18.58766,5.97777 18.58766,13.35171c0,7.37394 -31.93936,7.37394 -31.93936,0c0,-7.37394 1.0618,-13.35171 13.3517,-13.35171z" fill="#bdbdbd" stroke="none" stroke-width="0"/><path d="M168.91458,279.70943c12.2899,0 18.58767,5.97777 18.58767,13.35171c0,7.37394 -31.93937,7.37394 -31.93937,0c0,-7.37394 1.06179,-13.35171 13.3517,-13.35171z" fill="#bdbdbd" stroke="none" stroke-width="0"/><path d="M108.72641,239.42091c1.41174,10.60285 2.53433,17.63828 -10.83258,19.86388c-14.58461,2.42834 -14.987,-5.63526 -16.39874,-16.2381c-1.41174,-10.60285 -0.15871,-19.32553 11.05948,-21.01103c11.92447,-2.23307 14.7601,6.78241 16.17184,17.38526z" fill="url(#color-8)" stroke="#6b7680" stroke-width="0"/><path d="M101.72773,274.84081c-4.70077,9.60813 -7.66524,16.08651 -20.02519,10.5314c-13.48591,-6.06118 -9.35216,-12.99628 -4.65139,-22.60441c4.70077,-9.60813 10.57774,-16.17444 20.84979,-11.36053c11.1634,4.74953 8.52756,13.82542 3.82679,23.43355z" fill="#ffe1ad" stroke="#6b7680" stroke-width="0"/><g><g><path d="M101.54098,204.11113c0,0 10.29797,-15.94277 10.29797,-24.12667c0,-7.88978 -5.88455,-22.65553 -5.88455,-22.65553l26.18627,-0.29423c0,0 -5.00187,15.79022 -5.00187,23.83244c0,8.04222 7.64992,21.47862 7.64992,21.47862z" fill="#800000" stroke="none" stroke-width="0"/><path d="M121.80582,211.46939c-14.03224,0.49465 -22.96494,1.83806 -23.45959,-12.19418c-0.18824,-5.33991 -0.44429,2.52538 1.95177,-3.05968c1.63394,-3.8086 3.41214,-5.64555 4.71182,-2.74407c2.86031,6.38548 6.22442,-1.14151 7.6147,-3.39224c1.66404,-2.69395 1.74169,8.72476 3.05551,6.47533c2.56277,-4.38781 5.78024,0.00532 6.71112,-0.0275c3.0162,-0.10632 5.03591,-14.47881 7.13275,0.31382c0.27197,1.91868 3.2406,-3.60433 4.87941,-2.62817c1.89371,1.12799 3.60696,4.80289 4.93357,4.98807c3.43246,0.47912 4.90815,-4.48359 4.92031,-4.13879c0.49465,14.03224 -8.41912,15.91276 -22.45136,16.40741z" fill="#800000" stroke="#6b7680" stroke-width="0"/><path d="M141.51808,153.10347c0.22902,8.95673 -4.2173,16.94846 -11.12053,21.64398c-1.57651,1.07233 -4.87503,-4.25171 -5.02999,-2.32303c-1.19472,14.86967 -4.08343,0.66863 -7.10053,0.74577c-0.93115,0.02381 -3.87592,4.59734 -6.7004,0.38002c-1.44799,-2.16204 -0.83211,9.22259 -2.65667,6.63882c-1.52437,-2.15868 -5.33935,-9.45587 -7.80662,-2.91844c-1.1211,2.97053 -3.00756,1.24777 -4.86975,-2.44871c-2.73078,-5.42061 -5.40937,-15.08555 -5.54573,-20.41874c-0.35833,-14.0146 10.7299,-25.66662 24.76628,-26.02552c14.03638,-0.3589 25.70561,10.71124 26.06394,24.72585z" fill="#800000" stroke="#6b7680" stroke-width="0"/><g stroke="none" stroke-width="0"><g><path d="M121.59502,165.14865c-1.46169,-0.05153 -2.64663,-0.09348 -2.64662,-0.09369c0.00001,-0.00021 1.18495,0.04138 2.64665,0.09291c1.46169,0.05153 2.64662,0.09348 2.64661,0.09369c-0.00001,0.00021 -1.18495,-0.04138 -2.64664,-0.09291z" fill="#000000"/><path d="M130.46715,165.06416c2.68407,0.04447 1.69906,4.89623 1.69906,4.89623l-4.40884,-0.04424c0,0 -0.53206,-4.9057 2.70977,-4.85199z" fill="url(#color-9)"/><path d="M126.11168,165.05918c2.68407,0.04447 1.69906,4.89624 1.69906,4.89624l-4.40884,-0.04424c0,0 -0.53206,-4.90569 2.70977,-4.852z" fill="url(#color-10)"/><path d="M121.87901,164.90998c2.68407,0.04447 1.69906,4.89624 1.69906,4.89624l-4.40884,-0.04424c0,0 -0.53206,-4.90569 2.70977,-4.852z" fill="url(#color-11)"/></g><g><path d="M108.89044,164.88732c-1.46169,-0.05153 -2.64663,-0.09348 -2.64662,-0.09369c0.00001,-0.00021 1.18495,0.04138 2.64665,0.09291c1.46169,0.05153 2.64662,0.09348 2.64661,0.09369c-0.00001,0.00021 -1.18495,-0.04138 -2.64664,-0.09291z" fill="#000000"/><path d="M117.76256,164.80283c2.68407,0.04447 1.69906,4.89623 1.69906,4.89623l-4.40884,-0.04424c0,0 -0.53206,-4.9057 2.70977,-4.85199z" fill="url(#color-12)"/><path d="M113.40709,164.79785c2.68407,0.04447 1.69906,4.89624 1.69906,4.89624l-4.40884,-0.04424c0,0 -0.53206,-4.90569 2.70977,-4.852z" fill="url(#color-13)"/><path d="M109.17442,164.64865c2.68407,0.04447 1.69906,4.89624 1.69906,4.89624l-4.40884,-0.04424c0,0 -0.53206,-4.90569 2.70977,-4.852z" fill="url(#color-14)"/></g></g><path d="M141.51909,153.14286c0.05825,2.27829 -0.18505,4.49423 -0.6936,6.60957c-0.06267,-0.18724 -0.13035,-0.37277 -0.20287,-0.55644c0.00651,-0.15418 0.0088,-0.30882 0.00675,-0.46379c0.51199,-1.24649 0.77891,-2.61736 0.74225,-4.05098c-0.14117,-5.52105 -4.7313,-9.88229 -10.25234,-9.74112c-5.07158,0.12968 -9.16451,4.01343 -9.68789,8.92436c-0.37997,0.15839 -0.76666,0.31581 -1.16405,0.4693l-1.59373,1.12237c-1.21106,1.40258 -2.80989,2.53501 -3.95247,4.04912c-3.58888,4.75585 -4.4835,6.97292 -1.90456,11.96512c-13.26606,-0.53607 -21.78343,-3.56271 -22.12771,-17.0278c-0.3589,-14.03638 10.7289,-25.70605 24.76527,-26.06494c14.03638,-0.3589 25.70606,10.7289 26.06494,24.76527z" fill="url(#color-15)" stroke="#6b7680" stroke-width="0"/><path d="M123.34111,158.16417c-0.10588,-4.14078 3.16507,-7.58338 7.30585,-7.68925c4.14079,-0.10587 7.58338,3.16507 7.68925,7.30585c0.10588,4.14078 -3.16507,7.58338 -7.30585,7.68925c-4.14078,0.10588 -7.58337,-3.16506 -7.68925,-7.30585z" fill="#000000" stroke="none" stroke-width="0.5"/><path d="M113.28223,147.01178c-0.46031,0.36108 -2.65445,-0.03019 -4.90112,-0.44439c2.48106,-1.51283 5.61605,-3.50342 5.64931,-3.53939c0.58443,-0.63205 0.30758,-1.69824 0.5621,-2.52059c0.34969,-1.12981 0.50136,-2.21859 0.48856,-3.26732c0.0502,0.02573 0.10064,0.05104 0.15134,0.07592c0.90058,0.44228 1.87644,0.75281 2.90181,0.90709c5.80674,1.71019 13.68044,-0.60499 14.76115,-7.90542c1.50498,0.8617 3.09034,1.64536 4.34026,2.80531c1.63009,1.51274 2.70378,3.82347 4.63328,5.1071c0.91691,0.60998 2.08604,0.80541 2.94887,1.48975c0.67409,0.53464 1.02705,1.38065 1.54057,2.071c3.3725,1.95107 7.25412,5.59981 4.57964,10.49342c-0.97576,1.78537 -3.76479,1.56857 -5.72138,2.12657c-1.22243,0.34863 -2.54119,0.08207 -3.81226,0.09748c-2.7201,0.03295 -2.78948,-1.05085 -5.33943,-2.08834c-2.65187,-1.07895 -3.69368,-3.85355 -6.46154,-4.73278c-1.2822,-0.4073 -4.45594,-1.94104 -5.85593,-1.90524c-2.25878,0.05776 -8.22073,1.11955 -10.46525,1.22981z" fill="url(#color-16)" stroke="none" stroke-width="0.5"/><path d="M110.60844,160.65182c1.28571,0.54026 0.389,0.56373 -0.41372,0.12132c0.02817,-0.03769 0.05608,-0.07556 0.08372,-0.11365c0.11093,-0.00252 0.22118,-0.00508 0.33,-0.00766z" fill="url(#color-17)" stroke="none" stroke-width="0.5"/><g stroke="none" stroke-width="0"><path d="M136.15599,158.58404c0.00785,1.44642 -2.36644,2.63188 -5.30314,2.64781c-2.93668,0.01592 -5.32369,-1.14374 -5.33153,-2.59017c-0.00785,-1.44642 2.36644,-2.63188 5.30314,-2.64781c2.93668,-0.01592 5.32369,1.14374 5.33153,2.59017z" fill="url(#color-18)"/><path d="M133.3317,157.3184c0.00785,1.44642 -1.10508,2.62505 -2.48577,2.63254c-1.38069,0.00748 -2.50632,-1.15901 -2.51416,-2.60544c-0.00784,-1.44642 1.10509,-2.62505 2.48578,-2.63253c1.38069,-0.00748 2.50632,1.15901 2.51416,2.60544z" fill="#000000"/></g><path d="M96.82546,159.60114c0,-3.72792 3.02208,-6.75 6.75,-6.75c3.72792,0 6.75,3.02208 6.75,6.75c0,3.72792 -3.02208,6.75 -6.75,6.75c-3.72792,0 -6.75,-3.02208 -6.75,-6.75z" fill="#000000" stroke="none" stroke-width="0.5"/><g stroke="none" stroke-width="0"><path d="M108.8928,160.21271c0.00785,1.44643 -2.36644,2.63188 -5.30315,2.64781c-2.93668,0.01592 -5.32369,-1.14374 -5.33152,-2.59017c-0.00785,-1.44642 2.36644,-2.63188 5.30314,-2.64781c2.93668,-0.01592 5.32369,1.14375 5.33153,2.59017z" fill="url(#color-19)"/><path d="M106.06851,158.94707c0.00785,1.44643 -1.10508,2.62506 -2.48577,2.63254c-1.38069,0.00748 -2.50632,-1.159 -2.51416,-2.60544c-0.00784,-1.44642 1.10509,-2.62505 2.48577,-2.63253c1.38069,-0.00748 2.50632,1.159 2.51416,2.60544z" fill="#000000"/></g></g><g stroke="none" stroke-width="0"><g><path d="M124.24431,205.22203c0.00001,0.00021 -1.18492,0.04216 -2.64661,0.09369c-1.4617,0.05153 -2.64664,0.09312 -2.64665,0.09291c-0.00001,-0.00021 1.18493,-0.04216 2.64662,-0.09369c1.46169,-0.05153 2.64663,-0.09312 2.64664,-0.09291z" fill="#000000"/><path d="M130.46979,205.39943c-3.24183,0.05371 -2.70977,-4.85199 -2.70977,-4.85199l4.40884,-0.04424c0,0 0.98501,4.85176 -1.69906,4.89623z" fill="url(#color-20)"/><path d="M126.11432,205.40441c-3.24183,0.05369 -2.70977,-4.852 -2.70977,-4.852l4.40884,-0.04424c0,0 0.98501,4.85177 -1.69906,4.89624z" fill="url(#color-21)"/><path d="M121.88165,205.55361c-3.24183,0.05369 -2.70977,-4.852 -2.70977,-4.852l4.40884,-0.04424c0,0 0.98501,4.85177 -1.69906,4.89624z" fill="url(#color-22)"/></g><g><path d="M111.53973,205.48336c0.00001,0.00021 -1.18492,0.04216 -2.64661,0.09369c-1.4617,0.05153 -2.64664,0.09312 -2.64665,0.09291c-0.00001,-0.00021 1.18493,-0.04216 2.64662,-0.09369c1.46169,-0.05153 2.64663,-0.09312 2.64664,-0.09291z" fill="#000000"/><path d="M117.7652,205.66076c-3.24183,0.05371 -2.70977,-4.85199 -2.70977,-4.85199l4.40884,-0.04424c0,0 0.98501,4.85176 -1.69906,4.89623z" fill="url(#color-23)"/><path d="M113.40973,205.66574c-3.24183,0.05369 -2.70977,-4.852 -2.70977,-4.852l4.40884,-0.04424c0,0 0.98501,4.85177 -1.69906,4.89624z" fill="url(#color-24)"/><path d="M109.17706,205.81494c-3.24183,0.05369 -2.70977,-4.852 -2.70977,-4.852l4.40884,-0.04424c0,0 0.98501,4.85177 -1.69906,4.89624z" fill="url(#color-25)"/></g></g></g></g></g></g></svg>