<svg version="1.1" xmlns="http://www.w3.org/2000/svg" xmlns:xlink="http://www.w3.org/1999/xlink" width="516.15967" height="516.15967" viewBox="0,0,516.15967,516.15967"><defs><radialGradient cx="240" cy="180" r="258.07983" gradientUnits="userSpaceOnUse" id="color-1"><stop offset="0" stop-color="#ff0000"/><stop offset="1" stop-color="#ff0000" stop-opacity="0"/></radialGradient><radialGradient cx="240.00001" cy="179.99999" r="258.07983" gradientUnits="userSpaceOnUse" id="color-2"><stop offset="0" stop-color="#ff0000"/><stop offset="1" stop-color="#ff0000" stop-opacity="0"/></radialGradient><radialGradient cx="240.00001" cy="179.99999" r="258.07983" gradientUnits="userSpaceOnUse" id="color-3"><stop offset="0" stop-color="#ff0000"/><stop offset="1" stop-color="#ff0000" stop-opacity="0"/></radialGradient><radialGradient cx="239.99994" cy="180.00001" r="132.47747" gradientUnits="userSpaceOnUse" id="color-4"><stop offset="0" stop-color="#ff0000"/><stop offset="1" stop-color="#ff0000" stop-opacity="0"/></radialGradient></defs><g transform="translate(18.07983,78.07983)"><g stroke="none" stroke-miterlimit="10"><g stroke-width="0.5"><g><path d="M-18.07983,180c0,-142.53356 115.54628,-258.07983 258.07983,-258.07983c142.53356,0 258.07983,115.54628 258.07983,258.07983c0,142.53356 -115.54628,258.07983 -258.07983,258.07983c-142.53356,0 -258.07983,-115.54628 -258.07983,-258.07983z" fill="url(#color-1)"/><path d="M-18.07983,179.99999c0,-142.53356 115.54629,-258.07983 258.07984,-258.07983c142.53356,0 258.07983,115.54627 258.07983,258.07983c0,142.53356 -115.54627,258.07984 -258.07983,258.07984c-142.53356,0 -258.07984,-115.54629 -258.07984,-258.07984z" fill="url(#color-2)"/></g><g fill="url(#color-3)"><path d="M-18.07983,179.99999c0,-142.53356 115.54629,-258.07983 258.07984,-258.07983c142.53356,0 258.07983,115.54627 258.07983,258.07983c0,142.53356 -115.54627,258.07984 -258.07983,258.07984c-142.53356,0 -258.07984,-115.54629 -258.07984,-258.07984z"/><path d="M-18.07983,179.99999c0,-142.53356 115.54629,-258.07983 258.07984,-258.07983c142.53356,0 258.07983,115.54627 258.07983,258.07983c0,142.53356 -115.54627,258.07984 -258.07983,258.07984c-142.53356,0 -258.07984,-115.54629 -258.07984,-258.07984z"/></g></g><path d="M195.90175,329.35272c1.08773,1.80956 4.1781,7.9258 -1.11866,11.67066c-6.27069,4.43344 -11.75501,-3.32363 -11.75501,-3.32363l-1.98981,-3.49704c-3.8222,-10.46737 -9.18809,-21.62607 -9.46053,-32.42449c-0.1192,-4.72445 0.01755,-9.7561 2.07714,-13.49108c3.52278,-6.38846 9.35192,-9.78444 15.95742,-11.39608c0.10703,-2.35642 2.75487,-3.34124 4.17761,-4.94351c4.32449,-4.87016 9.44282,-8.53532 14.50213,-12.37513c0.40566,-1.24487 1.22732,-2.44909 2.67872,-3.47525c1.26182,-0.89211 2.4918,-1.29063 3.65166,-1.35805c1.00634,-0.77683 1.91062,-1.65019 2.39101,-2.87025c0.4122,-1.04688 -1.05437,-2.38508 -1.5739,-3.58008c-1.16099,-2.67042 -2.31175,-5.34407 -3.46763,-8.0161c-0.76826,-5.24351 -1.93541,-10.49629 -2.94581,-15.74417c-0.44199,-2.29561 -1.71583,-4.81066 -1.20355,-6.88667c1.49776,-6.06956 3.60939,-12.0296 7.04767,-16.79626c2.71786,-3.7679 6.51274,-5.12178 10.70377,-5.22179c-1.52568,-2.21173 -3.07504,-4.3971 -4.66724,-6.52457c-0.81604,-0.80173 -1.60387,-1.60635 -2.35704,-2.39884c-3.822,-0.27948 -7.64685,-0.59052 -11.4902,-1.10717c-3.38378,-0.45488 -6.77312,-0.99292 -10.16218,-1.53929c-0.88813,-0.14318 -1.7895,-0.49161 -2.6673,-0.52904c-0.13322,-0.00568 -0.25782,0.11433 -0.37374,0.23224c-0.48518,5.31467 -1.58729,6.66326 -3.16453,12.45763c-1.43276,5.26356 -2.47335,10.74078 -4.32201,15.77886c-1.08737,2.96335 -2.59155,5.67014 -3.67412,8.63632c-0.80823,2.21454 -1.03596,4.75925 -1.9898,6.88268c-0.69104,1.53842 -1.869,2.7056 -2.88889,3.97831c-4.45468,5.55888 -10.68665,9.13963 -16.4369,13.13388c-0.00462,0.26785 -0.06358,0.54776 0.01178,0.81223c0.73589,2.58256 1.72714,5.15125 2.19458,7.74927c0.58757,3.26569 0.77067,5.80121 0.32529,8.82526c-0.00221,0.22814 -0.0108,0.46096 -0.02613,0.69854c-0.12624,1.95706 -0.65227,3.34865 -1.39005,4.33066c-0.11272,0.42075 -0.20799,0.84908 -0.27365,1.29029c-0.19581,1.31563 -0.00341,2.7659 -0.28329,4.04729c-0.84971,3.89019 -2.78944,7.21263 -4.0169,10.91465c-0.54566,1.64573 -0.56015,3.57173 -1.22337,5.14734c-0.48208,1.14527 -1.60286,1.78886 -2.15764,2.88485c-0.41086,0.81168 -0.31693,1.9196 -0.69626,2.75317c-1.19872,2.63421 -3.19416,5.82033 -5.62053,7.85937c0.14583,0.29575 0.29851,0.57219 0.46548,0.80837c0.06393,1.60077 -0.218,3.39879 0.69734,4.85723l-2.85893,9.97668c0,0 -6.27069,4.43344 -11.75501,-3.32363c-2.2112,-3.12753 -2.51153,-5.71477 -2.08241,-7.689c-0.04385,-0.56254 0.00948,-1.09291 0.21477,-1.56635c-3.80947,-5.38815 -5.04527,-5.4858 -2.29537,-13.24655c1.27658,-3.60276 6.47209,-4.02059 7.87127,-7.71702c0.4007,-1.05858 0.45413,-2.32022 0.95499,-3.31303c0.48797,-0.96727 1.53662,-1.47606 1.96835,-2.48164c0.44414,-1.03451 0.24065,-2.39627 0.59342,-3.48529c0.63864,-1.97146 1.61908,-3.73927 2.36538,-5.64839c0.0084,-0.02147 0.01672,-0.04297 0.02498,-0.06452c-3.46989,-0.62271 -6.90341,-1.90314 -10.40981,-2.78944c-2.11262,-0.53401 -4.50861,0.02363 -6.34141,-1.47357c-3.30478,-2.69965 -6.07561,-6.41036 -8.03001,-10.26634c-1.42835,-2.8181 -1.55645,-6.00588 -1.71688,-8.96399c-0.16123,-2.97281 0.33767,-5.7994 0.55517,-8.69256c-1.87984,1.14224 -3.84302,2.1799 -5.67973,3.37344c0.1994,1.2906 0.14174,2.18453 0.14174,2.18453c-0.16142,0.91554 -0.64832,1.76243 -0.48427,2.74661c0.15648,0.9388 1.11914,1.70771 1.38237,2.64143c0.52622,1.86659 0.39544,3.76752 0.94961,5.63051c1.55373,5.22321 4.71485,10.4898 5.64109,15.86786c1.12853,6.55262 -0.33612,12.72503 -2.94761,17.88535c-1.70144,3.36206 -3.43439,4.33496 -5.96268,6.12249l-2.19099,2.60443c0,0 -5.07335,5.86863 -11.68095,-0.86833c-6.60761,-6.73697 -1.53426,-12.60559 -1.53426,-12.60559l3.25513,-3.69542c1.05634,-0.74684 2.75204,-1.74038 3.44387,-2.97742c3.48266,-6.22726 -1.75811,-13.26153 -3.8945,-20.37408c-0.51504,-1.71468 -0.3867,-3.46226 -0.8232,-5.18406c-2.94347,2.51359 -5.48805,5.40733 -7.13235,8.95701c0.04349,1.71427 -0.10918,3.38679 -0.21748,5.06563l-4.14786,6.34027c0,0 -6.27069,4.43344 -11.75501,-3.32363c-3.77538,-5.33993 -1.98021,-9.10482 -0.49486,-10.93266c0.11592,-1.52058 0.24408,-3.03756 0.38392,-4.55078c5.40408,-13.02013 16.14085,-20.17429 27.23389,-27.1445c2.96942,-1.86581 6.20224,-4.71778 9.79897,-6.86274c1.14651,-0.30257 2.22898,-0.92732 3.26016,-1.66173c4.19131,-1.73939 8.85648,-2.02905 14.12843,1.36962c6.16688,3.9756 6.03567,16.2422 6.08191,20.83115c0.0336,3.33378 -0.51377,6.52359 -0.67504,9.81184c-0.0124,0.25279 0.04786,0.5352 0.10757,0.81522c2.32779,0.63336 7.23511,2.09459 7.70659,2.20447c1.48852,0.34691 2.93377,0.2971 4.36948,0.14082c-0.47795,-1.54486 -1.0543,-3.06568 -1.40245,-4.68427c-0.91674,-4.26195 -1.1391,-9.75252 0.41262,-13.27713c0.76046,-1.72732 2.64163,-2.45807 3.96243,-3.68711c3.52023,-2.48884 7.02529,-5.00026 10.56116,-7.46685c1.80763,-1.26098 4.49647,-2.99947 5.35834,-5.2432c0.63195,-1.64518 0.71474,-3.58437 1.31269,-5.24972c1.93356,-5.38518 4.43802,-10.45594 5.95452,-16.06531c1.36778,-5.05927 2.66252,-10.15572 4.1281,-15.1655c2.2934,-7.83949 0.86419,-9.72043 7.08183,-13.00642c2.93029,-1.54864 6.22929,-1.77836 9.65001,-1.48266l-0.66684,-1.33147l-0.34671,0.37064l-2.40118,-2.5809c-4.38427,1.49803 -8.37047,5.20654 -11.58027,7.4915c-6.66965,4.74791 -12.19253,10.60315 -18.88568,15.28883c-4.37931,-3.68159 -9.66827,-6.37576 -13.13792,-11.04477c-0.54329,-0.73109 -0.9282,-1.52271 -1.2147,-2.35233c1.03292,-2.88137 0.29793,-4.82941 -1.1871,-6.29787c-0.10688,-0.59446 -0.23418,-1.18173 -0.4002,-1.75497c-0.01005,-0.03467 -0.02106,-0.06966 -0.03299,-0.10495c-0.36416,0.22341 -0.75047,0.42259 -1.14779,0.60983c-0.84682,-0.55392 -1.7837,-1.03741 -2.71372,-1.49366c0.17701,-0.42062 0.3009,-0.8565 0.31619,-1.32512c0.09335,-2.85997 -0.43369,-5.80677 -1.32392,-8.58782c-0.37375,-1.16758 -1.51133,-2.98179 -2.94217,-4.92715c0.03677,-0.30637 0.05877,-0.61348 0.0635,-0.92131c4.05748,-1.44306 8.29291,-2.4527 12.78765,-1.74424c5.30728,0.83653 9.13524,10.86699 10.56955,15.5427c1.33647,-1.15976 2.69745,-2.28987 4.06434,-3.41032c4.21458,-3.45467 8.66191,-7.09051 13.60869,-9.73117c-4.02668,-4.8915 -7.68273,-10.40292 -9.22326,-15.88095c-0.78588,-2.79454 -0.5163,-5.59528 -0.61197,-8.36818c-0.03374,-0.97781 -0.07883,-1.96014 -0.11676,-2.94135c-1.0366,0.765 -2.07177,1.53294 -3.34757,1.80468c-2.04023,0.43458 -4.36156,-0.30088 -6.53991,-0.43287c-5.43563,-0.32935 -11.61025,-1.01785 -16.60087,-5.56862c-2.69577,-2.45818 -4.2424,-6.10875 -5.79915,-9.42411c-0.92316,-1.96604 -1.9068,-3.94809 -2.88441,-5.94554c-4.21727,7.20212 -10.99949,14.34371 -19.10984,15.60101c-2.84839,0.44157 -5.86609,0.29687 -8.85595,0.08912c-7.11798,-0.49458 -14.56685,-3.07747 -20.99244,-7.88965c-0.79571,-0.59591 -3.09327,-3.27063 -4.50048,-3.84934c-0.51494,-0.21177 -1.06511,-0.18846 -1.59264,-0.27926c-1.85393,0.89298 -6.65246,2.33063 -10.9648,-3.76877c-5.48433,-7.75707 0.78635,-12.19051 0.78635,-12.19051l4.79737,-2.50617c3.05174,0.50501 7.6423,1 10.73432,2.48025c1.99219,0.95372 3.88902,2.25955 5.72745,3.61567c2.44179,1.80118 2.47347,2.94678 4.86631,4.02539c6.24909,2.8169 13.6452,4.39681 18.32023,0.18062c0.41088,-0.37055 4.87012,-4.86416 5.63754,-5.98212c2.53317,-3.69023 3.51237,-8.5785 5.27688,-12.78236c0,0 0.43706,-1.02954 1.38318,-2.06701c-0.07936,-0.42212 -0.15706,-0.84414 -0.23328,-1.26602c-0.16019,-0.88669 0.29876,-1.68035 0.16555,-2.56642c-0.27212,-1.81001 -1.0794,-3.60861 -1.36609,-5.41915c-0.75771,-4.78516 0.13335,-7.78391 -6.229,-8.99174c-0.80397,-0.15263 -1.51434,0.24784 -2.2715,0.37176c-3.82531,-0.17587 -7.70174,-0.38129 -11.34522,0.22543l-2.33045,0.53579c0,0 -7.68319,1.75292 -10.90312,-7.00805c-3.21993,-8.76098 4.46326,-10.51391 4.46326,-10.51391l2.78458,-0.63121c4.49748,-0.67968 9.20289,-0.66364 13.89882,-0.47672c1.77276,-0.03185 3.51209,-0.66527 5.31826,-0.09553c4.4185,1.39379 8.9617,3.04372 12.98609,5.86949c2.38924,1.67764 3.77392,4.678 5.51987,7.1247c1.11669,1.56487 2.47056,3.10073 3.0521,4.88771c0.946,2.90688 0.8556,5.87907 1.40891,8.82021c0.45061,2.3952 1.24855,4.78611 1.60105,7.17932c0.1305,0.88596 -0.31697,1.67983 -0.16555,2.56642c0.47003,2.75213 1.15252,5.51511 2.01115,8.23994c1.28542,4.07922 3.11561,8.05429 4.93281,11.99888c1.06554,2.31298 3.4072,4.65267 3.63637,6.93846c0.38402,0.22775 0.70422,0.71178 1.11003,0.77137c1.2375,0.18171 2.38844,-0.25081 3.62192,-0.12132c0.73576,0.07723 1.48693,0.76903 2.20445,0.73291c0.31442,-0.01583 0.25059,-0.5752 0.37589,-0.8628c0,0 5.94417,-4.20259 11.31942,2.73481c0.00275,-0.01131 0.0055,-0.02263 0.00823,-0.03395c1.2056,-4.99362 1.02292,-6.53961 2.80834,-12.25269c0.18092,-0.57892 0.38782,-1.14295 0.61118,-1.69733c-0.00667,-0.01501 -0.01332,-0.03003 -0.01995,-0.04505c-1.21494,-0.69576 -2.40614,-1.54794 -3.62487,-2.20391c-1.39415,-0.75039 -10.34422,-5.6899 -11.04918,-6.22555c-0.81398,-0.6185 -0.96223,-2.06141 -1.83393,-2.54829c-1.24125,-0.69331 -2.61144,-0.44265 -3.91715,-0.66398c-2.42014,-3.23592 -5.68859,-6.03458 -7.26044,-9.70776c-2.83281,-6.61993 2.05965,-11.10217 4.17952,-15.42174c0.87819,-1.78944 2.29572,-6.51134 2.41725,-8.93774c0.25614,-5.11381 -0.8923,-9.73122 1.37533,-14.2192c2.73381,-5.41064 7.40641,-10.09617 15.79353,-4.49053c3.59261,2.40116 3.25152,8.19204 4.56421,12.34938c0.81241,2.57293 4.07521,5.81154 5.26918,7.94011c3.82495,6.819 5.74498,14.83857 3.95252,21.60188c-0.3349,1.26364 -1.13134,2.2408 -1.80812,3.29225c1.01274,1.5257 1.79083,3.14734 2.48657,4.79844c1.42806,0.3491 2.76118,0.89272 3.81053,2.06119c4.36248,4.85774 5.00613,8.95608 4.30797,12.7977c1.35666,1.65115 2.63173,3.1611 4.72865,6.77515c2.27813,3.92638 3.10228,7.24521 3.92069,11.44369c0.17071,0.87577 -0.04239,1.74973 0.24422,2.61447c0.05092,0.15363 0.10267,0.30732 0.15516,0.46106c1.33335,-0.8121 3.39094,-1.61333 5.67686,-2.35907c0.58094,-0.7414 1.21927,-1.4132 1.91178,-1.97013c-2.24894,-2.42624 -4.36443,-5.05129 -6.42774,-8.13854c-2.03981,-3.05209 -4.94129,-5.79631 -6.03089,-9.21278c-3.17894,-9.96766 -0.83151,-17.83951 2.45766,-25.61879c1.54304,-3.64948 4.11457,-6.61284 5.42482,-10.40301c0.91196,-2.638 -1.28407,-8.76541 -1.68362,-10.93613c-0.85153,-4.62632 -0.54695,-5.08004 -0.29917,-9.5238c0.15608,-1.76054 0.02467,-3.53844 -0.05716,-5.3286c-1.03437,-2.66325 -1.64752,-6.67136 2.22694,-9.41064c6.27069,-4.43344 11.75501,3.32363 11.75501,3.32363l2.61866,7.60013c-0.24836,2.80149 0.23123,5.64692 0.08065,8.5158c-0.62053,7.92641 3.62697,15.76341 1.47252,23.63533c-0.722,2.63803 -2.26781,4.7899 -3.43449,7.16193c-1.76499,3.58847 -3.38572,7.28825 -4.74901,11.13353c-0.70789,1.99665 -1.51592,3.43804 -0.44642,6.34475c0.5677,1.54289 2.1816,2.5298 3.20588,3.85176c1.39567,1.80129 2.41463,3.8967 3.90131,5.61771c2.69126,3.11545 6.05784,5.44706 9.16446,8.06682c5.99651,-1.13404 12.12175,-1.69874 18.38911,-0.24912c-3.04484,-2.62472 -6.27039,-5.00388 -9.25993,-7.71171c-3.37775,-3.05944 -6.59018,-6.33791 -9.84426,-9.55719c-2.70242,-2.67353 -9.72311,-9.29938 -8.62502,-13.40695c2.19287,-8.20269 7.88228,-14.45334 13.55961,-19.94334c2.76285,-2.67169 6.24345,-4.51193 8.76033,-7.4491c0.4226,-0.49318 0.91493,-1.17791 1.43702,-1.96999c-0.2373,-4.07405 2.69232,-6.05071 3.86977,-6.67688c0.49262,-0.93996 0.88732,-1.73531 1.11908,-2.24906c1.30973,-2.90333 2.29299,-6.01381 3.42523,-9.02925c0.56152,-1.49549 1.74714,-2.76744 1.65602,-4.50341c-0.13348,-2.54315 -3.14128,-2.53007 -4.07361,-4.18191c-1.8872,-3.34362 -4.7482,-6.87278 -4.73272,-10.4185c0.01355,-3.10314 3.01499,-4.71901 4.80794,-6.80695c0.70952,-0.82625 1.7602,-1.24447 2.64028,-1.86671c0.8801,-0.62224 1.7602,-1.24447 2.64028,-1.86671l7.27774,-0.51306c0,0 8.31205,2.35017 7.75601,10.97015c-0.25023,3.87922 -2.07123,5.53673 -3.99856,6.18655c1.79515,2.71891 3.42732,5.50934 4.013,8.49266c0.5318,2.70886 0.09983,5.27603 -0.55914,7.7741c1.95252,-0.487 3.92254,-0.93079 5.88798,-1.38103c2.89421,-0.663 6.54214,-0.68922 9.21735,-2.18402c1.95157,-1.09046 3.68799,-2.51557 5.45761,-3.87557c3.67335,-2.82305 1.82745,-8.72512 3.46915,-13.00166c2.48545,-6.47443 6.83921,-7.63755 12.87976,-9.33357l4.71368,1.01427c0,0 8.31205,2.35017 7.75601,10.97015c-0.55603,8.61999 -8.86808,6.26983 -8.86808,6.26983l-0.2358,-0.38515c-0.05122,0.08167 -0.13178,0.22627 -0.21232,0.34371c0.05783,0.26297 0.06336,0.53277 0.03173,0.77819c-0.27047,2.0985 -0.65046,4.15906 -1.08391,6.19333c-0.45347,2.12826 -0.58565,4.47363 -1.57524,6.28674c-3.27659,6.0033 -11.35355,11.33033 -17.81824,13.08884c-5.8006,1.57787 -11.99572,2.15578 -17.67716,4.01626c-3.76474,1.23283 -7.38927,2.76637 -11.0275,4.27062c-1.70525,2.80456 -3.58581,5.41443 -5.59121,7.72233c-2.47503,2.84836 -5.86216,4.65242 -8.56708,7.25095c-2.55979,2.4591 -4.57965,5.85585 -7.52084,7.73287c2.94284,2.88993 5.82357,5.86243 8.86807,8.61979c4.209,3.81202 8.83501,7.04751 12.88611,11.06331c3.986,3.95127 7.4223,8.498 11.13344,12.74699c0,0 1.84758,2.12309 2.63155,4.923c0.00036,0.00004 0.00072,0.00006 0.00108,0.0001c-0.06274,-0.76017 -0.08868,-1.51477 -0.08201,-2.25656c0.03002,-3.33759 0.95973,-6.27376 2.19312,-9.03695c-0.22534,-0.80769 -0.38331,-1.40834 -0.45463,-1.70812c-1.97559,-8.30326 -2.18397,-16.61012 -3.54867,-24.92537c-0.39708,-2.41939 -1.71201,-4.90461 -1.61463,-7.25377c0.14841,-3.57986 -0.25545,-8.23777 2.33269,-10.06785c5.71052,-4.0379 15.07373,0.97696 20.44235,-3.51792l2.64028,-1.86671c0,0 6.27069,-4.43344 11.75501,3.32363c5.48433,7.75707 -0.78635,12.19051 -0.78635,12.19051l-2.64028,1.86671c-0.81072,0.53384 -1.50918,1.01566 -2.14875,1.4468c1.06649,0.06296 2.13564,0.14826 3.20893,0.26778c0.52831,0.05883 1.05401,0.63439 1.56991,0.61291c1.73314,-0.07214 6.8319,-2.91932 7.25737,-3.17209c3.29289,-1.95637 6.37403,-4.529 9.50084,-6.73967c1.81134,-1.28064 3.1319,-3.87517 5.45546,-3.86454c-0.08835,-4.48096 0.03006,-8.84236 -0.17533,-13.2839c-1.33063,-2.30458 -1.61412,-4.28064 -1.39589,-5.89459c-0.78542,-2.6016 -0.87684,-6.0264 2.5573,-8.45438c2.75705,-1.94926 5.3621,-1.54195 7.41582,-0.47349c2.26813,-0.4927 3.72706,0.09063 7.24372,-0.10636c1.85182,-0.10373 3.56946,-0.77 5.45503,-0.69761c1.22349,0.04698 2.48281,0.9604 3.7121,1.04957c2.25019,0.16323 3.64713,-0.63371 4.84579,-1.92755c0.5661,-2.33094 2.46073,-6.63876 8.63536,-4.89294c8.31205,2.35017 7.75601,10.97015 7.75601,10.97015l-1.55338,5.38324c-4.4329,5.57654 -9.72535,8.48549 -17.4306,8.30007c-1.2207,-0.02937 -2.4868,-0.99032 -3.7121,-1.04957c-1.22367,-0.05917 -2.25847,0.62074 -3.45489,0.70304c-1.04883,0.07214 -2.25694,-0.30222 -3.35617,-0.4124c0.48689,6.76573 0.48554,13.80428 -0.49227,19.60479c-0.08657,0.51355 -0.22575,1.00507 -0.40965,1.47631c3.04455,2.71621 6.629,5.91546 6.75937,6.0383c1.4906,1.40457 5.22405,6.21325 7.69541,6.2324c3.09833,0.02402 6.94601,-0.28984 9.58588,-1.51284c1.09822,-0.50879 1.83,-1.59722 2.91349,-2.13268c3.48409,-1.72184 7.02297,-3.37381 10.74756,-4.61861c1.13151,-0.37816 2.55823,0.12859 3.70606,-0.21193c3.06876,-0.91036 5.62091,-3.00424 8.81245,-3.58765c5.10117,-0.93249 9.52031,-0.03255 14.82339,1.66307l4.15568,3.17344c0,0 7.18586,5.95703 2.97126,12.61596c-4.2146,6.65893 -11.40045,0.70191 -11.40045,0.70191l-0.31756,-0.40054c-0.09795,0.02208 -0.71487,-0.24083 -1.87334,-0.23963c-2.28031,0.00237 -2.49225,-0.0116 -4.43189,0.81404c-2.02503,0.86198 -3.87982,2.07304 -6.00926,2.7117c-1.20378,0.36103 -2.6874,-0.12311 -3.88371,0.25536c-2.60336,0.82362 -5.02024,2.05857 -7.40335,3.31553c-1.32294,0.69777 -2.30149,1.95093 -3.68723,2.5341c-2.37291,0.99859 -4.92578,1.64052 -7.49867,2.17328c-4.88257,1.01102 -10.82789,0.99918 -16.02017,-1.28667c-5.01036,-2.20576 -8.4613,-6.12758 -12.48954,-9.92765c-2.92698,-2.76118 -5.97172,-5.36261 -8.98108,-8.01211c-7.0187,5.06319 -13.91805,10.39577 -23.29174,11.04189c-1.08843,0.07502 -2.25853,-0.66733 -3.37957,-0.78651c-1.5437,-0.16413 -3.02146,0.27753 -4.57299,-0.059c-0.09095,-0.01973 -0.18042,-0.04712 -0.26865,-0.08087c-0.21715,0.86934 -0.4737,1.72036 -0.7671,2.54835c-0.69837,1.97082 -1.60088,3.81774 -2.40975,5.7212c-1.26117,2.96786 -2.70347,5.81563 -4.10911,8.68696c0.82272,2.03904 1.71245,4.08113 2.50923,6.11788c0.85184,0.10882 1.70602,0.23035 2.49773,0.08822c1.8245,-0.32754 3.5451,-1.00989 5.09866,-1.91394c2.79004,-1.6236 5.23792,-3.75953 7.86395,-5.62937c2.24001,-1.59498 4.91722,-2.6262 6.83399,-4.62177c2.16809,-2.25724 -1.07096,-6.31671 3.85651,-7.80601c9.46408,-2.86045 18.27252,7.35777 26.77368,11.38821c1.49638,0.70945 3.09329,0.69949 4.6183,1.26366c1.81702,0.6722 3.45133,2.30827 5.28773,2.75896c1.0534,0.25853 2.08493,-0.08674 3.13481,0.23304c1.74716,0.53214 4.11049,1.01716 4.99587,2.79682l-0.11024,-0.48881c0,0 7.68319,-1.75292 10.90312,7.00805c3.21993,8.76098 -4.46326,10.51391 -4.46326,10.51391l-5.22527,0.67819c-2.42311,-0.99791 -4.74718,-2.66317 -7.21228,-3.26817c-1.0534,-0.25853 -2.08493,0.08674 -3.13481,-0.23304c-2.37004,-0.72186 -4.56382,-2.46203 -6.92042,-3.30603c-1.74837,-0.62615 -3.56989,-0.71496 -5.28065,-1.53518c-3.34868,-1.60552 -6.54715,-3.71828 -9.78026,-5.68576c-1.06268,-0.64669 -2.29745,-1.12095 -3.45364,-1.68684c-2.74423,3.20915 -6.89142,5.42348 -9.85451,7.50492c-7.55309,5.30568 -9.33233,7.75724 -18.38975,9.72438c-1.7091,0.37119 -3.67772,-0.26598 -5.44068,-0.06387c-0.39534,0.04532 -0.76767,0.09226 -1.1198,0.14121c0.29414,1.37277 0.60291,2.98893 0.991,5.01692c0.2798,1.4621 0.50773,2.91016 0.68514,4.34538c0.81575,0.54061 1.72435,0.95295 2.5478,1.49695c1.51274,-1.63793 2.75676,-3.7382 4.87055,-4.42666c4.1285,-1.34466 8.73052,-2.18197 13.36844,-1.21553c3.30973,0.68967 6.18432,3.81048 9.18538,5.91523c1.62043,1.13646 10.56074,8.18286 12.44991,10.00563c1.71482,1.65456 3.09063,3.69138 4.80327,5.34868c2.63748,2.55224 5.5933,4.67933 8.216,7.24986c0.81295,0.79678 1.27233,1.92253 2.02383,2.78625c1.96332,2.25651 4.09491,4.37616 5.84938,6.80837c0.07928,0.11652 1.56155,2.03704 2.74246,3.95623c1.06484,-0.81155 2.23096,-1.52797 3.17549,-2.46573c1.41138,-1.40125 2.054,-3.58063 3.50263,-4.93899c1.2685,-1.18946 2.85778,-1.96223 4.28667,-2.94335l7.89315,-1.20337c0,0 7.92406,-1.01932 10.4948,7.85698c2.57075,8.87628 -5.3533,9.8956 -5.3533,9.8956l-4.70392,0.42128c0.15209,0.10285 -0.35479,1.02012 -0.58354,1.34436c-0.82704,1.17228 -1.61961,2.39202 -2.62711,3.38262c-2.5071,2.46505 -4.74546,5.39219 -7.89115,6.9592c-3.29591,1.64185 -7.11311,4.05761 -11.02448,2.46354c-9.98235,-4.06829 -7.96072,-10.01795 -12.45306,-15.86148c-3.78214,-5.56039 -8.68175,-9.14409 -13.43787,-13.7165c-2.89726,-2.78535 -5.50824,-5.9727 -8.62095,-8.44428c-2.08429,-1.65498 -4.24102,-3.18852 -6.29325,-4.89568c-1.00266,-0.83407 -1.70253,-2.31824 -2.85721,-2.71617c-3.29986,-1.13722 -5.80883,4.05952 -7.24529,4.88998c-1.96364,1.13525 -4.24068,1.88538 -6.63107,1.97454c-2.05474,0.07663 -4.14435,-0.57731 -6.17646,-1.56906c-0.12827,0.7115 -0.26901,1.42091 -0.42205,2.12838c-0.2553,1.18033 -1.147,2.01242 -1.40756,3.19042c-0.18112,0.81888 -0.31277,1.66189 -0.40645,2.523c0.58931,2.98266 1.01517,5.93626 0.78987,8.77811c-0.08079,1.01901 -0.37664,1.79524 -0.81344,2.41008c0.03892,1.443 0.05399,2.8687 -0.00083,4.25289c1.80442,2.09852 3.61709,4.18885 5.47022,6.23893c1.58731,1.75601 3.06782,3.74068 4.96776,5.04329c4.97867,3.4134 9.33403,4.58399 14.40141,6.74017c4.14674,1.76446 8.24462,3.7775 12.41365,5.42197c1.95319,0.77044 4.03853,0.76582 5.92348,1.8111c3.14712,1.7452 6.25471,3.83319 8.94334,6.43315c4.61679,4.46452 4.52952,6.91925 5.35141,12.2543c1.81327,11.77026 1.77122,12.39658 2.90605,23.87677c0.22657,2.29202 0.8971,3.80247 1.6917,6.06743c0.26416,0.75297 0.24322,1.65425 0.78141,2.26113c0.49637,0.55973 1.33263,0.40693 1.93845,0.8059c0.12646,0.08328 2.20919,1.80564 3.73546,3.07053c2.10531,0.87387 7.34863,3.75587 6.90329,10.6598c-0.55603,8.61999 -8.86808,6.26983 -8.86808,6.26983l-4.89593,-2.31092c-2.32001,-1.92327 -8.10819,-5.62629 -9.58414,-7.41996c-4.62025,-5.61479 -7.49742,-14.11707 -8.2451,-20.83423c-0.06508,-0.58461 -0.12629,-1.16887 -0.18499,-1.75291c-1.66043,1.36409 -3.32985,2.71642 -5.02518,4.03484c-1.97116,1.53293 -3.98355,3.01939 -6.11252,4.3261c-0.23195,0.14236 -0.7643,-0.30277 -0.87381,-0.03807c-0.91933,2.2224 1.27791,6.69854 1.95663,8.61155c1.19868,3.37855 2.09813,6.82328 3.44259,10.16651c0.81249,2.02041 2.20868,3.84018 3.00443,5.86507c0.92315,2.34908 1.1966,4.82229 2.08475,7.18014l0.99757,2.71425c1.453,3.72688 0.69619,7.71769 -2.12461,9.71202c-3.4632,2.44852 -8.7261,0.96048 -11.75501,-3.32363l-1.7319,-2.4496c-4.08235,-3.26607 -6.15784,-8.70969 -9.23677,-13.06454l-1.15459,-1.63306c0,0 -5.36932,-7.5944 0.59196,-12.04922c-2.65595,-8.15547 -4.03266,-16.48234 -0.57668,-23.43407c0.895,-1.80029 2.87741,-2.59232 4.40677,-3.77149c5.65483,-4.36002 11.36938,-8.64294 16.90525,-13.15896c0,0 0.98552,-0.80354 2.54674,-1.25229c-0.00642,-0.05576 -0.01278,-0.1115 -0.01909,-0.16725c-0.00141,-0.01251 -0.00279,-0.0256 -0.0041,-0.03918c-0.66784,-0.539 -1.29079,-1.23653 -2.03105,-1.56989c-1.29323,-0.58239 -2.66825,-0.47671 -3.97548,-0.98774c-4.47397,-1.74901 -8.87411,-3.88769 -13.32279,-5.77464c-6.99994,-2.96909 -11.15471,-3.92053 -18.5937,-9.12199c-1.79837,-1.25745 -4.45356,-3.89397 -7.23315,-6.8868c0.1001,1.79279 0.15492,3.57684 0.1184,5.34357c-0.19499,9.42992 0.08478,20.65231 -11.79452,21.10835c-0.15607,0.81122 -0.31771,1.61983 -0.46609,2.43062c-0.77902,4.25672 -1.65924,8.47461 -2.6752,12.62753c-0.00102,0.00415 -0.0022,0.0077 -0.00353,0.01067c0.64562,1.32675 1.19557,2.70698 2.04751,3.91829c4.67685,6.64961 7.03783,7.24287 13.6298,12.93574c1.53709,1.32744 3.33214,2.47581 4.44805,4.20842c5.22349,8.11017 2.83735,15.53551 3.34348,24.08961c0.14022,2.36971 0.52984,4.77751 1.02956,7.1686c0.26074,1.24757 1.1736,2.45832 1.24064,3.69382c0.28899,5.32571 0.62014,10.74492 -0.18402,15.77898c-1.60173,10.02684 -10.32318,16.94159 -16.2067,23.46136c-1.29318,1.36687 -2.50458,2.8263 -3.87956,4.10061c-1.04322,0.96683 -2.55476,1.3334 -3.52532,2.38185c-1.16641,1.26002 -1.63126,3.18187 -2.80584,4.43313c-3.83571,4.08615 -9.57903,6.9227 -14.13508,10.14388l-1.98022,1.40003c0,0 -6.27069,4.43344 -11.75501,-3.32363c-5.48433,-7.75707 0.78635,-12.19051 0.78635,-12.19051c2.42026,-1.71115 6.82074,-4.82234 9.241,-6.53349c1.64562,-1.16347 3.62764,-1.89971 5.00701,-3.38978c1.16641,-1.26002 1.63126,-3.18187 2.80584,-4.43313c2.2584,-2.40586 4.99934,-3.87352 7.28225,-6.35087c0.14712,-0.16304 0.29418,-0.32615 0.44118,-0.48932c-2.9201,-0.4127 -5.90758,-1.47308 -8.76562,-1.42531c-3.4151,0.05709 -6.56539,1.13116 -9.81918,1.78207c-0.63264,0.12656 -1.19248,0.44888 -1.83249,0.55116c-1.24564,5.11766 -2.94809,10.1555 -5.54495,14.40597l-3.02167,2.7334c0,0 -6.27069,4.43344 -11.75501,-3.32363c-5.48433,-7.75707 0.78635,-12.19051 0.78635,-12.19051l-0.38138,0.86669c3.10615,-4.58198 2.98008,-11.4322 6.43307,-15.85626c1.94877,-2.49682 5.57097,-4.00496 8.63617,-4.65167c4.31096,-0.90955 8.58317,-2.06893 13.11567,-2.18622c3.54803,-0.09182 7.26705,1.13316 10.89086,1.56501c4.17299,0.4973 8.37584,0.97921 12.55772,2.13064c0,0 0.35001,0.09897 0.90159,0.33075c0.07991,-0.29719 0.14652,-0.60144 0.19841,-0.91325c0.47466,-2.85247 0.35675,-5.92091 0.15132,-8.95189c-0.04952,-0.73064 -0.75748,-1.40221 -0.903,-2.13874c-0.69601,-3.52279 -1.37045,-7.06816 -1.60648,-10.56272c-0.30495,-4.51492 -0.35211,-9.00213 -0.16099,-13.42024c-10.48795,-8.28903 -19.19901,-16.56918 -23.26109,-29.99476c-0.58026,-1.91781 -0.22098,-3.85899 0.04986,-5.67534c0.42237,-2.83257 1.08035,-5.56952 1.71577,-8.3162c-1.29344,-0.10042 -2.74928,-0.32666 -4.42681,-0.69359c-8.60094,-1.88128 -8.28708,-5.91976 -14.25777,-8.71437c-1.09321,-0.51168 -2.33327,-0.42784 -3.34907,-1.15207c-1.81079,-1.29103 -3.60981,-2.72856 -5.14822,-4.41249c-2.63801,-0.53886 -5.09402,-0.48945 -6.25639,1.06521c-1.62367,2.17164 -2.57851,4.93651 -3.35217,7.70219c-0.13354,0.47739 0.64831,0.97766 0.77455,1.51231c1.14623,4.8542 2.31056,9.76034 2.65738,14.58562c2.67406,5.91 7.0395,14.113 5.51113,20.13304c-0.95619,3.7663 -2.648,6.51002 -4.73741,8.75052c2.27606,2.69609 4.78279,5.16985 7.52173,6.86997c2.10636,1.30747 4.11562,2.85468 6.25111,4.08485c0.85677,0.49355 1.84643,0.34712 2.70967,0.82169c0.88014,0.48386 1.59464,1.32195 2.39196,1.98292l0.5799,-0.07084c0,0 8.31205,2.35017 7.75601,10.97015c-0.55603,8.61999 -8.86808,6.26983 -8.86808,6.26983l-4.36958,-1.47026c-0.79732,-0.66097 -1.51258,-1.49676 -2.39196,-1.98292c-0.71096,-0.39305 -1.53357,-0.17087 -2.23981,-0.57774c-2.80618,-1.61666 -5.53111,-3.45004 -8.26622,-5.24626c-4.95048,-3.25113 -9.27904,-7.60329 -13.17836,-12.31272c-1.3393,1.07138 -2.63807,2.19516 -3.91759,3.34258c1.5497,1.69516 2.78778,4.16247 2.56185,7.66484c-0.44634,6.91941 -5.8903,6.77015 -8.02092,6.44196c-1.80913,0.80149 -3.51888,0.67052 -5.00828,0.12087c-0.02863,0.0026 -0.05726,0.00487 -0.08588,0.00682c-5.43412,0.36887 -10.1652,-0.55408 -13.45235,4.91548c-0.85377,1.42061 -0.60372,3.54038 -0.40185,5.40722c0.91123,8.42634 4.59597,16.64662 7.67811,24.79061zM286.30986,75.50521c0.00073,0.01039 0.00145,0.02078 0.00218,0.03116c0.00735,-0.00839 0.01472,-0.01677 0.02208,-0.02516c-0.00809,-0.00199 -0.01618,-0.00399 -0.02426,-0.006z" fill="#ff0000" stroke-width="0.5"/><g fill="url(#color-4)" stroke-width="0.5"><g><g><path d="M131.82762,256.47897c-42.23816,-59.74192 -28.04856,-142.41311 31.69335,-184.65128c59.74192,-42.23816 142.41311,-28.04856 184.65128,31.69335c42.23816,59.74192 28.04856,142.41311 -31.69335,184.65128c-59.74192,42.23816 -142.41311,28.04856 -184.65128,-31.69335z"/><path d="M131.82762,256.47897c-42.23816,-59.74192 -28.04856,-142.41311 31.69335,-184.65128c59.74192,-42.23816 142.41311,-28.04856 184.65128,31.69335c42.23816,59.74192 28.04856,142.41311 -31.69335,184.65128c-59.74192,42.23816 -142.41311,28.04856 -184.65128,-31.69335z"/></g><g><path d="M131.82762,256.47897c-42.23816,-59.74192 -28.04856,-142.41311 31.69335,-184.65128c59.74192,-42.23816 142.41311,-28.04856 184.65128,31.69335c42.23816,59.74192 28.04856,142.41311 -31.69335,184.65128c-59.74192,42.23816 -142.41311,28.04856 -184.65128,-31.69335z"/><path d="M131.82762,256.47897c-42.23816,-59.74192 -28.04856,-142.41311 31.69335,-184.65128c59.74192,-42.23816 142.41311,-28.04856 184.65128,31.69335c42.23816,59.74192 28.04856,142.41311 -31.69335,184.65128c-59.74192,42.23816 -142.41311,28.04856 -184.65128,-31.69335z"/></g></g><g><g><path d="M131.82762,256.47897c-42.23816,-59.74192 -28.04856,-142.41311 31.69335,-184.65128c59.74192,-42.23816 142.41311,-28.04856 184.65128,31.69335c42.23816,59.74192 28.04856,142.41311 -31.69335,184.65128c-59.74192,42.23816 -142.41311,28.04856 -184.65128,-31.69335z"/><path d="M131.82762,256.47897c-42.23816,-59.74192 -28.04856,-142.41311 31.69335,-184.65128c59.74192,-42.23816 142.41311,-28.04856 184.65128,31.69335c42.23816,59.74192 28.04856,142.41311 -31.69335,184.65128c-59.74192,42.23816 -142.41311,28.04856 -184.65128,-31.69335z"/></g><g><path d="M131.82762,256.47897c-42.23816,-59.74192 -28.04856,-142.41311 31.69335,-184.65128c59.74192,-42.23816 142.41311,-28.04856 184.65128,31.69335c42.23816,59.74192 28.04856,142.41311 -31.69335,184.65128c-59.74192,42.23816 -142.41311,28.04856 -184.65128,-31.69335z"/><path d="M131.82762,256.47897c-42.23816,-59.74192 -28.04856,-142.41311 31.69335,-184.65128c59.74192,-42.23816 142.41311,-28.04856 184.65128,31.69335c42.23816,59.74192 28.04856,142.41311 -31.69335,184.65128c-59.74192,42.23816 -142.41311,28.04856 -184.65128,-31.69335z"/></g></g></g><path d="" fill="#ff0000" stroke-width="0.5"/><path d="" fill="#ff0000" stroke-width="0.5"/><path d="" fill="#ff0000" stroke-width="0.5"/><path d="M39.55438,150.15619c-0.27614,0 -0.5,-0.11193 -0.5,-0.25c0,-0.13807 0.22386,-0.25 0.5,-0.25c0.27614,0 0.5,0.11193 0.5,0.25c0,0.13807 -0.22386,0.25 -0.5,0.25z" fill="#5c0000" stroke-width="0"/><g><g><path d="M247.10048,169.43301c0.69029,0.00958 1.24833,0.12926 1.24642,0.26732c-0.00191,0.13805 -0.56306,0.24222 -1.25335,0.23264c-0.69029,-0.00958 -1.24833,-0.12926 -1.24642,-0.26732c0.00191,-0.13805 0.56306,-0.24221 1.25335,-0.23264z" fill="#5c0000" stroke-width="0"/><path d="M268.73051,280.7438c-2.49975,-0.03468 -2.46508,-2.53444 -2.46508,-2.53444l0.01388,-0.9999c0.0297,-1.54079 -0.11599,-3.09163 -0.40387,-4.60559c-0.03343,-0.30344 -0.06572,-0.6041 -0.09647,-0.90226c-0.82595,0.08331 -1.53753,-0.2849 -1.53753,-0.2849l-1.63615,-0.9911c-2.55796,-2.7355 -4.06365,-6.94494 -4.36499,-11.22002c-0.1733,0.41938 -0.37654,0.82519 -0.61391,1.21515c-0.47112,0.77396 -1.657,0.90043 -2.15394,1.65806c-1.49064,2.27262 -2.5867,6.20788 -3.15698,8.92665l-2.222,2.7469c0,0 -1.79212,1.74306 -3.5352,-0.04905c-1.74306,-1.79212 0.04904,-3.53519 0.04904,-3.53519l0.81933,-0.21118c0.66231,-3.03238 1.78388,-6.67682 3.30174,-9.56073l-1.34678,1.15746c0,0 -2.09915,1.35776 -3.45691,-0.74141c-1.35776,-2.09917 0.7414,-3.45692 0.7414,-3.45692l0.5634,0.15947c1.26455,-2.87248 -0.03875,-5.73094 1.12971,-8.51337c1.47869,-3.52122 3.23155,-1.99874 5.06888,-4.93015c0.27528,-0.43919 -0.15839,-1.02756 -0.16888,-1.54579c-0.007,-0.34569 0.00188,-1.22767 0.02038,-2.28752c-0.58468,0.21528 -1.17783,0.33551 -1.78978,0.245c-4.86415,-0.71958 -3.77923,-3.46104 -4.13651,-6.52246c-0.36149,-3.0976 -0.87414,-6.08364 -1.29472,-9.04918c-2.4033,0.46308 -4.80544,0.92035 -7.19609,1.26222c-0.34024,1.55647 -0.53917,2.60473 -0.33565,3.75824c0.11733,0.21272 0.21679,0.4338 0.28914,0.66772c0.08542,0.27612 0.14699,0.56598 0.1908,0.86646c0.14937,0.3453 0.33237,0.71426 0.55334,1.11723c0.69628,1.26971 2.79895,3.22603 3.1452,4.50479c0.10003,0.36943 0.11256,3.77774 0.0197,6.11075c0.14723,0.27093 0.27264,0.55268 0.368,0.84942c1.83269,5.70339 0.40989,11.511 -1.76716,16.74202l0.18474,-0.42596c0,0 -0.03468,2.49975 -2.53444,2.46507c-2.49975,-0.03468 -2.46507,-2.53444 -2.46507,-2.53444l0.19861,-1.42586c1.23465,-2.96658 2.28328,-6.10918 2.25093,-9.3401c-0.6188,0.89611 -1.22055,1.80498 -1.87756,2.67154c-0.12913,0.70395 -0.62063,2.09319 -2.48855,2.06727c-2.49975,-0.03468 -2.46508,-2.53445 -2.46508,-2.53445l0.57637,-2.05395c1.28946,-1.56084 2.25927,-3.36853 3.55036,-4.92801c0.28159,-0.34012 0.73164,-0.53582 1.10781,-0.78581c-0.90677,-1.23352 -2.10885,-2.58099 -2.36524,-3.17421c-0.84474,-1.95448 -0.97129,-4.16489 -1.11791,-6.28904c-0.04633,-0.67123 0.23283,-1.3698 0.21195,-2.03145c-0.10454,-0.31166 -0.19387,-0.61613 -0.2689,-0.91628c-0.4571,-0.8391 -1.31931,-1.476 -1.69135,-2.36667c-0.30551,-0.73139 -0.47843,-1.56778 -0.57123,-2.44186c-0.76227,0.00201 -1.5209,-0.01212 -2.27652,-0.03942c0.5663,3.38004 1.17902,7.09372 0.51517,10.39344c-1.15253,5.72873 -6.36933,10.88972 -6.20524,17.05541c0.1212,4.55426 2.10245,6.75387 4.73157,10.24142l2.21431,1.90609c0,0 1.88712,1.63974 0.24737,3.52687c-1.63975,1.88713 -3.52687,0.24739 -3.52687,0.24739l-2.58884,-2.26741c-3.22122,-4.25341 -5.45804,-7.12982 -5.97427,-12.24751c-0.85415,2.81764 -1.79908,5.54397 -1.27578,8.55717l0.00715,1.82059c0.00066,0.03012 0.00077,0.06035 0.00036,0.09071c-0.00439,0.31593 -0.06719,0.61739 -0.178,0.89418c-0.25359,0.71371 -0.86807,1.59153 -2.35645,1.57089c-1.48838,-0.02065 -2.07827,-0.91519 -2.31196,-1.63565c-0.10308,-0.27977 -0.1575,-0.58284 -0.15313,-0.89878c0.00074,-0.05331 0.00313,-0.10621 0.00716,-0.15866l0.04195,-0.92977c-0.72234,-5.25805 1.60591,-9.12512 2.26725,-14.20725c0.34331,-2.63824 -0.25888,-5.45028 0.63478,-7.95619c0.0211,-0.05918 0.044,-0.11735 0.06855,-0.17459l-0.70774,0.95638c0,0 -1.5276,1.97899 -3.50659,0.45139c-1.979,-1.5276 -0.4514,-3.5066 -0.4514,-3.5066l1.23871,-1.50338c0.81382,-3.96616 -2.15175,-3.2075 -4.22734,-6.68539c-1.38316,-2.31767 -1.92626,-4.82503 -2.12793,-7.38731c-0.53116,-0.00108 -1.06243,0.00037 -1.59374,0.00329c-0.64736,3.55236 -0.93677,7.04214 -0.73523,10.72341c0.15299,2.79469 2.12147,4.94555 2.8143,7.61176c1.57587,6.06436 1.75758,12.89558 0.80328,19.04017l-1.23355,1.89728c0,0 -1.79213,1.74307 -3.5352,-0.04905c-1.48519,-1.52697 -0.40386,-3.01835 -0.05138,-3.42621c0.72971,-5.26293 0.49657,-11.03991 -0.81645,-16.18182c-0.77294,-3.02695 -2.71147,-5.2275 -2.96316,-8.46994c-0.2926,-3.76954 0.01405,-7.443 0.63627,-11.10851c-1.95154,0.00413 -3.90171,-0.01911 -5.84827,-0.12404c0.1652,3.94067 0.61179,7.88243 1.16151,11.51976c0.14519,0.96071 0.48775,4.12587 1.08982,5.11228c1.4419,2.36233 4.74501,2.51163 3.07661,6.84247c-0.54164,1.40597 -2.60095,1.52166 -3.90143,2.28248l-0.67379,0.93732c0,0 -1.79212,1.74306 -3.5352,-0.04905c-0.00686,-0.00705 -0.01368,-0.01413 -0.02046,-0.02119c-0.72851,3.1913 -1.84764,6.30737 -3.01739,9.14063l0.18474,-0.42594c0,0 -0.03468,2.49975 -2.53444,2.46507c-2.49975,-0.03468 -2.46507,-2.53444 -2.46507,-2.53444l0.1986,-1.42587c0.5964,-1.41987 1.19175,-2.94658 1.71693,-4.53183c-0.61378,0.10472 -1.35617,-0.02327 -2.08988,-0.77762c-0.9272,-0.95329 -0.8541,-1.89268 -0.58254,-2.56325c-1.66399,-2.94983 -5.00551,-4.22807 -5.92217,-8.17139c-0.88274,-3.79737 0.17856,-7.50906 -0.39119,-11.23045c-0.30872,-2.01641 -1.40986,-3.83895 -1.87793,-5.82443c-1.23658,-5.24508 -2.73866,-11.12374 -3.4107,-16.7634c-0.2724,-0.48889 -0.51822,-0.9858 -0.73405,-1.49098c-0.21588,0.05729 -0.44306,0.08636 -0.67736,0.0831c-0.04609,-0.00065 -0.09188,-0.00253 -0.13731,-0.00562c0.45743,1.61212 0.57845,3.34343 0.56791,5.01207c-0.04944,7.82409 -3.40838,17.39381 -0.08096,24.94323c0.775,1.75839 2.38338,3.015 3.59329,4.50786l0.34257,0.33748c0,0 1.74307,1.79213 -0.04905,3.53519c-1.79212,1.74306 -3.5352,-0.04905 -3.5352,-0.04905l-0.64346,-0.67629c-0.48333,-0.59689 -3.79916,-4.54887 -4.2672,-5.60215c-4.40704,-9.91762 1.24859,-19.68834 -0.27933,-29.592c-0.56204,-3.64307 -3.51032,-4.46948 -2.29502,-8.79602c0.25583,-0.91073 1.2631,-1.44191 1.66463,-2.29844c0.50718,-1.0819 0.48711,-2.36764 1.02331,-3.43547c0.06729,-0.13399 0.13833,-0.26834 0.21284,-0.40291c-0.0811,-0.33313 -0.15843,-0.66696 -0.23275,-1.00149c-0.36926,-0.06066 -0.76921,-0.22691 -1.18949,-0.55133c-1.979,-1.5276 -0.4514,-3.50661 -0.4514,-3.50661c0.2417,-0.30856 0.46518,-0.62116 0.67354,-0.93737c-0.03445,-0.18791 -0.0691,-0.37608 -0.10409,-0.56458l-0.02093,-1.99078c0,0 0.03461,-2.4951 2.52747,-2.46518c0.00246,-0.00626 0.00493,-0.01252 0.0074,-0.0188c0.03857,-1.71624 -0.22534,-3.47455 0.16195,-5.14671c0.2126,-0.91797 0.87912,-1.92858 1.6932,-2.8997l0.94527,-2.27127c0.0469,-0.12047 0.10285,-0.23636 0.16701,-0.34685c-0.2906,-3.64238 0.28783,-7.72495 0.33705,-11.27287c0,0 0.00835,-0.60251 0.31267,-1.21183c2.10586,-5.181 0.00531,-11.38912 1.51084,-16.86267c0.21971,-0.7988 0.47653,-1.52097 0.76762,-2.1851c-0.05713,-0.10699 -0.1067,-0.21859 -0.14801,-0.33408l-0.94436,-2.45927l0.09895,-0.03799l-0.17111,-0.17914c-0.16315,-1.25751 -0.7201,-2.52564 -0.48942,-3.77253c0.02394,-0.12947 0.06697,-0.2503 0.12413,-0.36481c-0.02273,-0.14042 -0.05033,-0.2788 -0.08453,-0.41438c-1.05489,-4.1813 -1.49079,-7.57862 -1.41732,-11.89434l0.10928,-0.18977l-0.08095,-0.01465l0.53427,-2.95233c0.18929,-1.16308 1.17942,-2.05259 2.37957,-2.09379c0.04516,-4.62723 0.78204,-9.29638 1.17833,-14.02248c0.50759,-6.05354 2.12709,-13.88196 8.00679,-17.29974c2.97221,-1.72772 6.81561,-2.72181 10.83167,-3.17534c2.76453,-0.65475 5.61042,-0.98618 8.30641,-1.11589c2.47114,-0.1189 5.27934,-2.37633 7.88413,-1.9687c8.81849,1.38005 23.04461,11.13128 25.96808,19.69004c0.18483,0.5411 0.34672,1.05501 0.48834,1.54727c0.12321,-0.05765 0.2573,-0.1101 0.40316,-0.15648c2.38246,-0.7576 3.14003,1.62486 3.14003,1.62486l0.97418,3.06551c1.27618,4.72037 3.25499,10.81741 2.34836,15.74572c-0.45484,2.47244 -2.41443,4.15995 -3.53636,6.17296c0.16061,1.54075 -0.12541,2.95434 -0.74305,4.21503c0.15006,1.24029 0.50687,2.52979 0.84367,3.78659c0.18106,0.17501 0.27959,0.31026 0.27959,0.31026c1.27676,1.77607 2.06358,3.85744 3.08426,5.79206c0.31683,0.60053 0.67344,1.1875 1.03309,1.77383c0.04765,-3.62442 -0.76682,-7.35755 0.58283,-10.86479c0.20187,-0.5246 0.41532,-0.98034 0.64274,-1.38875c-1.26837,-0.65853 -1.2462,-2.25619 -1.2462,-2.25619l0.01345,-0.96889c-0.16835,-0.49567 -0.31231,-1.01101 -0.43003,-1.54685l-0.03481,-0.99087c0,0 0.01707,-1.23015 0.89019,-1.95256c0.94418,-5.53823 3.3432,-10.80898 6.16322,-15.65431c0.68004,-1.16842 0.95267,-2.72658 1.71785,-3.8024c0.24962,-1.26301 0.63359,-2.61731 1.22539,-4.20451c3.15978,-8.47435 17.65095,-17.82716 26.50434,-18.96203c2.61509,-0.33521 5.35958,1.99926 7.82647,2.18667c2.69134,0.20445 5.52695,0.6147 8.27225,1.3459c4.00194,0.56476 7.81627,1.66512 10.73941,3.47462c5.78262,3.5796 7.1843,11.4499 7.52376,17.51521c0.20783,3.71343 0.626,7.39765 0.75668,11.04612c0.00409,0.00004 0.00818,0.0001 0.01227,0.00015c1.38058,0.01915 2.48423,1.15387 2.46508,2.53445l-0.05549,3.99961l-0.06885,-0.00095l0.0601,0.17807c-0.47495,3.05815 -0.86138,5.86108 -1.04559,8.82307c2.26218,3.7012 4.09494,6.80348 3.24674,11.83769c-0.86489,5.13336 -3.85403,7.66405 -1.0096,12.39548l0.31064,3.29087c0,0 -0.03468,2.49975 -2.53444,2.46507c-2.49975,-0.03468 -2.46507,-2.53444 -2.46507,-2.53444l0.36614,-0.70875c-1.41443,-2.49591 -2.28132,-3.28171 -2.26883,-6.31831c0.01907,-4.63563 3.98211,-8.93834 2.78235,-13.7954c-0.09439,-0.38217 -0.27125,-0.79433 -0.5023,-1.22309c-0.17468,0.02908 -0.36495,0.04362 -0.57212,0.04074c-0.62781,-0.00871 -1.09575,-0.17291 -1.44453,-0.41395c-0.71711,2.2694 -2.06341,4.25594 -3.83172,5.75814c0.48713,2.81563 1.04596,5.61711 1.03562,8.55108c-0.00851,2.41592 -0.32198,4.68531 -0.84594,6.90016c2.83817,1.76161 4.94697,4.59408 5.6143,8.24415c0.30374,1.66135 -0.02128,3.13848 -0.40733,4.60285c0.75998,3.89346 1.16225,7.89655 2.1601,11.72766c0.2884,1.10726 0.88399,2.14288 1.01263,3.27982c0.61187,5.40741 -2.35731,9.92051 -3.19711,15.16302c-0.55342,3.45476 0.10371,7.33689 -0.13446,10.81825c-0.40511,5.92195 -2.04465,11.99758 -3.29299,17.82179l0.03455,1.01029c0,0 -0.02468,1.779 -1.53318,2.31463c1.23868,2.97654 0.96143,5.91485 1.30121,9.27552l-1.96899,2.8807c0,0 -1.52761,1.97899 -3.50661,0.4514c-1.979,-1.5276 -0.4514,-3.50661 -0.4514,-3.50661l1.08623,-1.07729c-0.54296,-2.25441 -0.01316,-4.9074 -1.44142,-6.88362c-1.81054,-2.50513 -4.64108,-4.13542 -6.79194,-6.40769c-0.2308,2.38312 0.27841,4.85939 0.24493,7.27216c-0.02312,1.66651 -0.00882,3.33395 -0.06936,4.99952c-0.02004,0.55154 -0.4057,1.14664 -0.17218,1.64669c0.20641,0.44201 3.45895,3.72563 3.86006,4.13726l0.98603,1.01377c0,0 1.74306,1.79212 -0.04904,3.53519c-1.79212,1.74306 -3.5352,-0.04905 -3.5352,-0.04905l-0.98603,-1.01377c-1.49356,-1.5383 -4.24873,-4.20751 -5.00035,-5.98665c-0.43513,-1.02999 -0.09834,-2.23469 -0.10282,-3.35281c-0.01745,-4.35502 -0.80608,-11.05088 0.31846,-15.2215c0.27403,-1.01626 1.00841,-1.82424 1.67403,-2.66617c-0.10835,-1.02509 -0.0515,-2.11256 0.1345,-3.22431c-2.03687,0.78207 -4.12596,1.40148 -6.25108,1.89753c0.08913,2.21146 0.33051,4.35392 0.31175,5.66026c-0.10848,7.55263 0.67332,15.13196 2.13714,22.5319c0.91781,4.63975 2.76018,7.99351 3.07232,12.73453l-3.79891,2.07793c0,0 -2.33384,0.89617 -3.23004,-1.43767c-0.89619,-2.33385 1.43767,-3.23004 1.43767,-3.23004l1.22834,0.14749c-1.72284,-1.14282 -2.6335,-3.65982 -3.1661,-6.28565c-0.95397,0.98693 -2.32429,1.65712 -3.30577,2.64171c-1.94335,1.94953 -2.73788,3.32601 -4.27759,5.5725l-2.98745,1.80804c0,0 -2.02999,0.98003 -3.16536,-0.84871c-0.6566,3.29816 -0.50459,6.67815 -0.11455,10.16759c0.3232,1.77977 0.47439,3.59851 0.45731,5.40732l-0.01388,0.9999c0,0 -0.03467,2.49976 -2.53444,2.46507zM266.64398,258.9739c0.54627,-1.65794 0.96385,-3.37887 1.76085,-4.93191c0.70976,-1.38303 2.81599,-2.21446 2.74859,-3.76752c-0.06874,-1.58417 -1.48603,-2.83833 -1.8546,-4.38055c-0.10553,-0.44154 -0.15692,-0.89296 -0.19556,-1.34673c-0.77577,1.83661 -1.53748,3.58303 -1.80222,3.99238c-0.79371,1.22725 -2.23782,1.97348 -2.93333,3.25894c-2.0144,3.72299 -1.48081,10.80061 1.10569,14.31437c0.03907,-2.34919 0.35596,-4.66656 1.17059,-7.13901zM274.14668,244.66985c0.3681,1.59165 2.062,4.13928 2.00627,5.67398c-0.08492,2.33869 -2.30595,4.07403 -3.38955,6.14828c-0.26773,0.5125 -0.50725,1.0267 -0.72086,1.54272l0.92499,-0.12122c1.54395,-2.24314 2.87384,-4.41009 4.888,-6.30149c0.91253,-0.85691 2.26203,-1.2312 3.028,-2.22129c0.29977,-0.38749 0.01647,-1.01024 -0.18118,-1.45853c-1.21977,-2.76635 -2.81148,-4.15086 -3.37221,-7.1003c-1.18678,-6.24241 0.16792,-12.75203 1.09958,-19.12538c-1.88495,0.21156 -3.78128,0.3688 -5.67871,0.49676c1.29426,2.98363 2.22144,6.09867 1.63483,9.01456c-0.42878,2.13135 -1.22953,3.99719 -2.0854,5.87412c0.66096,2.5317 1.24616,4.98298 1.84625,7.57781zM282.35251,238.32914c-0.04678,-0.30982 -0.08956,-0.62108 -0.12856,-0.9336c-0.07372,0.8595 -0.12188,1.71671 0.02862,2.55916c0.15656,0.87634 0.50337,1.69558 0.92676,2.48914c-0.29904,-1.36753 -0.61805,-2.7323 -0.8268,-4.11469zM307.20282,211.14627c0.05906,-0.91933 0.06351,-1.85905 0.04623,-2.80838c-1.10612,1.47239 -2.45396,2.87856 -4.09916,4.23138c0.21723,1.00526 -0.35334,1.92697 -0.35334,1.92697c-1.63177,2.63219 -2.9585,5.41977 -4.57422,8.05738c1.18885,2.37542 3.70351,3.93064 5.79303,5.66325c1.19584,-5.56788 2.82387,-11.41117 3.18746,-17.07059zM185.83316,241.13976c-0.77126,-3.59958 -3.02967,-5.88088 -4.26568,-9.20835c-1.08881,-2.93121 -0.35016,-3.58661 -0.56365,-6.66361c-0.14219,-2.0494 -0.33586,-3.89628 -0.33652,-5.7078c-1.40231,-1.0875 -2.82434,-2.22715 -4.17937,-3.42486c0.62465,2.84286 1.32904,5.63716 1.94205,8.24788c0.29091,1.23892 1.79002,5.14259 1.95521,6.22989c0.58211,3.8314 -1.39184,9.04226 0.94552,12.53855c0.57277,0.85676 4.16166,3.67199 4.36636,3.94764c0.10823,0.14574 0.20373,0.29872 0.2896,0.45712c0.2848,-2.18616 0.28666,-4.36209 -0.15352,-6.4165zM185.98586,224.84419c0.0891,1.28429 -0.32493,3.87313 0.26979,5.34911c0.83283,2.06692 1.93034,3.77563 2.86767,5.61687c-0.07195,-0.61578 -0.14279,-1.21802 -0.22282,-1.79603c-0.33477,-2.41788 -0.58673,-5.05787 -0.72074,-7.7565c-0.23391,-0.147 -0.44162,-0.33161 -0.61476,-0.54524l-1.67731,-2.04213c0.03655,0.38542 0.07057,0.77632 0.09815,1.17392zM192.7786,245.86559c2.24081,0.70069 -0.5675,-0.11768 -1.60189,-1.76944c0.02038,1.08139 -0.03396,2.17229 -0.14974,3.26451zM171.21006,187.25704c-0.04233,-0.10515 -0.08479,-0.2105 -0.12718,-0.31602c0.00172,0.13236 0.00352,0.26468 0.00543,0.39701c0.03848,-0.02687 0.07911,-0.05399 0.12175,-0.08099zM253.43376,257.69644c1.07491,-1.52444 0.33361,-4.90765 0.21316,-6.45853c-0.03123,-0.40204 -0.05637,-0.82067 -0.0757,-1.25091c-0.25558,0.29665 -0.46881,0.6225 -0.61958,0.99175c-0.6953,1.70284 0.42547,3.71316 0.06865,5.51754c-0.13243,0.66966 -0.42121,1.29305 -0.71464,1.91507c0.41811,-0.19503 0.87383,-0.35428 1.12812,-0.71492zM261.87654,232.84654c0.06775,3.01808 -2.83081,6.76041 -3.13343,10.0014c-0.24422,2.61554 0.18213,5.68545 0.34796,8.70829c0.23268,-0.7165 0.51099,-1.4048 0.83597,-2.0556c0.72004,-1.44201 2.28036,-2.30866 3.1632,-3.65716c1.60571,-2.45262 2.26903,-5.40621 3.42975,-8.09812c0.26191,-0.60742 0.52545,-1.18283 0.78425,-1.74422c-1.16204,-4.55749 -2.54296,-9.26115 -4.29713,-13.2701c-0.40318,0.02184 -0.80558,0.04431 -1.20711,0.06769c-1.28715,1.4712 -2.08332,3.45906 -2.58225,5.6186c0.89188,1.49983 2.65491,4.25589 2.6588,4.42921zM218.94029,238.26743c0.79975,-2.16865 -0.60352,-4.58475 -1.00523,-6.86101c-0.34014,-1.92737 -0.58936,-3.87649 -0.735,-5.8323c-2.1767,-0.2458 -4.35546,-0.46775 -6.55162,-0.59102c0.16809,1.62883 0.55323,3.21475 1.38807,4.6158c1.03132,1.73078 3.4823,2.31941 4.45687,4.08275c1.5627,2.82751 0.67511,4.56202 0.06523,7.35496l-0.01553,0.02097c0.89116,-0.87756 1.97575,-1.6473 2.39721,-2.79018zM222.85877,230.53635c0.26069,1.47327 1.14671,5.61197 1.00874,8.13129c0.44944,-0.77457 0.84433,-1.56683 1.00857,-2.43696c0.5941,-3.14743 -0.20594,-6.73599 -0.72153,-9.88164c-0.63271,-0.06123 -1.26423,-0.12709 -1.89494,-0.19582c0.13901,1.46944 0.34258,2.93312 0.59915,4.38314zM220.10232,244.35625c-0.36819,1.1031 -0.3933,2.26796 -0.36371,3.44538c0.68035,-2.07649 1.56237,-4.13486 2.35627,-5.8643c-0.80646,0.72893 -1.66271,1.43071 -1.99255,2.41894zM253.45346,234.64146c0.13403,-1.53097 0.31911,-3.37933 0.61679,-5.28709c-0.83127,-1.96614 -1.31874,-3.80201 -1.5276,-5.62765c-0.54879,0.08811 -1.09799,0.18106 -1.64749,0.27758c0.20425,1.45265 0.43822,2.9275 0.66909,4.44925c0.25951,1.71061 0.64468,3.4071 0.77503,5.13236c0.04897,0.64821 -0.76867,2.22858 -0.18551,1.94133c0.44116,-0.21731 0.86541,-0.46631 1.28727,-0.71984c0.00417,-0.06345 0.00835,-0.11901 0.01244,-0.16593zM175.2523,206.43986c0,0 0.00398,-0.28753 0.10678,-0.66619c-0.16388,-0.05861 -0.33624,-0.13628 -0.50426,-0.23918c0.02511,0.43302 0.05747,0.86901 0.0964,1.30742c0.10882,0.12723 0.22173,0.25187 0.33714,0.37494c-0.01721,-0.24705 -0.02922,-0.50553 -0.03604,-0.77699zM235.40753,111.32936c0.2082,0.52782 0.40687,1.05487 0.59575,1.58033c-0.17549,-0.77387 -0.37389,-1.54413 -0.57936,-2.29752c-0.00565,0.23402 -0.0112,0.47287 -0.01637,0.71719zM257.95346,138.56825c-0.34184,-0.07208 -0.68375,-0.14867 -1.02513,-0.22998c0.20581,8.37427 0.51821,16.76114 -0.84015,25.0344c-0.34302,2.08917 -0.54996,4.15164 -0.6801,6.21259c2.83274,-0.48502 5.72664,-0.62961 8.58276,-0.95897c-0.09507,-0.95264 -0.18593,-1.90545 -0.26098,-2.85877c-0.57832,-7.34596 -1.05924,-15.20726 -2.96919,-22.36487c-0.44683,-1.67453 -1.2224,-3.23604 -1.9535,-4.81448c-0.2849,-0.00803 -0.56949,-0.01469 -0.85373,-0.01989zM243.26603,169.87987c-2.49975,-0.03468 -2.46507,-2.53444 -2.46507,-2.53444l0.04103,-1.14599c-0.53671,-4.22585 -0.33819,-8.63568 -0.61575,-12.93085c-0.124,0.36188 -0.23314,0.72372 -0.3001,1.08485c-0.61997,3.34344 -1.04269,6.56842 -1.08337,9.96454l-0.00694,0.49995c0,0 -0.00458,0.32986 -0.13022,0.74827c0.114,0.42174 0.10941,0.75158 0.10941,0.75158c-0.0329,2.37168 -0.12385,4.70267 -0.28415,7.02498c0.65994,0.01282 1.32197,0.01322 1.98652,-0.00068c3.1575,-0.06598 6.52318,-1.3658 9.78739,-2.43605c0.27304,-4.44925 1.15025,-8.60368 1.63641,-13.09292c0.74804,-6.90752 0.27624,-14.02853 0.01853,-21.06635c-1.61217,-0.67539 -3.13575,-1.5018 -4.49457,-2.51122c-1.18002,3.80391 0.3003,8.23018 -0.40432,12.09515c-0.25793,1.4148 -1.62051,4.53171 -2.22995,5.99766l0.18474,-0.42596c0,0 -0.00542,0.39041 -0.16627,0.86054c0.23635,1.14225 0.517,2.27905 0.59814,3.43967c0.2232,3.19282 -0.06493,6.15459 0.35359,9.35845l-0.00059,1.85373c0,0 -0.03468,2.49975 -2.53444,2.46507zM239.01461,146.75172c-0.01744,-0.032 -0.03509,-0.06392 -0.05297,-0.09576c-0.0073,0.02372 -0.01499,0.04752 -0.02307,0.07136c0.02546,0.00766 0.0508,0.0158 0.07604,0.0244zM233.8155,166.24841c0,0 0.00458,-0.32986 0.13022,-0.74827c-0.114,-0.42174 -0.10941,-0.75158 -0.10941,-0.75158l0.00694,-0.49995c0.05572,-3.5757 0.20435,-7.53878 1.20776,-11.00569c0.22541,-0.77879 0.99334,-1.36348 1.10566,-2.1664c0.03671,-0.26248 -0.53982,-0.00477 -0.78952,-0.0936c-0.74652,-0.26555 -1.5877,-0.40844 -2.3316,-0.69746c-0.24761,0.40617 -0.48725,0.81627 -0.65145,1.25301c-1.50867,4.01261 -1.4889,8.94425 -1.54752,13.16846l-0.0208,1.49986c0,0 -0.03468,2.49975 -2.53444,2.46507c-2.49975,-0.03468 -2.46508,-2.53445 -2.46508,-2.53445l0.02082,-1.49985c0.06599,-4.7566 0.11275,-10.27559 1.84062,-14.78723c0.34296,-0.8955 1.1693,-1.57587 1.42165,-2.50102c0.17033,-0.62452 -0.0157,-1.21989 -0.33023,-1.80964c-0.3416,0.29736 -0.76448,0.50326 -1.23012,0.58024l-2.46116,0.45682l-0.01613,-0.08689l-0.20757,0.109c-0.05285,1.14173 -0.14314,2.28823 -0.34833,3.42864c-0.67337,3.74233 -1.75984,7.39021 -2.60443,11.09822c0.13183,0.03565 0.26866,0.08236 0.41058,0.14143c2.30809,0.96059 1.34751,3.26867 1.34751,3.26867c-0.90763,2.15881 -1.64577,4.46727 -2.28301,6.82602c4.07898,0.56768 8.101,1.27217 12.16449,1.67266c0.15526,-2.24208 0.24272,-4.4927 0.27453,-6.78611zM178.59159,165.68613c1.69251,-0.95919 3.62948,-1.53447 5.69093,-1.60915c-0.3425,-3.27817 -0.6143,-6.60366 -0.6628,-9.88855c-0.28821,0.76501 -0.63279,1.49131 -1.04524,2.16251c-0.18193,0.2961 -3.96744,3.95215 -4.42023,4.39255l0.72894,0.24238c0,0 -0.03468,2.49975 -2.53444,2.46507c-1.03782,-0.01439 -1.6388,-0.45369 -1.98678,-0.96259c-0.03275,2.40014 -0.06233,4.80039 -0.09751,7.20051c1.08117,-2.02513 2.54412,-3.54727 4.32709,-4.00271zM302.99049,150.71271c0.00582,-2.06353 -0.26743,-4.07134 -0.59896,-6.06918c-0.08746,0.02567 -0.17533,0.05042 -0.26358,0.07424c-2.08172,0.92883 -4.39256,1.61995 -6.79942,2.10408c-0.75446,3.81669 -1.79418,7.55531 -2.54659,11.35182c0.92929,-1.07535 2.22354,-1.96572 4.24147,-2.34027c1.83865,-0.34127 3.67503,-0.33351 5.41307,-0.01084c0.34585,-1.6414 0.54897,-3.32729 0.55399,-5.10985zM272.06684,161.04681c1.0257,2.07881 3.16663,3.38959 4.65137,5.16978l0.31304,0.318c0.95295,-0.11913 1.91752,-0.24115 2.86955,-0.3705c0.93854,-6.15735 0.98253,-12.65202 0.0136,-18.77079c-1.72714,-0.20222 -3.33975,-0.49076 -4.77434,-0.85102c-3.11048,4.4911 -5.586,9.41171 -3.07323,14.50451zM285.00789,147.72216c0.78822,5.78088 0.78025,11.77488 0.04794,17.58821c0.64887,-0.13818 1.26069,-0.28641 1.82333,-0.44692c0.34524,-5.9307 1.94224,-11.55138 3.18531,-17.30916c-1.6995,0.13981 -3.39937,0.19246 -5.05658,0.16787zM268.71445,165.37509c0.06268,0.7961 0.13493,1.59123 0.21098,2.3858c0.5851,-0.13902 1.24981,-0.26769 1.97411,-0.38976c-0.77918,-0.74918 -1.55832,-1.49705 -2.21116,-2.32812c0.00867,0.11081 0.01736,0.22151 0.02608,0.3321zM265.82614,143.04105c0.64191,2.57758 1.12039,5.2318 1.49664,7.91369c0.77893,-2.06675 1.90595,-4.04776 3.23096,-5.91177c-1.56326,-0.57928 -3.36795,-1.30249 -4.72759,-2.00189zM178.35813,153.66354c1.93024,-3.08212 1.74707,-8.18746 1.78804,-11.61849c-0.70582,-0.38805 -1.36986,-0.84219 -1.98388,-1.35396c-0.33119,0.35133 -0.63898,0.72249 -0.91133,1.12374c-2.82677,4.16458 -1.91997,9.68877 -2.03297,14.84543c1.10898,-0.94972 2.37168,-1.76966 3.14014,-2.9967zM189.33105,158.89883c0.14768,2.05165 0.2935,4.10312 0.44232,6.15425c0.84331,0.23046 1.64139,0.5532 2.34431,1.06999c0.20139,0.14805 0.54408,0.61059 0.90722,1.08041c0.16561,0.14656 0.32729,0.29741 0.48491,0.45244l0.53193,-1.50391c2.67465,-3.79414 -0.68545,-9.30957 -1.02933,-13.76476c-0.19335,-2.50483 0.55271,-4.37306 1.68618,-6.14142c-1.83013,-0.1961 -3.65855,-0.49345 -5.43075,-0.90301c-0.64206,4.37135 -0.26743,8.96267 0.06323,13.55602zM197.94097,150.41656c-1.54817,4.60084 3.19284,10.11716 2.3413,14.83292c-0.20786,1.15112 -1.15159,2.03642 -1.72738,3.05463l-0.29195,0.85111c0.90674,0.13863 1.82107,0.26014 2.7408,0.36849c3.07775,-7.4202 2.51299,-15.4851 4.10004,-23.21221c-1.43556,0.14095 -2.95333,0.21986 -4.5158,0.22914c-1.0468,1.20652 -2.14671,2.38914 -2.647,3.87592zM214.35221,159.9681c-0.76385,3.47209 -0.54785,6.94541 -0.5972,10.50243l-0.00128,0.09284c0.8823,0.06773 1.76032,0.13998 2.63215,0.22025c0.28123,-1.07548 0.5797,-2.14421 0.90087,-3.19895c-0.98132,-0.72972 -0.96259,-2.07898 -0.96259,-2.07898l0.06745,-2.4103c0.8524,-4.70763 2.33853,-9.2593 3.19372,-13.95583c0.19607,-1.07673 0.31536,-2.1207 0.40003,-3.14043c-1.43146,-0.2562 -2.86397,-0.49726 -4.38366,-0.50538c0,0 -0.37111,-0.00516 -0.82537,-0.15447c0.93349,3.81487 0.96733,7.69985 -0.49036,11.99402c-0.07839,0.23091 -0.16617,0.45801 -0.26105,0.68222c0.55795,0.87719 0.32733,1.95259 0.32733,1.95259zM207.9272,164.52165c-0.4604,1.86631 -1.04313,3.71627 -1.73078,5.49689c0.85335,0.06683 1.70779,0.1288 2.56161,0.189c0.02218,-1.81105 0.00447,-3.5831 0.06202,-5.34463c-0.35981,-0.06229 -0.65336,-0.18389 -0.89285,-0.34125zM210.59887,147.80953c-0.03463,-0.52353 -0.16116,-1.09953 -0.34799,-1.70149c-0.74079,3.1474 -0.84468,6.25373 -1.05159,9.4823c0.91701,-2.39782 1.59459,-4.83262 1.39959,-7.78081zM228.36032,137.73291c-0.20869,0.05366 -0.41946,0.10206 -0.63217,0.14505c0.16421,0.0762 0.31868,0.16966 0.46113,0.27806c0.05596,-0.14075 0.11307,-0.28188 0.17104,-0.4231z" fill="#000000" stroke-width="0.5"/><path d="M259.29143,114.09681c0.17047,-12.28715 10.26937,-22.10966 22.55653,-21.93919c12.28716,0.17048 22.10967,10.26938 21.9392,22.55652c-0.17047,12.28715 -10.26938,22.10967 -22.55653,21.93919c-12.28715,-0.17047 -22.10966,-10.26937 -21.93919,-22.55653z" fill="#ffffff" stroke-width="0.5"/><path d="M181.77808,114.52155c0.17047,-12.28715 10.26938,-22.10967 22.55653,-21.93919c12.28715,0.17047 22.10968,10.26938 21.93921,22.55653c-0.17047,12.28715 -10.26937,22.10966 -22.55653,21.93919c-12.28715,-0.17047 -22.10966,-10.26937 -21.93919,-22.55653z" fill="#ffffff" stroke-width="0.5"/><path d="M180.85447,109.0082c0.18197,-13.1155 10.96168,-23.6002 24.07718,-23.41823c13.1155,0.18197 23.6002,10.96168 23.41824,24.07719c-0.18196,13.11551 -10.96169,23.6002 -24.07719,23.41825c-13.1155,-0.18197 -23.6002,-10.96169 -23.41823,-24.07718z" fill="#000000" stroke-width="0.5"/><path d="M257.36099,109.06956c0.18197,-13.1155 10.96169,-23.6002 24.07719,-23.41825c13.1155,0.18197 23.6002,10.96169 23.41825,24.07719c-0.18196,13.11551 -10.96169,23.6002 -24.07719,23.41824c-13.11551,-0.18196 -23.60022,-10.96169 -23.41824,-24.07719z" fill="#000000" stroke-width="0.5"/><path d="M166.48179,171.81486c0.07087,-5.10814 4.26929,-9.19166 9.37744,-9.12079c4.33422,0.06013 7.93077,3.09185 8.8778,7.12949c0.95209,-0.3145 1.97193,-0.47834 3.03088,-0.46366c3.52437,0.04889 6.56096,2.06264 8.0819,4.98436c1.42201,-0.85023 3.09004,-1.32902 4.86831,-1.30435c3.19118,0.04428 5.98247,1.69945 7.61078,4.18096c1.30173,-0.66824 2.78138,-1.0365 4.34644,-1.01478c3.05192,0.04234 5.73809,1.55807 7.39102,3.86088c1.64205,-1.38406 3.77097,-2.20587 6.08687,-2.17374c3.19919,0.04438 5.99647,1.70776 7.62301,4.19964c1.72202,-2.16236 4.39073,-3.53292 7.36861,-3.49161c2.97114,0.04122 5.59564,1.47885 7.25761,3.67968c1.34343,-3.52831 4.7814,-6.0129 8.77553,-5.95748c4.15012,0.05758 7.62389,2.83964 8.74292,6.62056c0.67344,-4.50787 4.59237,-7.9357 9.27615,-7.87071c2.97895,0.04133 5.60946,1.48643 7.27072,3.69708c0.63131,-4.55562 4.5728,-8.0332 9.29012,-7.96775c0.25333,0.00351 0.50416,0.01718 0.75207,0.0406c0.18623,-5.00498 4.33716,-8.97086 9.37183,-8.90102c5.10816,0.07087 9.19166,4.26929 9.12078,9.37743c-0.07087,5.10814 -4.26928,9.19166 -9.37743,9.12078c-0.25333,-0.00351 -0.50415,-0.01719 -0.75207,-0.04062c-0.18623,5.00498 -4.33716,8.97086 -9.37183,8.90102c-2.97895,-0.04133 -5.60944,-1.48643 -7.27071,-3.69709c-0.63131,4.55562 -4.57279,8.03319 -9.29013,7.96775c-4.15012,-0.05758 -7.62389,-2.83966 -8.74291,-6.62057c-0.67344,4.50787 -4.59237,7.93571 -9.27615,7.87072c-2.97113,-0.04122 -5.59564,-1.47885 -7.25761,-3.67969c-1.34343,3.52833 -4.78138,6.0129 -8.77553,5.95749c-3.19919,-0.04438 -5.99648,-1.70777 -7.62299,-4.19965c-1.72203,2.16236 -4.39074,3.53292 -7.36862,3.49161c-3.05192,-0.04234 -5.73809,-1.55807 -7.39102,-3.86088c-1.64205,1.38407 -3.77096,2.20587 -6.08686,2.17373c-3.19118,-0.04428 -5.98249,-1.69946 -7.61079,-4.18097c-1.30173,0.66824 -2.78138,1.03651 -4.34645,1.0148c-3.52437,-0.04889 -6.56097,-2.06264 -8.08191,-4.98437c-1.42201,0.85023 -3.09003,1.32904 -4.8683,1.30436c-4.33422,-0.06013 -7.93077,-3.09185 -8.87779,-7.1295c-0.95209,0.3145 -1.97195,0.47835 -3.03088,0.46366c-5.10814,-0.07087 -9.19166,-4.26929 -9.12079,-9.37744z" fill="#ffffff" stroke-width="0.5"/><path d="M295.87597,198.36244c5.10814,0.07087 9.19166,4.26929 9.12078,9.37743c-0.07087,5.10814 -4.26929,9.19166 -9.37742,9.1208c-2.44988,-0.03399 -4.66408,-1.0174 -6.29732,-2.59523c-0.66958,4.51229 -4.59061,7.9447 -9.27749,7.87968c-3.28223,-0.04555 -6.14144,-1.79522 -7.7473,-4.39539c0.03328,0.34108 0.048,0.6875 0.04314,1.03819c-0.07087,5.10814 -4.26929,9.19166 -9.37744,9.12079c-5.10814,-0.07087 -9.19166,-4.26929 -9.12078,-9.37743c0.07087,-5.10814 4.26929,-9.19166 9.37743,-9.12078c3.28223,0.04555 6.14143,1.79522 7.7473,4.39539c-0.03328,-0.34108 -0.048,-0.6875 -0.04313,-1.03819c0.07087,-5.10814 4.26929,-9.19166 9.37743,-9.12078c2.44988,0.03399 4.66408,1.0174 6.29732,2.59523c0.66958,-4.51229 4.59061,-7.9447 9.27749,-7.87968z" fill="#ffffff" stroke-width="0.5"/><path d="M171.98181,207.89463c0.07087,-5.10814 4.26929,-9.19166 9.37743,-9.12078c4.07128,0.05648 7.49168,2.73495 8.67662,6.40619c1.14926,-0.48895 2.41677,-0.75176 3.74588,-0.73332c4.63597,0.06432 8.42798,3.52839 9.03643,7.98677c1.66973,-2.59548 4.6002,-4.29723 7.91339,-4.25126c4.29783,0.05963 7.87031,3.04114 8.85338,7.02801c1.70844,-2.33918 4.48658,-3.84264 7.60341,-3.7994c4.05531,0.05626 7.46482,2.71396 8.66256,6.36303c1.29851,-3.61443 4.78045,-6.17651 8.83575,-6.12026c5.10814,0.07087 9.19166,4.26929 9.1208,9.37743c-0.07087,5.10814 -4.26929,9.19166 -9.37743,9.1208c-4.05531,-0.05626 -7.46482,-2.71396 -8.66256,-6.36304c-1.29851,3.61443 -4.78045,6.17651 -8.83575,6.12026c-4.29783,-0.05963 -7.87031,-3.04114 -8.85338,-7.028c-1.70844,2.33918 -4.48658,3.84264 -7.60341,3.7994c-4.63597,-0.06432 -8.42798,-3.52839 -9.03642,-7.98678c-1.66973,2.59548 -4.6002,4.29723 -7.91338,4.25128c-4.07128,-0.05648 -7.49167,-2.73494 -8.67661,-6.40619c-1.14926,0.48895 -2.41677,0.75174 -3.74589,0.73332c-5.10814,-0.07087 -9.19166,-4.26929 -9.1208,-9.37742z" fill="#ffffff" stroke-width="0.5"/></g><path d="M251.69879,219.49306c-1.71794,-4.8111 0.78956,-10.10396 5.60068,-11.82191c4.8111,-1.71794 10.10396,0.78956 11.82191,5.60068c1.71794,4.8111 -0.78956,10.10396 -5.60068,11.82191c-4.8111,1.71794 -10.10396,-0.78956 -11.82191,-5.60068z" fill="#ffffff" stroke-width="0.5"/></g></g></g></svg>