<svg version="1.1" xmlns="http://www.w3.org/2000/svg" xmlns:xlink="http://www.w3.org/1999/xlink" width="516.15967" height="516.15967" viewBox="0,0,516.15967,516.15967"><defs><radialGradient cx="240" cy="180" r="258.07984" gradientUnits="userSpaceOnUse" id="color-1"><stop offset="0" stop-color="#ff0000"/><stop offset="1" stop-color="#ff0000" stop-opacity="0"/></radialGradient><radialGradient cx="240.00001" cy="179.99999" r="258.07983" gradientUnits="userSpaceOnUse" id="color-2"><stop offset="0" stop-color="#ff0000"/><stop offset="1" stop-color="#ff0000" stop-opacity="0"/></radialGradient><radialGradient cx="240.00001" cy="179.99999" r="258.07983" gradientUnits="userSpaceOnUse" id="color-3"><stop offset="0" stop-color="#ff0000"/><stop offset="1" stop-color="#ff0000" stop-opacity="0"/></radialGradient><radialGradient cx="240" cy="180" r="132.47747" gradientUnits="userSpaceOnUse" id="color-4"><stop offset="0" stop-color="#ff0000"/><stop offset="1" stop-color="#ff0000" stop-opacity="0"/></radialGradient></defs><g transform="translate(18.07984,78.07984)"><g stroke="none" stroke-miterlimit="10"><g stroke-width="0.5"><g><path d="M-18.07983,180c0,-142.53355 115.54628,-258.07983 258.07984,-258.07983c142.53355,0 258.07984,115.54628 258.07984,258.07984c0,142.53355 -115.54628,258.07984 -258.07983,258.07984c-142.53355,0 -258.07983,-115.54628 -258.07983,-258.07983z" fill="url(#color-1)"/><path d="M-18.07983,179.99999c0,-142.53355 115.54629,-258.07983 258.07984,-258.07983c142.53356,0 258.07983,115.54627 258.07983,258.07983c0,142.53356 -115.54627,258.07984 -258.07983,258.07984c-142.53355,0 -258.07984,-115.54629 -258.07984,-258.07984z" fill="url(#color-2)"/></g><g fill="url(#color-3)"><path d="M-18.07983,179.99999c0,-142.53355 115.54629,-258.07983 258.07984,-258.07983c142.53356,0 258.07983,115.54627 258.07983,258.07983c0,142.53356 -115.54627,258.07984 -258.07983,258.07984c-142.53355,0 -258.07984,-115.54629 -258.07984,-258.07984z"/><path d="M-18.07983,179.99999c0,-142.53355 115.54629,-258.07983 258.07984,-258.07983c142.53356,0 258.07983,115.54627 258.07983,258.07983c0,142.53356 -115.54627,258.07984 -258.07983,258.07984c-142.53355,0 -258.07984,-115.54629 -258.07984,-258.07984z"/></g></g><path d="M100.73161,284.96046c-0.3735,2.07802 -2.0769,8.71558 -8.52897,8.0444c-7.63843,-0.79458 -6.65549,-10.24359 -6.65549,-10.24359l0.80627,-3.9419c4.01878,-10.39348 7.33141,-22.32394 14.23916,-30.62835c3.02223,-3.63329 6.43938,-7.32913 10.44923,-8.78279c6.85858,-2.48641 13.48142,-1.20207 19.5131,1.93623c1.63267,-1.70252 4.27364,-0.69943 6.39953,-0.96788c6.46173,-0.81594 12.72704,-0.20233 19.06299,0.241c1.1252,-0.66946 2.53663,-1.03433 4.30461,-0.85042c1.53704,0.1599 2.725,0.67021 3.64211,1.38346c1.26888,0.07836 2.52454,0.01686 3.68963,-0.58472c0.99971,-0.51619 0.77768,-2.48908 1.1739,-3.73043c0.88541,-2.774 1.78064,-5.5437 2.67095,-8.31555c2.87576,-4.45136 5.45748,-9.17245 8.15393,-13.78659c1.17952,-2.0184 1.87767,-4.74983 3.63056,-5.97443c5.12486,-3.58031 10.63947,-6.67388 16.36622,-7.99567c4.52683,-1.04484 8.27395,0.4361 11.49324,3.12141c0.30888,-2.66909 0.58257,-5.33395 0.78589,-7.98345c-0.08592,-1.14075 -0.14871,-2.26509 -0.19341,-3.35748c-2.69166,-2.72777 -5.36468,-5.48117 -7.91619,-8.40146c-2.2464,-2.5711 -4.44222,-5.20843 -6.63233,-7.85185c-0.57394,-0.69273 -1.02264,-1.54861 -1.65846,-2.15497c-0.0965,-0.09202 -0.2693,-0.0838 -0.43418,-0.07143c-3.86574,3.67929 -5.58329,3.96805 -10.58669,7.28896c-4.54506,3.01668 -8.93577,6.45243 -13.64523,9.02551c-2.77007,1.51345 -5.68476,2.55932 -8.45308,4.07807c-2.06681,1.1339 -3.91431,2.89859 -6.03067,3.86802c-1.53328,0.70236 -3.18841,0.80467 -4.79411,1.0905c-7.01333,1.24839 -14.06097,-0.16227 -21.01853,-0.9445c-0.1799,0.19849 -0.40864,0.37027 -0.52614,0.6189c-1.14739,2.42789 -2.0935,5.01354 -3.45306,7.27624c-1.70895,2.84419 -3.24129,4.87258 -5.56829,6.85457c-0.15193,0.1702 -0.31175,0.33972 -0.47978,0.50838c-1.38407,1.38938 -2.69648,2.08995 -3.89843,2.34288c-0.36195,0.24233 -0.71577,0.50187 -1.05579,0.79059c-1.01391,0.86093 -1.82442,2.07887 -2.87903,2.85867c-3.20174,2.36737 -6.84967,3.58958 -10.21169,5.56654c-1.49458,0.87886 -2.77411,2.31848 -4.31095,3.06715c-1.1171,0.54419 -2.38432,0.2902 -3.52365,0.74942c-0.84378,0.3401 -1.50287,1.23559 -2.33735,1.61293c-2.63705,1.19246 -6.2371,2.2754 -9.40584,2.21141c-0.08508,0.31858 -0.15229,0.62715 -0.18222,0.91484c-1.0063,1.24656 -2.40275,2.41373 -2.67468,4.11401l-8.72259,5.62353c0,0 -7.63843,-0.79458 -6.65549,-10.24359c0.3963,-3.8097 1.87449,-5.95421 3.49776,-7.15701c0.33754,-0.45215 0.72701,-0.81608 1.19333,-1.03709c0.68276,-6.56339 -0.18276,-7.45086 6.99819,-11.4789c3.3336,-1.86993 7.51803,1.23788 11.00558,-0.62177c0.99876,-0.53256 1.86999,-1.44665 2.90079,-1.86376c1.00428,-0.40638 2.12844,-0.09847 3.11564,-0.57072c1.01559,-0.48584 1.75945,-1.64449 2.7422,-2.23153c1.77909,-1.06271 3.68122,-1.74704 5.50026,-2.69193c0.02046,-0.01062 0.04088,-0.02132 0.06129,-0.03209c-2.20065,-2.7541 -3.9407,-5.97912 -5.9952,-8.9556c-1.23784,-1.79335 -3.40794,-2.95196 -3.80079,-5.28572c-0.70837,-4.20807 -0.34902,-8.82519 0.72032,-13.01384c0.78151,-3.06123 2.78487,-5.54416 4.61261,-7.87557c1.83683,-2.343 4.07404,-4.14117 6.14336,-6.17478c-2.1668,-0.37877 -4.32743,-0.89113 -6.49557,-1.20289c-0.70006,1.10242 -1.33226,1.73705 -1.33226,1.73705c-0.72451,0.58255 -1.64869,0.89905 -2.17352,1.74763c-0.50063,0.80944 -0.28278,2.02207 -0.69974,2.89801c-0.83355,1.75107 -2.18406,3.09523 -2.99421,4.862c-2.27138,4.95347 -3.3619,10.99833 -6.20742,15.655c-3.46697,5.67367 -8.63466,9.35318 -13.99862,11.51577c-3.49473,1.40897 -5.43947,0.99954 -8.51922,0.67917l-3.36404,0.51646c0,0 -7.68286,1.07395 -8.21703,-8.34739c-0.53418,-9.42136 7.14868,-10.4953 7.14868,-10.4953l4.88334,-0.63641c1.28674,0.13386 3.21705,0.50322 4.55241,0.02815c6.72221,-2.39155 7.4123,-11.13629 10.48976,-17.89512c0.7419,-1.62941 1.98957,-2.85979 2.79526,-4.44282c-3.87039,-0.04754 -7.69104,0.4537 -11.26636,2.04148c-1.09644,1.3185 -2.31297,2.47638 -3.50028,3.66823l-7.29716,2.03843c0,0 -7.63843,-0.79458 -6.65549,-10.24359c0.67665,-6.50465 4.50724,-8.15499 6.82881,-8.55192c1.0888,-1.06776 2.18444,-2.12475 3.28639,-3.17122c12.64228,-6.23704 25.43317,-4.54785 38.37096,-2.48559c3.46323,0.55203 7.77421,0.53555 11.89332,1.29075c1.06196,0.52753 2.28794,0.77046 3.54756,0.89709c4.29933,1.45199 8.0003,4.30691 9.72838,10.33669c2.02143,7.05334 -6.1571,16.19656 -9.14497,19.67984c-2.17062,2.53054 -4.68355,4.57007 -6.97081,6.93799c-0.17584,0.18204 -0.31652,0.43422 -0.45603,0.68424c1.33429,2.00983 4.06418,6.34166 4.34655,6.73489c0.89149,1.24148 2.01173,2.15597 3.19493,2.98406c0.65795,-1.4772 1.22603,-3.00113 2.03022,-4.44831c2.1175,-3.81062 5.56674,-8.0883 9.05588,-9.7182c1.70994,-0.79877 3.60671,-0.10951 5.41005,-0.16427c4.28805,0.44606 8.57956,0.86514 12.86472,1.33824c2.19068,0.24187 5.35894,0.70488 7.48533,-0.41565c1.55914,-0.82161 2.89875,-2.22617 4.4456,-3.08535c5.00198,-2.77832 10.22641,-4.94402 15.06225,-8.16573c4.3616,-2.90577 8.69273,-5.88762 13.09532,-8.69173c6.88934,-4.38797 7.05292,-6.74463 13.89562,-5.12162c3.22487,0.7649 5.85842,2.76505 8.23747,5.24071l0.37527,-1.44106l-0.50501,0.05051l-0.1067,-3.52354c-4.28554,-1.76069 -9.72757,-1.59598 -13.64776,-1.99097c-8.14575,-0.82076 -16.15802,-0.05298 -24.28047,-0.93604c-0.87008,-5.65468 -3.075,-11.16558 -2.61024,-16.96404c0.07277,-0.90794 0.30459,-1.75711 0.63547,-2.57004c2.6751,-1.48764 3.40522,-3.43751 3.2551,-5.52057c0.31114,-0.51768 0.60218,-1.04341 0.85485,-1.58408c0.01527,-0.03271 0.03004,-0.06629 0.04431,-0.1007c-0.42116,-0.07177 -0.84302,-0.17636 -1.26531,-0.29718c-0.27231,-0.97457 -0.65877,-1.95546 -1.05801,-2.91134c0.41024,-0.19989 0.79057,-0.44625 1.11074,-0.78878c1.95405,-2.09041 3.4985,-4.6548 4.66051,-7.3337c0.48785,-1.12469 0.8269,-3.23905 1.03168,-5.64525c0.22947,-0.2063 0.44831,-0.42288 0.65463,-0.65139c4.00345,1.5868 7.85531,3.61694 10.77059,7.1106c3.4423,4.12524 -0.28436,14.19377 -2.28496,18.65663c1.7695,0.00768 3.53792,0.05382 5.30441,0.11112c5.44667,0.17671 11.1878,0.37041 16.64921,1.64188c0.19219,-6.33277 1.07158,-12.88785 3.52074,-18.02436c1.2494,-2.62032 3.29704,-4.55008 5.05152,-6.69949c0.61868,-0.75795 1.2318,-1.52677 1.84956,-2.29004c-1.28385,-0.10719 -2.56856,-0.21122 -3.70749,-0.84711c-1.82136,-1.01688 -3.08354,-3.09927 -4.63564,-4.63343c-3.87294,-3.82817 -8.06535,-8.41332 -8.82288,-15.12465c-0.40919,-3.62524 0.83166,-7.39075 1.8441,-10.9107c0.60039,-2.08736 1.16582,-4.2266 1.74594,-6.37346c-7.91707,2.64118 -17.7242,3.54733 -24.65476,-0.8488c-2.43404,-1.54394 -4.60931,-3.64052 -6.7221,-5.76621c-5.02994,-5.06062 -8.93332,-11.91049 -10.59837,-19.7637c-0.20619,-0.9725 -0.17313,-4.49837 -0.85076,-5.86071c-0.24796,-0.49852 -0.67728,-0.84337 -1.01439,-1.25917c-1.98313,-0.54926 -6.54059,-2.62825 -5.76772,-10.05803c0.98293,-9.44901 8.62135,-8.65444 8.62135,-8.65444l5.26041,1.27425c1.96355,2.39011 5.09154,5.78627 6.44303,8.9367c0.87077,2.02982 1.43785,4.26176 1.92787,6.49308c0.65085,2.96361 -0.0799,3.84645 1.01006,6.23414c2.8465,6.23566 7.37083,12.29611 13.66555,12.20312c0.55323,-0.00817 6.86832,-0.45203 8.18212,-0.78772c4.3367,-1.10805 8.29329,-4.1411 12.38996,-6.14192c0,0 1.00699,-0.48676 2.40224,-0.64418c0.21833,-0.36988 0.43785,-0.7386 0.65838,-1.10624c0.46352,-0.77268 1.33161,-1.06754 1.81502,-1.82198c0.98747,-1.54113 1.56477,-3.42618 2.54163,-4.9773c2.58179,-4.09954 5.22746,-5.76894 1.23588,-10.86851c-0.50439,-0.6444 -1.30267,-0.81099 -1.954,-1.21648c-2.7624,-2.65199 -5.5438,-5.35989 -8.68486,-7.30328l-2.10639,-1.13189c0,0 -6.93561,-3.74185 -3.58765,-12.4547c3.34797,-8.71286 10.28358,-4.97101 10.28358,-4.97101l2.51094,1.35922c3.83169,2.45101 7.36157,5.56245 10.77177,8.79622c1.35484,1.14372 3.08077,1.81279 4.06449,3.43117c2.40651,3.95911 4.73812,8.19308 5.90487,12.97004c0.69268,2.83604 -0.24174,6.00564 -0.53965,8.99662c-0.19053,1.91299 -0.1835,3.96037 -0.92299,5.68798c-1.20292,2.81031 -3.22867,4.9871 -4.74963,7.56453c-1.23863,2.09901 -2.21309,4.42357 -3.52423,6.45645c-0.48538,0.75257 -1.34497,1.05516 -1.81502,1.82198c-1.45912,2.38036 -2.76553,4.90883 -3.91428,7.52461c-1.71974,3.91597 -2.96097,8.11241 -4.19191,12.27736c-0.72179,2.44219 -0.50099,5.74503 -1.83416,7.61586c0.13893,0.42431 0.06103,0.99942 0.32712,1.31155c0.81143,0.95184 1.96232,1.38451 2.80512,2.29441c0.50273,0.54274 0.61225,1.55805 1.17592,2.00349c0.247,0.19519 0.56742,-0.26773 0.85114,-0.4016c0,0 7.24069,0.75321 6.71559,9.51364c0.00952,-0.0067 0.01904,-0.0134 0.02855,-0.02012c4.19633,-2.96319 5.0772,-4.24676 10.18369,-7.36937c0.51745,-0.31642 1.04465,-0.60453 1.57787,-0.87453c0.00487,-0.01569 0.00976,-0.03137 0.01466,-0.04704c-0.45586,-1.32376 -0.79083,-2.74959 -1.27575,-4.04591c-0.55472,-1.48291 -4.03537,-11.09476 -4.21297,-11.96214c-0.20506,-1.00153 0.63381,-2.18485 0.29863,-3.12536c-0.47727,-1.33925 -1.67334,-2.05317 -2.50999,-3.07975c0.31048,-4.02888 -0.30534,-8.28752 0.93143,-12.08665c2.22897,-6.8469 8.86253,-6.99685 13.30279,-8.85066c1.83944,-0.76796 6.01626,-3.38712 7.70593,-5.13274c3.5611,-3.67902 5.7384,-7.90971 10.40077,-9.79291c5.62087,-2.27036 12.22291,-2.71809 14.84121,7.02416c1.12155,4.17307 -2.94945,8.30558 -4.70012,12.2983c-1.08347,2.47105 -0.76169,7.05699 -1.26537,9.44502c-1.61359,7.65019 -5.45127,14.94897 -11.25483,18.85716c-1.08432,0.7302 -2.32722,0.94083 -3.52902,1.28618c-0.24295,1.81504 -0.72564,3.54771 -1.2897,5.24831c0.84456,1.20331 1.48955,2.49044 1.50945,4.06081c0.08271,6.52855 -2.1325,10.03619 -5.18822,12.46684c-0.06681,2.13597 -0.10199,4.11195 -0.90474,8.21244c-0.87213,4.45485 -2.43808,7.49486 -4.58775,11.19296c-0.44841,0.77139 -1.18441,1.28861 -1.53835,2.12804c-0.06288,0.14913 -0.12518,0.29886 -0.18695,0.44911c1.53816,0.26721 3.61409,1.01965 5.82527,1.96424c0.92546,-0.17519 1.84825,-0.26021 2.73615,-0.22311c-0.09403,-3.30689 0.04331,-6.67547 0.52435,-10.35745c0.47556,-3.64004 0.1,-7.61601 1.53053,-10.90433c4.17363,-9.59379 11.12493,-13.97052 18.72385,-17.65729c3.56487,-1.72957 7.45165,-2.26544 10.93403,-4.2542c2.42378,-1.38419 4.80746,-7.44107 5.93665,-9.33754c2.40657,-4.04183 2.9346,-4.18259 6.04806,-7.36296c1.27708,-1.22186 2.34927,-2.64615 3.46685,-4.047c0.97596,-2.68521 3.15468,-6.10486 7.87422,-5.61391c7.63843,0.79458 6.65549,10.24359 6.65549,10.24359l-3.03574,7.44336c-2.03216,1.94431 -3.54555,4.40117 -5.54853,6.46059c-5.68789,5.55526 -7.65408,14.24974 -14.46023,18.75363c-2.28087,1.50934 -4.86137,2.11025 -7.30162,3.12654c-3.69168,1.53747 -7.34813,3.25371 -10.90672,5.24901c-1.84779,1.03605 -3.40519,1.58834 -4.51507,4.47987c-0.58913,1.53484 -0.02486,3.34046 -0.12492,5.0098c-0.13635,2.27463 -0.74987,4.52243 -0.76486,6.79661c-0.02713,4.11682 0.97016,8.08868 1.58205,12.10612c5.25887,3.09652 10.23959,6.70622 14.00044,11.92515c-0.56214,-3.98048 -1.422,-7.89522 -1.88779,-11.90181c-0.52629,-4.52685 -0.78391,-9.10961 -1.11187,-13.67527c-0.27235,-3.79166 -1.19053,-13.40149 2.34129,-15.76882c7.05293,-4.72747 15.45096,-5.68307 23.33887,-6.0743c3.83862,-0.19039 7.66963,0.71758 11.49805,0.16542c0.64282,-0.09272 1.46428,-0.28364 2.37884,-0.53572c2.50496,-3.2217 6.01126,-2.77929 7.30964,-2.47487c0.98979,-0.38276 1.81066,-0.72122 2.32344,-0.95512c2.89784,-1.32183 5.68649,-3.01456 8.52463,-4.53765c1.40755,-0.75537 3.13745,-0.93147 4.21234,-2.29767c1.5747,-2.00144 -0.69705,-3.97278 -0.31052,-5.82977c0.78242,-3.75888 0.95434,-8.29878 3.30149,-10.95646c2.05418,-2.32594 5.37687,-1.56476 8.10121,-1.95478c1.07809,-0.15434 2.14412,0.22305 3.21617,0.33456c1.07206,0.11152 2.14412,0.22305 3.21617,0.33456l5.81387,4.40769c0,0 4.70614,7.24332 -1.39007,13.36292c-2.74345,2.75398 -5.20539,2.80167 -7.08357,2.02111c-0.44019,3.2282 -1.05012,6.40286 -2.57451,9.03335c-1.38414,2.38849 -3.40012,4.03555 -5.54138,5.4811c1.78989,0.91966 3.5645,1.88336 5.3399,2.8392c2.61437,1.40751 5.37642,3.79061 8.3739,4.42801c2.18667,0.46498 4.43188,0.53645 6.65919,0.67878c4.6234,0.29545 7.1221,-5.36125 11.17423,-7.49765c6.1347,-3.23437 10.17669,-1.24178 15.83886,1.46091l2.87859,3.86798c0,0 4.70614,7.24332 -1.39007,13.36292c-6.09621,6.11961 -10.80236,-1.1237 -10.80236,-1.1237l0.07627,-0.44511c-0.09233,0.02771 -0.24819,0.08345 -0.38615,0.11876c-0.1297,0.23596 -0.30325,0.4426 -0.48871,0.60643c-1.58575,1.4008 -3.22892,2.70092 -4.895,3.94604c-1.74305,1.30265 -3.38736,2.98029 -5.32621,3.69269c-6.41964,2.35877 -16.00574,1.04679 -22.02821,-1.88826c-5.40381,-2.63353 -10.4458,-6.27932 -15.9461,-8.62173c-3.64471,-1.55216 -7.382,-2.78571 -11.1103,-4.05032c-3.13038,0.98699 -6.26443,1.71202 -9.29351,2.12761c-3.73843,0.51291 -7.47528,-0.36073 -11.22212,-0.18722c-3.54581,0.16419 -7.30297,1.38953 -10.75234,0.86452c0.31071,4.11284 0.52029,8.2469 0.99481,12.32695c0.65603,5.64064 2.00557,11.12216 2.40856,16.81212c0.39651,5.59853 -0.0128,11.28301 -0.01919,16.92451c0,0 -0.00829,2.81443 -1.26266,5.43752c0.00024,0.00027 0.0005,0.00052 0.00075,0.00079c0.4535,-0.61329 0.93103,-1.19816 1.42465,-1.7519c2.221,-2.4915 4.85454,-4.08835 7.60263,-5.35502c0.36246,-0.75615 0.63924,-1.31214 0.78304,-1.58468c3.98274,-7.54883 9.29754,-13.93634 13.74782,-21.09181c1.29484,-2.08195 1.94243,-4.818 3.56305,-6.52142c2.46966,-2.59581 5.23387,-6.36653 8.38668,-6.03876c6.95641,0.72322 10.69828,10.66389 17.69844,10.81807l3.21617,0.33456c0,0 7.63843,0.79458 6.65549,10.24359c-0.98293,9.44901 -8.62135,8.65444 -8.62135,8.65444l-3.21617,-0.33456c-0.96163,-0.13234 -1.80454,-0.22987 -2.56975,-0.32674c0.76098,0.74985 1.50924,1.51826 2.23808,2.31515c0.35876,0.39225 0.3752,1.17159 0.77752,1.49524c1.35157,1.08731 7.06337,2.3035 7.55,2.39356c3.76627,0.69696 7.77913,0.79075 11.58793,1.18697c2.20643,0.22952 4.90901,-0.85283 6.65031,0.68566c2.88506,-3.42976 5.84693,-6.63337 8.61796,-10.11057c0.51679,-2.61048 1.60509,-4.28404 2.83237,-5.35466c1.12266,-2.47484 3.30973,-5.11195 7.49292,-4.6768c3.35841,0.34936 5.05021,2.37173 5.8917,4.52841c2.03112,1.12326 2.74462,2.52314 5.52038,4.69129c1.46167,1.14171 3.19292,1.77178 4.56398,3.06824c0.88963,0.84124 1.23552,2.35801 2.10173,3.23481c1.58557,1.60498 3.16159,1.92549 4.91572,1.74151c1.9613,-1.38097 6.22434,-3.3743 9.72032,2.00641c4.70614,7.24332 -1.39007,13.36292 -1.39007,13.36292l-4.71464,3.02728c-7.00858,1.27603 -12.9068,-0.02126 -18.58226,-5.23609c-0.89913,-0.82615 -1.21881,-2.38315 -2.10173,-3.23481c-0.88174,-0.85053 -2.10819,-1.02056 -3.06261,-1.7467c-0.83668,-0.63657 -1.4991,-1.714 -2.25361,-2.52095c-4.09012,5.41138 -8.72731,10.70644 -13.28373,14.4268c-0.4034,0.32938 -0.83188,0.60754 -1.28065,0.84098c0.50166,4.04913 1.09138,8.81732 1.10856,8.99562c0.19639,2.03866 -0.16188,8.11597 1.68501,9.75822c2.31543,2.05889 5.41723,4.35714 8.2091,5.17576c1.16145,0.34055 2.42899,0.00361 3.59693,0.31439c3.75565,0.99936 7.5065,2.08739 11.12889,3.6041c1.10046,0.46077 1.84017,1.78182 2.92811,2.28166c2.90864,1.33637 6.20813,1.44194 8.99379,3.10519c4.45244,2.65843 7.18472,6.24637 10.05799,11.01524l1.03653,5.12504c0,0 1.483,9.2154 -6.07428,11.44963c-7.55728,2.23423 -9.04027,-6.98115 -9.04027,-6.98115l0.02489,-0.51055c-0.08824,-0.0479 -0.37925,-0.65208 -1.2517,-1.41424c-1.71731,-1.50022 -1.86758,-1.65033 -3.87084,-2.30671c-2.09145,-0.68528 -4.28473,-0.99577 -6.30764,-1.91786c-1.14355,-0.52126 -1.94096,-1.86277 -3.09038,-2.366c-2.50133,-1.09508 -5.13328,-1.75784 -7.75432,-2.38179c-1.45502,-0.34638 -3.01673,-0.04803 -4.44352,-0.52201c-2.44318,-0.81164 -4.78684,-2.01017 -7.07366,-3.30402c-4.33969,-2.45535 -8.80527,-6.38034 -11.2064,-11.52033c-2.317,-4.9599 -2.33032,-10.18383 -2.85821,-15.69642c-0.38358,-4.00552 -0.96099,-7.96841 -1.48011,-11.94416c-8.61605,-0.81345 -17.31974,-1.34559 -24.79829,-7.03372c-0.86837,-0.66048 -1.25981,-1.98977 -2.0248,-2.81785c-1.0534,-1.1403 -2.45621,-1.78136 -3.40195,-3.05654c-0.05544,-0.07475 -0.10471,-0.15429 -0.14887,-0.2378c-0.73601,0.51108 -1.48959,0.98242 -2.25574,1.41216c-1.82361,1.02288 -3.71922,1.81807 -5.5816,2.71749c-2.90381,1.40237 -5.8648,2.59507 -8.81373,3.82965c-0.72405,2.07613 -1.39969,4.19869 -2.14175,6.25601c0.56926,0.64297 1.13192,1.29705 1.82123,1.71159c1.58854,0.95532 3.3326,1.57523 5.09702,1.91831c3.16872,0.61612 6.41746,0.62138 9.62497,0.94419c2.73602,0.27536 5.42965,1.26288 8.18632,1.02392c3.11812,-0.27031 3.3549,-5.45825 8.0434,-3.33319c9.0051,4.08157 8.90218,17.57193 12.64385,26.20409c0.6586,1.51944 1.86671,2.56381 2.64255,3.9928c0.9244,1.70262 1.07643,4.01012 2.16132,5.55884c0.62231,0.88838 1.62588,1.30804 2.2052,2.24019c0.96409,1.55122 2.42283,3.47284 1.91678,5.39508l0.23902,-0.4404c0,0 6.93561,3.74185 3.58765,12.4547c-3.34797,8.71286 -10.28358,4.97101 -10.28358,4.97101l-4.37831,-2.93151c-1.16589,-2.34691 -1.81769,-5.13071 -3.27398,-7.20964c-0.62231,-0.88838 -1.62588,-1.30804 -2.2052,-2.24019c-1.30779,-2.10425 -1.81222,-4.85859 -3.02944,-7.04589c-0.90308,-1.62275 -2.21513,-2.88938 -2.96207,-4.63337c-1.46209,-3.41374 -2.47704,-7.11021 -3.61376,-10.72017c-0.37362,-1.18655 -0.9903,-2.35672 -1.4875,-3.54407c-4.17863,0.60705 -8.7576,-0.45852 -12.3581,-0.84414c-9.17786,-0.98299 -12.1314,-0.31034 -20.24211,-4.79619c-1.53046,-0.84646 -2.592,-2.62258 -4.05161,-3.63174c-0.32731,-0.2263 -0.63838,-0.43623 -0.93557,-0.63134c-0.6829,1.22665 -1.51512,2.64606 -2.55891,4.42759c-0.75253,1.28441 -1.53485,2.5241 -2.34671,3.72084c0.2577,0.94409 0.66974,1.85282 0.931,2.80453c2.21709,-0.236 4.53653,-0.99687 6.58047,-0.12256c3.99207,1.70762 8.00625,4.10888 10.85934,7.89097c2.03604,2.69898 2.14331,6.94059 3.01501,10.50099c0.47068,1.92245 2.55621,13.11313 2.77703,15.72899c0.20044,2.37445 -0.10599,4.81322 0.091,7.18829c0.30338,3.65762 1.12632,7.20504 1.40653,10.86668c0.08686,1.13499 -0.30901,2.28461 -0.31248,3.42949c-0.00908,2.99105 0.19859,5.98996 -0.08336,8.97564c-0.0171,0.13989 -0.16682,2.56128 -0.54242,4.78316c1.33576,0.09076 2.68507,0.31982 4.01344,0.23637c1.98493,-0.12468 3.90397,-1.34121 5.88868,-1.40908c1.73792,-0.05944 3.44274,0.40595 5.16411,0.60892l6.73161,4.29364c0,0 6.63364,4.45249 2.72125,12.8245c-3.91237,8.37201 -10.546,3.91953 -10.546,3.91953l-3.81682,-2.78141c0.04669,0.17757 -0.93889,0.53387 -1.32457,0.62716c-1.39444,0.33729 -2.79421,0.733 -4.20477,0.81472c-3.51008,0.20337 -7.12233,0.93144 -10.52137,0.03848c-3.56137,-0.9356 -8.02473,-1.63225 -9.91774,-5.40802c-4.83121,-9.63627 0.60884,-12.7813 1.07775,-20.13712c0.81677,-6.67498 -0.50927,-12.59872 -1.07611,-19.17187c-0.3453,-4.00413 -0.2104,-8.12217 -0.92448,-12.03212c-0.47816,-2.61813 -1.09081,-5.1926 -1.51047,-7.82887c-0.20503,-1.28801 0.24597,-2.86572 -0.36073,-3.9257c-1.73382,-3.02923 -7.04462,-0.77171 -8.67245,-1.09303c-2.22525,-0.43923 -4.43264,-1.37466 -6.28995,-2.88209c-1.5965,-1.29576 -2.73803,-3.16419 -3.61378,-5.24892c-0.56517,0.45086 -1.13834,0.89193 -1.71949,1.32344c-0.96956,0.71994 -2.18857,0.75868 -3.16055,1.4734c-0.67566,0.49684 -1.32999,1.04442 -1.96768,1.63064c-1.52122,2.63238 -3.14628,5.13524 -5.18768,7.12511c-0.73199,0.71351 -1.46589,1.10269 -2.19953,1.27759c-0.9212,1.11138 -1.84894,2.19403 -2.80193,3.19942c-0.02458,2.76751 -0.03755,5.53429 0.00643,8.29744c0.03767,2.36679 -0.15563,4.83529 0.41592,7.06685c1.49771,5.84768 4.00372,9.59725 6.39628,14.55741c1.95787,4.059 3.71525,8.27286 5.76893,12.25626c0.96214,1.86623 2.53424,3.23633 3.26401,5.2644c1.21842,3.38608 2.18132,7.00404 2.49175,10.73126c0.53307,6.4002 -1.14949,8.1897 -4.04519,12.74527c-6.38853,10.05056 -6.83271,10.49412 -13.54065,19.87954c-1.33924,1.8738 -1.82963,3.45196 -2.72364,5.67955c-0.29721,0.74055 -0.90662,1.4049 -0.90142,2.21602c0.00479,0.7481 0.73466,1.18396 0.9277,1.8832c0.0403,0.14596 0.4729,2.81376 0.78813,4.77081c1.00848,2.04425 3.05533,7.66641 -1.82725,12.56773c-6.09621,6.11961 -10.80236,-1.1237 -10.80236,-1.1237l-2.16164,-4.96365c-0.4788,-2.97526 -2.39483,-9.57406 -2.3239,-11.89584c0.22199,-7.26796 3.65746,-15.5604 7.51937,-21.10701c0.33611,-0.48274 0.67489,-0.96267 1.01542,-1.44078c-2.14784,-0.06733 -4.29471,-0.14942 -6.43873,-0.2741c-2.49286,-0.14496 -4.98613,-0.35204 -7.44871,-0.77117c-0.26829,-0.04567 -0.37565,-0.73124 -0.6324,-0.60421c-2.15558,1.06663 -3.45069,5.88186 -4.20007,7.76831c-1.32348,3.33164 -2.9157,6.51598 -4.10623,9.91707c-0.71948,2.05537 -0.8676,4.34425 -1.60263,6.39197c-0.8527,2.37556 -2.27601,4.41657 -3.16083,6.77567l-1.03724,2.69934c-1.36156,3.76125 -4.55968,6.26552 -7.99574,5.90808c-4.21858,-0.43883 -7.19835,-5.02505 -6.65549,-10.24359l0.31039,-2.9839c-0.92034,-5.14643 1.10364,-10.60941 1.65545,-15.91413l0.20693,-1.98926c0,0 0.96231,-9.25086 8.38202,-8.67617c3.37348,-7.88577 7.82238,-15.0579 15.00171,-18.01213c1.85924,-0.76505 3.87254,-0.05521 5.79996,0.06492c7.12668,0.44417 14.24751,0.98569 21.38744,1.23413c0,0 1.2708,0.04455 2.74108,0.73525c0.0319,-0.04618 0.06383,-0.09231 0.0958,-0.13842c0.00718,-0.01034 0.01476,-0.0211 0.02272,-0.03218c-0.14747,-0.84545 -0.15674,-1.78061 -0.49414,-2.51904c-0.58944,-1.29003 -1.69365,-2.11622 -2.34063,-3.36178c-2.21426,-4.26292 -4.11631,-8.7704 -6.22069,-13.12045c-3.31121,-6.84475 -5.81065,-10.2973 -7.98179,-19.11093c-0.52487,-2.13069 -0.78606,-5.86339 -0.90615,-9.94612c-1.10556,1.41487 -2.23944,2.79333 -3.43063,4.0986c-6.35804,6.96683 -13.53953,15.59507 -22.77815,8.11351c-0.65177,0.50758 -1.30601,1.00952 -1.9517,1.52184c-3.38998,2.68972 -6.83053,5.28356 -10.33041,7.73911c-0.0035,0.00245 -0.00673,0.00434 -0.00968,0.0057c-0.38813,1.42353 -0.88347,2.82429 -1.04032,4.29686c-0.86103,8.08387 0.52465,10.08538 1.73479,18.71083c0.28218,2.01125 0.8764,4.05767 0.57479,6.09636c-1.41177,9.54288 -8.09809,13.55815 -13.35171,20.32781c-1.45538,1.87538 -2.7482,3.94369 -3.94717,6.07196c-0.62557,1.11044 -0.73621,2.62272 -1.49957,3.59649c-3.29051,4.19753 -6.61089,8.49318 -10.5318,11.75122c-7.80968,6.48937 -18.92651,5.9475 -27.64785,6.97774c-1.87335,0.17667 -3.74613,0.47684 -5.62006,0.52998c-1.42177,0.04031 -2.80054,-0.6795 -4.22141,-0.52991c-1.70758,0.17977 -3.32324,1.31962 -5.0312,1.48742c-5.57754,0.54799 -11.76732,-1.10076 -17.31713,-1.67807l-2.41213,-0.25093c0,0 -7.63843,-0.79458 -6.65549,-10.24359c0.98293,-9.44901 8.62135,-8.65444 8.62135,-8.65444c2.94816,0.30668 8.30846,0.86428 11.25662,1.17096c2.00456,0.20852 3.98082,0.96008 6.00017,0.74749c1.70758,-0.17977 3.32324,-1.31962 5.0312,-1.48742c3.28397,-0.32265 6.31303,0.37846 9.66252,0.01817c0.21809,-0.02577 0.43618,-0.05163 0.65426,-0.07758c-1.92531,-2.23394 -3.47469,-4.9996 -5.65661,-6.8462c-2.6072,-2.20651 -5.68501,-3.4734 -8.56197,-5.12686c-0.55937,-0.32148 -1.19292,-0.44772 -1.74184,-0.79233c-4.30816,3.03015 -8.90746,5.69935 -13.6611,7.18699l-4.07401,0.06634c0,0 -7.63843,-0.79458 -6.65549,-10.24359c0.98293,-9.44901 8.62135,-8.65444 8.62135,-8.65444l-0.85783,0.40091c5.3552,-1.40161 9.77247,-6.6389 15.28462,-7.69322c3.11091,-0.59504 6.82971,0.65609 9.56201,2.18848c3.84276,2.15519 7.82092,4.09688 11.30853,6.99411c2.73009,2.26794 4.72149,5.63929 7.16366,8.35117c2.81228,3.12286 5.65717,6.2538 8.04527,9.87469c0,0 0.19816,0.30501 0.46052,0.84273c0.25588,-0.17098 0.5064,-0.35603 0.75083,-0.55646c2.23602,-1.83361 4.16843,-4.22003 6.01031,-6.63592c0.444,-0.58237 0.35367,-1.55399 0.72932,-2.20402c1.79671,-3.10907 3.62452,-6.22092 5.74873,-9.00577c2.74445,-3.59798 5.66461,-7.00532 8.71855,-10.20371c-2.43151,-13.14507 -3.5319,-25.11305 2.25491,-37.89036c0.82663,-1.82521 2.37558,-3.04914 3.77577,-4.2374c2.18357,-1.85308 4.48143,-3.47901 6.76872,-5.12713c-0.90707,-0.92752 -1.85345,-2.05669 -2.87397,-3.43774c-5.23236,-7.08081 -2.33613,-9.91271 -4.98783,-15.94822c-0.48552,-1.10508 -1.47379,-1.8588 -1.76106,-3.07282c-0.5121,-2.16413 -0.91884,-4.43074 -0.9672,-6.71109c-1.62996,-2.14306 -3.51045,-3.72362 -5.40907,-3.31949c-2.6521,0.5645 -5.19172,2.01591 -7.59554,3.58727c-0.41493,0.27124 -0.15617,1.16264 -0.41335,1.64808c-2.33493,4.4074 -4.69046,8.86581 -7.60783,12.72489c-1.8808,6.20816 -3.99933,15.25571 -9.1146,18.7786c-3.20025,2.20402 -6.28045,3.15408 -9.32834,3.46362c-0.06331,3.5278 0.19338,7.04024 1.13437,10.12354c0.72366,2.37119 1.21635,4.85881 2.01284,7.19102c0.31956,0.9357 1.16065,1.47739 1.49758,2.40307c0.34353,0.9438 0.32909,2.04502 0.49364,3.06753l0.48299,0.32867c0,0 4.70614,7.24332 -1.39007,13.36292c-6.09621,6.11961 -10.80236,-1.1237 -10.80236,-1.1237l-2.31933,-3.98442c-0.16455,-1.02251 -0.15221,-2.1225 -0.49364,-3.06753c-0.27605,-0.76404 -1.04134,-1.1387 -1.30473,-1.91003c-1.04656,-3.06479 -1.88924,-6.23913 -2.76405,-9.39221c-1.58338,-5.70701 -1.97358,-11.83282 -1.80549,-17.94471c-1.71342,-0.07605 -3.43085,-0.08597 -5.14938,-0.06542c0.04945,2.29623 -0.64416,4.96819 -3.12111,7.45463c-4.89353,4.91231 -8.89137,1.21416 -10.27831,-0.43618c-1.88915,-0.58859 -3.08934,-1.81331 -3.84795,-3.20792c-0.02325,-0.0169 -0.04629,-0.03405 -0.06911,-0.05144c-4.33171,-3.30182 -7.28354,-7.11254 -13.35957,-5.16232c-1.57813,0.50653 -2.78624,2.2662 -3.864,3.80381c-4.86466,6.94036 -7.50674,15.55255 -10.55198,23.71041zM335.96155,153.51062c-0.00629,0.0083 -0.0126,0.01659 -0.01888,0.02488c0.01106,-0.00147 0.02212,-0.00292 0.03319,-0.00439c-0.00478,-0.00683 -0.00955,-0.01366 -0.0143,-0.02049z" fill="#ff0000" stroke-width="0.5"/><g fill="url(#color-4)" stroke-width="0.5"><g><g><path d="M348.17232,103.52104c42.23816,59.74192 28.04856,142.41311 -31.69335,184.65128c-59.74192,42.23816 -142.41311,28.04856 -184.65128,-31.69335c-42.23816,-59.74192 -28.04856,-142.41311 31.69335,-184.65128c59.74192,-42.23816 142.41311,-28.04856 184.65128,31.69335z"/><path d="M348.17232,103.52104c42.23816,59.74192 28.04856,142.41311 -31.69335,184.65128c-59.74192,42.23816 -142.41311,28.04856 -184.65128,-31.69335c-42.23816,-59.74192 -28.04856,-142.41311 31.69335,-184.65128c59.74192,-42.23816 142.41311,-28.04856 184.65128,31.69335z"/></g><g><path d="M348.17232,103.52104c42.23816,59.74192 28.04856,142.41311 -31.69335,184.65128c-59.74192,42.23816 -142.41311,28.04856 -184.65128,-31.69335c-42.23816,-59.74192 -28.04856,-142.41311 31.69335,-184.65128c59.74192,-42.23816 142.41311,-28.04856 184.65128,31.69335z"/><path d="M348.17232,103.52104c42.23816,59.74192 28.04856,142.41311 -31.69335,184.65128c-59.74192,42.23816 -142.41311,28.04856 -184.65128,-31.69335c-42.23816,-59.74192 -28.04856,-142.41311 31.69335,-184.65128c59.74192,-42.23816 142.41311,-28.04856 184.65128,31.69335z"/></g></g><g><g><path d="M348.17232,103.52104c42.23816,59.74192 28.04856,142.41311 -31.69335,184.65128c-59.74192,42.23816 -142.41311,28.04856 -184.65128,-31.69335c-42.23816,-59.74192 -28.04856,-142.41311 31.69335,-184.65128c59.74192,-42.23816 142.41311,-28.04856 184.65128,31.69335z"/><path d="M348.17232,103.52104c42.23816,59.74192 28.04856,142.41311 -31.69335,184.65128c-59.74192,42.23816 -142.41311,28.04856 -184.65128,-31.69335c-42.23816,-59.74192 -28.04856,-142.41311 31.69335,-184.65128c59.74192,-42.23816 142.41311,-28.04856 184.65128,31.69335z"/></g><g><path d="M348.17232,103.52104c42.23816,59.74192 28.04856,142.41311 -31.69335,184.65128c-59.74192,42.23816 -142.41311,28.04856 -184.65128,-31.69335c-42.23816,-59.74192 -28.04856,-142.41311 31.69335,-184.65128c59.74192,-42.23816 142.41311,-28.04856 184.65128,31.69335z"/><path d="M348.17232,103.52104c42.23816,59.74192 28.04856,142.41311 -31.69335,184.65128c-59.74192,42.23816 -142.41311,28.04856 -184.65128,-31.69335c-42.23816,-59.74192 -28.04856,-142.41311 31.69335,-184.65128c59.74192,-42.23816 142.41311,-28.04856 184.65128,31.69335z"/></g></g></g><path d="" fill="#ff0000" stroke-width="0.5"/><path d="" fill="#ff0000" stroke-width="0.5"/><path d="" fill="#ff0000" stroke-width="0.5"/><path d="M430.15225,209.84384c0.27614,0 0.5,0.11193 0.5,0.25c0,0.13807 -0.22386,0.25 -0.5,0.25c-0.27614,0 -0.5,-0.11193 -0.5,-0.25c0,-0.13807 0.22386,-0.25 0.5,-0.25z" fill="#5c0000" stroke-width="0"/><g><g><path d="M247.10055,169.433c0.69029,0.00958 1.24833,0.12926 1.24642,0.26732c-0.00191,0.13805 -0.56306,0.24222 -1.25335,0.23264c-0.69029,-0.00958 -1.24833,-0.12926 -1.24642,-0.26732c0.00191,-0.13805 0.56306,-0.24221 1.25335,-0.23264z" fill="#5c0000" stroke-width="0"/><path d="M268.73058,280.74379c-2.49975,-0.03468 -2.46508,-2.53444 -2.46508,-2.53444l0.01388,-0.9999c0.0297,-1.54079 -0.11599,-3.09163 -0.40387,-4.60559c-0.03343,-0.30344 -0.06572,-0.6041 -0.09647,-0.90226c-0.82595,0.08331 -1.53753,-0.2849 -1.53753,-0.2849l-1.63615,-0.9911c-2.55796,-2.7355 -4.06365,-6.94494 -4.36499,-11.22002c-0.1733,0.41938 -0.37654,0.82519 -0.61391,1.21515c-0.47112,0.77396 -1.657,0.90043 -2.15394,1.65806c-1.49064,2.27262 -2.5867,6.20788 -3.15698,8.92665l-2.222,2.7469c0,0 -1.79212,1.74306 -3.5352,-0.04905c-1.74306,-1.79212 0.04904,-3.53519 0.04904,-3.53519l0.81933,-0.21118c0.66231,-3.03238 1.78388,-6.67682 3.30174,-9.56073l-1.34678,1.15746c0,0 -2.09915,1.35776 -3.45691,-0.74141c-1.35776,-2.09917 0.7414,-3.45692 0.7414,-3.45692l0.5634,0.15947c1.26455,-2.87248 -0.03875,-5.73094 1.12971,-8.51337c1.47869,-3.52122 3.23155,-1.99874 5.06888,-4.93015c0.27528,-0.43919 -0.15839,-1.02756 -0.16888,-1.54579c-0.007,-0.34569 0.00188,-1.22767 0.02038,-2.28752c-0.58468,0.21528 -1.17783,0.33551 -1.78978,0.245c-4.86415,-0.71958 -3.77923,-3.46104 -4.13651,-6.52246c-0.36149,-3.0976 -0.87414,-6.08364 -1.29472,-9.04918c-2.4033,0.46308 -4.80544,0.92035 -7.19609,1.26222c-0.34024,1.55647 -0.53917,2.60473 -0.33565,3.75824c0.11733,0.21272 0.21679,0.4338 0.28914,0.66772c0.08542,0.27612 0.14699,0.56598 0.1908,0.86646c0.14937,0.3453 0.33237,0.71426 0.55334,1.11723c0.69628,1.26971 2.79895,3.22603 3.1452,4.50479c0.10003,0.36943 0.11256,3.77774 0.0197,6.11075c0.14723,0.27093 0.27264,0.55268 0.368,0.84942c1.83269,5.70339 0.40989,11.511 -1.76716,16.74202l0.18474,-0.42596c0,0 -0.03468,2.49975 -2.53444,2.46507c-2.49975,-0.03468 -2.46507,-2.53444 -2.46507,-2.53444l0.19861,-1.42586c1.23465,-2.96658 2.28328,-6.10918 2.25093,-9.3401c-0.6188,0.89611 -1.22055,1.80498 -1.87756,2.67154c-0.12913,0.70395 -0.62063,2.09319 -2.48855,2.06727c-2.49975,-0.03468 -2.46508,-2.53445 -2.46508,-2.53445l0.57637,-2.05395c1.28946,-1.56084 2.25927,-3.36853 3.55036,-4.92801c0.28159,-0.34012 0.73164,-0.53582 1.10781,-0.78581c-0.90677,-1.23352 -2.10885,-2.58099 -2.36524,-3.17421c-0.84474,-1.95448 -0.97129,-4.16489 -1.11791,-6.28904c-0.04633,-0.67123 0.23283,-1.3698 0.21195,-2.03145c-0.10454,-0.31166 -0.19387,-0.61613 -0.2689,-0.91628c-0.4571,-0.8391 -1.31931,-1.476 -1.69135,-2.36667c-0.30551,-0.73139 -0.47843,-1.56778 -0.57123,-2.44186c-0.76227,0.00201 -1.5209,-0.01212 -2.27652,-0.03942c0.5663,3.38004 1.17902,7.09372 0.51517,10.39344c-1.15253,5.72873 -6.36933,10.88972 -6.20524,17.05541c0.1212,4.55426 2.10245,6.75387 4.73157,10.24142l2.21431,1.90609c0,0 1.88712,1.63974 0.24737,3.52687c-1.63975,1.88713 -3.52687,0.24739 -3.52687,0.24739l-2.58884,-2.26741c-3.22122,-4.25341 -5.45804,-7.12982 -5.97427,-12.24751c-0.85415,2.81764 -1.79908,5.54397 -1.27578,8.55717l0.00715,1.82059c0.00066,0.03012 0.00077,0.06035 0.00036,0.09071c-0.00439,0.31593 -0.06719,0.61739 -0.178,0.89418c-0.25359,0.71371 -0.86807,1.59153 -2.35645,1.57089c-1.48838,-0.02065 -2.07827,-0.91519 -2.31196,-1.63565c-0.10308,-0.27977 -0.1575,-0.58284 -0.15313,-0.89878c0.00074,-0.05331 0.00313,-0.10621 0.00716,-0.15866l0.04195,-0.92977c-0.72234,-5.25805 1.60591,-9.12512 2.26725,-14.20725c0.34331,-2.63824 -0.25888,-5.45028 0.63478,-7.95619c0.0211,-0.05918 0.044,-0.11735 0.06855,-0.17459l-0.70774,0.95638c0,0 -1.5276,1.97899 -3.50659,0.45139c-1.979,-1.5276 -0.4514,-3.5066 -0.4514,-3.5066l1.23871,-1.50338c0.81382,-3.96616 -2.15175,-3.2075 -4.22734,-6.68539c-1.38316,-2.31767 -1.92626,-4.82503 -2.12793,-7.38731c-0.53116,-0.00108 -1.06243,0.00037 -1.59374,0.00329c-0.64736,3.55236 -0.93677,7.04214 -0.73523,10.72341c0.15299,2.79469 2.12147,4.94555 2.8143,7.61176c1.57587,6.06436 1.75758,12.89558 0.80328,19.04017l-1.23355,1.89728c0,0 -1.79213,1.74307 -3.5352,-0.04905c-1.48519,-1.52697 -0.40386,-3.01835 -0.05138,-3.42621c0.72971,-5.26293 0.49657,-11.03991 -0.81645,-16.18182c-0.77294,-3.02695 -2.71147,-5.2275 -2.96316,-8.46994c-0.2926,-3.76954 0.01405,-7.443 0.63627,-11.10851c-1.95154,0.00413 -3.90171,-0.01911 -5.84827,-0.12404c0.1652,3.94067 0.61179,7.88243 1.16151,11.51976c0.14519,0.96071 0.48775,4.12587 1.08982,5.11228c1.4419,2.36233 4.74501,2.51163 3.07661,6.84247c-0.54164,1.40597 -2.60095,1.52166 -3.90143,2.28248l-0.67379,0.93732c0,0 -1.79212,1.74306 -3.5352,-0.04905c-0.00686,-0.00705 -0.01368,-0.01413 -0.02046,-0.02119c-0.72851,3.1913 -1.84764,6.30737 -3.01739,9.14063l0.18474,-0.42594c0,0 -0.03468,2.49975 -2.53444,2.46507c-2.49975,-0.03468 -2.46507,-2.53444 -2.46507,-2.53444l0.1986,-1.42587c0.5964,-1.41987 1.19175,-2.94658 1.71693,-4.53183c-0.61378,0.10472 -1.35617,-0.02327 -2.08988,-0.77762c-0.9272,-0.95329 -0.8541,-1.89268 -0.58254,-2.56325c-1.66399,-2.94983 -5.00551,-4.22807 -5.92217,-8.17139c-0.88274,-3.79737 0.17856,-7.50906 -0.39119,-11.23045c-0.30872,-2.01641 -1.40986,-3.83895 -1.87793,-5.82443c-1.23658,-5.24508 -2.73866,-11.12374 -3.4107,-16.7634c-0.2724,-0.48889 -0.51822,-0.9858 -0.73405,-1.49098c-0.21588,0.05729 -0.44306,0.08636 -0.67736,0.0831c-0.04609,-0.00065 -0.09188,-0.00253 -0.13731,-0.00562c0.45743,1.61212 0.57845,3.34343 0.56791,5.01207c-0.04944,7.82409 -3.40838,17.39381 -0.08096,24.94323c0.775,1.75839 2.38338,3.015 3.59329,4.50786l0.34257,0.33748c0,0 1.74307,1.79213 -0.04905,3.53519c-1.79212,1.74306 -3.5352,-0.04905 -3.5352,-0.04905l-0.64346,-0.67629c-0.48333,-0.59689 -3.79916,-4.54887 -4.2672,-5.60215c-4.40704,-9.91762 1.24859,-19.68834 -0.27933,-29.592c-0.56204,-3.64307 -3.51032,-4.46948 -2.29502,-8.79602c0.25583,-0.91073 1.2631,-1.44191 1.66463,-2.29844c0.50718,-1.0819 0.48711,-2.36764 1.02331,-3.43547c0.06729,-0.13399 0.13833,-0.26834 0.21284,-0.40291c-0.0811,-0.33313 -0.15843,-0.66696 -0.23275,-1.00149c-0.36926,-0.06066 -0.76921,-0.22691 -1.18949,-0.55133c-1.979,-1.5276 -0.4514,-3.50661 -0.4514,-3.50661c0.2417,-0.30856 0.46518,-0.62116 0.67354,-0.93737c-0.03445,-0.18791 -0.0691,-0.37608 -0.10409,-0.56458l-0.02093,-1.99078c0,0 0.03461,-2.4951 2.52747,-2.46518c0.00246,-0.00626 0.00493,-0.01252 0.0074,-0.0188c0.03857,-1.71624 -0.22534,-3.47455 0.16195,-5.14671c0.2126,-0.91797 0.87912,-1.92858 1.6932,-2.8997l0.94527,-2.27127c0.0469,-0.12047 0.10285,-0.23636 0.16701,-0.34685c-0.2906,-3.64238 0.28783,-7.72495 0.33705,-11.27287c0,0 0.00835,-0.60251 0.31267,-1.21183c2.10586,-5.181 0.00531,-11.38912 1.51084,-16.86267c0.21971,-0.7988 0.47653,-1.52097 0.76762,-2.1851c-0.05713,-0.10699 -0.1067,-0.21859 -0.14801,-0.33408l-0.94436,-2.45927l0.09895,-0.03799l-0.17111,-0.17914c-0.16315,-1.25751 -0.7201,-2.52564 -0.48942,-3.77253c0.02394,-0.12947 0.06697,-0.2503 0.12413,-0.36481c-0.02273,-0.14042 -0.05033,-0.2788 -0.08453,-0.41438c-1.05489,-4.1813 -1.49079,-7.57862 -1.41732,-11.89434l0.10928,-0.18977l-0.08095,-0.01465l0.53427,-2.95233c0.18929,-1.16308 1.17942,-2.05259 2.37957,-2.09379c0.04516,-4.62723 0.78204,-9.29638 1.17833,-14.02248c0.50759,-6.05354 2.12709,-13.88196 8.00679,-17.29974c2.97221,-1.72772 6.81561,-2.72181 10.83167,-3.17534c2.76453,-0.65475 5.61042,-0.98618 8.30641,-1.11589c2.47114,-0.1189 5.27934,-2.37633 7.88413,-1.9687c8.81849,1.38005 23.04461,11.13128 25.96808,19.69004c0.18483,0.5411 0.34672,1.05501 0.48834,1.54727c0.12321,-0.05765 0.2573,-0.1101 0.40316,-0.15648c2.38246,-0.7576 3.14003,1.62486 3.14003,1.62486l0.97418,3.06551c1.27618,4.72037 3.25499,10.81741 2.34836,15.74572c-0.45484,2.47244 -2.41443,4.15995 -3.53636,6.17296c0.16061,1.54075 -0.12541,2.95434 -0.74305,4.21503c0.15006,1.24029 0.50687,2.52979 0.84367,3.78659c0.18106,0.17501 0.27959,0.31026 0.27959,0.31026c1.27676,1.77607 2.06358,3.85744 3.08426,5.79206c0.31683,0.60053 0.67344,1.1875 1.03309,1.77383c0.04765,-3.62442 -0.76682,-7.35755 0.58283,-10.86479c0.20187,-0.5246 0.41532,-0.98034 0.64274,-1.38875c-1.26837,-0.65853 -1.2462,-2.25619 -1.2462,-2.25619l0.01345,-0.96889c-0.16835,-0.49567 -0.31231,-1.01101 -0.43003,-1.54685l-0.03481,-0.99087c0,0 0.01707,-1.23015 0.89019,-1.95256c0.94418,-5.53823 3.3432,-10.80898 6.16322,-15.65431c0.68004,-1.16842 0.95267,-2.72658 1.71785,-3.8024c0.24962,-1.26301 0.63359,-2.61731 1.22539,-4.20451c3.15978,-8.47435 17.65095,-17.82716 26.50434,-18.96203c2.61509,-0.33521 5.35958,1.99926 7.82647,2.18667c2.69134,0.20445 5.52695,0.6147 8.27225,1.3459c4.00194,0.56476 7.81627,1.66512 10.73941,3.47462c5.78262,3.5796 7.1843,11.4499 7.52376,17.51521c0.20783,3.71343 0.626,7.39765 0.75668,11.04612c0.00409,0.00004 0.00818,0.0001 0.01227,0.00015c1.38058,0.01915 2.48423,1.15387 2.46508,2.53445l-0.05549,3.99961l-0.06885,-0.00095l0.0601,0.17807c-0.47495,3.05815 -0.86138,5.86108 -1.04559,8.82307c2.26218,3.7012 4.09494,6.80348 3.24674,11.83769c-0.86489,5.13336 -3.85403,7.66405 -1.0096,12.39548l0.31064,3.29087c0,0 -0.03468,2.49975 -2.53444,2.46507c-2.49975,-0.03468 -2.46507,-2.53444 -2.46507,-2.53444l0.36614,-0.70875c-1.41443,-2.49591 -2.28132,-3.28171 -2.26883,-6.31831c0.01907,-4.63563 3.98211,-8.93834 2.78235,-13.7954c-0.09439,-0.38217 -0.27125,-0.79433 -0.5023,-1.22309c-0.17468,0.02908 -0.36495,0.04362 -0.57212,0.04074c-0.62781,-0.00871 -1.09575,-0.17291 -1.44453,-0.41395c-0.71711,2.2694 -2.06341,4.25594 -3.83172,5.75814c0.48713,2.81563 1.04596,5.61711 1.03562,8.55108c-0.00851,2.41592 -0.32198,4.68531 -0.84594,6.90016c2.83817,1.76161 4.94697,4.59408 5.6143,8.24415c0.30374,1.66135 -0.02128,3.13848 -0.40733,4.60285c0.75998,3.89346 1.16225,7.89655 2.1601,11.72766c0.2884,1.10726 0.88399,2.14288 1.01263,3.27982c0.61187,5.40741 -2.35731,9.92051 -3.19711,15.16302c-0.55342,3.45476 0.10371,7.33689 -0.13446,10.81825c-0.40511,5.92195 -2.04465,11.99758 -3.29299,17.82179l0.03455,1.01029c0,0 -0.02468,1.779 -1.53318,2.31463c1.23868,2.97654 0.96143,5.91485 1.30121,9.27552l-1.96899,2.8807c0,0 -1.52761,1.97899 -3.50661,0.4514c-1.979,-1.5276 -0.4514,-3.50661 -0.4514,-3.50661l1.08623,-1.07729c-0.54296,-2.25441 -0.01316,-4.9074 -1.44142,-6.88362c-1.81054,-2.50513 -4.64108,-4.13542 -6.79194,-6.40769c-0.2308,2.38312 0.27841,4.85939 0.24493,7.27216c-0.02312,1.66651 -0.00882,3.33395 -0.06936,4.99952c-0.02004,0.55154 -0.4057,1.14664 -0.17218,1.64669c0.20641,0.44201 3.45895,3.72563 3.86006,4.13726l0.98603,1.01377c0,0 1.74306,1.79212 -0.04904,3.53519c-1.79212,1.74306 -3.5352,-0.04905 -3.5352,-0.04905l-0.98603,-1.01377c-1.49356,-1.5383 -4.24873,-4.20751 -5.00035,-5.98665c-0.43513,-1.02999 -0.09834,-2.23469 -0.10282,-3.35281c-0.01745,-4.35502 -0.80608,-11.05088 0.31846,-15.2215c0.27403,-1.01626 1.00841,-1.82424 1.67403,-2.66617c-0.10835,-1.02509 -0.0515,-2.11256 0.1345,-3.22431c-2.03687,0.78207 -4.12596,1.40148 -6.25108,1.89753c0.08913,2.21146 0.33051,4.35392 0.31175,5.66026c-0.10848,7.55263 0.67332,15.13196 2.13714,22.5319c0.91781,4.63975 2.76018,7.99351 3.07232,12.73453l-3.79891,2.07793c0,0 -2.33384,0.89617 -3.23004,-1.43767c-0.89619,-2.33385 1.43767,-3.23004 1.43767,-3.23004l1.22834,0.14749c-1.72284,-1.14282 -2.6335,-3.65982 -3.1661,-6.28565c-0.95397,0.98693 -2.32429,1.65712 -3.30577,2.64171c-1.94335,1.94953 -2.73788,3.32601 -4.27759,5.5725l-2.98745,1.80804c0,0 -2.02999,0.98003 -3.16536,-0.84871c-0.6566,3.29816 -0.50459,6.67815 -0.11455,10.16759c0.3232,1.77977 0.47439,3.59851 0.45731,5.40732l-0.01388,0.9999c0,0 -0.03467,2.49976 -2.53444,2.46507zM266.64405,258.97389c0.54627,-1.65794 0.96385,-3.37887 1.76085,-4.93191c0.70976,-1.38303 2.81599,-2.21446 2.74859,-3.76752c-0.06874,-1.58417 -1.48603,-2.83833 -1.8546,-4.38055c-0.10553,-0.44154 -0.15692,-0.89296 -0.19556,-1.34673c-0.77577,1.83661 -1.53748,3.58303 -1.80222,3.99238c-0.79371,1.22725 -2.23782,1.97348 -2.93333,3.25894c-2.0144,3.72299 -1.48081,10.80061 1.10569,14.31437c0.03907,-2.34919 0.35596,-4.66656 1.17059,-7.13901zM274.14675,244.66984c0.3681,1.59165 2.062,4.13928 2.00627,5.67398c-0.08492,2.33869 -2.30595,4.07403 -3.38955,6.14828c-0.26773,0.5125 -0.50725,1.0267 -0.72086,1.54272l0.92499,-0.12122c1.54395,-2.24314 2.87384,-4.41009 4.888,-6.30149c0.91253,-0.85691 2.26203,-1.2312 3.028,-2.22129c0.29977,-0.38749 0.01647,-1.01024 -0.18118,-1.45853c-1.21977,-2.76635 -2.81148,-4.15086 -3.37221,-7.1003c-1.18678,-6.24241 0.16792,-12.75203 1.09958,-19.12538c-1.88495,0.21156 -3.78128,0.3688 -5.67871,0.49676c1.29426,2.98363 2.22144,6.09867 1.63483,9.01456c-0.42878,2.13135 -1.22953,3.99719 -2.0854,5.87412c0.66096,2.5317 1.24616,4.98298 1.84625,7.57781zM282.35258,238.32913c-0.04678,-0.30982 -0.08956,-0.62108 -0.12856,-0.9336c-0.07372,0.8595 -0.12188,1.71671 0.02862,2.55916c0.15656,0.87634 0.50337,1.69558 0.92676,2.48914c-0.29904,-1.36753 -0.61805,-2.7323 -0.8268,-4.11469zM307.20289,211.14626c0.05906,-0.91933 0.06351,-1.85905 0.04623,-2.80838c-1.10612,1.47239 -2.45396,2.87856 -4.09916,4.23138c0.21723,1.00526 -0.35334,1.92697 -0.35334,1.92697c-1.63177,2.63219 -2.9585,5.41977 -4.57422,8.05738c1.18885,2.37542 3.70351,3.93064 5.79303,5.66325c1.19584,-5.56788 2.82387,-11.41117 3.18746,-17.07059zM185.83323,241.13975c-0.77126,-3.59958 -3.02967,-5.88088 -4.26568,-9.20835c-1.08881,-2.93121 -0.35016,-3.58661 -0.56365,-6.66361c-0.14219,-2.0494 -0.33586,-3.89628 -0.33652,-5.7078c-1.40231,-1.0875 -2.82434,-2.22715 -4.17937,-3.42486c0.62465,2.84286 1.32904,5.63716 1.94205,8.24788c0.29091,1.23892 1.79002,5.14259 1.95521,6.22989c0.58211,3.8314 -1.39184,9.04226 0.94552,12.53855c0.57277,0.85676 4.16166,3.67199 4.36636,3.94764c0.10823,0.14574 0.20373,0.29872 0.2896,0.45712c0.2848,-2.18616 0.28666,-4.36209 -0.15352,-6.4165zM185.98593,224.84418c0.0891,1.28429 -0.32493,3.87313 0.26979,5.34911c0.83283,2.06692 1.93034,3.77563 2.86767,5.61687c-0.07195,-0.61578 -0.14279,-1.21802 -0.22282,-1.79603c-0.33477,-2.41788 -0.58673,-5.05787 -0.72074,-7.7565c-0.23391,-0.147 -0.44162,-0.33161 -0.61476,-0.54524l-1.67731,-2.04213c0.03655,0.38542 0.07057,0.77632 0.09815,1.17392zM192.77867,245.86558c2.24081,0.70069 -0.5675,-0.11768 -1.60189,-1.76944c0.02038,1.08139 -0.03396,2.17229 -0.14974,3.26451zM171.21013,187.25703c-0.04233,-0.10515 -0.08479,-0.2105 -0.12718,-0.31602c0.00172,0.13236 0.00352,0.26468 0.00543,0.39701c0.03848,-0.02687 0.07911,-0.05399 0.12175,-0.08099zM253.43383,257.69643c1.07491,-1.52444 0.33361,-4.90765 0.21316,-6.45853c-0.03123,-0.40204 -0.05637,-0.82067 -0.0757,-1.25091c-0.25558,0.29665 -0.46881,0.6225 -0.61958,0.99175c-0.6953,1.70284 0.42547,3.71316 0.06865,5.51754c-0.13243,0.66966 -0.42121,1.29305 -0.71464,1.91507c0.41811,-0.19503 0.87383,-0.35428 1.12812,-0.71492zM261.87661,232.84653c0.06775,3.01808 -2.83081,6.76041 -3.13343,10.0014c-0.24422,2.61554 0.18213,5.68545 0.34796,8.70829c0.23268,-0.7165 0.51099,-1.4048 0.83597,-2.0556c0.72004,-1.44201 2.28036,-2.30866 3.1632,-3.65716c1.60571,-2.45262 2.26903,-5.40621 3.42975,-8.09812c0.26191,-0.60742 0.52545,-1.18283 0.78425,-1.74422c-1.16204,-4.55749 -2.54296,-9.26115 -4.29713,-13.2701c-0.40318,0.02184 -0.80558,0.04431 -1.20711,0.06769c-1.28715,1.4712 -2.08332,3.45906 -2.58225,5.6186c0.89188,1.49983 2.65491,4.25589 2.6588,4.42921zM218.94036,238.26742c0.79975,-2.16865 -0.60352,-4.58475 -1.00523,-6.86101c-0.34014,-1.92737 -0.58936,-3.87649 -0.735,-5.8323c-2.1767,-0.2458 -4.35546,-0.46775 -6.55162,-0.59102c0.16809,1.62883 0.55323,3.21475 1.38807,4.6158c1.03132,1.73078 3.4823,2.31941 4.45687,4.08275c1.5627,2.82751 0.67511,4.56202 0.06523,7.35496l-0.01553,0.02097c0.89116,-0.87756 1.97575,-1.6473 2.39721,-2.79018zM222.85884,230.53634c0.26069,1.47327 1.14671,5.61197 1.00874,8.13129c0.44944,-0.77457 0.84433,-1.56683 1.00857,-2.43696c0.5941,-3.14743 -0.20594,-6.73599 -0.72153,-9.88164c-0.63271,-0.06123 -1.26423,-0.12709 -1.89494,-0.19582c0.13901,1.46944 0.34258,2.93312 0.59915,4.38314zM220.10239,244.35624c-0.36819,1.1031 -0.3933,2.26796 -0.36371,3.44538c0.68035,-2.07649 1.56237,-4.13486 2.35627,-5.8643c-0.80646,0.72893 -1.66271,1.43071 -1.99255,2.41894zM253.45353,234.64145c0.13403,-1.53097 0.31911,-3.37933 0.61679,-5.28709c-0.83127,-1.96614 -1.31874,-3.80201 -1.5276,-5.62765c-0.54879,0.08811 -1.09799,0.18106 -1.64749,0.27758c0.20425,1.45265 0.43822,2.9275 0.66909,4.44925c0.25951,1.71061 0.64468,3.4071 0.77503,5.13236c0.04897,0.64821 -0.76867,2.22858 -0.18551,1.94133c0.44116,-0.21731 0.86541,-0.46631 1.28727,-0.71984c0.00417,-0.06345 0.00835,-0.11901 0.01244,-0.16593zM175.25237,206.43985c0,0 0.00398,-0.28753 0.10678,-0.66619c-0.16388,-0.05861 -0.33624,-0.13628 -0.50426,-0.23918c0.02511,0.43302 0.05747,0.86901 0.0964,1.30742c0.10882,0.12723 0.22173,0.25187 0.33714,0.37494c-0.01721,-0.24705 -0.02922,-0.50553 -0.03604,-0.77699zM235.4076,111.32935c0.2082,0.52782 0.40687,1.05487 0.59575,1.58033c-0.17549,-0.77387 -0.37389,-1.54413 -0.57936,-2.29752c-0.00565,0.23402 -0.0112,0.47287 -0.01637,0.71719zM257.95353,138.56824c-0.34184,-0.07208 -0.68375,-0.14867 -1.02513,-0.22998c0.20581,8.37427 0.51821,16.76114 -0.84015,25.0344c-0.34302,2.08917 -0.54996,4.15164 -0.6801,6.21259c2.83274,-0.48502 5.72664,-0.62961 8.58276,-0.95897c-0.09507,-0.95264 -0.18593,-1.90545 -0.26098,-2.85877c-0.57832,-7.34596 -1.05924,-15.20726 -2.96919,-22.36487c-0.44683,-1.67453 -1.2224,-3.23604 -1.9535,-4.81448c-0.2849,-0.00803 -0.56949,-0.01469 -0.85373,-0.01989zM243.2661,169.87986c-2.49975,-0.03468 -2.46507,-2.53444 -2.46507,-2.53444l0.04103,-1.14599c-0.53671,-4.22585 -0.33819,-8.63568 -0.61575,-12.93085c-0.124,0.36188 -0.23314,0.72372 -0.3001,1.08485c-0.61997,3.34344 -1.04269,6.56842 -1.08337,9.96454l-0.00694,0.49995c0,0 -0.00458,0.32986 -0.13022,0.74827c0.114,0.42174 0.10941,0.75158 0.10941,0.75158c-0.0329,2.37168 -0.12385,4.70267 -0.28415,7.02498c0.65994,0.01282 1.32197,0.01322 1.98652,-0.00068c3.1575,-0.06598 6.52318,-1.3658 9.78739,-2.43605c0.27304,-4.44925 1.15025,-8.60368 1.63641,-13.09292c0.74804,-6.90752 0.27624,-14.02853 0.01853,-21.06635c-1.61217,-0.67539 -3.13575,-1.5018 -4.49457,-2.51122c-1.18002,3.80391 0.3003,8.23018 -0.40432,12.09515c-0.25793,1.4148 -1.62051,4.53171 -2.22995,5.99766l0.18474,-0.42596c0,0 -0.00542,0.39041 -0.16627,0.86054c0.23635,1.14225 0.517,2.27905 0.59814,3.43967c0.2232,3.19282 -0.06493,6.15459 0.35359,9.35845l-0.00059,1.85373c0,0 -0.03468,2.49975 -2.53444,2.46507zM239.01468,146.75171c-0.01744,-0.032 -0.03509,-0.06392 -0.05297,-0.09576c-0.0073,0.02372 -0.01499,0.04752 -0.02307,0.07136c0.02546,0.00766 0.0508,0.0158 0.07604,0.0244zM233.81557,166.2484c0,0 0.00458,-0.32986 0.13022,-0.74827c-0.114,-0.42174 -0.10941,-0.75158 -0.10941,-0.75158l0.00694,-0.49995c0.05572,-3.5757 0.20435,-7.53878 1.20776,-11.00569c0.22541,-0.77879 0.99334,-1.36348 1.10566,-2.1664c0.03671,-0.26248 -0.53982,-0.00477 -0.78952,-0.0936c-0.74652,-0.26555 -1.5877,-0.40844 -2.3316,-0.69746c-0.24761,0.40617 -0.48725,0.81627 -0.65145,1.25301c-1.50867,4.01261 -1.4889,8.94425 -1.54752,13.16846l-0.0208,1.49986c0,0 -0.03468,2.49975 -2.53444,2.46507c-2.49975,-0.03468 -2.46508,-2.53445 -2.46508,-2.53445l0.02082,-1.49985c0.06599,-4.7566 0.11275,-10.27559 1.84062,-14.78723c0.34296,-0.8955 1.1693,-1.57587 1.42165,-2.50102c0.17033,-0.62452 -0.0157,-1.21989 -0.33023,-1.80964c-0.3416,0.29736 -0.76448,0.50326 -1.23012,0.58024l-2.46116,0.45682l-0.01613,-0.08689l-0.20757,0.109c-0.05285,1.14173 -0.14314,2.28823 -0.34833,3.42864c-0.67337,3.74233 -1.75984,7.39021 -2.60443,11.09822c0.13183,0.03565 0.26866,0.08236 0.41058,0.14143c2.30809,0.96059 1.34751,3.26867 1.34751,3.26867c-0.90763,2.15881 -1.64577,4.46727 -2.28301,6.82602c4.07898,0.56768 8.101,1.27217 12.16449,1.67266c0.15526,-2.24208 0.24272,-4.4927 0.27453,-6.78611zM178.59166,165.68612c1.69251,-0.95919 3.62948,-1.53447 5.69093,-1.60915c-0.3425,-3.27817 -0.6143,-6.60366 -0.6628,-9.88855c-0.28821,0.76501 -0.63279,1.49131 -1.04524,2.16251c-0.18193,0.2961 -3.96744,3.95215 -4.42023,4.39255l0.72894,0.24238c0,0 -0.03468,2.49975 -2.53444,2.46507c-1.03782,-0.01439 -1.6388,-0.45369 -1.98678,-0.96259c-0.03275,2.40014 -0.06233,4.80039 -0.09751,7.20051c1.08117,-2.02513 2.54412,-3.54727 4.32709,-4.00271zM302.99056,150.7127c0.00582,-2.06353 -0.26743,-4.07134 -0.59896,-6.06918c-0.08746,0.02567 -0.17533,0.05042 -0.26358,0.07424c-2.08172,0.92883 -4.39256,1.61995 -6.79942,2.10408c-0.75446,3.81669 -1.79418,7.55531 -2.54659,11.35182c0.92929,-1.07535 2.22354,-1.96572 4.24147,-2.34027c1.83865,-0.34127 3.67503,-0.33351 5.41307,-0.01084c0.34585,-1.6414 0.54897,-3.32729 0.55399,-5.10985zM272.06691,161.0468c1.0257,2.07881 3.16663,3.38959 4.65137,5.16978l0.31304,0.318c0.95295,-0.11913 1.91752,-0.24115 2.86955,-0.3705c0.93854,-6.15735 0.98253,-12.65202 0.0136,-18.77079c-1.72714,-0.20222 -3.33975,-0.49076 -4.77434,-0.85102c-3.11048,4.4911 -5.586,9.41171 -3.07323,14.50451zM285.00796,147.72215c0.78822,5.78088 0.78025,11.77488 0.04794,17.58821c0.64887,-0.13818 1.26069,-0.28641 1.82333,-0.44692c0.34524,-5.9307 1.94224,-11.55138 3.18531,-17.30916c-1.6995,0.13981 -3.39937,0.19246 -5.05658,0.16787zM268.71452,165.37508c0.06268,0.7961 0.13493,1.59123 0.21098,2.3858c0.5851,-0.13902 1.24981,-0.26769 1.97411,-0.38976c-0.77918,-0.74918 -1.55832,-1.49705 -2.21116,-2.32812c0.00867,0.11081 0.01736,0.22151 0.02608,0.3321zM265.82621,143.04104c0.64191,2.57758 1.12039,5.2318 1.49664,7.91369c0.77893,-2.06675 1.90595,-4.04776 3.23096,-5.91177c-1.56326,-0.57928 -3.36795,-1.30249 -4.72759,-2.00189zM178.3582,153.66353c1.93024,-3.08212 1.74707,-8.18746 1.78804,-11.61849c-0.70582,-0.38805 -1.36986,-0.84219 -1.98388,-1.35396c-0.33119,0.35133 -0.63898,0.72249 -0.91133,1.12374c-2.82677,4.16458 -1.91997,9.68877 -2.03297,14.84543c1.10898,-0.94972 2.37168,-1.76966 3.14014,-2.9967zM189.33112,158.89882c0.14768,2.05165 0.2935,4.10312 0.44232,6.15425c0.84331,0.23046 1.64139,0.5532 2.34431,1.06999c0.20139,0.14805 0.54408,0.61059 0.90722,1.08041c0.16561,0.14656 0.32729,0.29741 0.48491,0.45244l0.53193,-1.50391c2.67465,-3.79414 -0.68545,-9.30957 -1.02933,-13.76476c-0.19335,-2.50483 0.55271,-4.37306 1.68618,-6.14142c-1.83013,-0.1961 -3.65855,-0.49345 -5.43075,-0.90301c-0.64206,4.37135 -0.26743,8.96267 0.06323,13.55602zM197.94104,150.41655c-1.54817,4.60084 3.19284,10.11716 2.3413,14.83292c-0.20786,1.15112 -1.15159,2.03642 -1.72738,3.05463l-0.29195,0.85111c0.90674,0.13863 1.82107,0.26014 2.7408,0.36849c3.07775,-7.4202 2.51299,-15.4851 4.10004,-23.21221c-1.43556,0.14095 -2.95333,0.21986 -4.5158,0.22914c-1.0468,1.20652 -2.14671,2.38914 -2.647,3.87592zM214.35228,159.96809c-0.76385,3.47209 -0.54785,6.94541 -0.5972,10.50243l-0.00128,0.09284c0.8823,0.06773 1.76032,0.13998 2.63215,0.22025c0.28123,-1.07548 0.5797,-2.14421 0.90087,-3.19895c-0.98132,-0.72972 -0.96259,-2.07898 -0.96259,-2.07898l0.06745,-2.4103c0.8524,-4.70763 2.33853,-9.2593 3.19372,-13.95583c0.19607,-1.07673 0.31536,-2.1207 0.40003,-3.14043c-1.43146,-0.2562 -2.86397,-0.49726 -4.38366,-0.50538c0,0 -0.37111,-0.00516 -0.82537,-0.15447c0.93349,3.81487 0.96733,7.69985 -0.49036,11.99402c-0.07839,0.23091 -0.16617,0.45801 -0.26105,0.68222c0.55795,0.87719 0.32733,1.95259 0.32733,1.95259zM207.92727,164.52164c-0.4604,1.86631 -1.04313,3.71627 -1.73078,5.49689c0.85335,0.06683 1.70779,0.1288 2.56161,0.189c0.02218,-1.81105 0.00447,-3.5831 0.06202,-5.34463c-0.35981,-0.06229 -0.65336,-0.18389 -0.89285,-0.34125zM210.59894,147.80952c-0.03463,-0.52353 -0.16116,-1.09953 -0.34799,-1.70149c-0.74079,3.1474 -0.84468,6.25373 -1.05159,9.4823c0.91701,-2.39782 1.59459,-4.83262 1.39959,-7.78081zM228.36039,137.7329c-0.20869,0.05366 -0.41946,0.10206 -0.63217,0.14505c0.16421,0.0762 0.31868,0.16966 0.46113,0.27806c0.05596,-0.14075 0.11307,-0.28188 0.17104,-0.4231z" fill="#000000" stroke-width="0.5"/><path d="M259.2915,114.0968c0.17047,-12.28715 10.26937,-22.10966 22.55653,-21.93919c12.28716,0.17048 22.10967,10.26938 21.9392,22.55652c-0.17047,12.28715 -10.26938,22.10967 -22.55653,21.93919c-12.28715,-0.17047 -22.10966,-10.26937 -21.93919,-22.55653z" fill="#ffffff" stroke-width="0.5"/><path d="M181.77815,114.52154c0.17047,-12.28715 10.26938,-22.10967 22.55653,-21.93919c12.28715,0.17047 22.10968,10.26938 21.93921,22.55653c-0.17047,12.28715 -10.26937,22.10966 -22.55653,21.93919c-12.28715,-0.17047 -22.10966,-10.26937 -21.93919,-22.55653z" fill="#ffffff" stroke-width="0.5"/><path d="M180.85454,109.00819c0.18197,-13.1155 10.96168,-23.6002 24.07718,-23.41823c13.1155,0.18197 23.6002,10.96168 23.41824,24.07719c-0.18196,13.11551 -10.96169,23.6002 -24.07719,23.41825c-13.1155,-0.18197 -23.6002,-10.96169 -23.41823,-24.07718z" fill="#000000" stroke-width="0.5"/><path d="M257.36106,109.06955c0.18197,-13.1155 10.96169,-23.6002 24.07719,-23.41825c13.1155,0.18197 23.6002,10.96169 23.41825,24.07719c-0.18196,13.11551 -10.96169,23.6002 -24.07719,23.41824c-13.11551,-0.18196 -23.60022,-10.96169 -23.41824,-24.07719z" fill="#000000" stroke-width="0.5"/><path d="M166.48186,171.81485c0.07087,-5.10814 4.26929,-9.19166 9.37744,-9.12079c4.33422,0.06013 7.93077,3.09185 8.8778,7.12949c0.95209,-0.3145 1.97193,-0.47834 3.03088,-0.46366c3.52437,0.04889 6.56096,2.06264 8.0819,4.98436c1.42201,-0.85023 3.09004,-1.32902 4.86831,-1.30435c3.19118,0.04428 5.98247,1.69945 7.61078,4.18096c1.30173,-0.66824 2.78138,-1.0365 4.34644,-1.01478c3.05192,0.04234 5.73809,1.55807 7.39102,3.86088c1.64205,-1.38406 3.77097,-2.20587 6.08687,-2.17374c3.19919,0.04438 5.99647,1.70776 7.62301,4.19964c1.72202,-2.16236 4.39073,-3.53292 7.36861,-3.49161c2.97114,0.04122 5.59564,1.47885 7.25761,3.67968c1.34343,-3.52831 4.7814,-6.0129 8.77553,-5.95748c4.15012,0.05758 7.62389,2.83964 8.74292,6.62056c0.67344,-4.50787 4.59237,-7.9357 9.27615,-7.87071c2.97895,0.04133 5.60946,1.48643 7.27072,3.69708c0.63131,-4.55562 4.5728,-8.0332 9.29012,-7.96775c0.25333,0.00351 0.50416,0.01718 0.75207,0.0406c0.18623,-5.00498 4.33716,-8.97086 9.37183,-8.90102c5.10816,0.07087 9.19166,4.26929 9.12078,9.37743c-0.07087,5.10814 -4.26928,9.19166 -9.37743,9.12078c-0.25333,-0.00351 -0.50415,-0.01719 -0.75207,-0.04062c-0.18623,5.00498 -4.33716,8.97086 -9.37183,8.90102c-2.97895,-0.04133 -5.60944,-1.48643 -7.27071,-3.69709c-0.63131,4.55562 -4.57279,8.03319 -9.29013,7.96775c-4.15012,-0.05758 -7.62389,-2.83966 -8.74291,-6.62057c-0.67344,4.50787 -4.59237,7.93571 -9.27615,7.87072c-2.97113,-0.04122 -5.59564,-1.47885 -7.25761,-3.67969c-1.34343,3.52833 -4.78138,6.0129 -8.77553,5.95749c-3.19919,-0.04438 -5.99648,-1.70777 -7.62299,-4.19965c-1.72203,2.16236 -4.39074,3.53292 -7.36862,3.49161c-3.05192,-0.04234 -5.73809,-1.55807 -7.39102,-3.86088c-1.64205,1.38407 -3.77096,2.20587 -6.08686,2.17373c-3.19118,-0.04428 -5.98249,-1.69946 -7.61079,-4.18097c-1.30173,0.66824 -2.78138,1.03651 -4.34645,1.0148c-3.52437,-0.04889 -6.56097,-2.06264 -8.08191,-4.98437c-1.42201,0.85023 -3.09003,1.32904 -4.8683,1.30436c-4.33422,-0.06013 -7.93077,-3.09185 -8.87779,-7.1295c-0.95209,0.3145 -1.97195,0.47835 -3.03088,0.46366c-5.10814,-0.07087 -9.19166,-4.26929 -9.12079,-9.37744z" fill="#ffffff" stroke-width="0.5"/><path d="M295.87604,198.36243c5.10814,0.07087 9.19166,4.26929 9.12078,9.37743c-0.07087,5.10814 -4.26929,9.19166 -9.37742,9.1208c-2.44988,-0.03399 -4.66408,-1.0174 -6.29732,-2.59523c-0.66958,4.51229 -4.59061,7.9447 -9.27749,7.87968c-3.28223,-0.04555 -6.14144,-1.79522 -7.7473,-4.39539c0.03328,0.34108 0.048,0.6875 0.04314,1.03819c-0.07087,5.10814 -4.26929,9.19166 -9.37744,9.12079c-5.10814,-0.07087 -9.19166,-4.26929 -9.12078,-9.37743c0.07087,-5.10814 4.26929,-9.19166 9.37743,-9.12078c3.28223,0.04555 6.14143,1.79522 7.7473,4.39539c-0.03328,-0.34108 -0.048,-0.6875 -0.04313,-1.03819c0.07087,-5.10814 4.26929,-9.19166 9.37743,-9.12078c2.44988,0.03399 4.66408,1.0174 6.29732,2.59523c0.66958,-4.51229 4.59061,-7.9447 9.27749,-7.87968z" fill="#ffffff" stroke-width="0.5"/><path d="M171.98188,207.89462c0.07087,-5.10814 4.26929,-9.19166 9.37743,-9.12078c4.07128,0.05648 7.49168,2.73495 8.67662,6.40619c1.14926,-0.48895 2.41677,-0.75176 3.74588,-0.73332c4.63597,0.06432 8.42798,3.52839 9.03643,7.98677c1.66973,-2.59548 4.6002,-4.29723 7.91339,-4.25126c4.29783,0.05963 7.87031,3.04114 8.85338,7.02801c1.70844,-2.33918 4.48658,-3.84264 7.60341,-3.7994c4.05531,0.05626 7.46482,2.71396 8.66256,6.36303c1.29851,-3.61443 4.78045,-6.17651 8.83575,-6.12026c5.10814,0.07087 9.19166,4.26929 9.1208,9.37743c-0.07087,5.10814 -4.26929,9.19166 -9.37743,9.1208c-4.05531,-0.05626 -7.46482,-2.71396 -8.66256,-6.36304c-1.29851,3.61443 -4.78045,6.17651 -8.83575,6.12026c-4.29783,-0.05963 -7.87031,-3.04114 -8.85338,-7.028c-1.70844,2.33918 -4.48658,3.84264 -7.60341,3.7994c-4.63597,-0.06432 -8.42798,-3.52839 -9.03642,-7.98678c-1.66973,2.59548 -4.6002,4.29723 -7.91338,4.25128c-4.07128,-0.05648 -7.49167,-2.73494 -8.67661,-6.40619c-1.14926,0.48895 -2.41677,0.75174 -3.74589,0.73332c-5.10814,-0.07087 -9.19166,-4.26929 -9.1208,-9.37742z" fill="#ffffff" stroke-width="0.5"/></g><path d="M251.69886,219.49305c-1.71794,-4.8111 0.78956,-10.10396 5.60068,-11.82191c4.8111,-1.71794 10.10396,0.78956 11.82191,5.60068c1.71794,4.8111 -0.78956,10.10396 -5.60068,11.82191c-4.8111,1.71794 -10.10396,-0.78956 -11.82191,-5.60068z" fill="#ffffff" stroke-width="0.5"/></g></g></g></svg>